<?xml version="1.0" encoding="us-ascii" standalone="no"?><svg xmlns="http://www.w3.org/2000/svg" xmlns:xlink="http://www.w3.org/1999/xlink" contentStyleType="text/css" height="745px" preserveAspectRatio="none" style="width:1722px;height:745px;background:#FFFFFF;" version="1.1" viewBox="0 0 1722 745" width="1722px" zoomAndPan="magnify"><defs/><g><text fill="#000000" font-family="Arial" font-size="14" font-weight="bold" lengthAdjust="spacing" textLength="181" x="763.5" y="22.6738">Capas l&#243;gicas del sistema</text><!--cluster P--><g id="cluster_P"><rect fill="#DCE8F5" height="132" rx="2.5" ry="2.5" style="stroke:#2D6A9F;stroke-width:1.5;" width="572" x="919" y="43.6406"/><text fill="#000000" font-family="Arial" font-size="11" font-style="italic" lengthAdjust="spacing" textLength="76" x="1167" y="55.5986">&#171;presentacion&#187;</text><text fill="#000000" font-family="Arial" font-size="11" font-weight="bold" lengthAdjust="spacing" textLength="120" x="1145" y="67.8877">Capa de Presentaci&#243;n</text><text fill="#000000" font-family="Arial" font-size="11" font-style="italic" font-weight="bold" lengthAdjust="spacing" textLength="235" x="1087.5" y="80.1768">RSC pages &#183; Client Components &#183; shadcn/ui</text></g><!--cluster A--><g id="cluster_A"><rect fill="#D5ECD4" height="308" rx="2.5" ry="2.5" style="stroke:#2E7D32;stroke-width:1.5;" width="534" x="7" y="237.6406"/><text fill="#000000" font-family="Arial" font-size="11" font-style="italic" lengthAdjust="spacing" textLength="63" x="242.5" y="249.5986">&#171;aplicacion&#187;</text><text fill="#000000" font-family="Arial" font-size="11" font-weight="bold" lengthAdjust="spacing" textLength="103" x="222.5" y="261.8877">Capa de Aplicaci&#243;n</text><text fill="#000000" font-family="Arial" font-size="11" font-style="italic" font-weight="bold" lengthAdjust="spacing" textLength="187" x="180.5" y="274.1768">Server Actions &#183; Zod &#183; Auth guards</text></g><!--cluster D--><g id="cluster_D"><rect fill="#FDE8CC" height="132" rx="2.5" ry="2.5" style="stroke:#C45E0A;stroke-width:1.5;" width="569" x="581" y="413.6406"/><text fill="#000000" font-family="Arial" font-size="11" font-style="italic" lengthAdjust="spacing" textLength="51" x="840" y="425.5986">&#171;dominio&#187;</text><text fill="#000000" font-family="Arial" font-size="11" font-weight="bold" lengthAdjust="spacing" textLength="145" x="793" y="437.8877">Capa de Dominio / Negocio</text><text fill="#000000" font-family="Arial" font-size="11" font-style="italic" font-weight="bold" lengthAdjust="spacing" textLength="247" x="742" y="450.1768">Queries &#183; Calendar utils &#183; Booking validation</text></g><!--cluster DB--><g id="cluster_DB"><rect fill="#F5F0D5" height="132" rx="2.5" ry="2.5" style="stroke:#9C8C10;stroke-width:1.5;" width="578" x="581" y="607.6406"/><text fill="#000000" font-family="Arial" font-size="11" font-style="italic" lengthAdjust="spacing" textLength="73" x="833.5" y="619.5986">&#171;persistencia&#187;</text><text fill="#000000" font-family="Arial" font-size="11" font-weight="bold" lengthAdjust="spacing" textLength="116" x="812" y="631.8877">Capa de Persistencia</text><text fill="#000000" font-family="Arial" font-size="11" font-style="italic" font-weight="bold" lengthAdjust="spacing" textLength="160" x="790" y="644.1768">Drizzle ORM &#183; PostgreSQL 16</text></g><!--cluster EXT--><g id="cluster_EXT"><rect fill="#EFEFEF" height="308" rx="2.5" ry="2.5" style="stroke:#888888;stroke-width:1.5;" width="526" x="1190" y="237.6406"/><text fill="#000000" font-family="Arial" font-size="11" font-style="italic" lengthAdjust="spacing" textLength="49" x="1428.5" y="249.5986">&#171;externo&#187;</text><text fill="#000000" font-family="Arial" font-size="11" font-weight="bold" lengthAdjust="spacing" textLength="104" x="1401" y="261.8877">Servicios externos</text><text fill="#000000" font-family="Arial" font-size="11" font-style="italic" font-weight="bold" lengthAdjust="spacing" textLength="123" x="1391.5" y="274.1768">Microsoft 365 &#183; Resend</text></g><!--entity P1--><g id="elem_P1"><rect fill="#DCE8F5" height="44.5781" rx="2.5" ry="2.5" style="stroke:#2D6A9F;stroke-width:1.5;" width="198" x="1269" y="106.6406"/><text fill="#000000" font-family="Arial" font-size="11" font-style="italic" lengthAdjust="spacing" textLength="76" x="1330" y="126.5986">&#171;presentacion&#187;</text><text fill="#000000" font-family="Arial" font-size="11" lengthAdjust="spacing" textLength="178" x="1279" y="138.8877">Server Components (layouts, pages)</text></g><!--entity P2--><g id="elem_P2"><rect fill="#DCE8F5" height="44.5781" rx="2.5" ry="2.5" style="stroke:#2D6A9F;stroke-width:1.5;" width="271" x="962.5" y="106.6406"/><text fill="#000000" font-family="Arial" font-size="11" font-style="italic" lengthAdjust="spacing" textLength="76" x="1060" y="126.5986">&#171;presentacion&#187;</text><text fill="#000000" font-family="Arial" font-size="11" lengthAdjust="spacing" textLength="251" x="972.5" y="138.8877">Client Components (calendarios, formularios, hooks)</text></g><!--entity A1--><g id="elem_A1"><rect fill="#D5ECD4" height="44.5781" rx="2.5" ry="2.5" style="stroke:#2E7D32;stroke-width:1.5;" width="169" x="31.5" y="300.6406"/><text fill="#000000" font-family="Arial" font-size="11" font-style="italic" lengthAdjust="spacing" textLength="63" x="84.5" y="320.5986">&#171;aplicacion&#187;</text><text fill="#000000" font-family="Arial" font-size="11" lengthAdjust="spacing" textLength="149" x="41.5" y="332.8877">actionClient + validaciones Zod</text></g><!--entity A2--><g id="elem_A2"><rect fill="#D5ECD4" height="44.5781" rx="2.5" ry="2.5" style="stroke:#2E7D32;stroke-width:1.5;" width="262" x="236" y="300.6406"/><text fill="#000000" font-family="Arial" font-size="11" font-style="italic" lengthAdjust="spacing" textLength="63" x="335.5" y="320.5986">&#171;aplicacion&#187;</text><text fill="#000000" font-family="Arial" font-size="11" lengthAdjust="spacing" textLength="242" x="246" y="332.8877">Guardas de rol (auth/helpers.ts, auth/authorize.ts)</text></g><!--entity A3--><g id="elem_A3"><rect fill="#D5ECD4" height="44.5781" rx="2.5" ry="2.5" style="stroke:#2E7D32;stroke-width:1.5;" width="188" x="31" y="476.6406"/><text fill="#000000" font-family="Arial" font-size="11" font-style="italic" lengthAdjust="spacing" textLength="63" x="93.5" y="496.5986">&#171;aplicacion&#187;</text><text fill="#000000" font-family="Arial" font-size="11" lengthAdjust="spacing" textLength="168" x="41" y="508.8877">Cach&#233; de configuraci&#243;n (config.ts)</text></g><!--entity D1--><g id="elem_D1"><rect fill="#FDE8CC" height="44.5781" rx="2.5" ry="2.5" style="stroke:#C45E0A;stroke-width:1.5;" width="161" x="964.5" y="476.6406"/><text fill="#000000" font-family="Arial" font-size="11" font-style="italic" lengthAdjust="spacing" textLength="51" x="1019.5" y="496.5986">&#171;dominio&#187;</text><text fill="#000000" font-family="Arial" font-size="11" lengthAdjust="spacing" textLength="141" x="974.5" y="508.8877">Queries Drizzle (lib/queries/*)</text></g><!--entity D2--><g id="elem_D2"><rect fill="#FDE8CC" height="44.5781" rx="2.5" ry="2.5" style="stroke:#C45E0A;stroke-width:1.5;" width="305" x="624.5" y="476.6406"/><text fill="#000000" font-family="Arial" font-size="11" font-style="italic" lengthAdjust="spacing" textLength="51" x="751.5" y="496.5986">&#171;dominio&#187;</text><text fill="#000000" font-family="Arial" font-size="11" lengthAdjust="spacing" textLength="285" x="634.5" y="508.8877">L&#243;gica de negocio (booking-validation, calendar-utils, audit)</text></g><!--entity DB1--><g id="elem_DB1"><rect fill="#F5F0D5" height="44.5781" rx="2.5" ry="2.5" style="stroke:#9C8C10;stroke-width:1.5;" width="290" x="845" y="670.6406"/><text fill="#000000" font-family="Arial" font-size="11" font-style="italic" lengthAdjust="spacing" textLength="73" x="953.5" y="690.5986">&#171;persistencia&#187;</text><text fill="#000000" font-family="Arial" font-size="11" lengthAdjust="spacing" textLength="270" x="855" y="702.8877">Drizzle ORM &#8212; schema.ts como fuente &#250;nica de verdad</text></g><!--entity DB2--><g id="elem_DB2"><rect fill="#F5F0D5" height="44.5781" rx="2.5" ry="2.5" style="stroke:#9C8C10;stroke-width:1.5;" width="186" x="624" y="670.6406"/><text fill="#000000" font-family="Arial" font-size="11" font-style="italic" lengthAdjust="spacing" textLength="73" x="680.5" y="690.5986">&#171;persistencia&#187;</text><text fill="#000000" font-family="Arial" font-size="11" lengthAdjust="spacing" textLength="166" x="634" y="702.8877">PostgreSQL 16 (Docker Compose)</text></g><!--entity EXT1--><g id="elem_EXT1"><rect fill="#EFEFEF" height="44.5781" rx="2.5" ry="2.5" style="stroke:#888888;stroke-width:1.5;" width="192" x="1233" y="300.6406"/><text fill="#000000" font-family="Arial" font-size="11" font-style="italic" lengthAdjust="spacing" textLength="49" x="1304.5" y="320.5986">&#171;externo&#187;</text><text fill="#000000" font-family="Arial" font-size="11" lengthAdjust="spacing" textLength="172" x="1243" y="332.8877">Microsoft Entra ID (OAuth 2.0/OIDC)</text></g><!--entity EXT2--><g id="elem_EXT2"><rect fill="#EFEFEF" height="44.5781" rx="2.5" ry="2.5" style="stroke:#888888;stroke-width:1.5;" width="232" x="1460" y="300.6406"/><text fill="#000000" font-family="Arial" font-size="11" font-style="italic" lengthAdjust="spacing" textLength="49" x="1551.5" y="320.5986">&#171;externo&#187;</text><text fill="#000000" font-family="Arial" font-size="11" lengthAdjust="spacing" textLength="212" x="1470" y="332.8877">Microsoft Graph API (OOO, Teams, Outlook)</text></g><!--entity EXT3--><g id="elem_EXT3"><rect fill="#EFEFEF" height="44.5781" rx="2.5" ry="2.5" style="stroke:#888888;stroke-width:1.5;" width="141" x="1258.5" y="476.6406"/><text fill="#000000" font-family="Arial" font-size="11" font-style="italic" lengthAdjust="spacing" textLength="49" x="1304.5" y="496.5986">&#171;externo&#187;</text><text fill="#000000" font-family="Arial" font-size="11" lengthAdjust="spacing" textLength="121" x="1268.5" y="508.8877">Resend (email visitantes)</text></g><!--link P to A--><g id="link_P_A"><path d="M918.9975,134.0386 C918.0576,134.4967 917.0403,134.9926 915.9485,135.5248 C913.7648,136.5892 911.2829,137.7989 908.5257,139.1428 C897.4968,144.5182 882.0633,152.0399 863.6934,160.9923 C826.9538,178.8972 778.4688,202.525 729.985,226.1519 C681.5013,249.7788 633.0188,273.4047 596.2841,291.3058 C577.9167,300.2563 562.4863,307.7757 551.4612,313.1483 C548.7049,314.4915 546.224,315.7005 544.0413,316.7641 C543.4956,317.03 542.9686,317.2868 542.4606,317.5344 C542.2066,317.6582 541.9573,317.7796 541.7128,317.8988 C541.5906,317.9583 546.8632,315.3889 546.7434,315.4473 " fill="none" id="P-to-A" style="stroke:#444444;stroke-width:1.2;"/><polygon fill="#444444" points="541.3497,318.0757,551.1925,317.7289,545.8444,315.8854,547.688,310.5374,541.3497,318.0757" style="stroke:#444444;stroke-width:1.2;"/><text fill="#000000" font-family="Arial" font-size="11" lengthAdjust="spacing" textLength="127" x="777" y="210.5986">llamadas a Server Actions</text></g><!--link A to D--><g id="link_A_D"><path d="M541.0643,349.1976 C541.1414,349.4371 541.2189,349.678 541.2968,349.9201 C541.6085,350.8885 541.9269,351.8775 542.2514,352.8858 C547.4441,369.0184 554.2281,390.0963 561.0113,411.1719 C567.7944,432.2475 574.5766,453.3209 579.7655,469.4448 C580.0898,470.4526 580.4079,471.441 580.7193,472.4089 C580.7972,472.6508 579.0366,467.18 579.1137,467.4194 " fill="none" id="A-to-D" style="stroke:#444444;stroke-width:1.2;"/><polygon fill="#444444" points="580.9517,473.1309,582.0023,463.3382,579.42,468.3713,574.387,465.7889,580.9517,473.1309" style="stroke:#444444;stroke-width:1.2;"/><text fill="#000000" font-family="Arial" font-size="11" lengthAdjust="spacing" textLength="106" x="553" y="386.5986">invocaci&#243;n de queries</text></g><!--link D to DB--><g id="link_D_DB"><path d="M589,546.1479 C589,551.1952 589,556.4983 589,561.9718 C589,572.9188 589,584.5475 589,596.1756 C589,599.0827 589,601.9896 589,604.8859 C589,605.61 589,606.3334 589,607.056 C589,607.2366 589,601.4172 589,601.5978 " fill="none" id="D-to-DB" style="stroke:#444444;stroke-width:1.2;"/><polygon fill="#444444" points="589,607.5978,593,598.5978,589,602.5978,585,598.5978,589,607.5978" style="stroke:#444444;stroke-width:1.2;"/><text fill="#000000" font-family="Arial" font-size="11" lengthAdjust="spacing" textLength="99" x="590" y="580.5986">Drizzle query builder</text></g><!--link A to EXT--><g id="link_A_EXT"><path d="M541.0206,323.1406 C541.3258,323.1406 541.6393,323.1406 541.9611,323.1406 C542.6045,323.1406 543.2808,323.1406 543.9895,323.1406 C549.6586,323.1406 557.3951,323.1406 566.9037,323.1406 C585.9208,323.1406 612.026,323.1406 642.8558,323.1406 C704.5153,323.1406 785.0731,323.1406 865.6212,323.1406 C946.1694,323.1406 1026.7078,323.1406 1088.3286,323.1406 C1119.139,323.1406 1145.22,323.1406 1164.208,323.1406 C1173.7021,323.1406 1181.4229,323.1406 1187.075,323.1406 C1187.7815,323.1406 1188.4557,323.1406 1189.097,323.1406 C1189.2573,323.1406 1183.4156,323.1406 1183.5718,323.1406 " fill="none" id="A-to-EXT" style="stroke:#444444;stroke-width:1.2;"/><polygon fill="#444444" points="1189.5718,323.1406,1180.5718,319.1406,1184.5718,323.1406,1180.5718,327.1406,1189.5718,323.1406" style="stroke:#444444;stroke-width:1.2;"/><text fill="#000000" font-family="Arial" font-size="11" lengthAdjust="spacing" textLength="97" x="817" y="317.0986">OAuth, Graph, email</text></g><!--link P to EXT--><g id="link_P_EXT"><path d="M936.5553,175.8599 C936.9069,176.6725 937.2714,177.4801 937.6493,178.2811 C938.4052,179.8831 939.2145,181.4585 940.0813,182.9948 C941.8147,186.0673 943.7775,188.9831 946,191.6406 C985.815,239.2656 1047.485,271.6231 1099.8513,292.2056 C1126.0344,302.4969 1149.8916,309.8444 1167.528,314.6847 C1176.3462,317.1048 1183.6092,318.8982 1188.8301,320.1193 C1189.1564,320.1957 1183.6296,318.9157 1183.9398,318.9876 " fill="none" id="P-to-EXT" style="stroke:#444444;stroke-width:1.2;"/><polygon fill="#444444" points="1189.785,320.3416,1181.9198,314.4138,1184.914,319.2133,1180.1145,322.2074,1189.785,320.3416" style="stroke:#444444;stroke-width:1.2;"/><text fill="#000000" font-family="Arial" font-size="11" lengthAdjust="spacing" textLength="62" x="962" y="210.5986">SSO redirect</text></g><!--SRC=[VLNDRXit4BxlKmoiYwBANgzikKuG692qIM0WYHJBXo3eXIQvAq8KgP2xJfCYG1-YBz5p3WLwhD-aJz8XkP9sLr9NW7uu7pz-yyqCPPT2hOaXAs0y8wKiNcjLl2Sh3YCZY8pieVXSVEEG9BMWuRGWAfTyh0tZvduXw59nQo4v6zPWn1ZzfHuSj8CJBRM1pgL_Qi47GfUvqQLY5UArVw936k2t263StF3ovTfmorL1gD3gvWOwZFBhREYGNl9X53wT0RiYpxD3b6Gj1Tr2Esp8ARjiCpP1WP7_p2u6XnYPNWabT8NiP8nVKzfcR88ya5uE-Javc3OtLjY2Aog8IpiRPkTiF-qcob4-fzSqEJz4oNyjk55RaJnphpPZ4-I1r_w9laTH8GeiquIiYGNvz2D7Womsc0GlOaMYQ5VCarxF0J4CisrnddweNkyN5STtymciISuj_FCNJAJ0C4pqQgqLVlEBTa4OLN4fulW4zWgCvyvylzGEd7Fpo4sTfYl9LrqMjX_EUdRYzoLxT4sUVJbTIYHNZ1YXaIlJPbNAwiT2w-M6UB1F_Fs89QEgkxQ6LE97jC2Dte1FchcFKLai82-9OJOuqMXCF7RKze5uZYgBd-2HIC4y7jr6KgzrbBIOcXHlt7c-jc2qX2v14V62IzTlPyvFl-3UjC5B1PU21QF1_z9E25qy_UbOgLQPo4iJB423_UyTpqMRvvYHQHWgYE4zppM2WvqVIcv4rLrLxQ0iXFGhOwoPK7dbZ3ChEBiRK9IGjctTKAQOyJTSw4hn47yEYt4lw4wJEarp_zimC4wq2bAX-n2KdEwKz67JQwTUhxEQYQAY7pJeZtaogzqAmOwDvkdTEsV0JDiYDtp-uIqaLzLyDMyITzYuxK2TvT_V_m1B5pZqM3Givqf3LcB3SNZwMrLfOaCp4lej7ITxXpJ96vgWcsgwt0opvLNwuy4-ITi4DqW2pRLGNMKsMF1EKAEjpWguk1ew4-xSeBAG_UxMmsDUVRnlPxxR_4eLXi1j2jsfdyp1sNaylKqdGI5kJUfqnrZU6B9Um6XsYpJJQH_kELbXgQTb8R4Zjbo3urn1FNIn04B2ex028yNcZiEz5uszwD8Cu9JfB-hq1gyCU05IaXLnGqwWUVb4enqoTKYX7dLrMRcoLZqVfJNO666Rzd3nh_1G2eb_AvxCY7nH8Cmv-mAySVtWGHzy0bvS4pMVJp5V9bpEqNy0]--></g></svg>