<?xml version="1.0" encoding="us-ascii" standalone="no"?><svg xmlns="http://www.w3.org/2000/svg" xmlns:xlink="http://www.w3.org/1999/xlink" contentStyleType="text/css" height="834px" preserveAspectRatio="none" style="width:1554px;height:834px;background:#FFFFFF;" version="1.1" viewBox="0 0 1554 834" width="1554px" zoomAndPan="magnify"><defs/><g><text fill="#000000" font-family="Arial" font-size="14" font-weight="bold" lengthAdjust="spacing" textLength="170" x="685.25" y="22.6738">Diagrama de despliegue</text><!--cluster Browser--><g id="cluster_Browser"><polygon fill="#DCE8F5" points="393,52.6406,403,42.6406,592,42.6406,592,168.6406,582,178.6406,393,178.6406,393,52.6406" style="stroke:#2D6A9F;stroke-width:1.5;"/><line style="stroke:#2D6A9F;stroke-width:1.5;" x1="582" x2="592" y1="52.6406" y2="42.6406"/><line style="stroke:#2D6A9F;stroke-width:1.5;" x1="393" x2="582" y1="52.6406" y2="52.6406"/><line style="stroke:#2D6A9F;stroke-width:1.5;" x1="582" x2="582" y1="52.6406" y2="178.6406"/><text fill="#000000" font-family="Arial" font-size="11" font-weight="bold" lengthAdjust="spacing" textLength="123" x="427" y="65.5986">Navegador del usuario</text></g><!--cluster VPS--><g id="cluster_VPS"><polygon fill="#DCE8F5" points="16,254.6406,26,244.6406,856,244.6406,856,807.1406,846,817.1406,16,817.1406,16,254.6406" style="stroke:#2D6A9F;stroke-width:1.5;"/><line style="stroke:#2D6A9F;stroke-width:1.5;" x1="846" x2="856" y1="254.6406" y2="244.6406"/><line style="stroke:#2D6A9F;stroke-width:1.5;" x1="16" x2="846" y1="254.6406" y2="254.6406"/><line style="stroke:#2D6A9F;stroke-width:1.5;" x1="846" x2="846" y1="254.6406" y2="817.1406"/><text fill="#000000" font-family="Arial" font-size="11" font-weight="bold" lengthAdjust="spacing" textLength="122" x="371" y="267.5986">Servidor VPS (Ubuntu)</text></g><!--cluster Docker--><g id="cluster_Docker"><polygon fill="#DCE8F5" points="48,306.6406,58,296.6406,684,296.6406,684,775.1406,674,785.1406,48,785.1406,48,306.6406" style="stroke:#2D6A9F;stroke-width:1.5;"/><line style="stroke:#2D6A9F;stroke-width:1.5;" x1="674" x2="684" y1="306.6406" y2="296.6406"/><line style="stroke:#2D6A9F;stroke-width:1.5;" x1="48" x2="674" y1="306.6406" y2="306.6406"/><line style="stroke:#2D6A9F;stroke-width:1.5;" x1="674" x2="674" y1="306.6406" y2="785.1406"/><text fill="#000000" font-family="Arial" font-size="11" font-weight="bold" lengthAdjust="spacing" textLength="89" x="317.5" y="319.5986">Docker network</text></g><!--cluster NextJS--><g id="cluster_NextJS"><polygon fill="#DCE8F5" points="96,366.6406,106,356.6406,411,356.6406,411,735.1406,401,745.1406,96,745.1406,96,366.6406" style="stroke:#2D6A9F;stroke-width:1.5;"/><line style="stroke:#2D6A9F;stroke-width:1.5;" x1="401" x2="411" y1="366.6406" y2="356.6406"/><line style="stroke:#2D6A9F;stroke-width:1.5;" x1="96" x2="401" y1="366.6406" y2="366.6406"/><line style="stroke:#2D6A9F;stroke-width:1.5;" x1="401" x2="401" y1="366.6406" y2="745.1406"/><text fill="#000000" font-family="Arial" font-size="11" font-weight="bold" lengthAdjust="spacing" textLength="106" x="196.5" y="379.5986">Contenedor Next.js</text><text fill="#000000" font-family="Arial" font-size="11" font-weight="bold" lengthAdjust="spacing" textLength="134" x="182.5" y="391.8877">(Node.js 20, puerto 3000)</text></g><!--cluster PG--><g id="cluster_PG"><path d="M451,581.6406 C451,571.6406 547.5,571.6406 547.5,571.6406 C547.5,571.6406 644,571.6406 644,581.6406 L644,728.6406 C644,738.6406 547.5,738.6406 547.5,738.6406 C547.5,738.6406 451,738.6406 451,728.6406 L451,581.6406 " fill="#D5ECD4" style="stroke:#2E7D32;stroke-width:1.0;"/><path d="M451,581.6406 C451,591.6406 547.5,591.6406 547.5,591.6406 C547.5,591.6406 644,591.6406 644,581.6406 " fill="none" style="stroke:#2E7D32;stroke-width:1.0;"/><text fill="#000000" font-family="Arial" font-size="11" font-weight="bold" lengthAdjust="spacing" textLength="150" x="472.5" y="603.5986">Contenedor PostgreSQL 16</text><text fill="#000000" font-family="Arial" font-size="11" font-weight="bold" lengthAdjust="spacing" textLength="72" x="511.5" y="615.8877">(puerto 5432)</text></g><!--cluster M365--><g id="cluster_M365"><path d="M895.6294,375.215 C902.5003,363.849 911.2479,363.0783 918.6012,374.7337 C924.0202,365.146 931.8508,362.7442 939.3561,372.4945 C946.2212,360.8267 953.1113,361.6108 960.8708,371.6063 C966.5322,357.5727 974.8011,356.1431 984.7047,367.6472 C989.7725,357.9908 995.851,358.8633 1002.2103,366.3266 C1009.7323,355.9591 1020.1953,354.8882 1027.5877,366.4764 C1033.2249,356.6199 1040.9388,356.9317 1047.7371,365.1844 C1055.8386,357.6353 1062.1706,358.3466 1068.3885,367.5117 C1074.0114,357.2563 1082.2431,356.5768 1088.5242,366.8666 C1095.6062,355.9322 1103.8154,358.9783 1109.4199,368.3844 C1117.023,355.8803 1127.2801,358.3221 1133.4184,369.8473 C1139.2918,361.8625 1147.9825,361.5198 1152.4371,371.361 C1161.115,361.9733 1169.4118,361.8011 1175.4551,374.1509 C1185.5856,364.0627 1196.9512,365.1569 1202,379.6406 C1202.8509,378.6782 1204.1593,378.6444 1204.6228,380.0667 C1223.1887,386.3777 1224.577,396.9773 1211.1543,410.2178 C1222.7213,416.7497 1227.0572,427.3614 1213.5658,436.2175 C1225.7085,445.6033 1224.4982,459.7911 1210.88,466.9237 C1222.0827,485.1769 1213.9336,494.9672 1195,497.6406 C1195.2333,497.5713 1195.4185,497.6934 1195.3843,497.9531 C1190.0137,506.6959 1183.8686,508.2203 1176.6831,499.9478 C1170.9524,511.3728 1159.6249,513.9814 1152.6591,501.1722 C1149.2393,512.2491 1139.276,513.8182 1132.4189,504.6002 C1126.6545,514.4211 1116.914,514.0354 1111.0575,504.7029 C1104.34,513.5163 1095.9611,514.3654 1089.2459,504.7001 C1082.18,516.4941 1073.7441,514.8942 1067.1085,504.275 C1063.2939,513.5676 1054.3235,515.3906 1047.1724,508.3466 C1039.4579,520.2994 1028.9653,519.1033 1024.0554,505.7814 C1018.7985,515.0581 1012.193,515.8938 1006.1821,506.5033 C996.458,516.4089 989.7656,515.5458 984.4847,502.3332 C978.0305,513.0246 968.7422,512.1663 962.1384,502.4974 C954.2028,512.6454 945.4926,512.9106 937.8698,502.1345 C929.1397,511.686 923.025,509.8569 917.256,499.1252 C903.6647,510.4447 893.819,506.1214 888,490.6406 C889.2757,490.7379 889.854,491.198 889.3391,492.5507 C878.151,486.1141 876.6986,474.3369 887.6948,466.5 C874.008,460.2689 870.2047,448.1607 883.6183,438.047 C871.6482,429.0977 871.0565,416.6814 886.8043,410.9968 C869.497,397.1725 875.3039,378.5583 895,372.6406 C896.4116,373.1949 896.7653,374.0379 895.6294,375.215 " fill="#EFEFEF" style="stroke:#888888;stroke-width:1.0;"/><text fill="#000000" font-family="Arial" font-size="11" font-weight="bold" lengthAdjust="spacing" textLength="74" x="1008" y="387.5986">Microsoft 365</text><text fill="#000000" font-family="Arial" font-size="11" font-weight="bold" lengthAdjust="spacing" textLength="83" x="1003.5" y="399.8877">(cloud externa)</text></g><!--cluster ResendCloud--><g id="cluster_ResendCloud"><path d="M1249.9254,379.8502 C1251.5642,373.8223 1255.8311,373.7802 1259.9374,377.2488 C1263.3517,371.8463 1268.1546,371.0556 1272.3849,376.2941 C1273.0857,370.1337 1277.2416,368.8603 1281.8525,372.5269 C1285.135,367.6881 1289.4778,366.5309 1293.3886,371.8105 C1296.404,367.2378 1301.2457,367.3672 1303.9556,372.1553 C1309.1295,368.6208 1313.9678,369.9465 1315.6386,376.296 C1318.7815,373.1865 1323.3597,372.866 1324.6616,378.2514 C1333.1362,371.6847 1341.648,374.8559 1342,386.1406 C1342.7597,385.4789 1343.4365,385.6768 1343.7056,386.6519 C1348.9974,389.1266 1351.1917,394.5188 1345.4908,398.6316 C1352.7208,403.3175 1353.2878,407.6503 1345.9826,412.8394 C1351.6662,415.8376 1352.4186,419.5288 1347.2351,423.772 C1354.4456,426.5232 1354.8366,430.9454 1350.2636,436.5004 C1356.1182,441.3327 1353.735,446.9381 1347.7327,449.4538 C1352.0616,453.2514 1352.2596,457.6938 1346.3331,460.1494 C1351.6584,464.9148 1352.0428,469.7905 1344.8835,473.1655 C1350.8457,482.8778 1346.4156,490.9833 1335,491.1406 C1335.6884,491.0808 1336.008,491.4756 1335.6724,492.1193 C1332.6794,499.3865 1327.6259,499.919 1321.997,495.1026 C1318.8197,502.9872 1313.4776,504.8849 1307.1219,498.3907 C1304.5,506.0874 1298.9573,506.5928 1293.5878,501.2403 C1287.8113,507.7515 1281.9189,506.1607 1278.306,498.8484 C1272.4259,503.6352 1267.7911,502.2802 1264.7447,495.5203 C1251.3723,502.8334 1244.4479,498.6626 1242,484.1406 C1242.5504,483.426 1243.4132,483.5925 1243.7766,484.3641 C1236.8235,482.3081 1237.2017,476.5705 1241.8581,472.6183 C1236.0537,468.8847 1235.1921,463.8642 1241.4861,459.7801 C1235.5363,457.3461 1233.6105,453.1488 1238.9043,448.2066 C1231.8752,445.1427 1232.8721,439.775 1237.6258,435.5233 C1231.9146,430.5958 1233.4901,426.2217 1239.6439,423.2443 C1233.328,419.9494 1234.2169,415.0038 1239.6354,411.7003 C1235.2736,407.4577 1235.8163,401.5378 1242.6791,400.2891 C1234.7205,390.9216 1236.9462,382.5268 1249,379.1406 C1249.5397,378.938 1250.0608,379.1726 1249.9254,379.8502 " fill="#EFEFEF" style="stroke:#888888;stroke-width:1.0;"/><text fill="#000000" font-family="Arial" font-size="11" font-weight="bold" lengthAdjust="spacing" textLength="42" x="1271" y="394.0986">Resend</text><text fill="#000000" font-family="Arial" font-size="11" font-weight="bold" lengthAdjust="spacing" textLength="83" x="1250.5" y="406.3877">(cloud externa)</text></g><!--entity Client--><g id="elem_Client"><rect fill="#F1F1F1" height="47.5781" rx="2.5" ry="2.5" style="stroke:#181818;stroke-width:0.5;" width="127" x="439.5" y="106.6406"/><polygon fill="#F1F1F1" points="549.5,111.6406,549.5,125.6406,561.5,125.6406,561.5,117.6406,555.5,111.6406,549.5,111.6406" style="stroke:#181818;stroke-width:0.5;"/><line style="stroke:#181818;stroke-width:0.5;" x1="555.5" x2="555.5" y1="111.6406" y2="117.6406"/><line style="stroke:#181818;stroke-width:0.5;" x1="561.5" x2="555.5" y1="117.6406" y2="117.6406"/><text fill="#000000" font-family="Arial" font-size="11" lengthAdjust="spacing" textLength="81" x="449.5" y="129.5986">Next.js hydration</text><text fill="#000000" font-family="Arial" font-size="11" lengthAdjust="spacing" textLength="97" x="449.5" y="141.8877">(Client Components)</text></g><!--entity CICD--><g id="elem_CICD"><rect fill="#F1F1F1" height="47.5781" rx="2.5" ry="2.5" style="stroke:#181818;stroke-width:0.5;" width="131" x="708.5" y="673.1406"/><polygon fill="#F1F1F1" points="822.5,678.1406,822.5,692.1406,834.5,692.1406,834.5,684.1406,828.5,678.1406,822.5,678.1406" style="stroke:#181818;stroke-width:0.5;"/><line style="stroke:#181818;stroke-width:0.5;" x1="828.5" x2="828.5" y1="678.1406" y2="684.1406"/><line style="stroke:#181818;stroke-width:0.5;" x1="834.5" x2="828.5" y1="684.1406" y2="684.1406"/><text fill="#000000" font-family="Arial" font-size="11" lengthAdjust="spacing" textLength="101" x="718.5" y="696.0986">GitHub Actions CI/CD</text><text fill="#000000" font-family="Arial" font-size="11" lengthAdjust="spacing" textLength="99" x="718.5" y="708.3877">(.github/workflows/)</text></g><!--entity RSC--><g id="elem_RSC"><rect fill="#F1F1F1" height="35.2891" rx="2.5" ry="2.5" style="stroke:#181818;stroke-width:0.5;" width="109" x="120.5" y="444.6406"/><polygon fill="#F1F1F1" points="212.5,449.6406,212.5,463.6406,224.5,463.6406,224.5,455.6406,218.5,449.6406,212.5,449.6406" style="stroke:#181818;stroke-width:0.5;"/><line style="stroke:#181818;stroke-width:0.5;" x1="218.5" x2="218.5" y1="449.6406" y2="455.6406"/><line style="stroke:#181818;stroke-width:0.5;" x1="224.5" x2="218.5" y1="455.6406" y2="455.6406"/><text fill="#000000" font-family="Arial" font-size="11" lengthAdjust="spacing" textLength="79" x="130.5" y="467.5986">App Router RSC</text></g><!--entity SA--><g id="elem_SA"><rect fill="#F1F1F1" height="35.2891" rx="2.5" ry="2.5" style="stroke:#181818;stroke-width:0.5;" width="103" x="264.5" y="444.6406"/><polygon fill="#F1F1F1" points="350.5,449.6406,350.5,463.6406,362.5,463.6406,362.5,455.6406,356.5,449.6406,350.5,449.6406" style="stroke:#181818;stroke-width:0.5;"/><line style="stroke:#181818;stroke-width:0.5;" x1="356.5" x2="356.5" y1="449.6406" y2="455.6406"/><line style="stroke:#181818;stroke-width:0.5;" x1="362.5" x2="356.5" y1="455.6406" y2="455.6406"/><text fill="#000000" font-family="Arial" font-size="11" lengthAdjust="spacing" textLength="73" x="274.5" y="467.5986">Server Actions</text></g><!--entity API--><g id="elem_API"><rect fill="#F1F1F1" height="47.5781" rx="2.5" ry="2.5" style="stroke:#181818;stroke-width:0.5;" width="114" x="120" y="673.1406"/><polygon fill="#F1F1F1" points="217,678.1406,217,692.1406,229,692.1406,229,684.1406,223,678.1406,217,678.1406" style="stroke:#181818;stroke-width:0.5;"/><line style="stroke:#181818;stroke-width:0.5;" x1="223" x2="223" y1="678.1406" y2="684.1406"/><line style="stroke:#181818;stroke-width:0.5;" x1="229" x2="223" y1="684.1406" y2="684.1406"/><text fill="#000000" font-family="Arial" font-size="11" lengthAdjust="spacing" textLength="50" x="130" y="696.0986">API routes</text><text fill="#000000" font-family="Arial" font-size="11" lengthAdjust="spacing" textLength="84" x="130" y="708.3877">(/api/auth, /api/...)</text></g><!--entity Schema--><g id="elem_Schema"><rect fill="#F1F1F1" height="35.2891" rx="2.5" ry="2.5" style="stroke:#181818;stroke-width:0.5;" width="126" x="494" y="679.6406"/><polygon fill="#F1F1F1" points="603,684.6406,603,698.6406,615,698.6406,615,690.6406,609,684.6406,603,684.6406" style="stroke:#181818;stroke-width:0.5;"/><line style="stroke:#181818;stroke-width:0.5;" x1="609" x2="609" y1="684.6406" y2="690.6406"/><line style="stroke:#181818;stroke-width:0.5;" x1="615" x2="609" y1="690.6406" y2="690.6406"/><text fill="#000000" font-family="Arial" font-size="11" lengthAdjust="spacing" textLength="96" x="504" y="702.5986">schema.ts &#8594; tablas</text></g><!--entity EntraID--><g id="elem_EntraID"><polygon fill="#DCE8F5" points="1068.5,444.6406,1078.5,434.6406,1193.5,434.6406,1193.5,479.2188,1183.5,489.2188,1068.5,489.2188,1068.5,444.6406" style="stroke:#2D6A9F;stroke-width:1.5;"/><line style="stroke:#2D6A9F;stroke-width:1.5;" x1="1183.5" x2="1193.5" y1="444.6406" y2="434.6406"/><line style="stroke:#2D6A9F;stroke-width:1.5;" x1="1068.5" x2="1183.5" y1="444.6406" y2="444.6406"/><line style="stroke:#2D6A9F;stroke-width:1.5;" x1="1183.5" x2="1183.5" y1="444.6406" y2="489.2188"/><text fill="#000000" font-family="Arial" font-size="11" lengthAdjust="spacing" textLength="85" x="1083.5" y="464.5986">Microsoft Entra ID</text><text fill="#000000" font-family="Arial" font-size="11" lengthAdjust="spacing" textLength="84" x="1083.5" y="476.8877">(OAuth 2.0/OIDC)</text></g><!--entity Graph--><g id="elem_Graph"><polygon fill="#DCE8F5" points="896.5,444.6406,906.5,434.6406,1033.5,434.6406,1033.5,479.2188,1023.5,489.2188,896.5,489.2188,896.5,444.6406" style="stroke:#2D6A9F;stroke-width:1.5;"/><line style="stroke:#2D6A9F;stroke-width:1.5;" x1="1023.5" x2="1033.5" y1="444.6406" y2="434.6406"/><line style="stroke:#2D6A9F;stroke-width:1.5;" x1="896.5" x2="1023.5" y1="444.6406" y2="444.6406"/><line style="stroke:#2D6A9F;stroke-width:1.5;" x1="1023.5" x2="1023.5" y1="444.6406" y2="489.2188"/><text fill="#000000" font-family="Arial" font-size="11" lengthAdjust="spacing" textLength="97" x="911.5" y="464.5986">Microsoft Graph API</text><text fill="#000000" font-family="Arial" font-size="11" lengthAdjust="spacing" textLength="89" x="911.5" y="476.8877">(Calendar, Teams)</text></g><!--entity Resend--><g id="elem_Resend"><polygon fill="#DCE8F5" points="1250.5,451.1406,1260.5,441.1406,1333.5,441.1406,1333.5,473.4297,1323.5,483.4297,1250.5,483.4297,1250.5,451.1406" style="stroke:#2D6A9F;stroke-width:1.5;"/><line style="stroke:#2D6A9F;stroke-width:1.5;" x1="1323.5" x2="1333.5" y1="451.1406" y2="441.1406"/><line style="stroke:#2D6A9F;stroke-width:1.5;" x1="1250.5" x2="1323.5" y1="451.1406" y2="451.1406"/><line style="stroke:#2D6A9F;stroke-width:1.5;" x1="1323.5" x2="1323.5" y1="451.1406" y2="483.4297"/><text fill="#000000" font-family="Arial" font-size="11" lengthAdjust="spacing" textLength="43" x="1265.5" y="471.0986">Email API</text></g><g id="elem_GMN25"><path d="M1368.5,432.6406 L1368.5,491.7969 L1547.5,491.7969 L1547.5,442.6406 L1537.5,432.6406 L1368.5,432.6406 " fill="#FEFFDD" style="stroke:#181818;stroke-width:0.5;"/><path d="M1537.5,432.6406 L1537.5,442.6406 L1547.5,442.6406 L1537.5,432.6406 " fill="#FEFFDD" style="stroke:#181818;stroke-width:1.0;"/><text fill="#000000" font-family="Arial" font-size="11" lengthAdjust="spacing" textLength="158" x="1374.5" y="447.5986">Ambos contenedores comparten</text><text fill="#000000" font-family="Arial" font-size="11" lengthAdjust="spacing" textLength="136" x="1374.5" y="459.8877">la misma red Docker interna.</text><text fill="#000000" font-family="Arial" font-size="11" lengthAdjust="spacing" textLength="145" x="1374.5" y="472.1768">PostgreSQL no est&#225; expuesto</text><text fill="#000000" font-family="Arial" font-size="11" lengthAdjust="spacing" textLength="51" x="1374.5" y="484.4658">al exterior.</text></g><!--link Browser to NextJS--><g id="link_Browser_NextJS"><path d="M403,178.9431 C403,180.7843 403,182.6662 403,184.5866 C403,215.3119 403,255.8594 403,296.4056 C403,316.6788 403,330.9516 403,349.9961 " fill="none" id="Browser-to-NextJS" style="stroke:#444444;stroke-width:1.2;"/><polygon fill="#444444" points="403,355.9961,407,346.9961,403,350.9961,399,346.9961,403,355.9961" style="stroke:#444444;stroke-width:1.2;"/><text fill="#000000" font-family="Arial" font-size="11" lengthAdjust="spacing" textLength="95" x="408.5" y="213.5986">HTTPS (puerto 443)</text><text fill="#000000" font-family="Arial" font-size="11" lengthAdjust="spacing" textLength="104" x="404" y="225.8877">nginx / reverse proxy</text></g><!--link NextJS to PG--><g id="link_NextJS_PG"><path d="M411.1767,606.2294 C412.0593,608.3253 412.9534,610.4056 413.8563,612.4678 C415.6623,616.5921 417.5037,620.6442 419.36,624.6042 C423.0727,632.5241 426.845,640.0759 430.5125,647.1019 C437.8475,661.1538 444.7631,673.1022 449.9431,681.6858 C450.2669,682.2223 447.4678,677.6182 447.7776,678.1281 " fill="none" id="NextJS-to-PG" style="stroke:#444444;stroke-width:1.2;"/><polygon fill="#444444" points="450.8937,683.2555,449.6379,673.487,448.297,678.9826,442.8013,677.6418,450.8937,683.2555" style="stroke:#444444;stroke-width:1.2;"/><text fill="#000000" font-family="Arial" font-size="11" lengthAdjust="spacing" textLength="46" x="399.5" y="532.5986">TCP 5432</text><text fill="#000000" font-family="Arial" font-size="11" lengthAdjust="spacing" textLength="59" x="393" y="544.8877">Drizzle ORM</text></g><!--link NextJS to EntraID--><g id="link_NextJS_EntraID"><path d="M411.3953,457.3782 C411.7849,457.16 412.1874,456.9349 412.6028,456.7029 C414.2645,455.7748 416.1315,454.7369 418.1959,453.5965 C426.4536,449.0347 437.8693,442.831 451.9305,435.4408 C480.0528,420.6603 518.7569,401.1337 563.9413,380.5044 C654.31,339.2456 770.6,293.5756 880,272.6406 C954.65,258.3606 987.67,230.6306 1051,272.6406 C1105.91,309.0606 1122.4765,385.4569 1127.8665,428.6169 " fill="none" id="NextJS-to-EntraID" style="stroke:#444444;stroke-width:1.2;"/><polygon fill="#444444" points="1128.61,434.5706,1131.4639,425.1443,1127.9904,429.6092,1123.5255,426.1357,1128.61,434.5706" style="stroke:#444444;stroke-width:1.2;"/><text fill="#000000" font-family="Arial" font-size="11" lengthAdjust="spacing" textLength="76" x="753" y="213.5986">OAuth 2.0/OIDC</text><text fill="#000000" font-family="Arial" font-size="11" lengthAdjust="spacing" textLength="56" x="763" y="225.8877">sesi&#243;n JWT</text></g><!--link NextJS to Graph--><g id="link_NextJS_Graph"><path d="M411.4326,462.1406 C411.6588,462.1406 411.8892,462.1406 412.124,462.1406 C413.0629,462.1406 414.0702,462.1406 415.1439,462.1406 C417.2914,462.1406 419.7048,462.1406 422.3685,462.1406 C433.0234,462.1406 447.6845,462.1406 465.3647,462.1406 C500.725,462.1406 548.1613,462.1406 599.775,462.1406 C703.0025,462.1406 816.94,462.1406 890.4,462.1406 " fill="none" id="NextJS-to-Graph" style="stroke:#444444;stroke-width:1.2;"/><polygon fill="#444444" points="896.4,462.1406,887.4,458.1406,891.4,462.1406,887.4,466.1406,896.4,462.1406" style="stroke:#444444;stroke-width:1.2;"/><text fill="#000000" font-family="Arial" font-size="11" lengthAdjust="spacing" textLength="62" x="618.93" y="444.0986">Bearer token</text><text fill="#000000" font-family="Arial" font-size="11" lengthAdjust="spacing" textLength="112" x="593.93" y="456.3877">OOO &#183; Teams &#183; Outlook</text></g><!--link NextJS to Resend--><g id="link_NextJS_Resend"><path d="M411.3953,457.3782 C411.7849,457.16 412.1874,456.9349 412.6028,456.7029 C414.2645,455.7748 416.1315,454.7369 418.1959,453.5965 C426.4536,449.0347 437.8693,442.831 451.9305,435.4408 C480.0528,420.6603 518.7569,401.1337 563.9413,380.5044 C654.31,339.2456 770.6,293.5756 880,272.6406 C1024.05,245.0706 1087.42,192.1206 1210,272.6406 C1268.12,310.8206 1284.5398,394.0028 1289.4198,434.9428 " fill="none" id="NextJS-to-Resend" style="stroke:#444444;stroke-width:1.2;"/><polygon fill="#444444" points="1290.13,440.9006,1293.0366,431.4904,1289.5382,435.9358,1285.0929,432.4373,1290.13,440.9006" style="stroke:#444444;stroke-width:1.2;"/><text fill="#000000" font-family="Arial" font-size="11" lengthAdjust="spacing" textLength="36" x="1025" y="213.5986">API key</text><text fill="#000000" font-family="Arial" font-size="11" lengthAdjust="spacing" textLength="73" x="1006.5" y="225.8877">email visitantes</text></g><!--reverse link NextJS to CICD--><g id="link_NextJS_CICD"><path d="M417.2487,466.5442 C417.8446,466.6904 413.5118,465.6354 414.1597,465.7962 C415.4554,466.1179 416.8536,466.4688 418.349,466.8489 C421.3398,467.6091 424.7191,468.486 428.4431,469.4797 C443.3394,473.4544 463.7525,479.2969 486.8875,487.0056 C533.1575,502.4231 590.315,525.3056 636,555.6406 C685.99,588.8306 732.29,642.5506 756.47,673.0506 " fill="none" id="NextJS-backto-CICD" style="stroke:#444444;stroke-width:1.2;"/><polygon fill="#444444" points="411.4198,465.1217,419.2148,471.1414,416.2772,466.3071,421.1115,463.3695,411.4198,465.1217" style="stroke:#444444;stroke-width:1.2;"/><text fill="#000000" font-family="Arial" font-size="11" lengthAdjust="spacing" textLength="93" x="619" y="538.5986">docker pull / restart</text></g><!--link Docker to GMN25--><g id="link_Docker_GMN25"><path d="M60.3009,295.8628 C60.7801,294.2217 61.2783,292.5896 61.7964,290.9678 C63.8686,284.4805 66.2569,278.1573 69.0006,272.0756 C79.9756,247.7488 96.6375,227.2856 121.5,215.6406 C151.96,201.3706 1302.04,201.3706 1332.5,215.6406 C1416.65,255.0506 1445.29,375.7206 1454.26,432.2806 " fill="none" id="Docker-GMN25" style="stroke:#444444;stroke-width:1.2;stroke-dasharray:7.0,7.0;"/></g><!--SRC=[TLJDSjis4BxpANQSIp9ZKx9-NDU7piXKuYWJMugbjXTT878beI813W3wh-Dh7o1la6Ve8VVcJVeatGKecRPLI2EHs6-_R_y0kv6g54OKaE5ILBdxe9Mx4WN2m4YHHtQVVIeV48wF6qQbCppN9aCpMyjqez1QE8xx3OGmHjysZPsNnaJdsi2RdbyDuqAacvNHbSfgn0U_eXVoy6S4SFuIcwLukkopnKSNTdczwMGdukTbzDZaoOGJ2s7_ZwkFQTRRouK_PTtESwuqrrMsdmYN_Db7TEeN4pdfSeIX52iY4rHz-jeobxYgC8fymWTNuWPN8YFd37EeR2MCr0SWB9nJFIqQBo-CaqkHEiBZdOl_iB2-punmKgkvUfiGfNAGwABKYfxiEqyGjZcG83L5SoDPwRV95Dx-kgYKgmAIDrWcu8OwtP2kGdUhpSO3wYt6R5493H4gPBuw9ehaYamSNQTz26M5ncdejjljeCAmJzEQf9dJe2pXMbUE5AwdYSVI_oiOnq-GGSffMm-R3bwJJKPWc8pZQObIjaJbreVW7-Cu3h4Godi- -j_Tp3IpccZhLWQdNpx3yGbnrVdqUzrEu9XSxCd5fciiHEmi_FlNLo3QNDIXUiDEzF5PLo-a-rWjjgb1CcebGvACLzAjgqMB-x3CQHnQTMT7oP3x6kRpu5AcHbkzTD0zwPDRsAPger4YU5oIfT7Y9u_toXa18rOR3wXGq8dRhV5ec0G_RnuDzpXU656kkOuyW297bGbp23CKHJr-7j28yXejWVQ75sp9xhW5iVU5a3bBD31Ck3qPHvc-LKU_R0Vh33xEPZpQTQTwlUwxkL8hgUwW1GPfUAZ5fT5tzr7jigEWNl8wWraoyIsUgw6H3mzqViVNbqzm8rThH_YwBkJml6fpPT7A7tyh-FJxxBLRA1hhdACmb8BJ6wGZF1wFuP_leNhyCAvShlNcDK4e0XFmd6_mVgxGL-b6Mka43Q-DU3eucQEgV2fEo2uBvxYiyjoNn3gQGRuV78AN0Bsi3pjrOL0ij8LqToIGNmgw6kcTpBc0Gbgws0ncsnj2Aj_LcCoDywCqaDIFRzHqwerrceS_3oCWjOaZpec3YFu3]--></g></svg>