<svg xmlns="http://www.w3.org/2000/svg" xmlns:xlink="http://www.w3.org/1999/xlink" contentStyleType="text/css" data-diagram-type="DESCRIPTION" height="1499px" preserveAspectRatio="none" style="width:1152px;height:1499px;background:#FFFFFF;" version="1.1" viewBox="0 0 1152 1499" width="1152px" zoomAndPan="magnify"><?plantuml 1.2026.3beta6?><defs/><g><!--cluster Acceso--><g class="cluster" data-qualified-name="Acceso" data-source-line="15" id="ent0011"><path d="M154.83,297 L210.7089,297 A3.75,3.75 0 0 1 213.2089,299.5 L220.2089,319.2969 L315.8,319.2969 A2.5,2.5 0 0 1 318.3,321.7969 L318.3,377.5 A2.5,2.5 0 0 1 315.8,380 L154.83,380 A2.5,2.5 0 0 1 152.33,377.5 L152.33,299.5 A2.5,2.5 0 0 1 154.83,297" fill="none" style="stroke:#000000;stroke-width:1.5;"/><line style="stroke:#000000;stroke-width:1.5;" x1="152.33" x2="220.2089" y1="319.2969" y2="319.2969"/><text fill="#000000" font-family="sans-serif" font-size="14" font-weight="700" lengthAdjust="spacing" textLength="54.8789" x="156.33" y="311.9951">Acceso</text></g><!--cluster Parking--><g class="cluster" data-qualified-name="Parking" data-source-line="19" id="ent0013"><path d="M381.22,615 L442.93,615 A3.75,3.75 0 0 1 445.43,617.5 L452.43,637.2969 L611.82,637.2969 A2.5,2.5 0 0 1 614.32,639.7969 L614.32,1133.5 A2.5,2.5 0 0 1 611.82,1136 L381.22,1136 A2.5,2.5 0 0 1 378.72,1133.5 L378.72,617.5 A2.5,2.5 0 0 1 381.22,615" fill="none" style="stroke:#000000;stroke-width:1.5;"/><line style="stroke:#000000;stroke-width:1.5;" x1="378.72" x2="452.43" y1="637.2969" y2="637.2969"/><text fill="#000000" font-family="sans-serif" font-size="14" font-weight="700" lengthAdjust="spacing" textLength="60.71" x="382.72" y="629.9951">Parking</text></g><!--cluster Oficinas--><g class="cluster" data-qualified-name="Oficinas" data-source-line="29" id="ent0021"><path d="M122.4,754 L187.0357,754 A3.75,3.75 0 0 1 189.5357,756.5 L196.5357,776.2969 L348.22,776.2969 A2.5,2.5 0 0 1 350.72,778.7969 L350.72,916.5 A2.5,2.5 0 0 1 348.22,919 L122.4,919 A2.5,2.5 0 0 1 119.9,916.5 L119.9,756.5 A2.5,2.5 0 0 1 122.4,754" fill="none" style="stroke:#000000;stroke-width:1.5;"/><line style="stroke:#000000;stroke-width:1.5;" x1="119.9" x2="196.5357" y1="776.2969" y2="776.2969"/><text fill="#000000" font-family="sans-serif" font-size="14" font-weight="700" lengthAdjust="spacing" textLength="63.6357" x="123.9" y="768.9951">Oficinas</text></g><!--cluster Vacaciones--><g class="cluster" data-qualified-name="Vacaciones" data-source-line="34" id="ent0024"><path d="M644.82,6 L734.3591,6 A3.75,3.75 0 0 1 736.8591,8.5 L743.8591,28.2969 L901.16,28.2969 A2.5,2.5 0 0 1 903.66,30.7969 L903.66,506.5 A2.5,2.5 0 0 1 901.16,509 L644.82,509 A2.5,2.5 0 0 1 642.32,506.5 L642.32,8.5 A2.5,2.5 0 0 1 644.82,6" fill="none" style="stroke:#000000;stroke-width:1.5;"/><line style="stroke:#000000;stroke-width:1.5;" x1="642.32" x2="743.8591" y1="28.2969" y2="28.2969"/><text fill="#000000" font-family="sans-serif" font-size="14" font-weight="700" lengthAdjust="spacing" textLength="88.5391" x="646.32" y="20.9951">Vacaciones</text></g><!--cluster Tabl?n--><g class="cluster" data-qualified-name="Tabl.n" data-source-line="43" id="ent0031"><path d="M682.41,620 L736.8123,620 A3.75,3.75 0 0 1 739.3123,622.5 L746.3123,642.2969 L863.56,642.2969 A2.5,2.5 0 0 1 866.06,644.7969 L866.06,775.5 A2.5,2.5 0 0 1 863.56,778 L682.41,778 A2.5,2.5 0 0 1 679.91,775.5 L679.91,622.5 A2.5,2.5 0 0 1 682.41,620" fill="none" style="stroke:#000000;stroke-width:1.5;"/><line style="stroke:#000000;stroke-width:1.5;" x1="679.91" x2="746.3123" y1="642.2969" y2="642.2969"/><text fill="#000000" font-family="sans-serif" font-size="14" font-weight="700" lengthAdjust="spacing" textLength="53.4023" x="683.91" y="634.9951">Tabl&#243;n</text></g><!--cluster Directorio--><g class="cluster" data-qualified-name="Directorio" data-source-line="48" id="ent0034"><path d="M135.67,1132 L215.42,1132 A3.75,3.75 0 0 1 217.92,1134.5 L224.92,1154.2969 L334.95,1154.2969 A2.5,2.5 0 0 1 337.45,1156.7969 L337.45,1220.5 A2.5,2.5 0 0 1 334.95,1223 L135.67,1223 A2.5,2.5 0 0 1 133.17,1220.5 L133.17,1134.5 A2.5,2.5 0 0 1 135.67,1132" fill="none" style="stroke:#000000;stroke-width:1.5;"/><line style="stroke:#000000;stroke-width:1.5;" x1="133.17" x2="224.92" y1="1154.2969" y2="1154.2969"/><text fill="#000000" font-family="sans-serif" font-size="14" font-weight="700" lengthAdjust="spacing" textLength="78.75" x="137.17" y="1146.9951">Directorio</text></g><!--cluster Ajustes--><g class="cluster" data-qualified-name="Ajustes" data-source-line="52" id="ent0036"><path d="M124.65,1247 L184.1041,1247 A3.75,3.75 0 0 1 186.6041,1249.5 L193.6041,1269.2969 L345.98,1269.2969 A2.5,2.5 0 0 1 348.48,1271.7969 L348.48,1481.5 A2.5,2.5 0 0 1 345.98,1484 L124.65,1484 A2.5,2.5 0 0 1 122.15,1481.5 L122.15,1249.5 A2.5,2.5 0 0 1 124.65,1247" fill="none" style="stroke:#000000;stroke-width:1.5;"/><line style="stroke:#000000;stroke-width:1.5;" x1="122.15" x2="193.6041" y1="1269.2969" y2="1269.2969"/><text fill="#000000" font-family="sans-serif" font-size="14" font-weight="700" lengthAdjust="spacing" textLength="58.4541" x="126.15" y="1261.9951">Ajustes</text></g><!--cluster Administraci?n--><g class="cluster" data-qualified-name="Administraci.n" data-source-line="58" id="ent0040"><path d="M934.16,330 L1054.2284,330 A3.75,3.75 0 0 1 1056.7284,332.5 L1063.7284,352.2969 L1134.56,352.2969 A2.5,2.5 0 0 1 1137.06,354.7969 L1137.06,780.5 A2.5,2.5 0 0 1 1134.56,783 L934.16,783 A2.5,2.5 0 0 1 931.66,780.5 L931.66,332.5 A2.5,2.5 0 0 1 934.16,330" fill="none" style="stroke:#000000;stroke-width:1.5;"/><line style="stroke:#000000;stroke-width:1.5;" x1="931.66" x2="1063.7284" y1="352.2969" y2="352.2969"/><text fill="#000000" font-family="sans-serif" font-size="14" font-weight="700" lengthAdjust="spacing" textLength="119.0684" x="935.66" y="344.9951">Administraci&#243;n</text></g><!--entity UC_AUTH--><g class="entity" data-qualified-name="Acceso.UC_AUTH" data-source-line="16" id="ent0012"><ellipse cx="235.3133" cy="347.9967" fill="#F1F1F1" rx="66.9833" ry="15.7967" style="stroke:#181818;stroke-width:0.5;"/><text fill="#000000" font-family="sans-serif" font-size="14" lengthAdjust="spacing" textLength="98.6699" x="185.9784" y="352.6451">autenticarse()</text></g><!--entity UC_RP--><g class="entity" data-qualified-name="Parking.UC_RP" data-source-line="20" id="ent0014"><ellipse cx="496.5247" cy="951.0029" fill="#F1F1F1" rx="70.0147" ry="16.4029" style="stroke:#181818;stroke-width:0.5;"/><text fill="#000000" font-family="sans-serif" font-size="14" lengthAdjust="spacing" textLength="106.415" x="443.3172" y="955.6514">reservarPlaza()</text></g><!--entity UC_CRP--><g class="entity" data-qualified-name="Parking.UC_CRP" data-source-line="21" id="ent0015"><ellipse cx="496.5172" cy="1024.9994" fill="#F1F1F1" rx="101.7972" ry="22.7594" style="stroke:#181818;stroke-width:0.5;"/><text fill="#000000" font-family="sans-serif" font-size="14" lengthAdjust="spacing" textLength="180.0107" x="406.5119" y="1029.6479">cancelarReservaParking()</text></g><!--entity UC_RV--><g class="entity" data-qualified-name="Parking.UC_RV" data-source-line="22" id="ent0016"><ellipse cx="496.5239" cy="1100.9968" fill="#F1F1F1" rx="80.8339" ry="18.5668" style="stroke:#181818;stroke-width:0.5;"/><text fill="#000000" font-family="sans-serif" font-size="14" lengthAdjust="spacing" textLength="132.6377" x="430.205" y="1105.6452">registrarVisitante()</text></g><!--entity UC_CV--><g class="entity" data-qualified-name="Parking.UC_CV" data-source-line="23" id="ent0017"><ellipse cx="496.5212" cy="880.9982" fill="#F1F1F1" rx="80.6912" ry="18.5382" style="stroke:#181818;stroke-width:0.5;"/><text fill="#000000" font-family="sans-serif" font-size="14" lengthAdjust="spacing" textLength="132.3027" x="430.3699" y="885.6467">cancelarVisitante()</text></g><!--entity UC_CP--><g class="entity" data-qualified-name="Parking.UC_CP" data-source-line="24" id="ent0018"><ellipse cx="496.5203" cy="813.0041" fill="#F1F1F1" rx="62.7203" ry="14.9441" style="stroke:#181818;stroke-width:0.5;"/><text fill="#000000" font-family="sans-serif" font-size="14" lengthAdjust="spacing" textLength="87.3291" x="452.8558" y="817.6525">cederPlaza()</text></g><!--entity UC_CC--><g class="entity" data-qualified-name="Parking.UC_CC" data-source-line="25" id="ent0019"><ellipse cx="496.5236" cy="745.9987" fill="#F1F1F1" rx="74.5436" ry="17.3087" style="stroke:#181818;stroke-width:0.5;"/><text fill="#000000" font-family="sans-serif" font-size="14" lengthAdjust="spacing" textLength="117.6191" x="437.7141" y="750.6472">cancelarCesion()</text></g><!--entity UC_CRC--><g class="entity" data-qualified-name="Parking.UC_CRC" data-source-line="26" id="ent0020"><ellipse cx="496.5155" cy="672.0011" fill="#F1F1F1" rx="97.0055" ry="21.8011" style="stroke:#181818;stroke-width:0.5;"/><text fill="#000000" font-family="sans-serif" font-size="14" lengthAdjust="spacing" textLength="169.4355" x="411.7977" y="676.6495">configurarReglaCesion()</text></g><!--entity UC_RPO--><g class="entity" data-qualified-name="Oficinas.UC_RPO" data-source-line="30" id="ent0022"><ellipse cx="235.3093" cy="885.9959" fill="#F1F1F1" rx="74.2293" ry="17.2459" style="stroke:#181818;stroke-width:0.5;"/><text fill="#000000" font-family="sans-serif" font-size="14" lengthAdjust="spacing" textLength="116.8535" x="176.8825" y="890.6443">reservarPuesto()</text></g><!--entity UC_CRPO--><g class="entity" data-qualified-name="Oficinas.UC_CRPO" data-source-line="31" id="ent0023"><ellipse cx="235.3088" cy="811.0018" fill="#F1F1F1" rx="99.4088" ry="22.2818" style="stroke:#181818;stroke-width:0.5;"/><text fill="#000000" font-family="sans-serif" font-size="14" lengthAdjust="spacing" textLength="174.7539" x="147.9319" y="815.6502">cancelarReservaPuesto()</text></g><!--entity UC_SA--><g class="entity" data-qualified-name="Vacaciones.UC_SA" data-source-line="35" id="ent0025"><ellipse cx="772.9866" cy="58.9993" fill="#F1F1F1" rx="79.4466" ry="18.2893" style="stroke:#181818;stroke-width:0.5;"/><text fill="#000000" font-family="sans-serif" font-size="14" lengthAdjust="spacing" textLength="129.3701" x="708.3015" y="63.6478">solicitarAusencia()</text></g><!--entity UC_CSA--><g class="entity" data-qualified-name="Vacaciones.UC_CSA" data-source-line="36" id="ent0026"><ellipse cx="772.9923" cy="135.9985" fill="#F1F1F1" rx="108.2423" ry="24.0485" style="stroke:#181818;stroke-width:0.5;"/><text fill="#000000" font-family="sans-serif" font-size="14" lengthAdjust="spacing" textLength="194.0723" x="675.9561" y="140.6469">cancelarSolicitudAusencia()</text></g><!--entity UC_ASA--><g class="entity" data-qualified-name="Vacaciones.UC_ASA" data-source-line="37" id="ent0027"><ellipse cx="772.9907" cy="218.9981" fill="#F1F1F1" rx="106.0907" ry="23.6181" style="stroke:#181818;stroke-width:0.5;"/><text fill="#000000" font-family="sans-serif" font-size="14" lengthAdjust="spacing" textLength="189.3965" x="678.2924" y="223.6466">aprobarSolicitudAusencia()</text></g><!--entity UC_RSA--><g class="entity" data-qualified-name="Vacaciones.UC_RSA" data-source-line="38" id="ent0028"><ellipse cx="772.9923" cy="301.9985" fill="#F1F1F1" rx="108.9423" ry="24.1885" style="stroke:#181818;stroke-width:0.5;"/><text fill="#000000" font-family="sans-serif" font-size="14" lengthAdjust="spacing" textLength="195.5898" x="675.1974" y="306.6469">rechazarSolicitudAusencia()</text></g><!--entity UC_VSA--><g class="entity" data-qualified-name="Vacaciones.UC_VSA" data-source-line="39" id="ent0029"><ellipse cx="772.9896" cy="470.0039" fill="#F1F1F1" rx="102.8196" ry="22.9639" style="stroke:#181818;stroke-width:0.5;"/><text fill="#000000" font-family="sans-serif" font-size="14" lengthAdjust="spacing" textLength="182.2529" x="681.8632" y="474.6524">validarSolicitudAusencia()</text></g><!--entity UC_RVA--><g class="entity" data-qualified-name="Vacaciones.UC_RVA" data-source-line="40" id="ent0030"><ellipse cx="772.992" cy="387.0044" fill="#F1F1F1" rx="114.672" ry="25.3344" style="stroke:#181818;stroke-width:0.5;"/><text fill="#000000" font-family="sans-serif" font-size="14" lengthAdjust="spacing" textLength="207.9492" x="669.0174" y="391.6528">rechazarValidacionAusencia()</text></g><!--entity UC_CT--><g class="entity" data-qualified-name="Tabl.n.UC_CT" data-source-line="44" id="ent0032"><ellipse cx="772.9904" cy="743.9981" fill="#F1F1F1" rx="76.8904" ry="17.7781" style="stroke:#181818;stroke-width:0.5;"/><text fill="#000000" font-family="sans-serif" font-size="14" lengthAdjust="spacing" textLength="123.2861" x="711.3473" y="748.6465">consultarTablon()</text></g><!--entity UC_PA--><g class="entity" data-qualified-name="Tabl.n.UC_PA" data-source-line="45" id="ent0033"><ellipse cx="772.9859" cy="672.9952" fill="#F1F1F1" rx="77.0759" ry="17.8152" style="stroke:#181818;stroke-width:0.5;"/><text fill="#000000" font-family="sans-serif" font-size="14" lengthAdjust="spacing" textLength="123.7305" x="711.1206" y="677.6436">publicarAnuncio()</text></g><!--entity UC_CD--><g class="entity" data-qualified-name="Directorio.UC_CD" data-source-line="49" id="ent0035"><ellipse cx="235.3084" cy="1186.9977" fill="#F1F1F1" rx="86.1384" ry="19.6277" style="stroke:#181818;stroke-width:0.5;"/><text fill="#000000" font-family="sans-serif" font-size="14" lengthAdjust="spacing" textLength="144.9424" x="162.8372" y="1191.6461">consultarDirectorio()</text></g><!--entity UC_EP--><g class="entity" data-qualified-name="Ajustes.UC_EP" data-source-line="53" id="ent0037"><ellipse cx="235.3104" cy="1452.9981" fill="#F1F1F1" rx="62.8404" ry="14.9681" style="stroke:#181818;stroke-width:0.5;"/><text fill="#000000" font-family="sans-serif" font-size="14" lengthAdjust="spacing" textLength="87.6572" x="191.4818" y="1457.6465">editarPerfil()</text></g><!--entity UC_CFP--><g class="entity" data-qualified-name="Ajustes.UC_CFP" data-source-line="54" id="ent0038"><ellipse cx="235.3126" cy="1381.0025" fill="#F1F1F1" rx="97.1626" ry="21.8325" style="stroke:#181818;stroke-width:0.5;"/><text fill="#000000" font-family="sans-serif" font-size="14" lengthAdjust="spacing" textLength="169.7842" x="150.4205" y="1385.651">configurarPreferencias()</text></g><!--entity UC_CM--><g class="entity" data-qualified-name="Ajustes.UC_CM" data-source-line="55" id="ent0039"><ellipse cx="235.3071" cy="1302.9994" fill="#F1F1F1" rx="94.1971" ry="21.2394" style="stroke:#181818;stroke-width:0.5;"/><text fill="#000000" font-family="sans-serif" font-size="14" lengthAdjust="spacing" textLength="163.1807" x="153.7168" y="1307.6479">conectarMicrosoft365()</text></g><!--entity UC_GE--><g class="entity" data-qualified-name="Administraci.n.UC_GE" data-source-line="59" id="ent0041"><ellipse cx="1034.3592" cy="746.9998" fill="#F1F1F1" rx="86.6992" ry="19.7398" style="stroke:#181818;stroke-width:0.5;"/><text fill="#000000" font-family="sans-serif" font-size="14" lengthAdjust="spacing" textLength="146.2275" x="961.2454" y="751.6483">gestionarEntidades()</text></g><!--entity UC_GP--><g class="entity" data-qualified-name="Administraci.n.UC_GP" data-source-line="60" id="ent0042"><ellipse cx="1034.3608" cy="674.9982" fill="#F1F1F1" rx="75.9408" ry="17.5882" style="stroke:#181818;stroke-width:0.5;"/><text fill="#000000" font-family="sans-serif" font-size="14" lengthAdjust="spacing" textLength="121.0029" x="973.8593" y="679.6466">gestionarPlazas()</text></g><!--entity UC_GU--><g class="entity" data-qualified-name="Administraci.n.UC_GU" data-source-line="61" id="ent0043"><ellipse cx="1034.3588" cy="603.0018" fill="#F1F1F1" rx="82.8588" ry="18.9718" style="stroke:#181818;stroke-width:0.5;"/><text fill="#000000" font-family="sans-serif" font-size="14" lengthAdjust="spacing" textLength="137.3682" x="965.6747" y="607.6502">gestionarUsuarios()</text></g><!--entity UC_CMO--><g class="entity" data-qualified-name="Administraci.n.UC_CMO" data-source-line="62" id="ent0044"><ellipse cx="1034.3647" cy="530.0049" fill="#F1F1F1" rx="84.3747" ry="19.2749" style="stroke:#181818;stroke-width:0.5;"/><text fill="#000000" font-family="sans-serif" font-size="14" lengthAdjust="spacing" textLength="140.8818" x="963.9238" y="534.6534">configurarModulos()</text></g><!--entity UC_CS--><g class="entity" data-qualified-name="Administraci.n.UC_CS" data-source-line="63" id="ent0045"><ellipse cx="1034.3626" cy="457.0025" fill="#F1F1F1" rx="83.6126" ry="19.1225" style="stroke:#181818;stroke-width:0.5;"/><text fill="#000000" font-family="sans-serif" font-size="14" lengthAdjust="spacing" textLength="139.1182" x="964.8035" y="461.651">configurarSistema()</text></g><!--entity UC_CA--><g class="entity" data-qualified-name="Administraci.n.UC_CA" data-source-line="64" id="ent0046"><ellipse cx="1034.3637" cy="383.9967" fill="#F1F1F1" rx="83.7837" ry="19.1567" style="stroke:#181818;stroke-width:0.5;"/><text fill="#000000" font-family="sans-serif" font-size="14" lengthAdjust="spacing" textLength="139.5146" x="964.6064" y="388.6452">consultarAnalytics()</text></g><!--entity empleado--><g class="entity" data-qualified-name="empleado" data-source-line="3" id="ent0002"><ellipse cx="40.9521" cy="856.35" fill="#F1F1F1" rx="8" ry="8" style="stroke:#181818;stroke-width:0.5;"/><path d="M40.9521,864.35 L40.9521,891.35 M27.9521,872.35 L53.9521,872.35 M40.9521,891.35 L27.9521,906.35 M40.9521,891.35 L53.9521,906.35" fill="none" style="stroke:#181818;stroke-width:0.5;"/><text fill="#000000" font-family="sans-serif" font-size="14" lengthAdjust="spacing" textLength="69.9043" x="6" y="920.8451">Empleado</text></g><!--entity manager--><g class="entity" data-qualified-name="manager" data-source-line="4" id="ent0003"><ellipse cx="235.3131" cy="599.35" fill="#F1F1F1" rx="8" ry="8" style="stroke:#181818;stroke-width:0.5;"/><path d="M235.3131,607.35 L235.3131,634.35 M222.3131,615.35 L248.3131,615.35 M235.3131,634.35 L222.3131,649.35 M235.3131,634.35 L248.3131,649.35" fill="none" style="stroke:#181818;stroke-width:0.5;"/><text fill="#000000" font-family="sans-serif" font-size="14" lengthAdjust="spacing" textLength="61.3662" x="204.63" y="663.8451">Manager</text></g><!--entity rrhh--><g class="entity" data-qualified-name="rrhh" data-source-line="5" id="ent0004"><ellipse cx="496.5149" cy="460.35" fill="#F1F1F1" rx="8" ry="8" style="stroke:#181818;stroke-width:0.5;"/><path d="M496.5149,468.35 L496.5149,495.35 M483.5149,476.35 L509.5149,476.35 M496.5149,495.35 L483.5149,510.35 M496.5149,495.35 L509.5149,510.35" fill="none" style="stroke:#181818;stroke-width:0.5;"/><text fill="#000000" font-family="sans-serif" font-size="14" lengthAdjust="spacing" textLength="40.5098" x="476.26" y="524.8451">RRHH</text></g><!--entity admin--><g class="entity" data-qualified-name="admin" data-source-line="6" id="ent0005"><ellipse cx="772.99" cy="536.35" fill="#F1F1F1" rx="8" ry="8" style="stroke:#181818;stroke-width:0.5;"/><path d="M772.99,544.35 L772.99,571.35 M759.99,552.35 L785.99,552.35 M772.99,571.35 L759.99,586.35 M772.99,571.35 L785.99,586.35" fill="none" style="stroke:#181818;stroke-width:0.5;"/><text fill="#000000" font-family="sans-serif" font-size="14" lengthAdjust="spacing" textLength="99.0801" x="723.45" y="600.8451">Administrador</text></g><!--entity entraID--><g class="entity" data-qualified-name="entraID" data-source-line="8" id="ent0006"><ellipse cx="496.5239" cy="191.2" fill="#EEEEEE" rx="8" ry="8" style="stroke:#181818;stroke-width:0.5;"/><path d="M496.5239,199.2 L496.5239,226.2 M483.5239,207.2 L509.5239,207.2 M496.5239,226.2 L483.5239,241.2 M496.5239,226.2 L509.5239,241.2" fill="none" style="stroke:#181818;stroke-width:0.5;"/><text fill="#000000" font-family="sans-serif" font-size="14" lengthAdjust="spacing" textLength="71.9277" x="460.56" y="255.6951">&#171;sistema&#187;</text><text fill="#000000" font-family="sans-serif" font-size="14" lengthAdjust="spacing" textLength="56.9023" x="460.56" y="271.992">Entra ID</text></g><!--entity msGraph--><g class="entity" data-qualified-name="msGraph" data-source-line="9" id="ent0007"><ellipse cx="772.9891" cy="1034.2" fill="#EEEEEE" rx="8" ry="8" style="stroke:#181818;stroke-width:0.5;"/><path d="M772.9891,1042.2 L772.9891,1069.2 M759.9891,1050.2 L785.9891,1050.2 M772.9891,1069.2 L759.9891,1084.2 M772.9891,1069.2 L785.9891,1084.2" fill="none" style="stroke:#181818;stroke-width:0.5;"/><text fill="#000000" font-family="sans-serif" font-size="14" lengthAdjust="spacing" textLength="71.9277" x="717.16" y="1098.6951">&#171;sistema&#187;</text><text fill="#000000" font-family="sans-serif" font-size="14" lengthAdjust="spacing" textLength="111.6582" x="717.16" y="1114.992">Microsoft Graph</text></g><!--reverse link empleado to manager--><g class="link" data-entity-1="ent0002" data-entity-2="ent0003" data-link-type="extension" data-source-line="11" id="lnk8"><path d="M50.8629,829.8975 C58.7329,787.8675 73.37,738.3 111.9,694 C136.54,665.68 176.61,647.74 204.15,638.04" fill="none" id="empleado-backto-manager" style="stroke:#181818;stroke-width:1;"/><polygon fill="none" points="47.55,847.59,56.7604,831.0018,44.9654,828.7932,47.55,847.59" style="stroke:#181818;stroke-width:1;"/></g><!--reverse link manager to rrhh--><g class="link" data-entity-1="ent0003" data-entity-2="ent0004" data-link-type="extension" data-source-line="12" id="lnk9"><path d="M282.1633,604.4139 C335.8733,575.6139 431.18,524.5 476.08,500.43" fill="none" id="manager-backto-rrhh" style="stroke:#181818;stroke-width:1;"/><polygon fill="none" points="266.3,612.92,284.9987,609.7016,279.328,599.1261,266.3,612.92" style="stroke:#181818;stroke-width:1;"/></g><!--reverse link rrhh to admin--><g class="link" data-entity-1="ent0004" data-entity-2="ent0005" data-link-type="extension" data-source-line="13" id="lnk10"><path d="M534.6072,500.2735 C577.2572,512.0835 661.75,535.48 722.96,552.43" fill="none" id="rrhh-backto-admin" style="stroke:#181818;stroke-width:1;"/><polygon fill="none" points="517.26,495.47,533.006,506.0559,536.2084,494.4911,517.26,495.47" style="stroke:#181818;stroke-width:1;"/></g><!--link empleado to UC_AUTH--><g class="link" data-entity-1="ent0002" data-entity-2="ent0012" data-link-type="dependency" data-source-line="69" id="lnk47"><path d="M43.44,847.44 C47.36,777.68 61.46,627.1 111.9,512 C138.72,450.82 187.9903,395.3644 214.5003,367.9344" fill="none" id="empleado-to-UC_AUTH" style="stroke:#181818;stroke-width:1;"/><polygon fill="#181818" points="218.67,363.62,209.5392,367.3118,215.1953,367.2153,215.2917,372.8713,218.67,363.62" style="stroke:#181818;stroke-width:1;"/></g><!--link empleado to UC_RP--><g class="link" data-entity-1="ent0002" data-entity-2="ent0014" data-link-type="dependency" data-source-line="70" id="lnk48"><path d="M76.25,905.16 C87.31,910.53 99.84,915.77 111.9,919 C219.06,947.74 342.55,952.6669 420.35,952.5769" fill="none" id="empleado-to-UC_RP" style="stroke:#181818;stroke-width:1;"/><polygon fill="#181818" points="426.35,952.57,417.3454,948.5804,421.35,952.5758,417.3546,956.5804,426.35,952.57" style="stroke:#181818;stroke-width:1;"/></g><!--link empleado to UC_CRP--><g class="link" data-entity-1="ent0002" data-entity-2="ent0015" data-link-type="dependency" data-source-line="71" id="lnk49"><path d="M69.83,924.51 C81.38,937.76 95.84,951.42 111.9,960 C199.78,1006.95 307.7566,1021.0989 388.5666,1024.8889" fill="none" id="empleado-to-UC_CRP" style="stroke:#181818;stroke-width:1;"/><polygon fill="#181818" points="394.56,1025.17,385.7573,1020.7528,389.5655,1024.9358,385.3825,1028.744,394.56,1025.17" style="stroke:#181818;stroke-width:1;"/></g><!--link empleado to UC_RV--><g class="link" data-entity-1="ent0002" data-entity-2="ent0016" data-link-type="dependency" data-source-line="72" id="lnk50"><path d="M50.2,924.62 C59.42,958.05 77.77,1005 111.9,1031 C200.9,1098.78 328.8514,1108.361 412.6314,1106.531" fill="none" id="empleado-to-UC_RV" style="stroke:#181818;stroke-width:1;"/><polygon fill="#181818" points="418.63,1106.4,409.5448,1102.5975,413.6312,1106.5092,409.7195,1110.5956,418.63,1106.4" style="stroke:#181818;stroke-width:1;"/></g><!--link empleado to UC_CV--><g class="link" data-entity-1="ent0002" data-entity-2="ent0017" data-link-type="dependency" data-source-line="73" id="lnk51"><path d="M54.53,847.38 C65.28,821.27 83.58,788.78 111.9,773 C207.74,719.62 275.02,702.09 358.72,773 C383.48,793.97 349.15,820.77 370.72,845 C383.84,859.74 396.8005,866.9883 415.7705,872.2783" fill="none" id="empleado-to-UC_CV" style="stroke:#181818;stroke-width:1;"/><polygon fill="#181818" points="421.55,873.89,413.9552,867.6195,416.7338,872.5469,411.8063,875.3255,421.55,873.89" style="stroke:#181818;stroke-width:1;"/></g><!--link empleado to UC_RPO--><g class="link" data-entity-1="ent0002" data-entity-2="ent0022" data-link-type="dependency" data-source-line="74" id="lnk52"><path d="M76.34,886 C99.79,886 125.74,886 154.77,886" fill="none" id="empleado-to-UC_RPO" style="stroke:#181818;stroke-width:1;"/><polygon fill="#181818" points="160.77,886,151.77,882,155.77,886,151.77,890,160.77,886" style="stroke:#181818;stroke-width:1;"/></g><!--link empleado to UC_CRPO--><g class="link" data-entity-1="ent0002" data-entity-2="ent0023" data-link-type="dependency" data-source-line="75" id="lnk53"><path d="M76.35,867.52 C87.53,861.86 100.1,855.85 111.9,851 C131.65,842.88 147.9867,837.0926 167.8767,830.7126" fill="none" id="empleado-to-UC_CRPO" style="stroke:#181818;stroke-width:1;"/><polygon fill="#181818" points="173.59,828.88,163.7983,827.8201,168.8289,830.4072,166.2418,835.4378,173.59,828.88" style="stroke:#181818;stroke-width:1;"/></g><!--link empleado to UC_SA--><g class="link" data-entity-1="ent0002" data-entity-2="ent0025" data-link-type="dependency" data-source-line="76" id="lnk54"><path d="M43.59,847.77 C49.71,712.47 72.87,261.7 111.9,211 C252.41,28.47 558.3692,35.6892 697.1392,49.4192" fill="none" id="empleado-to-UC_SA" style="stroke:#181818;stroke-width:1;"/><polygon fill="#181818" points="703.11,50.01,694.5476,45.1433,698.1343,49.5177,693.7599,53.1044,703.11,50.01" style="stroke:#181818;stroke-width:1;"/></g><!--link empleado to UC_CSA--><g class="link" data-entity-1="ent0002" data-entity-2="ent0026" data-link-type="dependency" data-source-line="77" id="lnk55"><path d="M42.31,847.5 C44.04,734.1 54.05,403.85 111.9,316 C231.63,134.21 512.186,120.1816 665.376,127.0416" fill="none" id="empleado-to-UC_CSA" style="stroke:#181818;stroke-width:1;"/><polygon fill="#181818" points="671.37,127.31,662.558,122.9114,666.375,127.0863,662.2001,130.9034,671.37,127.31" style="stroke:#181818;stroke-width:1;"/></g><!--link empleado to UC_CT--><g class="link" data-entity-1="ent0002" data-entity-2="ent0032" data-link-type="dependency" data-source-line="78" id="lnk56"><path d="M44.71,847.52 C51.03,771.63 69.43,607.03 111.9,573 C197.51,504.41 249.73,560.55 358.72,573 C478.19,586.64 540.17,546.19 622.32,634 C645.08,658.33 611.9,683.35 634.32,708 C650.52,725.82 668.4779,734.0576 691.7779,738.9476" fill="none" id="empleado-to-UC_CT" style="stroke:#181818;stroke-width:1;"/><polygon fill="#181818" points="697.65,740.18,689.6635,734.4167,692.7566,739.153,688.0203,742.2461,697.65,740.18" style="stroke:#181818;stroke-width:1;"/></g><!--link empleado to UC_CD--><g class="link" data-entity-1="ent0002" data-entity-2="ent0035" data-link-type="dependency" data-source-line="79" id="lnk57"><path d="M44.07,924.52 C48.75,975.51 63.75,1065.74 111.9,1124 C130.1,1146.02 152.4175,1158.961 176.9775,1168.891" fill="none" id="empleado-to-UC_CD" style="stroke:#181818;stroke-width:1;"/><polygon fill="#181818" points="182.54,1171.14,175.6955,1164.0581,177.9045,1169.2658,172.6968,1171.4748,182.54,1171.14" style="stroke:#181818;stroke-width:1;"/></g><!--link empleado to UC_EP--><g class="link" data-entity-1="ent0002" data-entity-2="ent0037" data-link-type="dependency" data-source-line="80" id="lnk58"><path d="M41.65,924.37 C41.6,1034.11 47.25,1346.12 111.9,1420 C127.2,1437.47 144.7716,1445.0507 167.0916,1449.2107" fill="none" id="empleado-to-UC_EP" style="stroke:#181818;stroke-width:1;"/><polygon fill="#181818" points="172.99,1450.31,164.8753,1444.7287,168.0746,1449.3939,163.4095,1452.5933,172.99,1450.31" style="stroke:#181818;stroke-width:1;"/></g><!--link empleado to UC_CFP--><g class="link" data-entity-1="ent0002" data-entity-2="ent0038" data-link-type="dependency" data-source-line="81" id="lnk59"><path d="M42.79,924.57 C45.7,1022.86 58.37,1279.37 111.9,1342 C122.7,1354.63 131.9554,1361.121 147.6254,1366.941" fill="none" id="empleado-to-UC_CFP" style="stroke:#181818;stroke-width:1;"/><polygon fill="#181818" points="153.25,1369.03,146.2058,1362.1467,148.5628,1367.2891,143.4204,1369.6462,153.25,1369.03" style="stroke:#181818;stroke-width:1;"/></g><!--link empleado to UC_CM--><g class="link" data-entity-1="ent0002" data-entity-2="ent0039" data-link-type="dependency" data-source-line="82" id="lnk60"><path d="M46.21,924.59 C55.38,1002.34 78.88,1174.55 111.9,1223 C130.71,1250.59 157.1263,1268.251 183.5963,1281.521" fill="none" id="empleado-to-UC_CM" style="stroke:#181818;stroke-width:1;"/><polygon fill="#181818" points="188.96,1284.21,182.7071,1276.6008,184.4902,1281.9692,179.1218,1283.7524,188.96,1284.21" style="stroke:#181818;stroke-width:1;"/></g><!--link manager to UC_CP--><g class="link" data-entity-1="ent0003" data-entity-2="ent0018" data-link-type="dependency" data-source-line="86" id="lnk61"><path d="M266.28,636.42 C294.9,645.16 336.81,662.64 358.72,694 C381.08,726 344.74,751.87 370.72,781 C386.58,798.78 404.9245,806.2965 427.8545,810.1865" fill="none" id="manager-to-UC_CP" style="stroke:#181818;stroke-width:1;"/><polygon fill="#181818" points="433.77,811.19,425.5658,805.741,428.8404,810.3537,424.2278,813.6283,433.77,811.19" style="stroke:#181818;stroke-width:1;"/></g><!--link manager to UC_CC--><g class="link" data-entity-1="ent0003" data-entity-2="ent0019" data-link-type="dependency" data-source-line="87" id="lnk62"><path d="M266.4,640.28 C292.77,651.2 331.1,669.67 358.72,694 C365.66,700.11 363.17,705.67 370.72,711 C388.74,723.72 405.4252,730.3905 426.3452,735.5605" fill="none" id="manager-to-UC_CC" style="stroke:#181818;stroke-width:1;"/><polygon fill="#181818" points="432.17,737,424.3925,730.9576,427.316,735.8004,422.4732,738.7239,432.17,737" style="stroke:#181818;stroke-width:1;"/></g><!--link manager to UC_CRC--><g class="link" data-entity-1="ent0003" data-entity-2="ent0020" data-link-type="dependency" data-source-line="88" id="lnk63"><path d="M266.3,633.97 C303.01,640.07 360.6709,649.6283 411.5609,658.0683" fill="none" id="manager-to-UC_CRC" style="stroke:#181818;stroke-width:1;"/><polygon fill="#181818" points="417.48,659.05,409.2557,653.6314,412.5474,658.2319,407.9468,661.5236,417.48,659.05" style="stroke:#181818;stroke-width:1;"/></g><!--link manager to UC_ASA--><g class="link" data-entity-1="ent0003" data-entity-2="ent0027" data-link-type="dependency" data-source-line="89" id="lnk64"><path d="M251.71,590.53 C278.35,525.68 333.75,398.67 370.72,368 C460.53,293.5 537.41,373.03 622.32,293 C633.67,282.3 622.96,270.7 634.32,260 C648.11,247 660.1617,240.0187 678.2817,233.9387" fill="none" id="manager-to-UC_ASA" style="stroke:#181818;stroke-width:1;"/><polygon fill="#181818" points="683.97,232.03,674.1651,231.1008,679.2297,233.6206,676.71,238.6852,683.97,232.03" style="stroke:#181818;stroke-width:1;"/></g><!--link manager to UC_RSA--><g class="link" data-entity-1="ent0003" data-entity-2="ent0028" data-link-type="dependency" data-source-line="90" id="lnk65"><path d="M253.17,590.68 C274.44,546.67 315.05,475.24 370.72,434 C465.01,364.15 519.42,410.39 622.32,354 C628.4,350.66 628.21,347.3 634.32,344 C653.33,333.72 669.4783,327.3414 690.1183,321.0814" fill="none" id="manager-to-UC_RSA" style="stroke:#181818;stroke-width:1;"/><polygon fill="#181818" points="695.86,319.34,686.0865,318.1243,691.0752,320.7912,688.4084,325.78,695.86,319.34" style="stroke:#181818;stroke-width:1;"/></g><!--link rrhh to UC_VSA--><g class="link" data-entity-1="ent0004" data-entity-2="ent0029" data-link-type="dependency" data-source-line="94" id="lnk66"><path d="M517.26,488.56 C549.95,486.18 611.4458,481.6955 668.7458,477.5255" fill="none" id="rrhh-to-UC_VSA" style="stroke:#181818;stroke-width:1;"/><polygon fill="#181818" points="674.73,477.09,665.4634,473.7538,669.7432,477.4529,666.0441,481.7327,674.73,477.09" style="stroke:#181818;stroke-width:1;"/></g><!--link rrhh to UC_RVA--><g class="link" data-entity-1="ent0004" data-entity-2="ent0030" data-link-type="dependency" data-source-line="95" id="lnk67"><path d="M517.17,480.56 C543.49,468.1 591.81,445.9 634.32,430 C656.01,421.88 674.2677,415.7923 696.0677,409.0523" fill="none" id="rrhh-to-UC_RVA" style="stroke:#181818;stroke-width:1;"/><polygon fill="#181818" points="701.8,407.28,692.0201,406.1169,697.0231,408.7569,694.3831,413.7599,701.8,407.28" style="stroke:#181818;stroke-width:1;"/></g><!--link rrhh to UC_PA--><g class="link" data-entity-1="ent0004" data-entity-2="ent0033" data-link-type="dependency" data-source-line="96" id="lnk68"><path d="M517.1,494.42 C545.15,501.83 596.27,519.57 622.32,555 C640.23,579.37 614.91,598.8 634.32,622 C652.55,643.8 675.2297,654.7076 701.5597,661.8576" fill="none" id="rrhh-to-UC_PA" style="stroke:#181818;stroke-width:1;"/><polygon fill="#181818" points="707.35,663.43,699.7128,657.2112,702.5247,662.1197,697.6163,664.9316,707.35,663.43" style="stroke:#181818;stroke-width:1;"/></g><!--link admin to UC_GE--><g class="link" data-entity-1="ent0005" data-entity-2="ent0041" data-link-type="dependency" data-source-line="100" id="lnk69"><path d="M822.85,579.66 C853.17,590.71 890.28,609.39 911.66,639 C930.39,664.95 902.89,685.66 923.66,710 C933.84,721.93 942.3759,727.9295 957.1459,733.4195" fill="none" id="admin-to-UC_GE" style="stroke:#181818;stroke-width:1;"/><polygon fill="#181818" points="962.77,735.51,955.7276,728.6249,958.0833,733.768,952.9403,736.1237,962.77,735.51" style="stroke:#181818;stroke-width:1;"/></g><!--link admin to UC_GP--><g class="link" data-entity-1="ent0005" data-entity-2="ent0042" data-link-type="dependency" data-source-line="101" id="lnk70"><path d="M822.77,591.89 C851.66,606.69 889.24,625.03 923.66,639 C943.81,647.18 960.8682,653.0842 980.4182,659.2542" fill="none" id="admin-to-UC_GP" style="stroke:#181818;stroke-width:1;"/><polygon fill="#181818" points="986.14,661.06,978.7612,654.5368,981.3718,659.5552,976.3534,662.1658,986.14,661.06" style="stroke:#181818;stroke-width:1;"/></g><!--link admin to UC_GU--><g class="link" data-entity-1="ent0005" data-entity-2="ent0043" data-link-type="dependency" data-source-line="102" id="lnk71"><path d="M822.77,572.96 C862.4,578.61 912.8501,585.813 957.3101,592.153" fill="none" id="admin-to-UC_GU" style="stroke:#181818;stroke-width:1;"/><polygon fill="#181818" points="963.25,593,954.9048,587.7695,958.3001,592.2941,953.7754,595.6894,963.25,593" style="stroke:#181818;stroke-width:1;"/></g><!--link admin to UC_CMO--><g class="link" data-entity-1="ent0005" data-entity-2="ent0044" data-link-type="dependency" data-source-line="103" id="lnk72"><path d="M822.77,559.23 C861.81,553.81 911.1768,546.9538 955.3268,540.8338" fill="none" id="admin-to-UC_CMO" style="stroke:#181818;stroke-width:1;"/><polygon fill="#181818" points="961.27,540.01,951.806,537.2836,956.3174,540.6965,952.9045,545.2079,961.27,540.01" style="stroke:#181818;stroke-width:1;"/></g><!--link admin to UC_CS--><g class="link" data-entity-1="ent0005" data-entity-2="ent0045" data-link-type="dependency" data-source-line="104" id="lnk73"><path d="M822.88,552.83 C850.81,543.66 885.4,529.38 911.66,509 C918.68,503.55 916.44,498.18 923.66,493 C937.91,482.78 949.5303,477.1837 966.1603,471.8137" fill="none" id="admin-to-UC_CS" style="stroke:#181818;stroke-width:1;"/><polygon fill="#181818" points="971.87,469.97,962.0763,468.9291,967.1119,471.5064,964.5346,476.5421,971.87,469.97" style="stroke:#181818;stroke-width:1;"/></g><!--link admin to UC_CA--><g class="link" data-entity-1="ent0005" data-entity-2="ent0046" data-link-type="dependency" data-source-line="105" id="lnk74"><path d="M822.9,558.38 C853.23,551.01 890.36,536.67 911.66,509 C936.01,477.37 898.14,450.68 923.66,420 C933.79,407.83 942.4624,401.7659 957.4324,396.3959" fill="none" id="admin-to-UC_CA" style="stroke:#181818;stroke-width:1;"/><polygon fill="#181818" points="963.08,394.37,953.258,393.6438,958.3736,396.0583,955.9592,401.1739,963.08,394.37" style="stroke:#181818;stroke-width:1;"/></g><!--link UC_AUTH to entraID--><g class="link" data-entity-1="ent0012" data-entity-2="ent0006" data-link-type="dependency" data-source-line="109" id="lnk75"><path d="M267.32,333.76 C315.83,311.49 403.9274,271.0538 454.8874,247.6538" fill="none" id="UC_AUTH-to-entraID" style="stroke:#181818;stroke-width:1;"/><polygon fill="#181818" points="460.34,245.15,450.4919,245.2706,455.7961,247.2365,453.8302,252.5407,460.34,245.15" style="stroke:#181818;stroke-width:1;"/></g><!--link UC_CM to msGraph--><g class="link" data-entity-1="ent0039" data-entity-2="ent0007" data-link-type="dependency" data-source-line="110" id="lnk76"><path d="M280.15,1284.1 C377.23,1242.23 604.6503,1144.1557 711.3803,1098.1357" fill="none" id="UC_CM-to-msGraph" style="stroke:#181818;stroke-width:1;"/><polygon fill="#181818" points="716.89,1095.76,707.0418,1095.6504,712.2986,1097.7397,710.2093,1102.9966,716.89,1095.76" style="stroke:#181818;stroke-width:1;"/></g><!--link UC_CRC to msGraph--><g class="link" data-entity-1="ent0020" data-entity-2="ent0007" data-link-type="dependency" data-source-line="111" id="lnk77"><path d="M579.25,683.65 C595.48,689.48 610.98,698.14 622.32,711 C642.32,733.69 625.16,749.17 634.32,778 C663.28,869.18 711.4828,963.4503 742.6128,1020.1603" fill="none" id="UC_CRC-to-msGraph" style="stroke:#181818;stroke-width:1;"/><polygon fill="#181818" points="745.5,1025.42,744.6756,1015.6057,743.094,1021.0369,737.6628,1019.4553,745.5,1025.42" style="stroke:#181818;stroke-width:1;"/></g><?plantuml-src tLUzRjim4Dxr54Gwj1qy5UrK511anybWM91_fWB5cQ9bDh9aa5A0_W5zYBv5nuxTqZVfa_H8aR8eCkcS64O2VlhkUFVnT4UNRD-GfYQ25uU6v5mmsl2wYYAWJIt8nUnuAXdazGNH7v246SGo5b11mOGXACQnGomXowwkxDEE8CJXO9_6-P5NN3O2NQ8JV0eAwGEu-odnAJl2tU_trQn27hcU3jpfa1HyFUtMpvZ-1EqNd8fQrfZoNC3fS643bdhfsaSsKVBswsJI9sN-amxLcQW_sbH39lmJq1iaOeAKCedwVOa8QIMZ8164ji6WEGKXsOkNetGsoOTuixwAlWsyf21kU5MCt0WccRW5aPRm6Hm_dPii7R8fL9IL8BBEohXKPXqxSUc25VfSn9PBta3Lz94QvzkGSuzidRjibhD0r6TsCF24IQpDeOLX9mwxhlQyQ8LAj2XXO6JJJ1nfbtjEUGNoFcrR9flQtpHBbm-9UxRgnLqwssw10iN8s7XZMPSOK0CYHgYY7485ief3cwywqpPtJKq4hWsSHBsxryJMeMk3tU60P_RmFfbhSmibp_-tppQyprRRAfKSArj_iIFe6dRbdr_LI4si1jcMgAPwx1IFKMKzP9_QNQdUohXgSRVQOwVkbbFTBsl1w_jsFJESV9EfuoV-s6AF6XS2orKLf4piUHcgWLaQBljKi3qJMYuvUBilntGC34JV4b-zUUrKoyADi6_JbFiY5rZiU4WWi47ZWULCkgrYFWkoTGEGdiZpDCZUo1PGHpbgBFDDM8L5dRUbnquMop1zrKs9CNqLFDMuWl8JjkzHceckZkVaxu_l-2LsTfhre_uEnk5ayguVKMCG9yWOIW8OZWwFjWquMuQy-I0s3uyNmjO-DFMWMI25om2s69oqkGCzXOFMPsqlEJRNr4CI3yayI0sF4QHcmrasTJDy8feDnDFNGPElccl3jPfPmtKwbCEv2fF7cRo-_ThiiEsxwtIqthXhrPnTO3LQEtAfkSeaCVTxyjYaCZrKvsP-mKHQ19md2ZE_IgBkvNAmVm00?></g></svg>