<?xml version="1.0" encoding="us-ascii" standalone="no"?><svg xmlns="http://www.w3.org/2000/svg" xmlns:xlink="http://www.w3.org/1999/xlink" contentStyleType="text/css" height="763px" preserveAspectRatio="none" style="width:2253px;height:763px;background:#FFFFFF;" version="1.1" viewBox="0 0 2253 763" width="2253px" zoomAndPan="magnify"><defs/><g><text fill="#000000" font-family="Arial" font-size="14" font-weight="bold" lengthAdjust="spacing" textLength="203" x="1018" y="22.6738">Clases de dise&#241;o principales</text><!--class Profile--><g id="elem_Profile"><rect codeLine="27" fill="#D5ECD4" height="116.3125" id="Profile" rx="2.5" ry="2.5" style="stroke:#2E7D32;stroke-width:1.5;" width="107" x="860.5" y="468.1406"/><text fill="#000000" font-family="Arial" font-size="11" font-style="italic" lengthAdjust="spacing" textLength="48" x="890" y="483.0986">&#171;modelo&#187;</text><text fill="#000000" font-family="Arial" font-size="11" lengthAdjust="spacing" textLength="36" x="896" y="495.3877">profiles</text><line style="stroke:#2E7D32;stroke-width:1.5;" x1="861.5" x2="966.5" y1="502.7188" y2="502.7188"/><text fill="#000000" font-family="Arial" font-size="11" lengthAdjust="spacing" textLength="53" x="866.5" y="516.6768">id: UUID PK</text><text fill="#000000" font-family="Arial" font-size="11" lengthAdjust="spacing" textLength="48" x="866.5" y="528.9658">email: text</text><text fill="#000000" font-family="Arial" font-size="11" lengthAdjust="spacing" textLength="65" x="866.5" y="541.2549">fullName: text</text><text fill="#000000" font-family="Arial" font-size="11" lengthAdjust="spacing" textLength="70" x="866.5" y="553.5439">role: user_role</text><text fill="#000000" font-family="Arial" font-size="11" lengthAdjust="spacing" textLength="79" x="866.5" y="565.833">entityId: UUID FK</text><text fill="#000000" font-family="Arial" font-size="11" lengthAdjust="spacing" textLength="95" x="866.5" y="578.1221">managerId: UUID FK</text></g><!--class Entity--><g id="elem_Entity"><rect codeLine="36" fill="#D5ECD4" height="91.7344" id="Entity" rx="2.5" ry="2.5" style="stroke:#2E7D32;stroke-width:1.5;" width="95" x="866.5" y="664.6406"/><text fill="#000000" font-family="Arial" font-size="11" font-style="italic" lengthAdjust="spacing" textLength="48" x="890" y="679.5986">&#171;modelo&#187;</text><text fill="#000000" font-family="Arial" font-size="11" lengthAdjust="spacing" textLength="34" x="897" y="691.8877">entities</text><line style="stroke:#2E7D32;stroke-width:1.5;" x1="867.5" x2="960.5" y1="699.2188" y2="699.2188"/><text fill="#000000" font-family="Arial" font-size="11" lengthAdjust="spacing" textLength="53" x="872.5" y="713.1768">id: UUID PK</text><text fill="#000000" font-family="Arial" font-size="11" lengthAdjust="spacing" textLength="50" x="872.5" y="725.4658">name: text</text><text fill="#000000" font-family="Arial" font-size="11" lengthAdjust="spacing" textLength="74" x="872.5" y="737.7549">shortCode: text</text><text fill="#000000" font-family="Arial" font-size="11" lengthAdjust="spacing" textLength="83" x="872.5" y="750.0439">isActive: boolean</text></g><!--class Spot--><g id="elem_Spot"><rect codeLine="43" fill="#D5ECD4" height="128.6016" id="Spot" rx="2.5" ry="2.5" style="stroke:#2E7D32;stroke-width:1.5;" width="157" x="680.5" y="252.6406"/><text fill="#000000" font-family="Arial" font-size="11" font-style="italic" lengthAdjust="spacing" textLength="48" x="735" y="267.5986">&#171;modelo&#187;</text><text fill="#000000" font-family="Arial" font-size="11" lengthAdjust="spacing" textLength="27" x="745.5" y="279.8877">spots</text><line style="stroke:#2E7D32;stroke-width:1.5;" x1="681.5" x2="836.5" y1="287.2188" y2="287.2188"/><text fill="#000000" font-family="Arial" font-size="11" lengthAdjust="spacing" textLength="53" x="686.5" y="301.1768">id: UUID PK</text><text fill="#000000" font-family="Arial" font-size="11" lengthAdjust="spacing" textLength="46" x="686.5" y="313.4658">label: text</text><text fill="#000000" font-family="Arial" font-size="11" lengthAdjust="spacing" textLength="75" x="686.5" y="325.7549">type: spot_type</text><text fill="#000000" font-family="Arial" font-size="11" lengthAdjust="spacing" textLength="145" x="686.5" y="338.0439">resourceType: resource_type</text><text fill="#000000" font-family="Arial" font-size="11" lengthAdjust="spacing" textLength="101" x="686.5" y="350.333">assignedTo: UUID FK</text><text fill="#000000" font-family="Arial" font-size="11" lengthAdjust="spacing" textLength="79" x="686.5" y="362.6221">entityId: UUID FK</text><text fill="#000000" font-family="Arial" font-size="11" lengthAdjust="spacing" textLength="83" x="686.5" y="374.9111">isActive: boolean</text></g><!--class Reservation--><g id="elem_Reservation"><rect codeLine="53" fill="#D5ECD4" height="128.6016" id="Reservation" rx="2.5" ry="2.5" style="stroke:#2E7D32;stroke-width:1.5;" width="139" x="598.5" y="43.6406"/><text fill="#000000" font-family="Arial" font-size="11" font-style="italic" lengthAdjust="spacing" textLength="48" x="644" y="58.5986">&#171;modelo&#187;</text><text fill="#000000" font-family="Arial" font-size="11" lengthAdjust="spacing" textLength="61" x="637.5" y="70.8877">reservations</text><line style="stroke:#2E7D32;stroke-width:1.5;" x1="599.5" x2="736.5" y1="78.2188" y2="78.2188"/><text fill="#000000" font-family="Arial" font-size="11" lengthAdjust="spacing" textLength="53" x="604.5" y="92.1768">id: UUID PK</text><text fill="#000000" font-family="Arial" font-size="11" lengthAdjust="spacing" textLength="74" x="604.5" y="104.4658">spotId: UUID FK</text><text fill="#000000" font-family="Arial" font-size="11" lengthAdjust="spacing" textLength="75" x="604.5" y="116.7549">userId: UUID FK</text><text fill="#000000" font-family="Arial" font-size="11" lengthAdjust="spacing" textLength="48" x="604.5" y="129.0439">date: date</text><text fill="#000000" font-family="Arial" font-size="11" lengthAdjust="spacing" textLength="127" x="604.5" y="141.333">status: reservation_status</text><text fill="#000000" font-family="Arial" font-size="11" lengthAdjust="spacing" textLength="69" x="604.5" y="153.6221">startTime: time</text><text fill="#000000" font-family="Arial" font-size="11" lengthAdjust="spacing" textLength="65" x="604.5" y="165.9111">endTime: time</text></g><!--class Cession--><g id="elem_Cession"><rect codeLine="63" fill="#D5ECD4" height="104.0234" id="Cession" rx="2.5" ry="2.5" style="stroke:#2E7D32;stroke-width:1.5;" width="122" x="798" y="56.1406"/><text fill="#000000" font-family="Arial" font-size="11" font-style="italic" lengthAdjust="spacing" textLength="48" x="835" y="71.0986">&#171;modelo&#187;</text><text fill="#000000" font-family="Arial" font-size="11" lengthAdjust="spacing" textLength="44" x="837" y="83.3877">cessions</text><line style="stroke:#2E7D32;stroke-width:1.5;" x1="799" x2="919" y1="90.7188" y2="90.7188"/><text fill="#000000" font-family="Arial" font-size="11" lengthAdjust="spacing" textLength="53" x="804" y="104.6768">id: UUID PK</text><text fill="#000000" font-family="Arial" font-size="11" lengthAdjust="spacing" textLength="74" x="804" y="116.9658">spotId: UUID FK</text><text fill="#000000" font-family="Arial" font-size="11" lengthAdjust="spacing" textLength="75" x="804" y="129.2549">userId: UUID FK</text><text fill="#000000" font-family="Arial" font-size="11" lengthAdjust="spacing" textLength="48" x="804" y="141.5439">date: date</text><text fill="#000000" font-family="Arial" font-size="11" lengthAdjust="spacing" textLength="110" x="804" y="153.833">status: cession_status</text></g><!--class LeaveRequest--><g id="elem_LeaveRequest"><rect codeLine="71" fill="#D5ECD4" height="140.8906" id="LeaveRequest" rx="2.5" ry="2.5" style="stroke:#2E7D32;stroke-width:1.5;" width="121" x="1007.5" y="246.6406"/><text fill="#000000" font-family="Arial" font-size="11" font-style="italic" lengthAdjust="spacing" textLength="48" x="1044" y="261.5986">&#171;modelo&#187;</text><text fill="#000000" font-family="Arial" font-size="11" lengthAdjust="spacing" textLength="75" x="1030.5" y="273.8877">leave_requests</text><line style="stroke:#2E7D32;stroke-width:1.5;" x1="1008.5" x2="1127.5" y1="281.2188" y2="281.2188"/><text fill="#000000" font-family="Arial" font-size="11" lengthAdjust="spacing" textLength="53" x="1013.5" y="295.1768">id: UUID PK</text><text fill="#000000" font-family="Arial" font-size="11" lengthAdjust="spacing" textLength="99" x="1013.5" y="307.4658">employeeId: UUID FK</text><text fill="#000000" font-family="Arial" font-size="11" lengthAdjust="spacing" textLength="109" x="1013.5" y="319.7549">leaveType: leave_type</text><text fill="#000000" font-family="Arial" font-size="11" lengthAdjust="spacing" textLength="71" x="1013.5" y="332.0439">startDate: date</text><text fill="#000000" font-family="Arial" font-size="11" lengthAdjust="spacing" textLength="67" x="1013.5" y="344.333">endDate: date</text><text fill="#000000" font-family="Arial" font-size="11" lengthAdjust="spacing" textLength="98" x="1013.5" y="356.6221">status: leave_status</text><text fill="#000000" font-family="Arial" font-size="11" lengthAdjust="spacing" textLength="95" x="1013.5" y="368.9111">managerId: UUID FK</text><text fill="#000000" font-family="Arial" font-size="11" lengthAdjust="spacing" textLength="63" x="1013.5" y="381.2002">hrId: UUID FK</text></g><!--class Announcement--><g id="elem_Announcement"><rect codeLine="82" fill="#D5ECD4" height="128.6016" id="Announcement" rx="2.5" ry="2.5" style="stroke:#2E7D32;stroke-width:1.5;" width="123" x="1002.5" y="461.6406"/><text fill="#000000" font-family="Arial" font-size="11" font-style="italic" lengthAdjust="spacing" textLength="48" x="1040" y="476.5986">&#171;modelo&#187;</text><text fill="#000000" font-family="Arial" font-size="11" lengthAdjust="spacing" textLength="77" x="1025.5" y="488.8877">announcements</text><line style="stroke:#2E7D32;stroke-width:1.5;" x1="1003.5" x2="1124.5" y1="496.2188" y2="496.2188"/><text fill="#000000" font-family="Arial" font-size="11" lengthAdjust="spacing" textLength="53" x="1008.5" y="510.1768">id: UUID PK</text><text fill="#000000" font-family="Arial" font-size="11" lengthAdjust="spacing" textLength="40" x="1008.5" y="522.4658">title: text</text><text fill="#000000" font-family="Arial" font-size="11" lengthAdjust="spacing" textLength="48" x="1008.5" y="534.7549">body: text</text><text fill="#000000" font-family="Arial" font-size="11" lengthAdjust="spacing" textLength="79" x="1008.5" y="547.0439">entityId: UUID FK</text><text fill="#000000" font-family="Arial" font-size="11" lengthAdjust="spacing" textLength="111" x="1008.5" y="559.333">publishedAt: timestamp</text><text fill="#000000" font-family="Arial" font-size="11" lengthAdjust="spacing" textLength="101" x="1008.5" y="571.6221">expiresAt: timestamp</text><text fill="#000000" font-family="Arial" font-size="11" lengthAdjust="spacing" textLength="95" x="1008.5" y="583.9111">createdBy: UUID FK</text></g><!--class VisitorRes--><g id="elem_VisitorRes"><rect codeLine="92" fill="#D5ECD4" height="128.6016" id="VisitorRes" rx="2.5" ry="2.5" style="stroke:#2E7D32;stroke-width:1.5;" width="130" x="1060" y="43.6406"/><text fill="#000000" font-family="Arial" font-size="11" font-style="italic" lengthAdjust="spacing" textLength="48" x="1101" y="58.5986">&#171;modelo&#187;</text><text fill="#000000" font-family="Arial" font-size="11" lengthAdjust="spacing" textLength="96" x="1077" y="70.8877">visitor_reservations</text><line style="stroke:#2E7D32;stroke-width:1.5;" x1="1061" x2="1189" y1="78.2188" y2="78.2188"/><text fill="#000000" font-family="Arial" font-size="11" lengthAdjust="spacing" textLength="53" x="1066" y="92.1768">id: UUID PK</text><text fill="#000000" font-family="Arial" font-size="11" lengthAdjust="spacing" textLength="74" x="1066" y="104.4658">spotId: UUID FK</text><text fill="#000000" font-family="Arial" font-size="11" lengthAdjust="spacing" textLength="102" x="1066" y="116.7549">reservedBy: UUID FK</text><text fill="#000000" font-family="Arial" font-size="11" lengthAdjust="spacing" textLength="48" x="1066" y="129.0439">date: date</text><text fill="#000000" font-family="Arial" font-size="11" lengthAdjust="spacing" textLength="80" x="1066" y="141.333">visitorName: text</text><text fill="#000000" font-family="Arial" font-size="11" lengthAdjust="spacing" textLength="77" x="1066" y="153.6221">visitorEmail: text</text><text fill="#000000" font-family="Arial" font-size="11" lengthAdjust="spacing" textLength="118" x="1066" y="165.9111">notificationSent: boolean</text></g><!--class actionClient--><g id="elem_actionClient"><rect codeLine="104" fill="#DCE8F5" height="67.1563" id="actionClient" rx="2.5" ry="2.5" style="stroke:#2D6A9F;stroke-width:1.5;" width="219" x="1288.5" y="283.6406"/><text fill="#000000" font-family="Arial" font-size="11" font-style="italic" lengthAdjust="spacing" textLength="45" x="1375.5" y="298.5986">&#171;accion&#187;</text><text fill="#000000" font-family="Arial" font-size="11" lengthAdjust="spacing" textLength="55" x="1370.5" y="310.8877">actionClient</text><line style="stroke:#2D6A9F;stroke-width:1.5;" x1="1289.5" x2="1506.5" y1="318.2188" y2="318.2188"/><text fill="#000000" font-family="Arial" font-size="11" lengthAdjust="spacing" textLength="131" x="1294.5" y="332.1768">schema(zod: ZodType&lt;T&gt;)</text><text fill="#000000" font-family="Arial" font-size="11" lengthAdjust="spacing" textLength="207" x="1294.5" y="344.4658">action(handler): (input) =&gt; ActionResult&lt;T&gt;</text></g><!--class ActionResult<T>--><g id="elem_ActionResult&lt;T&gt;"><rect codeLine="109" fill="#DCE8F5" height="91.7344" id="ActionResult&lt;T&gt;" rx="2.5" ry="2.5" style="stroke:#2D6A9F;stroke-width:1.5;" width="184" x="7" y="62.1406"/><text fill="#000000" font-family="Arial" font-size="11" font-style="italic" lengthAdjust="spacing" textLength="45" x="76.5" y="77.0986">&#171;accion&#187;</text><text fill="#000000" font-family="Arial" font-size="11" lengthAdjust="spacing" textLength="79" x="59.5" y="89.3877">ActionResult&lt;T&gt;</text><line style="stroke:#2D6A9F;stroke-width:1.5;" x1="8" x2="190" y1="96.7188" y2="96.7188"/><text fill="#000000" font-family="Arial" font-size="11" lengthAdjust="spacing" textLength="86" x="13" y="110.6768">success: boolean</text><text fill="#000000" font-family="Arial" font-size="11" lengthAdjust="spacing" textLength="39" x="13" y="122.9658">data?: T</text><text fill="#000000" font-family="Arial" font-size="11" lengthAdjust="spacing" textLength="63" x="13" y="135.2549">error?: string</text><text fill="#000000" font-family="Arial" font-size="11" lengthAdjust="spacing" textLength="172" x="13" y="147.5439">fieldErrors?: Record&lt;string,string[]&gt;</text></g><!--class createReservation--><g id="elem_createReservation"><rect codeLine="116" fill="#DCE8F5" height="112.0234" id="createReservation" rx="2.5" ry="2.5" style="stroke:#2D6A9F;stroke-width:1.5;" width="184" x="1560" y="52.1406"/><text fill="#000000" font-family="Arial" font-size="11" font-style="italic" lengthAdjust="spacing" textLength="45" x="1629.5" y="67.0986">&#171;accion&#187;</text><text fill="#000000" font-family="Arial" font-size="11" lengthAdjust="spacing" textLength="89" x="1607.5" y="79.3877">createReservation</text><line style="stroke:#2D6A9F;stroke-width:1.5;" x1="1561" x2="1743" y1="86.7188" y2="86.7188"/><text fill="#000000" font-family="Arial" font-size="11" lengthAdjust="spacing" textLength="172" x="1566" y="100.6768">schema: createReservationSchema</text><text fill="#000000" font-family="Arial" font-size="11" lengthAdjust="spacing" textLength="102" x="1566" y="112.9658">validates date, spotId</text><text fill="#000000" font-family="Arial" font-size="11" lengthAdjust="spacing" textLength="105" x="1566" y="125.2549">validates bookingDate</text><text fill="#000000" font-family="Arial" font-size="11" lengthAdjust="spacing" textLength="100" x="1566" y="137.5439">inserts: reservations</text><line style="stroke:#2D6A9F;stroke-width:1.5;" x1="1561" x2="1743" y1="143.875" y2="143.875"/><text fill="#000000" font-family="Arial" font-size="11" lengthAdjust="spacing" textLength="122" x="1566" y="157.833">guards: getCurrentUser()</text></g><!--class buildCessionActions(cfg)--><g id="elem_buildCessionActions(cfg)"><rect codeLine="124" fill="#DCE8F5" height="112.0234" id="buildCessionActions(cfg)" rx="2.5" ry="2.5" style="stroke:#2D6A9F;stroke-width:1.5;" width="128" x="226" y="52.1406"/><text fill="#000000" font-family="Arial" font-size="11" font-style="italic" lengthAdjust="spacing" textLength="45" x="267.5" y="67.0986">&#171;accion&#187;</text><text fill="#000000" font-family="Arial" font-size="11" lengthAdjust="spacing" textLength="122" x="229" y="79.3877">buildCessionActions(cfg)</text><line style="stroke:#2D6A9F;stroke-width:1.5;" x1="227" x2="353" y1="86.7188" y2="86.7188"/><text fill="#000000" font-family="Arial" font-size="11" lengthAdjust="spacing" textLength="87" x="232" y="100.6768">cfg.resourceType</text><text fill="#000000" font-family="Arial" font-size="11" lengthAdjust="spacing" textLength="43" x="232" y="112.9658">cfg.noun</text><text fill="#000000" font-family="Arial" font-size="11" lengthAdjust="spacing" textLength="64" x="232" y="125.2549">cfg.basePath</text><line style="stroke:#2D6A9F;stroke-width:1.5;" x1="227" x2="353" y1="131.5859" y2="131.5859"/><text fill="#000000" font-family="Arial" font-size="11" lengthAdjust="spacing" textLength="78" x="232" y="145.5439">createCession()</text><text fill="#000000" font-family="Arial" font-size="11" lengthAdjust="spacing" textLength="79" x="232" y="157.833">cancelCession()</text></g><!--class approveLeaveRequest--><g id="elem_approveLeaveRequest"><rect codeLine="132" fill="#DCE8F5" height="91.7344" id="approveLeaveRequest" rx="2.5" ry="2.5" style="stroke:#2D6A9F;stroke-width:1.5;" width="211" x="1841.5" y="62.1406"/><text fill="#000000" font-family="Arial" font-size="11" font-style="italic" lengthAdjust="spacing" textLength="45" x="1924.5" y="77.0986">&#171;accion&#187;</text><text fill="#000000" font-family="Arial" font-size="11" lengthAdjust="spacing" textLength="110" x="1892" y="89.3877">approveLeaveRequest</text><line style="stroke:#2D6A9F;stroke-width:1.5;" x1="1842.5" x2="2051.5" y1="96.7188" y2="96.7188"/><text fill="#000000" font-family="Arial" font-size="11" lengthAdjust="spacing" textLength="193" x="1847.5" y="110.6768">schema: approveLeaveRequestSchema</text><text fill="#000000" font-family="Arial" font-size="11" lengthAdjust="spacing" textLength="136" x="1847.5" y="122.9658">guards: manager | hr | admin</text><text fill="#000000" font-family="Arial" font-size="11" lengthAdjust="spacing" textLength="199" x="1847.5" y="135.2549">transitions: pending&#8594;manager_approved</text><text fill="#000000" font-family="Arial" font-size="11" lengthAdjust="spacing" textLength="167" x="1847.5" y="147.5439">manager_approved&#8594;hr_approved</text></g><!--class getAvailableSpots()--><g id="elem_getAvailableSpots()"><rect codeLine="141" fill="#FDE8CC" height="91.7344" id="getAvailableSpots()" rx="2.5" ry="2.5" style="stroke:#C45E0A;stroke-width:1.5;" width="133" x="389.5" y="62.1406"/><text fill="#000000" font-family="Arial" font-size="11" font-style="italic" lengthAdjust="spacing" textLength="39" x="436.5" y="77.0986">&#171;query&#187;</text><text fill="#000000" font-family="Arial" font-size="11" lengthAdjust="spacing" textLength="95" x="408.5" y="89.3877">getAvailableSpots()</text><line style="stroke:#C45E0A;stroke-width:1.5;" x1="390.5" x2="521.5" y1="96.7188" y2="96.7188"/><text fill="#000000" font-family="Arial" font-size="11" lengthAdjust="spacing" textLength="54" x="395.5" y="110.6768">date: string</text><text fill="#000000" font-family="Arial" font-size="11" lengthAdjust="spacing" textLength="68" x="395.5" y="122.9658">resourceType</text><text fill="#000000" font-family="Arial" font-size="11" lengthAdjust="spacing" textLength="34" x="395.5" y="135.2549">entityId</text><text fill="#000000" font-family="Arial" font-size="11" lengthAdjust="spacing" textLength="121" x="395.5" y="147.5439">returns: SpotWithStatus[]</text></g><!--class getReservations()--><g id="elem_getReservations()"><rect codeLine="148" fill="#FDE8CC" height="67.1563" id="getReservations()" rx="2.5" ry="2.5" style="stroke:#C45E0A;stroke-width:1.5;" width="170" x="14" y="283.6406"/><text fill="#000000" font-family="Arial" font-size="11" font-style="italic" lengthAdjust="spacing" textLength="39" x="79.5" y="298.5986">&#171;query&#187;</text><text fill="#000000" font-family="Arial" font-size="11" lengthAdjust="spacing" textLength="87" x="55.5" y="310.8877">getReservations()</text><line style="stroke:#C45E0A;stroke-width:1.5;" x1="15" x2="183" y1="318.2188" y2="318.2188"/><text fill="#000000" font-family="Arial" font-size="11" lengthAdjust="spacing" textLength="30" x="20" y="332.1768">userId</text><text fill="#000000" font-family="Arial" font-size="11" lengthAdjust="spacing" textLength="158" x="20" y="344.4658">returns: ReservationWithDetails[]</text></g><!--class getLeaveRequests()--><g id="elem_getLeaveRequests()"><rect codeLine="153" fill="#FDE8CC" height="67.1563" id="getLeaveRequests()" rx="2.5" ry="2.5" style="stroke:#C45E0A;stroke-width:1.5;" width="152" x="219" y="283.6406"/><text fill="#000000" font-family="Arial" font-size="11" font-style="italic" lengthAdjust="spacing" textLength="39" x="275.5" y="298.5986">&#171;query&#187;</text><text fill="#000000" font-family="Arial" font-size="11" lengthAdjust="spacing" textLength="99" x="245.5" y="310.8877">getLeaveRequests()</text><line style="stroke:#C45E0A;stroke-width:1.5;" x1="220" x2="370" y1="318.2188" y2="318.2188"/><text fill="#000000" font-family="Arial" font-size="11" lengthAdjust="spacing" textLength="76" x="225" y="332.1768">managerId | hrId</text><text fill="#000000" font-family="Arial" font-size="11" lengthAdjust="spacing" textLength="140" x="225" y="344.4658">returns: LeaveRequestRow[]</text></g><!--class getCurrentUser()--><g id="elem_getCurrentUser()"><rect codeLine="160" fill="#F5F0D5" height="67.1563" id="getCurrentUser()" rx="2.5" ry="2.5" style="stroke:#9C8C10;stroke-width:1.5;" width="123" x="406.5" y="283.6406"/><text fill="#000000" font-family="Arial" font-size="11" font-style="italic" lengthAdjust="spacing" textLength="27" x="454.5" y="298.5986">&#171;util&#187;</text><text fill="#000000" font-family="Arial" font-size="11" lengthAdjust="spacing" textLength="82" x="427" y="310.8877">getCurrentUser()</text><line style="stroke:#9C8C10;stroke-width:1.5;" x1="407.5" x2="528.5" y1="318.2188" y2="318.2188"/><text fill="#000000" font-family="Arial" font-size="11" lengthAdjust="spacing" textLength="93" x="412.5" y="332.1768">reads JWT session</text><text fill="#000000" font-family="Arial" font-size="11" lengthAdjust="spacing" textLength="111" x="412.5" y="344.4658">returns: AuthUser | null</text></g><!--class getAllResourceConfigs()--><g id="elem_getAllResourceConfigs()"><rect codeLine="165" fill="#F5F0D5" height="91.7344" id="getAllResourceConfigs()" rx="2.5" ry="2.5" style="stroke:#9C8C10;stroke-width:1.5;" width="131" x="33.5" y="480.1406"/><text fill="#000000" font-family="Arial" font-size="11" font-style="italic" lengthAdjust="spacing" textLength="27" x="85.5" y="495.0986">&#171;util&#187;</text><text fill="#000000" font-family="Arial" font-size="11" lengthAdjust="spacing" textLength="119" x="39.5" y="507.3877">getAllResourceConfigs()</text><line style="stroke:#9C8C10;stroke-width:1.5;" x1="34.5" x2="163.5" y1="514.7188" y2="514.7188"/><text fill="#000000" font-family="Arial" font-size="11" lengthAdjust="spacing" textLength="68" x="39.5" y="528.6768">resourceType</text><text fill="#000000" font-family="Arial" font-size="11" lengthAdjust="spacing" textLength="34" x="39.5" y="540.9658">entityId</text><text fill="#000000" font-family="Arial" font-size="11" lengthAdjust="spacing" textLength="104" x="39.5" y="553.2549">uses unstable_cache</text><text fill="#000000" font-family="Arial" font-size="11" lengthAdjust="spacing" textLength="119" x="39.5" y="565.5439">returns: ResourceConfig</text></g><!--class ActionResult--><g id="elem_ActionResult"><rect fill="#F1F1F1" height="22.2891" id="ActionResult" rx="2.5" ry="2.5" style="stroke:#181818;stroke-width:1.5;" width="67" x="1364.5" y="515.1406"/><text fill="#000000" font-family="Arial" font-size="11" lengthAdjust="spacing" textLength="61" x="1367.5" y="530.0986">ActionResult</text></g><!--class buildCessionActions--><g id="elem_buildCessionActions"><rect fill="#F1F1F1" height="22.2891" id="buildCessionActions" rx="2.5" ry="2.5" style="stroke:#181818;stroke-width:1.5;" width="104" x="2142" y="97.1406"/><text fill="#000000" font-family="Arial" font-size="11" lengthAdjust="spacing" textLength="98" x="2145" y="112.0986">buildCessionActions</text></g><!--class getAvailableSpots--><g id="elem_getAvailableSpots"><rect fill="#F1F1F1" height="22.2891" id="getAvailableSpots" rx="2.5" ry="2.5" style="stroke:#181818;stroke-width:1.5;" width="93" x="1542.5" y="306.1406"/><text fill="#000000" font-family="Arial" font-size="11" lengthAdjust="spacing" textLength="87" x="1545.5" y="321.0986">getAvailableSpots</text></g><!--class getLeaveRequests--><g id="elem_getLeaveRequests"><rect fill="#F1F1F1" height="22.2891" id="getLeaveRequests" rx="2.5" ry="2.5" style="stroke:#181818;stroke-width:1.5;" width="97" x="2015.5" y="306.1406"/><text fill="#000000" font-family="Arial" font-size="11" lengthAdjust="spacing" textLength="91" x="2018.5" y="321.0986">getLeaveRequests</text></g><!--class getCurrentUser--><g id="elem_getCurrentUser"><rect fill="#F1F1F1" height="22.2891" id="getCurrentUser" rx="2.5" ry="2.5" style="stroke:#181818;stroke-width:1.5;" width="80" x="1862" y="306.1406"/><text fill="#000000" font-family="Arial" font-size="11" lengthAdjust="spacing" textLength="74" x="1865" y="321.0986">getCurrentUser</text></g><!--class getAllResourceConfigs--><g id="elem_getAllResourceConfigs"><rect fill="#F1F1F1" height="22.2891" id="getAllResourceConfigs" rx="2.5" ry="2.5" style="stroke:#181818;stroke-width:1.5;" width="117" x="1670.5" y="306.1406"/><text fill="#000000" font-family="Arial" font-size="11" lengthAdjust="spacing" textLength="111" x="1673.5" y="321.0986">getAllResourceConfigs</text></g><!--link Profile to Entity--><g id="link_Profile_Entity"><path codeLine="174" d="M914,584.3806 C914,610.2006 914,628.2606 914,652.4606 " fill="none" id="Profile-to-Entity" style="stroke:#444444;stroke-width:1.2;"/><polygon fill="none" points="914,664.4606,918,658.4606,914,652.4606,910,658.4606,914,664.4606" style="stroke:#444444;stroke-width:1.2;"/><polygon fill="#000000" points="918,631.7852,920.3511,624.5491,915.6489,624.5491,918,631.7852" style="stroke:#000000;stroke-width:1.0;"/><text fill="#000000" font-family="Arial" font-size="11" lengthAdjust="spacing" textLength="58" x="926" y="631.5986">pertenece a</text><text fill="#000000" font-family="Arial" font-size="11" lengthAdjust="spacing" textLength="7" x="906.5516" y="602.5679">N</text><text fill="#000000" font-family="Arial" font-size="11" lengthAdjust="spacing" textLength="6" x="907.5406" y="654.471">1</text></g><!--link Spot to Entity--><g id="link_Spot_Entity"><path codeLine="175" d="M748.17,381.7706 C741.48,439.4106 739.48,525.0906 772,590.6406 C792.23,631.4106 823.3025,657.1131 856.1525,677.6331 " fill="none" id="Spot-to-Entity" style="stroke:#444444;stroke-width:1.2;"/><polygon fill="none" points="866.33,683.9906,863.3604,677.4194,856.1525,677.6331,859.1221,684.2044,866.33,683.9906" style="stroke:#444444;stroke-width:1.2;"/><polygon fill="#000000" points="777.3714,530.0427,777.0991,522.4391,772.6819,524.0513,777.3714,530.0427" style="stroke:#000000;stroke-width:1.0;"/><text fill="#000000" font-family="Arial" font-size="11" lengthAdjust="spacing" textLength="58" x="784" y="530.0986">pertenece a</text><text fill="#000000" font-family="Arial" font-size="11" lengthAdjust="spacing" textLength="7" x="739.6922" y="399.0478">N</text><text fill="#000000" font-family="Arial" font-size="11" lengthAdjust="spacing" textLength="6" x="852.5712" y="676.9916">1</text></g><!--link Spot to Profile--><g id="link_Spot_Profile"><path codeLine="176" d="M786.1,381.6506 C794.58,398.5906 804.72,416.4006 816,431.6406 C828.8,448.9306 836.2208,457.5977 851.7208,472.1477 " fill="none" id="Spot-to-Profile" style="stroke:#444444;stroke-width:1.2;"/><polygon fill="none" points="860.47,480.3606,858.8331,473.3378,851.7208,472.1477,853.3578,479.1706,860.47,480.3606" style="stroke:#444444;stroke-width:1.2;"/><polygon fill="#000000" points="817.6519,421.5469,819.9963,428.7852,823.8031,426.0248,817.6519,421.5469" style="stroke:#000000;stroke-width:1.0;"/><text fill="#000000" font-family="Arial" font-size="11" lengthAdjust="spacing" textLength="53" x="828" y="428.5986">asignada a</text><text fill="#000000" font-family="Arial" font-size="11" lengthAdjust="spacing" textLength="18" x="770.0797" y="399.3583">0..1</text><text fill="#000000" font-family="Arial" font-size="11" lengthAdjust="spacing" textLength="6" x="846.5205" y="471.0354">1</text></g><!--link Reservation to Spot--><g id="link_Reservation_Spot"><path codeLine="177" d="M682.58,172.6906 C686.82,187.3906 691.96,202.7906 698,216.6406 C703.22,228.6206 706.6834,235.6883 713.4234,247.3283 " fill="none" id="Reservation-to-Spot" style="stroke:#444444;stroke-width:1.2;"/><polygon fill="#444444" points="716.43,252.5206,715.3817,242.7277,713.9245,248.1937,708.4586,246.7365,716.43,252.5206" style="stroke:#444444;stroke-width:1.2;"/><polygon fill="#000000" points="703.5277,213.4819,702.937,205.8965,698.5912,207.6923,703.5277,213.4819" style="stroke:#000000;stroke-width:1.0;"/><text fill="#000000" font-family="Arial" font-size="11" lengthAdjust="spacing" textLength="30" x="710" y="213.5986">ocupa</text><text fill="#000000" font-family="Arial" font-size="11" lengthAdjust="spacing" textLength="7" x="676.7919" y="190.4026">N</text><text fill="#000000" font-family="Arial" font-size="11" lengthAdjust="spacing" textLength="6" x="705.161" y="242.3529">1</text></g><!--link Reservation to Profile--><g id="link_Reservation_Profile"><path codeLine="178" d="M631.48,172.7906 C601.96,233.5906 572.17,325.0006 618,387.6406 C682.16,475.3306 758.28,404.9906 851,461.6406 C854.18,463.5806 852.5031,462.1433 855.5731,464.4233 " fill="none" id="Reservation-to-Profile" style="stroke:#444444;stroke-width:1.2;"/><polygon fill="#444444" points="860.39,468.0006,855.5496,459.4233,856.3759,465.0195,850.7798,465.8458,860.39,468.0006" style="stroke:#444444;stroke-width:1.2;"/><polygon fill="#000000" points="624.4372,320.4569,621.8926,313.2866,618.1639,316.1517,624.4372,320.4569" style="stroke:#000000;stroke-width:1.0;"/><text fill="#000000" font-family="Arial" font-size="11" lengthAdjust="spacing" textLength="32" x="630" y="321.0986">realiza</text><text fill="#000000" font-family="Arial" font-size="11" lengthAdjust="spacing" textLength="7" x="620.3529" y="190.0699">N</text><text fill="#000000" font-family="Arial" font-size="11" lengthAdjust="spacing" textLength="6" x="847.1368" y="457.7392">1</text></g><!--link Cession to Spot--><g id="link_Cession_Spot"><path codeLine="179" d="M834.28,160.3106 C820.8,188.2006 806.6101,217.5781 792.3001,247.1981 " fill="none" id="Cession-to-Spot" style="stroke:#444444;stroke-width:1.2;"/><polygon fill="#444444" points="789.69,252.6006,797.2068,246.2369,791.8651,248.0985,790.0034,242.7568,789.69,252.6006" style="stroke:#444444;stroke-width:1.2;"/><polygon fill="#000000" points="814.2599,213.3868,819.5248,207.8942,815.2908,205.8485,814.2599,213.3868" style="stroke:#000000;stroke-width:1.0;"/><text fill="#000000" font-family="Arial" font-size="11" lengthAdjust="spacing" textLength="24" x="824" y="213.5986">cede</text><text fill="#000000" font-family="Arial" font-size="11" lengthAdjust="spacing" textLength="7" x="823.4879" y="178.1031">N</text><text fill="#000000" font-family="Arial" font-size="11" lengthAdjust="spacing" textLength="6" x="786.8917" y="242.4422">1</text></g><!--link Cession to Profile--><g id="link_Cession_Profile"><path codeLine="180" d="M865.74,160.1506 C876.06,238.1506 894.8939,380.6123 905.6639,462.1023 " fill="none" id="Cession-to-Profile" style="stroke:#444444;stroke-width:1.2;"/><polygon fill="#444444" points="906.45,468.0506,909.2363,458.6041,905.7949,463.0937,901.3053,459.6523,906.45,468.0506" style="stroke:#444444;stroke-width:1.2;"/><polygon fill="#000000" points="900.5243,321.2506,901.9067,313.7688,897.245,314.3852,900.5243,321.2506" style="stroke:#000000;stroke-width:1.0;"/><text fill="#000000" font-family="Arial" font-size="11" lengthAdjust="spacing" textLength="51" x="908" y="321.0986">propietario</text><text fill="#000000" font-family="Arial" font-size="11" lengthAdjust="spacing" textLength="7" x="859.1956" y="178.285">N</text><text fill="#000000" font-family="Arial" font-size="11" lengthAdjust="spacing" textLength="6" x="899.0983" y="457.7956">1</text></g><!--link LeaveRequest to Profile--><g id="link_LeaveRequest_Profile"><path codeLine="181" d="M1016.29,387.6406 C996.89,413.7206 978.6714,438.2167 960.1914,463.0567 " fill="none" id="LeaveRequest-to-Profile" style="stroke:#444444;stroke-width:1.2;"/><polygon fill="#444444" points="956.61,467.8706,965.1913,463.0373,959.5945,463.859,958.7728,458.2622,956.61,467.8706" style="stroke:#444444;stroke-width:1.2;"/><polygon fill="#000000" points="992.6126,427.9946,998.8179,423.5919,995.045,420.7854,992.6126,427.9946" style="stroke:#000000;stroke-width:1.0;"/><text fill="#000000" font-family="Arial" font-size="11" lengthAdjust="spacing" textLength="33" x="1003" y="428.5986">solicita</text><text fill="#000000" font-family="Arial" font-size="11" lengthAdjust="spacing" textLength="7" x="1003.5965" y="405.5082">N</text><text fill="#000000" font-family="Arial" font-size="11" lengthAdjust="spacing" textLength="6" x="955.4375" y="457.9943">1</text></g><!--link Announcement to Entity--><g id="link_Announcement_Entity"><path codeLine="182" d="M1025.39,590.8306 C1015.46,605.6806 1004.35,621.1006 993,634.6406 C983.52,645.9506 981.1383,649.0016 970.3683,659.3616 " fill="none" id="Announcement-to-Entity" style="stroke:#444444;stroke-width:1.2;"/><polygon fill="none" points="961.72,667.6806,968.8172,666.4039,970.3683,659.3616,963.2711,660.6383,961.72,667.6806" style="stroke:#444444;stroke-width:1.2;"/><polygon fill="#000000" points="1005.4958,630.9043,1011.8593,626.7337,1008.1926,623.7898,1005.4958,630.9043" style="stroke:#000000;stroke-width:1.0;"/><text fill="#000000" font-family="Arial" font-size="11" lengthAdjust="spacing" textLength="34" x="1016" y="631.5986">publica</text><text fill="#000000" font-family="Arial" font-size="11" lengthAdjust="spacing" textLength="7" x="1014.0474" y="608.114">N</text><text fill="#000000" font-family="Arial" font-size="11" lengthAdjust="spacing" textLength="6" x="969.4865" y="658.1841">1</text></g><!--link VisitorRes to Spot--><g id="link_VisitorRes_Spot"><path codeLine="183" d="M1059.97,141.3906 C1006.81,168.2606 930.07,208.2106 865,246.6406 C856.09,251.9006 851.9623,254.3656 842.8623,260.1156 " fill="none" id="VisitorRes-to-Spot" style="stroke:#444444;stroke-width:1.2;"/><polygon fill="#444444" points="837.79,263.3206,847.5351,261.8946,842.0169,260.6498,843.2617,255.1316,837.79,263.3206" style="stroke:#444444;stroke-width:1.2;"/><polygon fill="#000000" points="943.4905,211.7043,950.9673,210.2954,948.7112,206.1697,943.4905,211.7043" style="stroke:#000000;stroke-width:1.0;"/><text fill="#000000" font-family="Arial" font-size="11" lengthAdjust="spacing" textLength="30" x="955" y="213.5986">ocupa</text><text fill="#000000" font-family="Arial" font-size="11" lengthAdjust="spacing" textLength="7" x="1045.0462" y="142.5392">N</text><text fill="#000000" font-family="Arial" font-size="11" lengthAdjust="spacing" textLength="6" x="845.5856" y="255.6098">1</text></g><!--link VisitorRes to Profile--><g id="link_VisitorRes_Profile"><path codeLine="184" d="M1150.33,172.8306 C1169.82,233.0306 1187.14,323.4506 1146,387.6406 C1103.5,453.9406 1050.86,418.4606 985,461.6406 C979.19,465.4506 978.0887,466.002 972.4287,470.472 " fill="none" id="VisitorRes-to-Profile" style="stroke:#444444;stroke-width:1.2;"/><polygon fill="#444444" points="967.72,474.1906,977.2621,471.7517,971.6439,471.0917,972.3039,465.4735,967.72,474.1906" style="stroke:#444444;stroke-width:1.2;"/><polygon fill="#000000" points="1173.9478,320.7186,1179.6784,315.7137,1175.6421,313.3012,1173.9478,320.7186" style="stroke:#000000;stroke-width:1.0;"/><text fill="#000000" font-family="Arial" font-size="11" lengthAdjust="spacing" textLength="41" x="1184" y="321.0986">gestiona</text><text fill="#000000" font-family="Arial" font-size="11" lengthAdjust="spacing" textLength="7" x="1145.5812" y="190.114">N</text><text fill="#000000" font-family="Arial" font-size="11" lengthAdjust="spacing" textLength="6" x="975.3418" y="464.36">1</text></g><!--link actionClient to ActionResult--><g id="link_actionClient_ActionResult"><path codeLine="186" d="M1398,350.9406 C1398,398.8206 1398,479.3706 1398,508.9306 " fill="none" id="actionClient-to-ActionResult" style="stroke:#444444;stroke-width:1.2;stroke-dasharray:7.0,7.0;"/><polygon fill="#444444" points="1398,514.9306,1402,505.9306,1398,509.9306,1394,505.9306,1398,514.9306" style="stroke:#444444;stroke-width:1.2;"/><polygon fill="#000000" points="1402,428.7852,1404.3511,421.5491,1399.6489,421.5491,1402,428.7852" style="stroke:#000000;stroke-width:1.0;"/><text fill="#000000" font-family="Arial" font-size="11" lengthAdjust="spacing" textLength="40" x="1410" y="428.5986">produce</text></g><!--link createReservation to actionClient--><g id="link_createReservation_actionClient"><path codeLine="187" d="M1559.92,124.4006 C1511.33,137.2106 1454.74,160.5106 1420,202.6406 C1401.42,225.1706 1396.9662,252.7617 1396.4862,277.5517 " fill="none" id="createReservation-to-actionClient" style="stroke:#444444;stroke-width:1.2;stroke-dasharray:7.0,7.0;"/><polygon fill="#444444" points="1396.37,283.5506,1400.5435,274.6297,1396.4668,278.5516,1392.545,274.4749,1396.37,283.5506" style="stroke:#444444;stroke-width:1.2;"/><polygon fill="#000000" points="1421.0812,212.5203,1427.969,209.288,1424.7537,205.8568,1421.0812,212.5203" style="stroke:#000000;stroke-width:1.0;"/><text fill="#000000" font-family="Arial" font-size="11" lengthAdjust="spacing" textLength="18" x="1432" y="213.5986">usa</text></g><!--link buildCessionActions to actionClient--><g id="link_buildCessionActions_actionClient"><path codeLine="188" d="M2190.26,119.1706 C2181.34,141.4106 2156.54,194.6606 2116,216.6406 C2000.4,279.3306 1651.54,210.8406 1525,246.6406 C1496.95,254.5806 1473.3608,266.4638 1450.3508,280.5138 " fill="none" id="buildCessionActions-to-actionClient" style="stroke:#444444;stroke-width:1.2;stroke-dasharray:7.0,7.0;"/><polygon fill="#444444" points="1445.23,283.6406,1454.9958,282.3643,1449.4974,281.035,1450.8267,275.5365,1445.23,283.6406" style="stroke:#444444;stroke-width:1.2;"/><polygon fill="#000000" points="2134.0918,210.6374,2141.6627,211.3929,2140.6609,206.7985,2134.0918,210.6374" style="stroke:#000000;stroke-width:1.0;"/><text fill="#000000" font-family="Arial" font-size="11" lengthAdjust="spacing" textLength="18" x="2146" y="213.5986">usa</text></g><!--link approveLeaveRequest to actionClient--><g id="link_approveLeaveRequest_actionClient"><path codeLine="189" d="M1841.31,149.1306 C1815.33,157.8706 1787.39,166.3706 1761,172.6406 C1666.27,195.1406 1633.71,164.8106 1544,202.6406 C1499.63,221.3506 1461.4651,252.9525 1433.8751,279.3525 " fill="none" id="approveLeaveRequest-to-actionClient" style="stroke:#444444;stroke-width:1.2;stroke-dasharray:7.0,7.0;"/><polygon fill="#444444" points="1429.54,283.5006,1438.8081,280.1685,1433.1526,280.0439,1433.2772,274.3884,1429.54,283.5006" style="stroke:#444444;stroke-width:1.2;"/><polygon fill="#000000" points="1544.1899,211.0029,1551.7982,211.0395,1550.3667,206.5604,1544.1899,211.0029" style="stroke:#000000;stroke-width:1.0;"/><text fill="#000000" font-family="Arial" font-size="11" lengthAdjust="spacing" textLength="18" x="1556" y="213.5986">usa</text></g><!--link createReservation to getAvailableSpots--><g id="link_createReservation_getAvailableSpots"><path codeLine="191" d="M1604.93,164.2406 C1597.15,176.2006 1590.24,189.2906 1586,202.6406 C1574.37,239.2806 1580.924,280.0879 1585.314,300.2579 " fill="none" id="createReservation-to-getAvailableSpots" style="stroke:#444444;stroke-width:1.2;stroke-dasharray:7.0,7.0;"/><polygon fill="#444444" points="1586.59,306.1206,1588.5845,296.4758,1585.5266,301.235,1580.7675,298.1772,1586.59,306.1206" style="stroke:#444444;stroke-width:1.2;"/><polygon fill="#000000" points="1589.429,213.7442,1592.789,206.9178,1588.1349,206.2466,1589.429,213.7442" style="stroke:#000000;stroke-width:1.0;"/><text fill="#000000" font-family="Arial" font-size="11" lengthAdjust="spacing" textLength="74" x="1598" y="213.5986">consulta previa</text></g><!--link approveLeaveRequest to getLeaveRequests--><g id="link_approveLeaveRequest_getLeaveRequests"><path codeLine="192" d="M1980.11,154.3106 C1990.54,169.3506 2001.74,186.4106 2011,202.6406 C2031.91,239.2806 2049.2987,280.0171 2057.5887,300.2871 " fill="none" id="approveLeaveRequest-to-getLeaveRequests" style="stroke:#444444;stroke-width:1.2;stroke-dasharray:7.0,7.0;"/><polygon fill="#444444" points="2059.86,305.8406,2060.1554,295.9962,2057.9673,301.2127,2052.7508,299.0246,2059.86,305.8406" style="stroke:#444444;stroke-width:1.2;"/><polygon fill="#000000" points="2023.8753,213.3183,2022.5596,205.8245,2018.4061,208.029,2023.8753,213.3183" style="stroke:#000000;stroke-width:1.0;"/><text fill="#000000" font-family="Arial" font-size="11" lengthAdjust="spacing" textLength="77" x="2030" y="213.5986">consulta estado</text></g><!--link createReservation to getCurrentUser--><g id="link_createReservation_getCurrentUser"><path codeLine="193" d="M1724.89,164.2706 C1740.89,176.7006 1757.64,189.9706 1773,202.6406 C1817.64,239.4606 1864.2813,281.6125 1886.3913,301.8225 " fill="none" id="createReservation-to-getCurrentUser" style="stroke:#444444;stroke-width:1.2;stroke-dasharray:7.0,7.0;"/><polygon fill="#444444" points="1890.82,305.8706,1886.8757,296.8461,1887.1295,302.4972,1881.4783,302.7509,1890.82,305.8706" style="stroke:#444444;stroke-width:1.2;"/><polygon fill="#000000" points="1795.0452,212.3788,1791.0609,205.897,1788.0119,209.4768,1795.0452,212.3788" style="stroke:#000000;stroke-width:1.0;"/><text fill="#000000" font-family="Arial" font-size="11" lengthAdjust="spacing" textLength="64" x="1800" y="213.5986">autenticaci&#243;n</text></g><!--link approveLeaveRequest to getCurrentUser--><g id="link_approveLeaveRequest_getCurrentUser"><path codeLine="194" d="M1937.18,154.3106 C1926.47,203.5606 1911.3536,273.1074 1905.4736,300.1774 " fill="none" id="approveLeaveRequest-to-getCurrentUser" style="stroke:#444444;stroke-width:1.2;stroke-dasharray:7.0,7.0;"/><polygon fill="#444444" points="1904.2,306.0406,1910.0192,298.0948,1905.2613,301.1546,1902.2015,296.3967,1904.2,306.0406" style="stroke:#444444;stroke-width:1.2;"/><polygon fill="#000000" points="1929.1504,213.6939,1932.9849,207.1223,1928.3899,206.1235,1929.1504,213.6939" style="stroke:#000000;stroke-width:1.0;"/><text fill="#000000" font-family="Arial" font-size="11" lengthAdjust="spacing" textLength="64" x="1938" y="213.5986">autenticaci&#243;n</text></g><!--link createReservation to getAllResourceConfigs--><g id="link_createReservation_getAllResourceConfigs"><path codeLine="195" d="M1672.53,164.3406 C1690.71,213.2106 1713.6761,274.9678 1723.1161,300.3178 " fill="none" id="createReservation-to-getAllResourceConfigs" style="stroke:#444444;stroke-width:1.2;stroke-dasharray:7.0,7.0;"/><polygon fill="#444444" points="1725.21,305.9406,1725.8177,296.1105,1723.4651,301.255,1718.3207,298.9023,1725.21,305.9406" style="stroke:#444444;stroke-width:1.2;"/><polygon fill="#000000" points="1696.3947,213.5341,1696.0753,205.9324,1691.6681,207.5719,1696.3947,213.5341" style="stroke:#000000;stroke-width:1.0;"/><text fill="#000000" font-family="Arial" font-size="11" lengthAdjust="spacing" textLength="61" x="1703" y="213.5986">valida config</text></g><!--SRC=[pLVTRjis5BxNKn3EnHoW3PAisL8Zo-0uBP1jA8B4MO4LHK2Jj4sK5ZMISkja1NQr1nZs8iCUeM_I9zavf2HJikHYMuPD21oBF3_V-J-UIou8auOfaSpnkrXaRaKMOZ4HnYQ9VIFJZ1gw85nCQQxSSvsw5tGXoD18gjhlh-MT80S7qILJrDgXSqPESYSkc4uzpNwJv4mRBinuBjcRL5XB3lQE8X9gZ7uRNnusBqTQQKDsdlWdQKedzmaXPvIzcHcTfzmJdvmiD1TAdvuI_-pm8y7u4oJqM5g9FE6X-99_VjWcaJ8cTRgMoCJnzAWfiKuK9F8lwDDfcyGVSs5M5UtEb8jZnfeIwqIUa3qv4lkqJMBkf5hJxaoFfljy0sETo1C-PSViO3zvdoHEEYN821mhB4IVS6d5XzyroOnCcSoe4f0_dv6Fl_qCVsH4CufKmP6aRzbSB2WvD_BkJedTWkoX_f8a1BoN6JsLWAH7g2MNuOL4uSICa7n0Rcukpidbj_06gAGQ42VUENYRvafXkbS7HYjuoQqmj_WL6LBmnEgY5F8SXIneIcV2n8VlAqoUGHQOdddkxP3I682TQ-D6G5oTI3jaJYxXOA814aqZNJRJBYYwXc_RrIWw4MlBtIe3YSX_Yr_HT65rRfWO-vlohRm5TNAM2ZxMiIFQdBCDBqWLPaaTb4Q0VRK-s8uUaTRrO93g9vmwq8gVoE2eowqtfDHm6yx2fN5ZwVqEdzuI7hsl4JDeHHNQKNZvbv0MgagKQmpWnAMuDG8wW2t2_HqUNOMJJoLyflHAY3e0Bp94EaWlmkmTSnwZ0yUSjw4DR9L7Mqg2a7b7YT0qXLx5n0Bo9zWpZ4wss-FxKfN64yrNrKjRDcRvH4ax5tpeGcm1yI93udUPXDne7ZCZm4v-jch3lPHMEWsjePd6tuSBoEQ_cXj1L5rX8pyAhRK-LPmzgtMpL3ivbSpZkWPdr2fmerM72GM8-zU8m10iMp3eGPlrEkHU-4X9mDKZqNn49uLfqR_Ju9eVDCUyF1cVxcBRyMpzEKsv4cPtGFemydEtIxuwBV22ps4l0V8eJesRJNqvms9R-yTxd7uz86FC35Wr37otiC-aCvmIKYZ-34yj75y91aFq9Dm-2lzUlOxLXnoAMbk7mGEoGNdjBp30L4cCl_LPyAZ87BYOvTHmW3uJRfGR0-wy0Ux-Req7x8BTQ7OU4aYcGE7glJ3kBvDSAbxqjY89-cmwszs03OTxyPWeZh1qYwyJM1SkgPjNbLI8zVWOXGfNwvEe8MGmoPSYxcgTFckXhRnMEgVeHkGdQ47mGVb28a9dQ0frWmOEI0QT3NpqyPTV2-hRGZ9wkVOqxu5b7b6t5HSkQx03FF3Uymzh459ck8I6GITAuBvW-px4vM9vNpMUAlCRmIuRhBznkK4teg2Nqisl_IHuzJgAAkYBKhj5MnYCiRI87eMU2mTuDwJ6iMyHMyqY7_-wWfZrIhyDaglmtS1632N48N8-Lw0jMjnqoNyIh5fzev75mdxl3QBSaczUZeaDzHGRESpT7Bd0_XGstBhpXafT5M4TwNGgPxP5U5VOS_mraASmBI67RXc5mck4Bn9SS-sLKBGOEF-7egZxlFpf04_lHOyyVgn9xw1NRk_bWpt3E94A1jEJd2P-vmxFt-JQtzixM3D6A83h11OBMBaffuGcyPuST9rwbaYOPz8ipr195tsi0kaXZPIyGuvojwsCQLD0S4k5zjP9NfUFjXkTIQXY8pLmrTRMJZveG5f99XtYgcs6dMuUX4MF8KUqZ6srfFHL1_s6AJC03IOZInAlCsHlhxwCHBRpdA6tDkQyvwa9mL-TABfb67SJjyp2Rk8E51jJ0OCCMi4G2YQ8fTocgTcDOsPSghdkDB_UuO2HvWvR3NGL-U6FTBlIJt1scxhH_O0zB4u870w0-qy0]--></g></svg>