<svg xmlns="http://www.w3.org/2000/svg" xmlns:xlink="http://www.w3.org/1999/xlink" contentStyleType="text/css" data-diagram-type="STATE" height="861px" preserveAspectRatio="none" style="width:710px;height:861px;background:#FFFFFF;" version="1.1" viewBox="0 0 710 861" width="710px" zoomAndPan="magnify"><?plantuml 1.2026.3beta6?><defs/><g><rect fill="#F1F1F1" height="40" rx="12.5" ry="12.5" style="stroke:#181818;stroke-width:0.5;" width="129.9434" x="87" y="442.04"/><text fill="#000000" font-family="sans-serif" font-size="14" lengthAdjust="spacing" textLength="119.9434" x="92" y="466.8867">SIN_AUTENTICAR</text><rect fill="#F1F1F1" height="40" rx="12.5" ry="12.5" style="stroke:#181818;stroke-width:0.5;" width="65.1182" x="370.94" y="442.04"/><text fill="#000000" font-family="sans-serif" font-size="14" lengthAdjust="spacing" textLength="55.1182" x="375.94" y="466.8867">PORTAL</text><g class="entity" data-qualified-name="Parking" id="ent0004"><rect fill="#F1F1F1" height="134.0781" rx="12.5" ry="12.5" style="stroke:#181818;stroke-width:0.5;" width="174.2949" x="509.04" y="7"/><line style="stroke:#181818;stroke-width:0.5;" x1="509.04" x2="683.3349" y1="33.2969" y2="33.2969"/><text fill="#000000" font-family="sans-serif" font-size="14" lengthAdjust="spacing" textLength="62.3779" x="564.9985" y="24.9951">PARKING</text><text fill="#000000" font-family="sans-serif" font-size="12" lengthAdjust="spacing" textLength="91.2129" x="514.04" y="49.4355">reservarPlaza()</text><text fill="#000000" font-family="sans-serif" font-size="12" lengthAdjust="spacing" textLength="154.2949" x="514.04" y="63.4043">cancelarReservaParking()</text><text fill="#000000" font-family="sans-serif" font-size="12" lengthAdjust="spacing" textLength="74.8535" x="514.04" y="77.373">cederPlaza()</text><text fill="#000000" font-family="sans-serif" font-size="12" lengthAdjust="spacing" textLength="100.8164" x="514.04" y="91.3418">cancelarCesion()</text><text fill="#000000" font-family="sans-serif" font-size="12" lengthAdjust="spacing" textLength="145.2305" x="514.04" y="105.3105">configurarReglaCesion()</text><text fill="#000000" font-family="sans-serif" font-size="12" lengthAdjust="spacing" textLength="113.6895" x="514.04" y="119.2793">registrarVisitante()</text><text fill="#000000" font-family="sans-serif" font-size="12" lengthAdjust="spacing" textLength="113.4023" x="514.04" y="133.248">cancelarVisitante()</text></g><g class="entity" data-qualified-name="Oficinas" id="ent0005"><rect fill="#F1F1F1" height="64.2344" rx="12.5" ry="12.5" style="stroke:#181818;stroke-width:0.5;" width="169.7891" x="511.29" y="175.92"/><line style="stroke:#181818;stroke-width:0.5;" x1="511.29" x2="681.0791" y1="202.2169" y2="202.2169"/><text fill="#000000" font-family="sans-serif" font-size="14" lengthAdjust="spacing" textLength="66.042" x="563.1635" y="193.9151">OFICINAS</text><text fill="#000000" font-family="sans-serif" font-size="12" lengthAdjust="spacing" textLength="100.1602" x="516.29" y="218.3555">reservarPuesto()</text><text fill="#000000" font-family="sans-serif" font-size="12" lengthAdjust="spacing" textLength="149.7891" x="516.29" y="232.3243">cancelarReservaPuesto()</text></g><g class="entity" data-qualified-name="Vacaciones" id="ent0006"><rect fill="#F1F1F1" height="120.1094" rx="12.5" ry="12.5" style="stroke:#181818;stroke-width:0.5;" width="198.2422" x="497.06" y="274.98"/><line style="stroke:#181818;stroke-width:0.5;" x1="497.06" x2="695.3022" y1="301.2769" y2="301.2769"/><text fill="#000000" font-family="sans-serif" font-size="14" lengthAdjust="spacing" textLength="91.6357" x="550.3632" y="292.9751">VACACIONES</text><text fill="#000000" font-family="sans-serif" font-size="12" lengthAdjust="spacing" textLength="110.8887" x="502.06" y="317.4155">solicitarAusencia()</text><text fill="#000000" font-family="sans-serif" font-size="12" lengthAdjust="spacing" textLength="166.3477" x="502.06" y="331.3843">cancelarSolicitudAusencia()</text><text fill="#000000" font-family="sans-serif" font-size="12" lengthAdjust="spacing" textLength="162.3398" x="502.06" y="345.353">aprobarSolicitudAusencia()</text><text fill="#000000" font-family="sans-serif" font-size="12" lengthAdjust="spacing" textLength="167.6484" x="502.06" y="359.3218">rechazarSolicitudAusencia()</text><text fill="#000000" font-family="sans-serif" font-size="12" lengthAdjust="spacing" textLength="156.2168" x="502.06" y="373.2905">validarSolicitudAusencia()</text><text fill="#000000" font-family="sans-serif" font-size="12" lengthAdjust="spacing" textLength="178.2422" x="502.06" y="387.2593">rechazarValidacionAusencia()</text></g><g class="entity" data-qualified-name="Tablon" id="ent0007"><rect fill="#F1F1F1" height="64.2344" rx="12.5" ry="12.5" style="stroke:#181818;stroke-width:0.5;" width="126.0547" x="533.16" y="429.92"/><line style="stroke:#181818;stroke-width:0.5;" x1="533.16" x2="659.2147" y1="456.2169" y2="456.2169"/><text fill="#000000" font-family="sans-serif" font-size="14" lengthAdjust="spacing" textLength="57.0254" x="567.6746" y="447.9151">TABL&#211;N</text><text fill="#000000" font-family="sans-serif" font-size="12" lengthAdjust="spacing" textLength="105.6738" x="538.16" y="472.3555">consultarTablon()</text><text fill="#000000" font-family="sans-serif" font-size="12" lengthAdjust="spacing" textLength="106.0547" x="538.16" y="486.3243">publicarAnuncio()</text></g><g class="entity" data-qualified-name="Directorio" id="ent0008"><rect fill="#F1F1F1" height="50.2656" rx="12.5" ry="12.5" style="stroke:#181818;stroke-width:0.5;" width="144.2363" x="524.06" y="528.9"/><line style="stroke:#181818;stroke-width:0.5;" x1="524.06" x2="668.2963" y1="555.1969" y2="555.1969"/><text fill="#000000" font-family="sans-serif" font-size="14" lengthAdjust="spacing" textLength="87.7051" x="552.3256" y="546.8951">DIRECTORIO</text><text fill="#000000" font-family="sans-serif" font-size="12" lengthAdjust="spacing" textLength="124.2363" x="529.06" y="571.3355">consultarDirectorio()</text></g><g class="entity" data-qualified-name="Ajustes" id="ent0009"><rect fill="#F1F1F1" height="78.2031" rx="12.5" ry="12.5" style="stroke:#181818;stroke-width:0.5;" width="165.5293" x="513.42" y="613.93"/><line style="stroke:#181818;stroke-width:0.5;" x1="513.42" x2="678.9493" y1="640.2269" y2="640.2269"/><text fill="#000000" font-family="sans-serif" font-size="14" lengthAdjust="spacing" textLength="59.124" x="566.6226" y="631.9251">AJUSTES</text><text fill="#000000" font-family="sans-serif" font-size="12" lengthAdjust="spacing" textLength="75.1348" x="518.42" y="656.3655">editarPerfil()</text><text fill="#000000" font-family="sans-serif" font-size="12" lengthAdjust="spacing" textLength="145.5293" x="518.42" y="670.3343">configurarPreferencias()</text><text fill="#000000" font-family="sans-serif" font-size="12" lengthAdjust="spacing" textLength="139.8691" x="518.42" y="684.303">conectarMicrosoft365()</text></g><g class="entity" data-qualified-name="Admin" id="ent0010"><rect fill="#F1F1F1" height="120.1094" rx="12.5" ry="12.5" style="stroke:#181818;stroke-width:0.5;" width="145.3379" x="523.51" y="726.98"/><line style="stroke:#181818;stroke-width:0.5;" x1="523.51" x2="668.8479" y1="753.2769" y2="753.2769"/><text fill="#000000" font-family="sans-serif" font-size="14" lengthAdjust="spacing" textLength="123.3066" x="534.5256" y="744.9751">ADMINISTRACI&#211;N</text><text fill="#000000" font-family="sans-serif" font-size="12" lengthAdjust="spacing" textLength="125.3379" x="528.51" y="769.4155">gestionarEntidades()</text><text fill="#000000" font-family="sans-serif" font-size="12" lengthAdjust="spacing" textLength="103.7168" x="528.51" y="783.3843">gestionarPlazas()</text><text fill="#000000" font-family="sans-serif" font-size="12" lengthAdjust="spacing" textLength="117.7441" x="528.51" y="797.353">gestionarUsuarios()</text><text fill="#000000" font-family="sans-serif" font-size="12" lengthAdjust="spacing" textLength="120.7559" x="528.51" y="811.3218">configurarModulos()</text><text fill="#000000" font-family="sans-serif" font-size="12" lengthAdjust="spacing" textLength="119.2441" x="528.51" y="825.2905">configurarSistema()</text><text fill="#000000" font-family="sans-serif" font-size="12" lengthAdjust="spacing" textLength="119.584" x="528.51" y="839.2593">consultarAnalytics()</text></g><g class="start_entity" data-qualified-name=".start." data-source-line="57" id="ent0002"><ellipse cx="16" cy="462.04" fill="#222222" rx="10" ry="10" style="stroke:#222222;stroke-width:1;"/></g><!--link *start* to SinAuth--><g class="link" data-entity-1="ent0002" data-entity-2="ent0002" data-link-type="dependency" data-source-line="57" id="lnk3"><path d="M26.21,462.04 C38.92,462.04 56.95,462.04 80.56,462.04" fill="none" id="*start*-to-SinAuth" style="stroke:#181818;stroke-width:1;"/><polygon fill="#181818" points="86.56,462.04,77.56,458.04,81.56,462.04,77.56,466.04,86.56,462.04" style="stroke:#181818;stroke-width:1;"/></g><!--link SinAuth to Portal--><g class="link" data-entity-1="ent0002" data-entity-2="ent0003" data-link-type="dependency" data-source-line="59" id="lnk4"><path d="M217.23,462.04 C266.33,462.04 325.92,462.04 364.45,462.04" fill="none" id="SinAuth-to-Portal" style="stroke:#181818;stroke-width:1;"/><polygon fill="#181818" points="370.45,462.04,361.45,458.04,365.45,462.04,361.45,466.04,370.45,462.04" style="stroke:#181818;stroke-width:1;"/><text fill="#000000" font-family="sans-serif" font-size="13" lengthAdjust="spacing" textLength="91.6221" x="248.44" y="458.1069">autenticarse()</text></g><!--link Portal to SinAuth--><g class="link" data-entity-1="ent0003" data-entity-2="ent0002" data-link-type="dependency" data-source-line="60" id="lnk5"><path d="M370.64,474.97 C355.62,481.07 340.94,487.04 340.94,487.04 C340.94,487.04 246.94,487.04 246.94,487.04 C246.94,487.04 239.5287,485.061 223.0087,480.671" fill="none" id="Portal-to-SinAuth" style="stroke:#181818;stroke-width:1;"/><polygon fill="#181818" points="217.21,479.13,224.8808,485.3073,222.0423,480.4141,226.9354,477.5756,217.21,479.13" style="stroke:#181818;stroke-width:1;"/><text fill="#000000" font-family="sans-serif" font-size="13" lengthAdjust="spacing" textLength="92.1172" x="247.94" y="483.1069">cerrarSesion()</text></g><!--link Portal to Parking--><g class="link" data-entity-1="ent0003" data-entity-2="ent0004" data-link-type="dependency" data-source-line="62" id="lnk6"><path d="M413.04,441.86 C435.96,375.72 497.06,175.04 497.06,175.04 C497.06,175.04 510.1139,164.1518 530.3039,145.5818" fill="none" id="Portal-to-Parking" style="stroke:#181818;stroke-width:1;"/><polygon fill="#181818" points="534.72,141.52,525.388,144.6686,531.0399,144.9048,530.8037,150.5567,534.72,141.52" style="stroke:#181818;stroke-width:1;"/></g><!--link Parking to Portal--><g class="link" data-entity-1="ent0004" data-entity-2="ent0003" data-link-type="dependency" data-source-line="70" id="lnk13"><path d="M508.7,130.25 C501.59,136.16 497.06,140.04 497.06,140.04 C497.06,140.04 428.6196,363.8653 410.3196,435.7853" fill="none" id="Parking-to-Portal" style="stroke:#181818;stroke-width:1;"/><polygon fill="#181818" points="408.84,441.6,414.9358,433.8643,410.073,436.7544,407.1828,431.8916,408.84,441.6" style="stroke:#181818;stroke-width:1;"/></g><!--link Portal to Oficinas--><g class="link" data-entity-1="ent0003" data-entity-2="ent0005" data-link-type="dependency" data-source-line="63" id="lnk7"><path d="M417.96,441.77 C443.63,392.37 497.06,274.04 497.06,274.04 C497.06,274.04 524.756,260.8143 552.426,243.7143" fill="none" id="Portal-to-Oficinas" style="stroke:#181818;stroke-width:1;"/><polygon fill="#181818" points="557.53,240.56,547.7712,241.8887,553.2767,243.1885,551.9769,248.694,557.53,240.56" style="stroke:#181818;stroke-width:1;"/></g><!--link Oficinas to Portal--><g class="link" data-entity-1="ent0005" data-entity-2="ent0003" data-link-type="dependency" data-source-line="71" id="lnk14"><path d="M511.12,232.26 C502.63,236.25 497.06,239.04 497.06,239.04 C497.06,239.04 432.9118,380.0117 412.4818,436.1517" fill="none" id="Oficinas-to-Portal" style="stroke:#181818;stroke-width:1;"/><polygon fill="#181818" points="410.43,441.79,417.2666,434.7005,412.1399,437.0914,409.7489,431.9647,410.43,441.79" style="stroke:#181818;stroke-width:1;"/></g><!--link Portal to Vacaciones--><g class="link" data-entity-1="ent0003" data-entity-2="ent0006" data-link-type="dependency" data-source-line="64" id="lnk8"><path d="M436.36,454.8 C451.38,446.29 466.06,436.04 466.06,436.04 C466.06,436.04 490.2579,420.5838 520.8179,398.8838" fill="none" id="Portal-to-Vacaciones" style="stroke:#181818;stroke-width:1;"/><polygon fill="#181818" points="525.71,395.41,516.056,397.3593,521.6332,398.3048,520.6877,403.8821,525.71,395.41" style="stroke:#181818;stroke-width:1;"/></g><!--link Vacaciones to Portal--><g class="link" data-entity-1="ent0006" data-entity-2="ent0003" data-link-type="dependency" data-source-line="72" id="lnk15"><path d="M496.66,381.7 C478.99,392.63 466.06,401.04 466.06,401.04 C466.06,401.04 439.0718,418.4099 421.0818,437.4399" fill="none" id="Vacaciones-to-Portal" style="stroke:#181818;stroke-width:1;"/><polygon fill="#181818" points="416.96,441.8,426.0495,438.0077,420.3949,438.1666,420.236,432.512,416.96,441.8" style="stroke:#181818;stroke-width:1;"/></g><!--link Portal to Tablon--><g class="link" data-entity-1="ent0003" data-entity-2="ent0007" data-link-type="dependency" data-source-line="65" id="lnk9"><path d="M436.42,471.84 C462.6,474.76 494.4758,475.7744 526.6658,474.3544" fill="none" id="Portal-to-Tablon" style="stroke:#181818;stroke-width:1;"/><polygon fill="#181818" points="532.66,474.09,523.4925,470.4905,527.6649,474.3104,523.845,478.4827,532.66,474.09" style="stroke:#181818;stroke-width:1;"/></g><!--link Tablon to Portal--><g class="link" data-entity-1="ent0007" data-entity-2="ent0003" data-link-type="dependency" data-source-line="73" id="lnk16"><path d="M532.66,449.27 C500.47,447.77 468.5586,447.8567 442.3786,450.9467" fill="none" id="Tablon-to-Portal" style="stroke:#181818;stroke-width:1;"/><polygon fill="#181818" points="436.42,451.65,445.8268,454.5675,441.3855,451.0639,444.8891,446.6226,436.42,451.65" style="stroke:#181818;stroke-width:1;"/></g><!--link Portal to Directorio--><g class="link" data-entity-1="ent0003" data-entity-2="ent0008" data-link-type="dependency" data-source-line="66" id="lnk10"><path d="M422.35,482.36 C449.25,503.21 497.06,529.04 497.06,529.04 C497.06,529.04 502.917,531.7938 518.007,537.5738" fill="none" id="Portal-to-Directorio" style="stroke:#181818;stroke-width:1;"/><polygon fill="#181818" points="523.61,539.72,516.6362,532.7654,518.9408,537.9315,513.7747,540.2361,523.61,539.72" style="stroke:#181818;stroke-width:1;"/></g><!--link Directorio to Portal--><g class="link" data-entity-1="ent0008" data-entity-2="ent0003" data-link-type="dependency" data-source-line="74" id="lnk17"><path d="M566.54,528.55 C537.58,511.38 497.06,494.04 497.06,494.04 C497.06,494.04 468.7178,477.8955 441.9478,467.4255" fill="none" id="Directorio-to-Portal" style="stroke:#181818;stroke-width:1;"/><polygon fill="#181818" points="436.36,465.24,443.2848,472.2434,441.0165,467.0612,446.1987,464.793,436.36,465.24" style="stroke:#181818;stroke-width:1;"/></g><!--link Portal to Ajustes--><g class="link" data-entity-1="ent0003" data-entity-2="ent0009" data-link-type="dependency" data-source-line="67" id="lnk11"><path d="M413.04,482.38 C435.96,524.91 497.06,614.04 497.06,614.04 C497.06,614.04 498.3012,614.9079 507.9812,620.1379" fill="none" id="Portal-to-Ajustes" style="stroke:#181818;stroke-width:1;"/><polygon fill="#181818" points="513.26,622.99,507.2432,615.1927,508.861,620.6133,503.4404,622.2311,513.26,622.99" style="stroke:#181818;stroke-width:1;"/></g><!--link Ajustes to Portal--><g class="link" data-entity-1="ent0009" data-entity-2="ent0003" data-link-type="dependency" data-source-line="75" id="lnk18"><path d="M552.43,613.52 C525.99,595.54 497.06,579.04 497.06,579.04 C497.06,579.04 458.044,521.3585 430.654,487.0585" fill="none" id="Ajustes-to-Portal" style="stroke:#181818;stroke-width:1;"/><polygon fill="#181818" points="426.91,482.37,429.4003,491.8988,430.03,486.2771,435.6517,486.9068,426.91,482.37" style="stroke:#181818;stroke-width:1;"/></g><!--link Portal to Admin--><g class="link" data-entity-1="ent0003" data-entity-2="ent0010" data-link-type="dependency" data-source-line="68" id="lnk12"><path d="M409.74,482.44 C429.32,545.54 497.06,727.04 497.06,727.04 C497.06,727.04 503.4367,732.2613 518.2767,743.2413" fill="none" id="Portal-to-Admin" style="stroke:#181818;stroke-width:1;"/><polygon fill="#181818" points="523.1,746.81,518.2442,738.2414,519.0806,743.8361,513.4859,744.6725,523.1,746.81" style="stroke:#181818;stroke-width:1;"/></g><!--link Admin to Portal--><g class="link" data-entity-1="ent0010" data-entity-2="ent0003" data-link-type="dependency" data-source-line="76" id="lnk19"><path d="M538.96,726.57 C517.03,707.71 497.06,692.04 497.06,692.04 C497.06,692.04 442.3717,544.6614 417.8517,487.6814" fill="none" id="Admin-to-Portal" style="stroke:#181818;stroke-width:1;"/><polygon fill="#181818" points="415.48,482.17,415.3633,492.0182,417.4564,486.7628,422.7118,488.8559,415.48,482.17" style="stroke:#181818;stroke-width:1;"/></g><?plantuml-src bLJDZjCm4BxtAQmz0TAU41nwG39fGO5jKYNPNX12RZ993QuTsSvA1V4KF18lXcFdn_5IjEHap_TbnlFD3uDQ8osGfCr9eufAA3KLVAM-KTuIISw8KGxwqW9g1RlqbzM9Le3WtEeBga2LahRsbvNIH0EwoUFa2xuljaaHHpYxGKIXd7BSwTD4sQTPWUyij1TI4pOZEFiO9-yTHAHvHOD-hD1qNYC92kG3aNj6lfDdpnTOINW9ZCZCSGOW9445__mx0cNo2K71QzfqidVUCF9NZeI6Acqe1wge9bp3bGW-_dFAFNqNHt62SvjyMjEISdFeivykNleTA2siVmyD1HX9Sv03Zd0KfydMXJcGafGc4t21lEiQAS6COqqaxXJmaZgz5fGnNkweNNMTIbefZazYcXuycUeyXVf06At-o-d1_j6RFUuiJu7Vtlt-bLXj2d9aWbjTXgDj0zKneucps3WJs7P7ymwZ5--CuwNkcpZRHaMQnQdrlR6J9YGLrhztzMBCreKh_E4-BuRwuQ-TqaFnnlCQGTMNRG-ofim-SORcFjvBg45Q2THZaWbCv8wMKYXHwvUlNosViDd5IPmNcUcbKIvSdQbJovtMg37TPuGcSikr4Tqi2nSdXEqmNi7kLKUC04jqJc8dgevTHNCpZd0c8UhKnPomYwQbSfbzUl4P3T_jxPjvPGs7qUxsbUEPfkuqcDnCpLK_onxe-HYu9SZ-IUFY2Cd3bWZDut27zhcvGyIrOsYTUob4Xh8_ClTwcLSEoskH_cfQEGkhDt2UTHYFm8FNyPvrRC4brvKkyF07?></g></svg>