<svg xmlns="http://www.w3.org/2000/svg" xmlns:xlink="http://www.w3.org/1999/xlink" contentStyleType="text/css" data-diagram-type="STATE" height="727px" preserveAspectRatio="none" style="width:531px;height:727px;background:#FFFFFF;" version="1.1" viewBox="0 0 531 727" width="531px" zoomAndPan="magnify"><?plantuml 1.2026.3beta6?><defs/><g><rect fill="#F1F1F1" height="40" rx="12.5" ry="12.5" style="stroke:#181818;stroke-width:0.5;" width="101.6357" x="210.68" y="7"/><text fill="#000000" font-family="sans-serif" font-size="14" lengthAdjust="spacing" textLength="91.6357" x="215.68" y="31.8467">VACACIONES</text><path d="M19.5,142 L503.5,142 A12.5,12.5 0 0 1 516,154.5 L516,168.2969 L7,168.2969 L7,154.5 A12.5,12.5 0 0 1 19.5,142" fill="#F1F1F1"/><rect fill="none" height="571.2969" rx="12.5" ry="12.5" style="stroke:#181818;stroke-width:0.5;" width="509" x="7" y="142"/><line style="stroke:#181818;stroke-width:0.5;" x1="7" x2="516" y1="168.2969" y2="168.2969"/><text fill="#000000" font-family="sans-serif" font-size="14" lengthAdjust="spacing" textLength="189.3965" x="166.8018" y="159.9951">aprobarSolicitudAusencia()</text><rect fill="#F1F1F1" height="40" rx="12.5" ry="12.5" style="stroke:#181818;stroke-width:0.5;" width="50" x="19" y="270.2969"/><text fill="#000000" font-family="sans-serif" font-size="14" lengthAdjust="spacing" textLength="4.4502" x="41.7749" y="295.1436">&#160;</text><rect fill="#F1F1F1" height="40" rx="12.5" ry="12.5" style="stroke:#181818;stroke-width:0.5;" width="50" x="19" y="426.2969"/><text fill="#000000" font-family="sans-serif" font-size="14" lengthAdjust="spacing" textLength="4.4502" x="41.7749" y="451.1436">&#160;</text><rect fill="#F1F1F1" height="40" rx="12.5" ry="12.5" style="stroke:#181818;stroke-width:0.5;" width="50" x="19" y="552.2969"/><text fill="#000000" font-family="sans-serif" font-size="14" lengthAdjust="spacing" textLength="4.4502" x="41.7749" y="577.1436">&#160;</text><g class="start_entity" data-qualified-name="aprobarSolicitudAusencia..start.aprobarSolicitudAusencia" data-source-line="13" id="ent0003"><ellipse cx="44" cy="189.2969" fill="#222222" rx="10" ry="10" style="stroke:#222222;stroke-width:1;"/></g><g class="end_entity" data-qualified-name="aprobarSolicitudAusencia..end.aprobarSolicitudAusencia" data-source-line="32" id="ent0007"><ellipse cx="44" cy="689.2969" fill="none" rx="11" ry="11" style="stroke:#222222;stroke-width:1;"/><ellipse cx="44" cy="689.2969" fill="#222222" rx="6" ry="6" style="stroke:#222222;stroke-width:1;"/></g><!--link *start*aprobarSolicitudAusencia to ListandoSolicitudes--><g class="link" data-entity-1="ent0003" data-entity-2="ent0004" data-link-type="dependency" data-source-line="13" id="lnk4"><path d="M44,199.7869 C44,215.8569 44,242.7269 44,263.8469" fill="none" id="*start*aprobarSolicitudAusencia-to-ListandoSolicitudes" style="stroke:#008000;stroke-width:1;"/><polygon fill="#008000" points="44,269.8469,48,260.8469,44,264.8469,40,260.8469,44,269.8469" style="stroke:#008000;stroke-width:1;"/><path d="M49,222.2969 L49,247.2969 L450,247.2969 L450,232.2969 L440,222.2969 L49,222.2969" fill="#FEFFDD" style="stroke:#181818;stroke-width:0.5;"/><path d="M440,222.2969 L440,232.2969 L450,232.2969 L440,222.2969" fill="#FEFFDD" style="stroke:#181818;stroke-width:0.5;"/><text fill="#000000" font-family="sans-serif" font-size="13" font-weight="700" lengthAdjust="spacing" textLength="64.27" x="55" y="239.3638">Manager</text><text fill="#000000" font-family="sans-serif" font-size="13" lengthAdjust="spacing" textLength="312.2856" x="123.4023" y="239.3638">accede a la bandeja de solicitudes de su equipo</text></g><!--link ListandoSolicitudes to VisualizandoDetalle--><g class="link" data-entity-1="ent0004" data-entity-2="ent0005" data-link-type="dependency" data-source-line="18" id="lnk5"><path d="M44,310.4869 C44,339.9969 44,390.2069 44,419.8669" fill="none" id="ListandoSolicitudes-to-VisualizandoDetalle" style="stroke:#008000;stroke-width:1;"/><polygon fill="#008000" points="44,425.8669,48,416.8669,44,420.8669,40,416.8669,44,425.8669" style="stroke:#008000;stroke-width:1;"/><path d="M49,333.2969 L49,403.2969 L434,403.2969 L434,343.2969 L424,333.2969 L49,333.2969" fill="#FEFFDD" style="stroke:#181818;stroke-width:0.5;"/><path d="M424,333.2969 L424,343.2969 L434,343.2969 L424,333.2969" fill="#FEFFDD" style="stroke:#181818;stroke-width:0.5;"/><text fill="#000000" font-family="sans-serif" font-size="13" font-weight="700" lengthAdjust="spacing" textLength="58.9063" x="55" y="350.3638">Sistema</text><text fill="#000000" font-family="sans-serif" font-size="13" lengthAdjust="spacing" textLength="301.0757" x="118.0386" y="350.3638">muestra solicitudes pendientes de aprobaci&#243;n</text><text fill="#000000" font-family="sans-serif" font-size="13" lengthAdjust="spacing" textLength="147.9512" x="55" y="365.4966">&#8226; Empleado solicitante</text><text fill="#000000" font-family="sans-serif" font-size="13" lengthAdjust="spacing" textLength="204.9468" x="55" y="380.6294">&#8226; Tipo, fechas y d&#237;as laborables</text><text fill="#000000" font-family="sans-serif" font-size="13" font-weight="700" lengthAdjust="spacing" textLength="64.27" x="55" y="395.7622">Manager</text><text fill="#000000" font-family="sans-serif" font-size="13" lengthAdjust="spacing" textLength="155.4541" x="123.4023" y="395.7622">selecciona una solicitud</text></g><!--link VisualizandoDetalle to DecisionTomada--><g class="link" data-entity-1="ent0005" data-entity-2="ent0006" data-link-type="dependency" data-source-line="26" id="lnk6"><path d="M44,466.6669 C44,489.9669 44,522.8269 44,546.0569" fill="none" id="VisualizandoDetalle-to-DecisionTomada" style="stroke:#008000;stroke-width:1;"/><polygon fill="#008000" points="44,552.0569,48,543.0569,44,547.0569,40,543.0569,44,552.0569" style="stroke:#008000;stroke-width:1;"/><path d="M49,489.2969 L49,529.2969 L410,529.2969 L410,499.2969 L400,489.2969 L49,489.2969" fill="#FEFFDD" style="stroke:#181818;stroke-width:0.5;"/><path d="M400,489.2969 L400,499.2969 L410,499.2969 L400,489.2969" fill="#FEFFDD" style="stroke:#181818;stroke-width:0.5;"/><text fill="#000000" font-family="sans-serif" font-size="13" font-weight="700" lengthAdjust="spacing" textLength="58.9063" x="55" y="506.3638">Sistema</text><text fill="#000000" font-family="sans-serif" font-size="13" lengthAdjust="spacing" textLength="277.8242" x="118.0386" y="506.3638">muestra el detalle completo de la solicitud</text><text fill="#000000" font-family="sans-serif" font-size="13" font-weight="700" lengthAdjust="spacing" textLength="64.27" x="55" y="521.4966">Manager</text><text fill="#000000" font-family="sans-serif" font-size="13" lengthAdjust="spacing" textLength="241.4521" x="123.4023" y="521.4966">aprueba o rechaza con nota opcional</text></g><!--link DecisionTomada to *end*aprobarSolicitudAusencia--><g class="link" data-entity-1="ent0006" data-entity-2="ent0007" data-link-type="dependency" data-source-line="32" id="lnk8"><path d="M44,592.5469 C44,617.0969 44,652.6869 44,671.9369" fill="none" id="DecisionTomada-to-*end*aprobarSolicitudAusencia" style="stroke:#008000;stroke-width:1;"/><polygon fill="#008000" points="44,677.9369,48,668.9369,44,672.9369,40,668.9369,44,677.9369" style="stroke:#008000;stroke-width:1;"/><path d="M49,615.2969 L49,655.2969 L492,655.2969 L492,625.2969 L482,615.2969 L49,615.2969" fill="#FEFFDD" style="stroke:#181818;stroke-width:0.5;"/><path d="M482,615.2969 L482,625.2969 L492,625.2969 L482,615.2969" fill="#FEFFDD" style="stroke:#181818;stroke-width:0.5;"/><text fill="#000000" font-family="sans-serif" font-size="13" font-weight="700" lengthAdjust="spacing" textLength="58.9063" x="55" y="632.3638">Sistema</text><text fill="#000000" font-family="sans-serif" font-size="13" lengthAdjust="spacing" textLength="216.8677" x="118.0386" y="632.3638">actualiza el estado de la solicitud</text><text fill="#000000" font-family="sans-serif" font-size="13" font-weight="700" lengthAdjust="spacing" textLength="58.9063" x="55" y="647.4966">Sistema</text><text fill="#000000" font-family="sans-serif" font-size="13" lengthAdjust="spacing" textLength="359.7153" x="118.0386" y="647.4966">notifica al empleado y, si aprobada, al equipo de RRHH</text></g><!--link Vacaciones to aprobarSolicitudAusencia--><g class="link" data-entity-1="ent0002" data-entity-2="ent0003" data-link-type="dependency" data-source-line="6" id="lnk2"><path d="M247.27,47.37 C237.21,61.07 225.5,77 225.5,77 C225.5,77 225.5,112 225.5,112 C225.5,112 226.106,117.3391 228.206,135.6391" fill="none" id="Vacaciones-to-aprobarSolicitudAusencia" style="stroke:#008000;stroke-width:1;"/><polygon fill="#008000" points="228.89,141.6,231.8379,132.2027,228.32,136.6326,223.89,133.1147,228.89,141.6" style="stroke:#008000;stroke-width:1;"/></g><!--link aprobarSolicitudAusencia to Vacaciones--><g class="link" data-entity-1="ent0003" data-entity-2="ent0002" data-link-type="dependency" data-source-line="39" id="lnk9"><path d="M258.78,141.6 C258.61,123.3 258.5,112 258.5,112 C258.5,112 258.5,77 258.5,77 C258.5,77 259.1172,67.059 259.9472,53.359" fill="none" id="aprobarSolicitudAusencia-to-Vacaciones" style="stroke:#008000;stroke-width:1;"/><polygon fill="#008000" points="260.31,47.37,255.7731,56.1116,260.0076,52.3608,263.7584,56.5954,260.31,47.37" style="stroke:#008000;stroke-width:1;"/><path d="M263.5,82 L263.5,107 L408.5,107 L408.5,92 L398.5,82 L263.5,82" fill="#FEFFDD" style="stroke:#181818;stroke-width:0.5;"/><path d="M398.5,82 L398.5,92 L408.5,92 L398.5,82" fill="#FEFFDD" style="stroke:#181818;stroke-width:0.5;"/><text fill="#000000" font-family="sans-serif" font-size="13" lengthAdjust="spacing" textLength="124.3252" x="269.5" y="99.0669">decisi&#243;n registrada</text></g><!--link aprobarSolicitudAusencia to Vacaciones--><g class="link" data-entity-1="ent0003" data-entity-2="ent0002" data-link-type="dependency" data-source-line="44" id="lnk10"><path d="M402.82,141.6 C411.9,123.3 417.5,112 417.5,112 C417.5,112 417.5,77 417.5,77 C417.5,77 363.8043,60.1378 318.3043,45.8478" fill="none" id="aprobarSolicitudAusencia-to-Vacaciones-1" style="stroke:#0000FF;stroke-width:1;"/><polygon fill="#0000FF" points="312.58,44.05,319.9679,50.5629,317.3503,45.5482,322.365,42.9305,312.58,44.05" style="stroke:#0000FF;stroke-width:1;"/><path d="M422.5,82 L422.5,107 L498.5,107 L498.5,92 L488.5,82 L422.5,82" fill="#FEFFDD" style="stroke:#181818;stroke-width:0.5;"/><path d="M488.5,82 L488.5,92 L498.5,92 L488.5,82" fill="#FEFFDD" style="stroke:#181818;stroke-width:0.5;"/><text fill="#000000" font-family="sans-serif" font-size="13" lengthAdjust="spacing" textLength="55.4214" x="428.5" y="99.0669">cancelar</text></g><?plantuml-src ZPJFJXin4CRl-nIZzD9MGRm0Gee0YKg5IWJbWZZCUeSmnMiR_pa4XDHdwRsdFW9lqYVfs0j9TjaWJeapzkVVzyquuOwDGuyjQ3OKLux0MRtAY-gM6m9gNLn1Gq5vTf6jgQeGCH9C5hEZsT6t7-SdymbWW0KgL5AdK5MRxx1tzMdfYSprtY6WyxP6FxUQ5SVKp58WenXV9NVLi_naL_7pbmayLW0lL51WlhCiJMFNkuLgi6N18Q7cXxpjc29gJSCjnwGuY8rBss8Zb01NNwzxZiRlCLOqhCcHtiaIuA0-F4E3I_87-xNae1H9j0WQePRZz1CbOGWRaR9CGFU9dHK9CarHpGmZT_QOnesDCSr5YLeiJ6sY43ts89nSosHYnzCrGF7pNrC4_ltw3IUjquIDVJs6idbTl1JsAToGkfKiPOQU_yYdnjfwh7K9waqoWJIfF3a8oMp1328OiTYBOD2uZxidBKuxFMMpjsYpTTr7UTjGvnFL21PyTlk0SjhaI-KdL-peWOC-OGzUPkm3nAXY5q5c5lZSX1sasyT4bczOoPFI-MbtpLjD8V1BVnkSbbgPlAnuSN5wkWt_L5Kxtsbl33V_1mClJV4kOoHfBJddBZtQXFEUUgqJlI-kq2ZIwDU2_m40?></g></svg>