<svg xmlns="http://www.w3.org/2000/svg" xmlns:xlink="http://www.w3.org/1999/xlink" contentStyleType="text/css" data-diagram-type="STATE" height="727px" preserveAspectRatio="none" style="width:484px;height:727px;background:#FFFFFF;" version="1.1" viewBox="0 0 484 727" width="484px" zoomAndPan="magnify"><?plantuml 1.2026.3beta6?><defs/><g><rect fill="#F1F1F1" height="40" rx="12.5" ry="12.5" style="stroke:#181818;stroke-width:0.5;" width="72.3779" x="201.81" y="7"/><text fill="#000000" font-family="sans-serif" font-size="14" lengthAdjust="spacing" textLength="62.3779" x="206.81" y="31.8467">PARKING</text><path d="M19.5,142 L456.5,142 A12.5,12.5 0 0 1 469,154.5 L469,168.2969 L7,168.2969 L7,154.5 A12.5,12.5 0 0 1 19.5,142" fill="#F1F1F1"/><rect fill="none" height="571.2969" rx="12.5" ry="12.5" style="stroke:#181818;stroke-width:0.5;" width="462" x="7" y="142"/><line style="stroke:#181818;stroke-width:0.5;" x1="7" x2="469" y1="168.2969" y2="168.2969"/><text fill="#000000" font-family="sans-serif" font-size="14" lengthAdjust="spacing" textLength="87.3291" x="194.3354" y="159.9951">cederPlaza()</text><rect fill="#F1F1F1" height="40" rx="12.5" ry="12.5" style="stroke:#181818;stroke-width:0.5;" width="50" x="19" y="270.2969"/><text fill="#000000" font-family="sans-serif" font-size="14" lengthAdjust="spacing" textLength="4.4502" x="41.7749" y="295.1436">&#160;</text><rect fill="#F1F1F1" height="40" rx="12.5" ry="12.5" style="stroke:#181818;stroke-width:0.5;" width="50" x="19" y="426.2969"/><text fill="#000000" font-family="sans-serif" font-size="14" lengthAdjust="spacing" textLength="4.4502" x="41.7749" y="451.1436">&#160;</text><rect fill="#F1F1F1" height="40" rx="12.5" ry="12.5" style="stroke:#181818;stroke-width:0.5;" width="50" x="19" y="552.2969"/><text fill="#000000" font-family="sans-serif" font-size="14" lengthAdjust="spacing" textLength="4.4502" x="41.7749" y="577.1436">&#160;</text><g class="start_entity" data-qualified-name="cederPlaza..start.cederPlaza" data-source-line="13" id="ent0003"><ellipse cx="44" cy="189.2969" fill="#222222" rx="10" ry="10" style="stroke:#222222;stroke-width:1;"/></g><g class="end_entity" data-qualified-name="cederPlaza..end.cederPlaza" data-source-line="32" id="ent0007"><ellipse cx="44" cy="689.2969" fill="none" rx="11" ry="11" style="stroke:#222222;stroke-width:1;"/><ellipse cx="44" cy="689.2969" fill="#222222" rx="6" ry="6" style="stroke:#222222;stroke-width:1;"/></g><!--link *start*cederPlaza to VisualizandoPlaza--><g class="link" data-entity-1="ent0003" data-entity-2="ent0004" data-link-type="dependency" data-source-line="13" id="lnk4"><path d="M44,199.7869 C44,215.8569 44,242.7269 44,263.8469" fill="none" id="*start*cederPlaza-to-VisualizandoPlaza" style="stroke:#008000;stroke-width:1;"/><polygon fill="#008000" points="44,269.8469,48,260.8469,44,264.8469,40,260.8469,44,269.8469" style="stroke:#008000;stroke-width:1;"/><path d="M49,222.2969 L49,247.2969 L318,247.2969 L318,232.2969 L308,222.2969 L49,222.2969" fill="#FEFFDD" style="stroke:#181818;stroke-width:0.5;"/><path d="M308,222.2969 L308,232.2969 L318,232.2969 L308,222.2969" fill="#FEFFDD" style="stroke:#181818;stroke-width:0.5;"/><text fill="#000000" font-family="sans-serif" font-size="13" font-weight="700" lengthAdjust="spacing" textLength="64.27" x="55" y="239.3638">Manager</text><text fill="#000000" font-family="sans-serif" font-size="13" lengthAdjust="spacing" textLength="179.6641" x="123.4023" y="239.3638">accede a su plaza asignada</text></g><!--link VisualizandoPlaza to SeleccionandoFecha--><g class="link" data-entity-1="ent0004" data-entity-2="ent0005" data-link-type="dependency" data-source-line="18" id="lnk5"><path d="M44,310.4869 C44,339.9969 44,390.2069 44,419.8669" fill="none" id="VisualizandoPlaza-to-SeleccionandoFecha" style="stroke:#008000;stroke-width:1;"/><polygon fill="#008000" points="44,425.8669,48,416.8669,44,420.8669,40,416.8669,44,425.8669" style="stroke:#008000;stroke-width:1;"/><path d="M49,333.2969 L49,403.2969 L389,403.2969 L389,343.2969 L379,333.2969 L49,333.2969" fill="#FEFFDD" style="stroke:#181818;stroke-width:0.5;"/><path d="M379,333.2969 L379,343.2969 L389,343.2969 L379,333.2969" fill="#FEFFDD" style="stroke:#181818;stroke-width:0.5;"/><text fill="#000000" font-family="sans-serif" font-size="13" font-weight="700" lengthAdjust="spacing" textLength="58.9063" x="55" y="350.3638">Sistema</text><text fill="#000000" font-family="sans-serif" font-size="13" lengthAdjust="spacing" textLength="256.001" x="118.0386" y="350.3638">muestra el estado de la plaza asignada</text><text fill="#000000" font-family="sans-serif" font-size="13" lengthAdjust="spacing" textLength="195.0762" x="55" y="365.4966">&#8226; Reservas propias existentes</text><text fill="#000000" font-family="sans-serif" font-size="13" lengthAdjust="spacing" textLength="167.5273" x="55" y="380.6294">&#8226; Cesiones ya registradas</text><text fill="#000000" font-family="sans-serif" font-size="13" font-weight="700" lengthAdjust="spacing" textLength="64.27" x="55" y="395.7622">Manager</text><text fill="#000000" font-family="sans-serif" font-size="13" lengthAdjust="spacing" textLength="230.1152" x="123.4023" y="395.7622">solicita ceder la plaza en una fecha</text></g><!--link SeleccionandoFecha to CesionRegistrada--><g class="link" data-entity-1="ent0005" data-entity-2="ent0006" data-link-type="dependency" data-source-line="26" id="lnk6"><path d="M44,466.6669 C44,489.9669 44,522.8269 44,546.0569" fill="none" id="SeleccionandoFecha-to-CesionRegistrada" style="stroke:#008000;stroke-width:1;"/><polygon fill="#008000" points="44,552.0569,48,543.0569,44,547.0569,40,543.0569,44,552.0569" style="stroke:#008000;stroke-width:1;"/><path d="M49,489.2969 L49,529.2969 L423,529.2969 L423,499.2969 L413,489.2969 L49,489.2969" fill="#FEFFDD" style="stroke:#181818;stroke-width:0.5;"/><path d="M413,489.2969 L413,499.2969 L423,499.2969 L413,489.2969" fill="#FEFFDD" style="stroke:#181818;stroke-width:0.5;"/><text fill="#000000" font-family="sans-serif" font-size="13" font-weight="700" lengthAdjust="spacing" textLength="64.27" x="55" y="506.3638">Manager</text><text fill="#000000" font-family="sans-serif" font-size="13" lengthAdjust="spacing" textLength="190.4551" x="123.4023" y="506.3638">selecciona la fecha de cesi&#243;n</text><text fill="#000000" font-family="sans-serif" font-size="13" font-weight="700" lengthAdjust="spacing" textLength="58.9063" x="55" y="521.4966">Sistema</text><text fill="#000000" font-family="sans-serif" font-size="13" lengthAdjust="spacing" textLength="290.8813" x="118.0386" y="521.4966">valida que no exista ya una reserva o cesi&#243;n</text></g><!--link CesionRegistrada to *end*cederPlaza--><g class="link" data-entity-1="ent0006" data-entity-2="ent0007" data-link-type="dependency" data-source-line="32" id="lnk8"><path d="M44,592.5469 C44,617.0969 44,652.6869 44,671.9369" fill="none" id="CesionRegistrada-to-*end*cederPlaza" style="stroke:#008000;stroke-width:1;"/><polygon fill="#008000" points="44,677.9369,48,668.9369,44,672.9369,40,668.9369,44,677.9369" style="stroke:#008000;stroke-width:1;"/><path d="M49,615.2969 L49,655.2969 L445,655.2969 L445,625.2969 L435,615.2969 L49,615.2969" fill="#FEFFDD" style="stroke:#181818;stroke-width:0.5;"/><path d="M435,615.2969 L435,625.2969 L445,625.2969 L435,615.2969" fill="#FEFFDD" style="stroke:#181818;stroke-width:0.5;"/><text fill="#000000" font-family="sans-serif" font-size="13" font-weight="700" lengthAdjust="spacing" textLength="58.9063" x="55" y="632.3638">Sistema</text><text fill="#000000" font-family="sans-serif" font-size="13" lengthAdjust="spacing" textLength="180.4956" x="118.0386" y="632.3638">registra la cesi&#243;n en estado</text><text fill="#000000" font-family="sans-serif" font-size="13" font-style="italic" lengthAdjust="spacing" textLength="66.5552" x="302.6665" y="632.3638">disponible</text><text fill="#000000" font-family="sans-serif" font-size="13" font-weight="700" lengthAdjust="spacing" textLength="58.9063" x="55" y="647.4966">Sistema</text><text fill="#000000" font-family="sans-serif" font-size="13" lengthAdjust="spacing" textLength="312.8569" x="118.0386" y="647.4966">notifica a empleados con alertas para esa fecha</text></g><!--link Parking to cederPlaza--><g class="link" data-entity-1="ent0002" data-entity-2="ent0003" data-link-type="dependency" data-source-line="6" id="lnk2"><path d="M223.77,47.37 C213.71,61.07 202,77 202,77 C202,77 202,112 202,112 C202,112 202.606,117.3391 204.706,135.6391" fill="none" id="Parking-to-cederPlaza" style="stroke:#008000;stroke-width:1;"/><polygon fill="#008000" points="205.39,141.6,208.3379,132.2027,204.82,136.6326,200.39,133.1147,205.39,141.6" style="stroke:#008000;stroke-width:1;"/></g><!--link cederPlaza to Parking--><g class="link" data-entity-1="ent0003" data-entity-2="ent0002" data-link-type="dependency" data-source-line="39" id="lnk9"><path d="M235.28,141.6 C235.11,123.3 235,112 235,112 C235,112 235,77 235,77 C235,77 235.6172,67.059 236.4472,53.359" fill="none" id="cederPlaza-to-Parking" style="stroke:#008000;stroke-width:1;"/><polygon fill="#008000" points="236.81,47.37,232.2731,56.1116,236.5076,52.3608,240.2584,56.5954,236.81,47.37" style="stroke:#008000;stroke-width:1;"/><path d="M240,82 L240,107 L373,107 L373,92 L363,82 L240,82" fill="#FEFFDD" style="stroke:#181818;stroke-width:0.5;"/><path d="M363,82 L363,92 L373,92 L363,82" fill="#FEFFDD" style="stroke:#181818;stroke-width:0.5;"/><text fill="#000000" font-family="sans-serif" font-size="13" lengthAdjust="spacing" textLength="112.4614" x="246" y="99.0669">cesi&#243;n registrada</text></g><!--link cederPlaza to Parking--><g class="link" data-entity-1="ent0003" data-entity-2="ent0002" data-link-type="dependency" data-source-line="44" id="lnk10"><path d="M368.45,141.6 C376.83,123.3 382,112 382,112 C382,112 382,77 382,77 C382,77 322.6804,56.8121 280.0204,42.3021" fill="none" id="cederPlaza-to-Parking-1" style="stroke:#0000FF;stroke-width:1;"/><polygon fill="#0000FF" points="274.34,40.37,281.5726,47.0551,279.0737,41.9801,284.1487,39.4812,274.34,40.37" style="stroke:#0000FF;stroke-width:1;"/><path d="M387,82 L387,107 L463,107 L463,92 L453,82 L387,82" fill="#FEFFDD" style="stroke:#181818;stroke-width:0.5;"/><path d="M453,82 L453,92 L463,92 L453,82" fill="#FEFFDD" style="stroke:#181818;stroke-width:0.5;"/><text fill="#000000" font-family="sans-serif" font-size="13" lengthAdjust="spacing" textLength="55.4214" x="393" y="99.0669">cancelar</text></g><?plantuml-src ZLDHQjmm4FtNAORDJre8la1OA8MMKXAM3VGdv6DMcZWYMacHvD1DAFGilKAFq9lq99rPUzVsshJziYJFlFVcFIa_MXynuHQSzLHsaI06jvEDUh26WBQnxC1Grid6OeDNAXSi18lLk_NdJzSV5u0PLfWOg5QgMy35xLcTYFpTnH8q6KehXozuwErFf7dHRy_VBE1L0NGKi0V_OdE3phwWDw65EIcu8KTQipQf-43wOLBndZB_NbDjSqbeM0Z0xTkxaSmv6XyO8tWnvv6t09URvHLwh2bTLfibe1RjW90RYDqyjlR2043Ux064R08-efuTO8xxXlNJ5lVSsuPa6207l40JE2LmEDK1yFlx3rXJflJCNiGKekKlVHKmNoWVQrgRACCE8HtDodEJv-2ijWNRB7jUyj1uXFjkYA47qob79amo-hVz-OWe0lQSOe9cf5y__Pnfpno2GNXgYC5R2r2c5SsfTGZ2062e_rJWI3tVfl_8x62goEr8nB4klweoDiVWxSPHLStrCxwzjvhZbOVfYBioQ2P4Hwb8k2Wt8iy4y4sfmRCRIZyytXFn1ttzHL2z6sEeZMleRqZeDJbCn_u_?></g></svg>