<svg xmlns="http://www.w3.org/2000/svg" xmlns:xlink="http://www.w3.org/1999/xlink" contentStyleType="text/css" data-diagram-type="STATE" height="727px" preserveAspectRatio="none" style="width:519px;height:727px;background:#FFFFFF;" version="1.1" viewBox="0 0 519 727" width="519px" zoomAndPan="magnify"><?plantuml 1.2026.3beta6?><defs/><g><rect fill="#F1F1F1" height="40" rx="12.5" ry="12.5" style="stroke:#181818;stroke-width:0.5;" width="72.3779" x="219.31" y="7"/><text fill="#000000" font-family="sans-serif" font-size="14" lengthAdjust="spacing" textLength="62.3779" x="224.31" y="31.8467">PARKING</text><path d="M19.5,142 L491.5,142 A12.5,12.5 0 0 1 504,154.5 L504,168.2969 L7,168.2969 L7,154.5 A12.5,12.5 0 0 1 19.5,142" fill="#F1F1F1"/><rect fill="none" height="571.2969" rx="12.5" ry="12.5" style="stroke:#181818;stroke-width:0.5;" width="497" x="7" y="142"/><line style="stroke:#181818;stroke-width:0.5;" x1="7" x2="504" y1="168.2969" y2="168.2969"/><text fill="#000000" font-family="sans-serif" font-size="14" lengthAdjust="spacing" textLength="132.6377" x="189.1812" y="159.9951">registrarVisitante()</text><rect fill="#F1F1F1" height="40" rx="12.5" ry="12.5" style="stroke:#181818;stroke-width:0.5;" width="50" x="19" y="270.2969"/><text fill="#000000" font-family="sans-serif" font-size="14" lengthAdjust="spacing" textLength="4.4502" x="41.7749" y="295.1436">&#160;</text><rect fill="#F1F1F1" height="40" rx="12.5" ry="12.5" style="stroke:#181818;stroke-width:0.5;" width="50" x="19" y="426.2969"/><text fill="#000000" font-family="sans-serif" font-size="14" lengthAdjust="spacing" textLength="4.4502" x="41.7749" y="451.1436">&#160;</text><rect fill="#F1F1F1" height="40" rx="12.5" ry="12.5" style="stroke:#181818;stroke-width:0.5;" width="50" x="19" y="552.2969"/><text fill="#000000" font-family="sans-serif" font-size="14" lengthAdjust="spacing" textLength="4.4502" x="41.7749" y="577.1436">&#160;</text><g class="start_entity" data-qualified-name="registrarVisitante..start.registrarVisitante" data-source-line="13" id="ent0003"><ellipse cx="44" cy="189.2969" fill="#222222" rx="10" ry="10" style="stroke:#222222;stroke-width:1;"/></g><g class="end_entity" data-qualified-name="registrarVisitante..end.registrarVisitante" data-source-line="32" id="ent0007"><ellipse cx="44" cy="689.2969" fill="none" rx="11" ry="11" style="stroke:#222222;stroke-width:1;"/><ellipse cx="44" cy="689.2969" fill="#222222" rx="6" ry="6" style="stroke:#222222;stroke-width:1;"/></g><!--link *start*registrarVisitante to IntroduciendoDatos--><g class="link" data-entity-1="ent0003" data-entity-2="ent0004" data-link-type="dependency" data-source-line="13" id="lnk4"><path d="M44,199.7869 C44,215.8569 44,242.7269 44,263.8469" fill="none" id="*start*registrarVisitante-to-IntroduciendoDatos" style="stroke:#008000;stroke-width:1;"/><polygon fill="#008000" points="44,269.8469,48,260.8469,44,264.8469,40,260.8469,44,269.8469" style="stroke:#008000;stroke-width:1;"/><path d="M49,222.2969 L49,247.2969 L348,247.2969 L348,232.2969 L338,222.2969 L49,222.2969" fill="#FEFFDD" style="stroke:#181818;stroke-width:0.5;"/><path d="M338,222.2969 L338,232.2969 L348,232.2969 L338,222.2969" fill="#FEFFDD" style="stroke:#181818;stroke-width:0.5;"/><text fill="#000000" font-family="sans-serif" font-size="13" font-weight="700" lengthAdjust="spacing" textLength="72.0142" x="55" y="239.3638">Empleado</text><text fill="#000000" font-family="sans-serif" font-size="13" lengthAdjust="spacing" textLength="202.4014" x="131.1465" y="239.3638">accede al m&#243;dulo de visitantes</text></g><!--link IntroduciendoDatos to SeleccionandoPlaza--><g class="link" data-entity-1="ent0004" data-entity-2="ent0005" data-link-type="dependency" data-source-line="18" id="lnk5"><path d="M44,310.4869 C44,339.9969 44,390.2069 44,419.8669" fill="none" id="IntroduciendoDatos-to-SeleccionandoPlaza" style="stroke:#008000;stroke-width:1;"/><polygon fill="#008000" points="44,425.8669,48,416.8669,44,420.8669,40,416.8669,44,425.8669" style="stroke:#008000;stroke-width:1;"/><path d="M49,333.2969 L49,403.2969 L354,403.2969 L354,343.2969 L344,333.2969 L49,333.2969" fill="#FEFFDD" style="stroke:#181818;stroke-width:0.5;"/><path d="M344,333.2969 L344,343.2969 L354,343.2969 L344,333.2969" fill="#FEFFDD" style="stroke:#181818;stroke-width:0.5;"/><text fill="#000000" font-family="sans-serif" font-size="13" font-weight="700" lengthAdjust="spacing" textLength="58.9063" x="55" y="350.3638">Sistema</text><text fill="#000000" font-family="sans-serif" font-size="13" lengthAdjust="spacing" textLength="219.6987" x="118.0386" y="350.3638">presenta el formulario de registro</text><text fill="#000000" font-family="sans-serif" font-size="13" font-weight="700" lengthAdjust="spacing" textLength="72.0142" x="55" y="365.4966">Empleado</text><text fill="#000000" font-family="sans-serif" font-size="13" lengthAdjust="spacing" textLength="208.7427" x="131.1465" y="365.4966">introduce los datos del visitante</text><text fill="#000000" font-family="sans-serif" font-size="13" lengthAdjust="spacing" textLength="173.1133" x="55" y="380.6294">&#8226; Nombre, empresa, email</text><text fill="#000000" font-family="sans-serif" font-size="13" lengthAdjust="spacing" textLength="125.6074" x="55" y="395.7622">&#8226; Fecha de la visita</text></g><!--link SeleccionandoPlaza to VisitanteRegistrado--><g class="link" data-entity-1="ent0005" data-entity-2="ent0006" data-link-type="dependency" data-source-line="26" id="lnk6"><path d="M44,466.6669 C44,489.9669 44,522.8269 44,546.0569" fill="none" id="SeleccionandoPlaza-to-VisitanteRegistrado" style="stroke:#008000;stroke-width:1;"/><polygon fill="#008000" points="44,552.0569,48,543.0569,44,547.0569,40,543.0569,44,552.0569" style="stroke:#008000;stroke-width:1;"/><path d="M49,489.2969 L49,529.2969 L480,529.2969 L480,499.2969 L470,489.2969 L49,489.2969" fill="#FEFFDD" style="stroke:#181818;stroke-width:0.5;"/><path d="M470,489.2969 L470,499.2969 L480,499.2969 L470,489.2969" fill="#FEFFDD" style="stroke:#181818;stroke-width:0.5;"/><text fill="#000000" font-family="sans-serif" font-size="13" font-weight="700" lengthAdjust="spacing" textLength="58.9063" x="55" y="506.3638">Sistema</text><text fill="#000000" font-family="sans-serif" font-size="13" lengthAdjust="spacing" textLength="347.1025" x="118.0386" y="506.3638">muestra plazas de visitante disponibles para la fecha</text><text fill="#000000" font-family="sans-serif" font-size="13" font-weight="700" lengthAdjust="spacing" textLength="72.0142" x="55" y="521.4966">Empleado</text><text fill="#000000" font-family="sans-serif" font-size="13" lengthAdjust="spacing" textLength="279.4873" x="131.1465" y="521.4966">selecciona una plaza y confirma el registro</text></g><!--link VisitanteRegistrado to *end*registrarVisitante--><g class="link" data-entity-1="ent0006" data-entity-2="ent0007" data-link-type="dependency" data-source-line="32" id="lnk8"><path d="M44,592.5469 C44,617.0969 44,652.6869 44,671.9369" fill="none" id="VisitanteRegistrado-to-*end*registrarVisitante" style="stroke:#008000;stroke-width:1;"/><polygon fill="#008000" points="44,677.9369,48,668.9369,44,672.9369,40,668.9369,44,677.9369" style="stroke:#008000;stroke-width:1;"/><path d="M49,615.2969 L49,655.2969 L393,655.2969 L393,625.2969 L383,615.2969 L49,615.2969" fill="#FEFFDD" style="stroke:#181818;stroke-width:0.5;"/><path d="M383,615.2969 L383,625.2969 L393,625.2969 L383,615.2969" fill="#FEFFDD" style="stroke:#181818;stroke-width:0.5;"/><text fill="#000000" font-family="sans-serif" font-size="13" font-weight="700" lengthAdjust="spacing" textLength="58.9063" x="55" y="632.3638">Sistema</text><text fill="#000000" font-family="sans-serif" font-size="13" lengthAdjust="spacing" textLength="178.02" x="118.0386" y="632.3638">crea la reserva de visitante</text><text fill="#000000" font-family="sans-serif" font-size="13" font-weight="700" lengthAdjust="spacing" textLength="58.9063" x="55" y="647.4966">Sistema</text><text fill="#000000" font-family="sans-serif" font-size="13" lengthAdjust="spacing" textLength="260.3936" x="118.0386" y="647.4966">env&#237;a email de confirmaci&#243;n al visitante</text></g><!--link Parking to registrarVisitante--><g class="link" data-entity-1="ent0002" data-entity-2="ent0003" data-link-type="dependency" data-source-line="6" id="lnk2"><path d="M241.27,47.37 C231.21,61.07 219.5,77 219.5,77 C219.5,77 219.5,112 219.5,112 C219.5,112 220.106,117.3391 222.206,135.6391" fill="none" id="Parking-to-registrarVisitante" style="stroke:#008000;stroke-width:1;"/><polygon fill="#008000" points="222.89,141.6,225.8379,132.2027,222.32,136.6326,217.89,133.1147,222.89,141.6" style="stroke:#008000;stroke-width:1;"/></g><!--link registrarVisitante to Parking--><g class="link" data-entity-1="ent0003" data-entity-2="ent0002" data-link-type="dependency" data-source-line="39" id="lnk9"><path d="M252.78,141.6 C252.61,123.3 252.5,112 252.5,112 C252.5,112 252.5,77 252.5,77 C252.5,77 253.1172,67.059 253.9472,53.359" fill="none" id="registrarVisitante-to-Parking" style="stroke:#008000;stroke-width:1;"/><polygon fill="#008000" points="254.31,47.37,249.7731,56.1116,254.0076,52.3608,257.7584,56.5954,254.31,47.37" style="stroke:#008000;stroke-width:1;"/><path d="M257.5,82 L257.5,107 L404.5,107 L404.5,92 L394.5,82 L257.5,82" fill="#FEFFDD" style="stroke:#181818;stroke-width:0.5;"/><path d="M394.5,82 L394.5,92 L404.5,92 L394.5,82" fill="#FEFFDD" style="stroke:#181818;stroke-width:0.5;"/><text fill="#000000" font-family="sans-serif" font-size="13" lengthAdjust="spacing" textLength="126.8135" x="263.5" y="99.0669">visitante registrado</text></g><!--link registrarVisitante to Parking--><g class="link" data-entity-1="ent0003" data-entity-2="ent0002" data-link-type="dependency" data-source-line="44" id="lnk10"><path d="M398.64,141.6 C407.83,123.3 413.5,112 413.5,112 C413.5,112 413.5,77 413.5,77 C413.5,77 344.5509,55.6169 297.8809,41.1469" fill="none" id="registrarVisitante-to-Parking-1" style="stroke:#0000FF;stroke-width:1;"/><polygon fill="#0000FF" points="292.15,39.37,299.5617,45.8559,296.9257,40.8507,301.9309,38.2147,292.15,39.37" style="stroke:#0000FF;stroke-width:1;"/><path d="M418.5,82 L418.5,107 L494.5,107 L494.5,92 L484.5,82 L418.5,82" fill="#FEFFDD" style="stroke:#181818;stroke-width:0.5;"/><path d="M484.5,82 L484.5,92 L494.5,92 L484.5,82" fill="#FEFFDD" style="stroke:#181818;stroke-width:0.5;"/><text fill="#000000" font-family="sans-serif" font-size="13" lengthAdjust="spacing" textLength="55.4214" x="424.5" y="99.0669">cancelar</text></g><?plantuml-src ZPFDIWCn58NtUOfBtQWele0K17yGePGARiJ5dUIs1lD7aYbK4NmMzwvyXBw9Js8oJgUTDgYxcSdDETyvoOGdQHnwrA2aeRXm1CwgHNvXZr8Ga7Pn0O82zz95QGrZ8M8a68pF9ZVNewi1O80n-YGqOwnzWEFxlPadCW_7G_0qao5wz7Soo8WcqafZToMB3NO_xnyCu8K1jDRGc5wRwAsekIGZx3b66xOdRaaHvmaQqyHOuJDkJtGEazPJM9PcxWyVUX6ALiOc7MjoSq_f5U2q6bvefoY9d9vKGq3EALM82lJoKzJAfXvXldBC4ackaScUknuzX6AM4i9joa4Q6mBdAP292AHWQhsk5NhPOBGTsoAuR548LA8G3Oj84Xrxi-lhxHr6LbUUZl8rILQO7r2gRlcI-2DcEuNjvgtGkwbweKl7ytTgNLEU1PVrGgzq438uQsIbA42--9bicYcBHOGE3shJ2i82k3LJwNLJwqQHcy4AvBrawORz8mdtr13cO_Hpx4KfpPEPBp_mvn3oy0gKo-MdoHTnStU7-yfOuK_Sf5tztrkywrhz-dpMBPH5ArNJBveS3QTqJJkTRm00?></g></svg>