<svg xmlns="http://www.w3.org/2000/svg" xmlns:xlink="http://www.w3.org/1999/xlink" contentStyleType="text/css" data-diagram-type="STATE" height="712px" preserveAspectRatio="none" style="width:505px;height:712px;background:#FFFFFF;" version="1.1" viewBox="0 0 505 712" width="505px" zoomAndPan="magnify"><?plantuml 1.2026.3beta6?><defs/><g><rect fill="#F1F1F1" height="40" rx="12.5" ry="12.5" style="stroke:#181818;stroke-width:0.5;" width="72.3779" x="212.31" y="7"/><text fill="#000000" font-family="sans-serif" font-size="14" lengthAdjust="spacing" textLength="62.3779" x="217.31" y="31.8467">PARKING</text><path d="M19.5,142 L477.5,142 A12.5,12.5 0 0 1 490,154.5 L490,168.2969 L7,168.2969 L7,154.5 A12.5,12.5 0 0 1 19.5,142" fill="#F1F1F1"/><rect fill="none" height="556.2969" rx="12.5" ry="12.5" style="stroke:#181818;stroke-width:0.5;" width="483" x="7" y="142"/><line style="stroke:#181818;stroke-width:0.5;" x1="7" x2="490" y1="168.2969" y2="168.2969"/><text fill="#000000" font-family="sans-serif" font-size="14" lengthAdjust="spacing" textLength="106.415" x="195.2925" y="159.9951">reservarPlaza()</text><rect fill="#F1F1F1" height="40" rx="12.5" ry="12.5" style="stroke:#181818;stroke-width:0.5;" width="50" x="19" y="270.2969"/><text fill="#000000" font-family="sans-serif" font-size="14" lengthAdjust="spacing" textLength="4.4502" x="41.7749" y="295.1436">&#160;</text><rect fill="#F1F1F1" height="40" rx="12.5" ry="12.5" style="stroke:#181818;stroke-width:0.5;" width="50" x="19" y="396.2969"/><text fill="#000000" font-family="sans-serif" font-size="14" lengthAdjust="spacing" textLength="4.4502" x="41.7749" y="421.1436">&#160;</text><rect fill="#F1F1F1" height="40" rx="12.5" ry="12.5" style="stroke:#181818;stroke-width:0.5;" width="50" x="19" y="552.2969"/><text fill="#000000" font-family="sans-serif" font-size="14" lengthAdjust="spacing" textLength="4.4502" x="41.7749" y="577.1436">&#160;</text><g class="start_entity" data-qualified-name="reservarPlaza..start.reservarPlaza" data-source-line="13" id="ent0003"><ellipse cx="44" cy="189.2969" fill="#222222" rx="10" ry="10" style="stroke:#222222;stroke-width:1;"/></g><g class="end_entity" data-qualified-name="reservarPlaza..end.reservarPlaza" data-source-line="32" id="ent0007"><ellipse cx="44" cy="674.2969" fill="none" rx="11" ry="11" style="stroke:#222222;stroke-width:1;"/><ellipse cx="44" cy="674.2969" fill="#222222" rx="6" ry="6" style="stroke:#222222;stroke-width:1;"/></g><!--link *start*reservarPlaza to SeleccionandoFecha--><g class="link" data-entity-1="ent0003" data-entity-2="ent0004" data-link-type="dependency" data-source-line="13" id="lnk4"><path d="M44,199.7869 C44,215.8569 44,242.7269 44,263.8469" fill="none" id="*start*reservarPlaza-to-SeleccionandoFecha" style="stroke:#008000;stroke-width:1;"/><polygon fill="#008000" points="44,269.8469,48,260.8469,44,264.8469,40,260.8469,44,269.8469" style="stroke:#008000;stroke-width:1;"/><path d="M49,222.2969 L49,247.2969 L354,247.2969 L354,232.2969 L344,222.2969 L49,222.2969" fill="#FEFFDD" style="stroke:#181818;stroke-width:0.5;"/><path d="M344,222.2969 L344,232.2969 L354,232.2969 L344,222.2969" fill="#FEFFDD" style="stroke:#181818;stroke-width:0.5;"/><text fill="#000000" font-family="sans-serif" font-size="13" font-weight="700" lengthAdjust="spacing" textLength="72.0142" x="55" y="239.3638">Empleado</text><text fill="#000000" font-family="sans-serif" font-size="13" lengthAdjust="spacing" textLength="208.1523" x="131.1465" y="239.3638">accede al calendario de parking</text></g><!--link SeleccionandoFecha to SeleccionandoPlaza--><g class="link" data-entity-1="ent0004" data-entity-2="ent0005" data-link-type="dependency" data-source-line="18" id="lnk5"><path d="M44,310.6669 C44,333.9669 44,366.8269 44,390.0569" fill="none" id="SeleccionandoFecha-to-SeleccionandoPlaza" style="stroke:#008000;stroke-width:1;"/><polygon fill="#008000" points="44,396.0569,48,387.0569,44,391.0569,40,387.0569,44,396.0569" style="stroke:#008000;stroke-width:1;"/><path d="M49,333.2969 L49,373.2969 L466,373.2969 L466,343.2969 L456,333.2969 L49,333.2969" fill="#FEFFDD" style="stroke:#181818;stroke-width:0.5;"/><path d="M456,333.2969 L456,343.2969 L466,343.2969 L456,333.2969" fill="#FEFFDD" style="stroke:#181818;stroke-width:0.5;"/><text fill="#000000" font-family="sans-serif" font-size="13" font-weight="700" lengthAdjust="spacing" textLength="58.9063" x="55" y="350.3638">Sistema</text><text fill="#000000" font-family="sans-serif" font-size="13" lengthAdjust="spacing" textLength="333.2329" x="118.0386" y="350.3638">presenta el calendario con disponibilidad por fecha</text><text fill="#000000" font-family="sans-serif" font-size="13" font-weight="700" lengthAdjust="spacing" textLength="72.0142" x="55" y="365.4966">Empleado</text><text fill="#000000" font-family="sans-serif" font-size="13" lengthAdjust="spacing" textLength="207.7715" x="131.1465" y="365.4966">selecciona una fecha disponible</text></g><!--link SeleccionandoPlaza to ConfirmandoReserva--><g class="link" data-entity-1="ent0005" data-entity-2="ent0006" data-link-type="dependency" data-source-line="24" id="lnk6"><path d="M44,436.4869 C44,465.9969 44,516.2069 44,545.8669" fill="none" id="SeleccionandoPlaza-to-ConfirmandoReserva" style="stroke:#008000;stroke-width:1;"/><polygon fill="#008000" points="44,551.8669,48,542.8669,44,546.8669,40,542.8669,44,551.8669" style="stroke:#008000;stroke-width:1;"/><path d="M49,459.2969 L49,529.2969 L410,529.2969 L410,469.2969 L400,459.2969 L49,459.2969" fill="#FEFFDD" style="stroke:#181818;stroke-width:0.5;"/><path d="M400,459.2969 L400,469.2969 L410,469.2969 L400,459.2969" fill="#FEFFDD" style="stroke:#181818;stroke-width:0.5;"/><text fill="#000000" font-family="sans-serif" font-size="13" font-weight="700" lengthAdjust="spacing" textLength="58.9063" x="55" y="476.3638">Sistema</text><text fill="#000000" font-family="sans-serif" font-size="13" lengthAdjust="spacing" textLength="262.4058" x="118.0386" y="476.3638">muestra las plazas libres para esa fecha</text><text fill="#000000" font-family="sans-serif" font-size="13" lengthAdjust="spacing" textLength="192.0103" x="55" y="491.4966">&#8226; Plazas est&#225;ndar disponibles</text><text fill="#000000" font-family="sans-serif" font-size="13" lengthAdjust="spacing" textLength="195.6411" x="55" y="506.6294">&#8226; Cesiones disponibles del d&#237;a</text><text fill="#000000" font-family="sans-serif" font-size="13" font-weight="700" lengthAdjust="spacing" textLength="72.0142" x="55" y="521.7622">Empleado</text><text fill="#000000" font-family="sans-serif" font-size="13" lengthAdjust="spacing" textLength="264.4878" x="131.1465" y="521.7622">selecciona una plaza y solicita confirmar</text></g><!--link ConfirmandoReserva to *end*reservarPlaza--><g class="link" data-entity-1="ent0006" data-entity-2="ent0007" data-link-type="dependency" data-source-line="32" id="lnk8"><path d="M44,592.5769 C44,613.5769 44,640.3769 44,656.9569" fill="none" id="ConfirmandoReserva-to-*end*reservarPlaza" style="stroke:#008000;stroke-width:1;"/><polygon fill="#008000" points="44,662.9569,48,653.9569,44,657.9569,40,653.9569,44,662.9569" style="stroke:#008000;stroke-width:1;"/><path d="M49,615.2969 L49,640.2969 L388,640.2969 L388,625.2969 L378,615.2969 L49,615.2969" fill="#FEFFDD" style="stroke:#181818;stroke-width:0.5;"/><path d="M378,615.2969 L378,625.2969 L388,625.2969 L378,615.2969" fill="#FEFFDD" style="stroke:#181818;stroke-width:0.5;"/><text fill="#000000" font-family="sans-serif" font-size="13" font-weight="700" lengthAdjust="spacing" textLength="58.9063" x="55" y="632.3638">Sistema</text><text fill="#000000" font-family="sans-serif" font-size="13" lengthAdjust="spacing" textLength="255.417" x="118.0386" y="632.3638">crea la reserva y confirma al empleado</text></g><!--link Parking to reservarPlaza--><g class="link" data-entity-1="ent0002" data-entity-2="ent0003" data-link-type="dependency" data-source-line="6" id="lnk2"><path d="M234.27,47.37 C224.21,61.07 212.5,77 212.5,77 C212.5,77 212.5,112 212.5,112 C212.5,112 213.1322,117.4107 215.2822,135.7707" fill="none" id="Parking-to-reservarPlaza" style="stroke:#008000;stroke-width:1;"/><polygon fill="#008000" points="215.98,141.73,218.9061,132.3259,215.3985,136.7639,210.9604,133.2563,215.98,141.73" style="stroke:#008000;stroke-width:1;"/></g><!--link reservarPlaza to Parking--><g class="link" data-entity-1="ent0003" data-entity-2="ent0002" data-link-type="dependency" data-source-line="38" id="lnk9"><path d="M245.79,141.73 C245.61,123.37 245.5,112 245.5,112 C245.5,112 245.5,77 245.5,77 C245.5,77 246.1172,67.059 246.9472,53.359" fill="none" id="reservarPlaza-to-Parking" style="stroke:#008000;stroke-width:1;"/><polygon fill="#008000" points="247.31,47.37,242.7731,56.1116,247.0076,52.3608,250.7584,56.5954,247.31,47.37" style="stroke:#008000;stroke-width:1;"/><path d="M250.5,82 L250.5,107 L397.5,107 L397.5,92 L387.5,82 L250.5,82" fill="#FEFFDD" style="stroke:#181818;stroke-width:0.5;"/><path d="M387.5,82 L387.5,92 L397.5,92 L387.5,82" fill="#FEFFDD" style="stroke:#181818;stroke-width:0.5;"/><text fill="#000000" font-family="sans-serif" font-size="13" lengthAdjust="spacing" textLength="126.9722" x="256.5" y="99.0669">reserva confirmada</text></g><!--link reservarPlaza to Parking--><g class="link" data-entity-1="ent0003" data-entity-2="ent0002" data-link-type="dependency" data-source-line="43" id="lnk10"><path d="M391.21,141.73 C400.65,123.37 406.5,112 406.5,112 C406.5,112 406.5,77 406.5,77 C406.5,77 337.5509,55.6169 290.8809,41.1469" fill="none" id="reservarPlaza-to-Parking-1" style="stroke:#0000FF;stroke-width:1;"/><polygon fill="#0000FF" points="285.15,39.37,292.5617,45.8559,289.9257,40.8507,294.9309,38.2147,285.15,39.37" style="stroke:#0000FF;stroke-width:1;"/><path d="M411.5,82 L411.5,107 L487.5,107 L487.5,92 L477.5,82 L411.5,82" fill="#FEFFDD" style="stroke:#181818;stroke-width:0.5;"/><path d="M477.5,82 L477.5,92 L487.5,92 L477.5,82" fill="#FEFFDD" style="stroke:#181818;stroke-width:0.5;"/><text fill="#000000" font-family="sans-serif" font-size="13" lengthAdjust="spacing" textLength="55.4214" x="417.5" y="99.0669">cancelar</text></g><?plantuml-src ZLFDIWCn4BxdAOPwKQ7u0gKWHKK4AUsnz32RJ6reDWd9LgWY-2fwzodw9Zw9a-rktMrhxM5XCvbyVvF4XROU0-PWjALYvGcyCwkq47Ej22ZtnGeKHHcqBxIpGiG22uBEy7hqSFzurm6CCCJ0G4z2L3_GdPmz1I8xxVOXKAJmZ65ey0NhuwrYWkYqAkSN7NWL01KNb2nZCYGbQq2ht2t9EHxjsF3jT0oSdUcGf_tHXb1mo-Hosf9yaCawXd4s9RNW9K0lwz_atX0grxlA-e1I4aU61YGQiWg3TXmT-2eT02wMC8bpd-Dl2RMLGnB6EXQKOwd0fn1jWK0j3PAFA1sziphJHYjKFEK0iyhOlfEu9OSbVsNZ5i7GCIURWJQT78ZyVoVvac8H40pFp2V8oAqPsqjfih-83VdVxvymt3JngVL7ijsG6xTD0ueiaq4QcpmX0shzTL8IfHHOGNH6Iyr1oyfSsCbattGh4xvm9uGW0wK4wiV2l3LTkcHKwMmolmdHVbbDqlgLxj3Mw3MsGl7hP0yjCqiw0YRHIZ8SHmtn0m00?></g></svg>