<svg xmlns="http://www.w3.org/2000/svg" xmlns:xlink="http://www.w3.org/1999/xlink" contentStyleType="text/css" data-diagram-type="STATE" height="515px" preserveAspectRatio="none" style="width:455px;height:515px;background:#FFFFFF;" version="1.1" viewBox="0 0 455 515" width="455px" zoomAndPan="magnify"><?plantuml 1.2026.3beta6?><defs/><g><g class="title" data-source-line="17"><text fill="#000000" font-family="Arial" font-size="14" font-weight="700" lengthAdjust="spacing" textLength="86.3994" x="108.3228" y="22.9951">Estados de</text><text fill="#000000" font-family="Arial" font-size="14" font-weight="700" lengthAdjust="spacing" textLength="140.2188" x="199.5963" y="22.9951">SolicitudAusencia</text></g><rect fill="#D5ECD4" height="40" rx="12.5" ry="12.5" style="stroke:#2E7D32;stroke-width:1.5;" width="66.7993" x="149.46" y="264.2969"/><text fill="#000000" font-family="Arial" font-size="11" lengthAdjust="spacing" textLength="53.2061" x="154.46" y="281.7026">Aprobada</text><text fill="#000000" font-family="Arial" font-size="11" lengthAdjust="spacing" textLength="56.7993" x="154.46" y="294.5073">(Manager)</text><rect fill="#D5ECD4" height="40" rx="12.5" ry="12.5" style="stroke:#2E7D32;stroke-width:1.5;" width="63.2061" x="151.26" y="378.2969"/><text fill="#000000" font-family="Arial" font-size="11" lengthAdjust="spacing" textLength="53.2061" x="156.26" y="395.7026">Aprobada</text><text fill="#000000" font-family="Arial" font-size="11" lengthAdjust="spacing" textLength="40.4121" x="156.26" y="408.5073">(RRHH)</text><rect fill="#EEEEEE" height="40" rx="12.5" ry="12.5" style="stroke:#888888;stroke-width:1.5;" width="70.4087" x="257.66" y="378.2969"/><text fill="#000000" font-family="Arial" font-size="11" lengthAdjust="spacing" textLength="60.4087" x="262.66" y="402.105">Rechazada</text><rect fill="#EEEEEE" height="40" rx="12.5" ry="12.5" style="stroke:#888888;stroke-width:1.5;" width="67.7285" x="7" y="378.2969"/><text fill="#000000" font-family="Arial" font-size="11" lengthAdjust="spacing" textLength="57.7285" x="12" y="402.105">Cancelada</text><g class="start_entity" data-qualified-name=".start." data-source-line="24" id="ent0002"><ellipse cx="182.86" cy="53.2969" fill="#222222" rx="10" ry="10" style="stroke:#222222;stroke-width:1;"/></g><rect fill="#FDE8CC" height="40" rx="12.5" ry="12.5" style="stroke:#C45E0A;stroke-width:1.5;" width="65.231" x="150.25" y="150.2969"/><text fill="#000000" font-family="Arial" font-size="11" lengthAdjust="spacing" textLength="55.231" x="155.25" y="174.105">Pendiente</text><g class="end_entity" data-qualified-name=".end." data-source-line="34" id="ent0011"><ellipse cx="182.86" cy="490.2969" fill="none" rx="11" ry="11" style="stroke:#222222;stroke-width:1;"/><ellipse cx="182.86" cy="490.2969" fill="#222222" rx="6" ry="6" style="stroke:#222222;stroke-width:1;"/></g><!--link *start* to Pendiente--><g class="link" data-entity-1="ent0002" data-entity-2="ent0003" data-link-type="dependency" data-source-line="24" id="lnk4"><path d="M182.86,63.7069 C182.86,82.4869 182.86,118.9269 182.86,143.9169" fill="none" id="*start*-to-Pendiente" style="stroke:#444444;stroke-width:1.2;"/><polygon fill="#444444" points="182.86,149.9169,186.86,140.9169,182.86,144.9169,178.86,140.9169,182.86,149.9169" style="stroke:#444444;stroke-width:1.2;"/><text fill="#000000" font-family="Arial" font-size="11" lengthAdjust="spacing" textLength="95.7773" x="183.86" y="104.5073">solicitar ausencia</text><text fill="#000000" font-family="Arial" font-size="11" lengthAdjust="spacing" textLength="63.3252" x="200.0861" y="117.312">(empleado)</text></g><!--link Pendiente to AprobadaManager--><g class="link" data-entity-1="ent0003" data-entity-2="ent0002" data-link-type="dependency" data-source-line="26" id="lnk5"><path d="M182.86,190.5469 C182.86,211.0669 182.86,237.3569 182.86,257.9169" fill="none" id="Pendiente-to-AprobadaManager" style="stroke:#444444;stroke-width:1.2;"/><polygon fill="#444444" points="182.86,263.9169,186.86,254.9169,182.86,258.9169,178.86,254.9169,182.86,263.9169" style="stroke:#444444;stroke-width:1.2;"/><text fill="#000000" font-family="Arial" font-size="11" lengthAdjust="spacing" textLength="97.4209" x="183.86" y="231.5073">Manager aprueba</text></g><!--link Pendiente to Rechazada--><g class="link" data-entity-1="ent0003" data-entity-2="ent0004" data-link-type="dependency" data-source-line="27" id="lnk6"><path d="M215.49,180.1769 C238.49,187.7669 268.81,200.6369 289.86,220.2969 C332.02,259.6569 337.65,278.3969 351.86,334.2969 C356.33,351.8669 348.2306,363.348 333.3406,374.318" fill="none" id="Pendiente-to-Rechazada" style="stroke:#444444;stroke-width:1.2;"/><polygon fill="#444444" points="328.51,377.8769,338.1284,375.759,332.5355,374.9112,333.3833,369.3182,328.51,377.8769" style="stroke:#444444;stroke-width:1.2;"/><text fill="#000000" font-family="Arial" font-size="11" lengthAdjust="spacing" textLength="95.2778" x="343.86" y="288.5073">Manager rechaza</text></g><!--link Pendiente to Cancelada--><g class="link" data-entity-1="ent0003" data-entity-2="ent0005" data-link-type="dependency" data-source-line="28" id="lnk7"><path d="M149.8,180.6869 C113.01,193.1069 55.39,218.9169 29.86,264.2969 C9.53,300.4469 20.9474,345.4325 30.8974,372.6125" fill="none" id="Pendiente-to-Cancelada" style="stroke:#444444;stroke-width:1.2;"/><polygon fill="#444444" points="32.96,378.2469,33.6223,368.4203,31.2412,373.5516,26.1099,371.1705,32.96,378.2469" style="stroke:#444444;stroke-width:1.2;"/><text fill="#000000" font-family="Arial" font-size="11" lengthAdjust="spacing" textLength="100.7939" x="30.86" y="288.5073">Empleado cancela</text></g><!--link AprobadaManager to AprobadaRRHH--><g class="link" data-entity-1="ent0002" data-entity-2="ent0003" data-link-type="dependency" data-source-line="30" id="lnk8"><path d="M181.16,304.5869 C180.26,317.0569 179.42,333.6269 179.86,348.2969 C180.17,358.1769 180.4004,363.1809 181.0204,372.2409" fill="none" id="AprobadaManager-to-AprobadaRRHH" style="stroke:#444444;stroke-width:1.2;"/><polygon fill="#444444" points="181.43,378.2269,184.8062,368.9748,181.0886,373.2385,176.8249,369.521,181.43,378.2269" style="stroke:#444444;stroke-width:1.2;"/><text fill="#000000" font-family="Arial" font-size="11" lengthAdjust="spacing" textLength="68.4116" x="180.86" y="345.5073">RRHH valida</text></g><!--link AprobadaManager to Rechazada--><g class="link" data-entity-1="ent0002" data-entity-2="ent0004" data-link-type="dependency" data-source-line="31" id="lnk9"><path d="M216.52,304.4369 C229.13,312.6169 243.02,322.9069 253.86,334.2969 C266.19,347.2469 273.8415,359.3942 280.8015,372.6542" fill="none" id="AprobadaManager-to-Rechazada" style="stroke:#444444;stroke-width:1.2;"/><polygon fill="#444444" points="283.59,377.9669,282.949,368.1389,281.2662,373.5397,275.8654,371.8569,283.59,377.9669" style="stroke:#444444;stroke-width:1.2;"/><text fill="#000000" font-family="Arial" font-size="11" lengthAdjust="spacing" textLength="78.8906" x="264.86" y="345.5073">RRHH rechaza</text></g><!--link AprobadaManager to Cancelada--><g class="link" data-entity-1="ent0002" data-entity-2="ent0005" data-link-type="dependency" data-source-line="32" id="lnk10"><path d="M149.03,293.0169 C124.42,300.1369 91.73,312.9169 69.86,334.2969 C57.64,346.2469 51.8546,358.6047 47.5246,372.3347" fill="none" id="AprobadaManager-to-Cancelada" style="stroke:#444444;stroke-width:1.2;"/><polygon fill="#444444" points="45.72,378.0569,52.2417,370.6767,47.2238,373.2884,44.6121,368.2705,45.72,378.0569" style="stroke:#444444;stroke-width:1.2;"/><text fill="#000000" font-family="Arial" font-size="11" lengthAdjust="spacing" textLength="100.7939" x="70.86" y="345.5073">Empleado cancela</text></g><!--link AprobadaRRHH to *end*--><g class="link" data-entity-1="ent0003" data-entity-2="ent0011" data-link-type="dependency" data-source-line="34" id="lnk12"><path d="M182.86,418.3869 C182.86,436.9569 182.86,458.4669 182.86,473.1669" fill="none" id="AprobadaRRHH-to-*end*" style="stroke:#444444;stroke-width:1.2;"/><polygon fill="#444444" points="182.86,479.1669,186.86,470.1669,182.86,474.1669,178.86,470.1669,182.86,479.1669" style="stroke:#444444;stroke-width:1.2;"/></g><!--link Rechazada to *end*--><g class="link" data-entity-1="ent0004" data-entity-2="ent0011" data-link-type="dependency" data-source-line="35" id="lnk13"><path d="M269.27,418.6069 C244.65,438.7469 212.0434,465.417 195.6934,478.797" fill="none" id="Rechazada-to-*end*" style="stroke:#444444;stroke-width:1.2;"/><polygon fill="#444444" points="191.05,482.5969,200.5483,479.9926,194.9195,479.4303,195.4818,473.8015,191.05,482.5969" style="stroke:#444444;stroke-width:1.2;"/></g><!--link Cancelada to *end*--><g class="link" data-entity-1="ent0005" data-entity-2="ent0011" data-link-type="dependency" data-source-line="36" id="lnk14"><path d="M71.33,418.6069 C103.92,439.2669 148.603,467.5736 168.803,480.3836" fill="none" id="Cancelada-to-*end*" style="stroke:#444444;stroke-width:1.2;"/><polygon fill="#444444" points="173.87,483.5969,168.4117,475.3989,169.6475,480.9191,164.1273,482.1549,173.87,483.5969" style="stroke:#444444;stroke-width:1.2;"/></g><?plantuml-src VL9DIqCn4BpdLopjHGK_MbkKKXvKKRmeKhsfXssosj0qAKcUek9_D-zBOnhSqsDsPfYTlAKK1BJU-7SGvBYL6o-DPiojfDwWnNM0dx5K_j9eVuDhWfcLgFBxE_b1C1X4I-VHqvcnWkpzKlAL9kTWS32EA6YjUOkNmtHvRfInq1_Lavh39mCuGxvwiQRKek56qtyMTCfvHQfZR15g4X-DwGYtdQPJt5YpG66A0lfYJ5oC_bhzOLHMGpeHnyESbIUxbXfLPKNrf5OHex8whOTzCUQbLmGNuM9XNAWSfelYpYZ9fI_5h7IakSJfuQ88BrUtqfirgV1HxroZnXUokpr01ntUWX3dpsZdywkh80mJQIim83dfdFWIFmAd5zKRf3zuWyIdTj9pr9pKjlG7pqZPmzuJxEyNS4jQIDB1PmAkAGOjODjCE2Jyuuf2r5t6VhdDLFgqbWbqN-76aXQOLILNHIhRRBAgvA2WkcZ30MzMZALvuenj_HEeFrvHIO5PGHAl5NJHSeeasd_9sXIrBBm2IxleyFJQ5ly6?></g></svg>