<svg xmlns="http://www.w3.org/2000/svg" xmlns:xlink="http://www.w3.org/1999/xlink" contentStyleType="text/css" data-diagram-type="STATE" height="528px" preserveAspectRatio="none" style="width:361px;height:528px;background:#FFFFFF;" version="1.1" viewBox="0 0 361 528" width="361px" zoomAndPan="magnify"><?plantuml 1.2026.3beta6?><defs/><g><g class="title" data-source-line="11"><text fill="#000000" font-family="Arial" font-size="14" font-weight="700" lengthAdjust="spacing" textLength="86.3994" x="105.2548" y="22.9951">Estados de</text><text fill="#000000" font-family="Arial" font-size="14" font-weight="700" lengthAdjust="spacing" textLength="52.4863" x="196.5282" y="22.9951">Cesi&#243;n</text></g><g class="start_entity" data-qualified-name=".start." data-source-line="13" id="ent0002"><ellipse cx="129.2" cy="53.2969" fill="#222222" rx="10" ry="10" style="stroke:#222222;stroke-width:1;"/></g><rect fill="#D5ECD4" height="40" rx="12.5" ry="12.5" style="stroke:#2E7D32;stroke-width:1.5;" width="67.8037" x="95.3" y="150.2969"/><text fill="#000000" font-family="Arial" font-size="11" lengthAdjust="spacing" textLength="57.8037" x="100.3" y="174.105">Disponible</text><rect fill="#D5ECD4" height="40" rx="12.5" ry="12.5" style="stroke:#2E7D32;stroke-width:1.5;" width="68.4053" x="7" y="264.2969"/><text fill="#000000" font-family="Arial" font-size="11" lengthAdjust="spacing" textLength="58.4053" x="12" y="288.105">Reservada</text><rect fill="#D5ECD4" height="40" rx="12.5" ry="12.5" style="stroke:#2E7D32;stroke-width:1.5;" width="67.7285" x="71.34" y="391.2969"/><text fill="#000000" font-family="Arial" font-size="11" lengthAdjust="spacing" textLength="57.7285" x="76.34" y="415.105">Cancelada</text><g class="end_entity" data-qualified-name=".end." data-source-line="20" id="ent0010"><ellipse cx="38.2" cy="503.2969" fill="none" rx="11" ry="11" style="stroke:#222222;stroke-width:1;"/><ellipse cx="38.2" cy="503.2969" fill="#222222" rx="6" ry="6" style="stroke:#222222;stroke-width:1;"/></g><!--link *start* to Disponible--><g class="link" data-entity-1="ent0002" data-entity-2="ent0003" data-link-type="dependency" data-source-line="13" id="lnk4"><path d="M129.2,63.7069 C129.2,82.4869 129.2,118.9269 129.2,143.9169" fill="none" id="*start*-to-Disponible" style="stroke:#444444;stroke-width:1.2;"/><polygon fill="#444444" points="129.2,149.9169,133.2,140.9169,129.2,144.9169,125.2,140.9169,129.2,149.9169" style="stroke:#444444;stroke-width:1.2;"/><text fill="#000000" font-family="Arial" font-size="11" lengthAdjust="spacing" textLength="63.8784" x="187.8453" y="104.5073">ceder plaza</text><text fill="#000000" font-family="Arial" font-size="11" lengthAdjust="spacing" textLength="179.1689" x="130.2" y="117.312">(manual o por regla autom&#225;tica)</text></g><!--link Disponible to Reservada--><g class="link" data-entity-1="ent0003" data-entity-2="ent0005" data-link-type="dependency" data-source-line="15" id="lnk6"><path d="M94.84,180.1769 C74.52,187.3869 50.44,199.8069 38.2,220.2969 C30.4,233.3669 30.6012,244.9705 33.6512,258.1905" fill="none" id="Disponible-to-Reservada" style="stroke:#444444;stroke-width:1.2;"/><polygon fill="#444444" points="35,264.0369,36.8744,254.368,33.876,259.1649,29.0791,256.1665,35,264.0369" style="stroke:#444444;stroke-width:1.2;"/><text fill="#000000" font-family="Arial" font-size="11" lengthAdjust="spacing" textLength="151.8945" x="39.2" y="231.5073">empleado reserva la cesi&#243;n</text></g><!--link Disponible to Cancelada--><g class="link" data-entity-1="ent0003" data-entity-2="ent0007" data-link-type="dependency" data-source-line="16" id="lnk8"><path d="M163.28,187.9069 C175.68,195.8569 188.34,206.6569 195.2,220.2969 C223.36,276.2769 227.21,307.4269 195.2,361.2969 C183.12,381.6369 164.9441,392.0311 144.8441,399.2811" fill="none" id="Disponible-to-Cancelada" style="stroke:#444444;stroke-width:1.2;"/><polygon fill="#444444" points="139.2,401.3169,149.0233,402.0259,143.9034,399.6204,146.3089,394.5005,139.2,401.3169" style="stroke:#444444;stroke-width:1.2;"/><text fill="#000000" font-family="Arial" font-size="11" lengthAdjust="spacing" textLength="106.2725" x="228.5984" y="282.0073">propietario cancela</text><text fill="#000000" font-family="Arial" font-size="11" lengthAdjust="spacing" textLength="127.0693" x="218.2" y="294.812">antes de ser reservada</text></g><!--link Reservada to Cancelada--><g class="link" data-entity-1="ent0005" data-entity-2="ent0007" data-link-type="dependency" data-source-line="18" id="lnk9"><path d="M48.29,304.7869 C54.24,320.4169 63.33,342.7169 73.2,361.2969 C78.64,371.5269 82.2094,377.3931 88.2394,386.2731" fill="none" id="Reservada-to-Cancelada" style="stroke:#444444;stroke-width:1.2;"/><polygon fill="#444444" points="91.61,391.2369,89.8632,381.5442,88.8011,387.1004,83.2449,386.0384,91.61,391.2369" style="stroke:#444444;stroke-width:1.2;"/><text fill="#000000" font-family="Arial" font-size="11" lengthAdjust="spacing" textLength="91.9531" x="86.6341" y="345.5073">cancelar reserva</text><text fill="#000000" font-family="Arial" font-size="11" lengthAdjust="spacing" textLength="116.8213" x="74.2" y="358.312">associada o la cesi&#243;n</text></g><!--link Reservada to *end*--><g class="link" data-entity-1="ent0005" data-entity-2="ent0010" data-link-type="dependency" data-source-line="20" id="lnk11"><path d="M40.94,304.5569 C40.32,349.1569 38.8934,452.3175 38.4234,486.1375" fill="none" id="Reservada-to-*end*" style="stroke:#444444;stroke-width:1.2;"/><polygon fill="#444444" points="38.34,492.1369,42.4647,483.1933,38.4095,487.1374,34.4654,483.0822,38.34,492.1369" style="stroke:#444444;stroke-width:1.2;"/></g><!--link Cancelada to *end*--><g class="link" data-entity-1="ent0007" data-entity-2="ent0010" data-link-type="dependency" data-source-line="21" id="lnk12"><path d="M90.99,431.3869 C76.55,450.7869 58.4342,475.125 47.9242,489.235" fill="none" id="Cancelada-to-*end*" style="stroke:#444444;stroke-width:1.2;"/><polygon fill="#444444" points="44.34,494.0469,52.9241,489.2186,47.3268,490.037,46.5083,484.4397,44.34,494.0469" style="stroke:#444444;stroke-width:1.2;"/></g><?plantuml-src RP1DJW9148NtVOfAtAW96X1YOWY9eYvTg3jnKNINKA6dgzFTev7RU0QFmCKiO2GJe9RrtllgPywEWAfOli5HjebZOGd6v0M7Y0ahRNzWxSkZXFA45S5jOlJ7zHTU4dIxBJ4NB7GdoL5wdRDT1CePkXU3bWLJag-ssDiNn-8bmKb_KmTmj8jPaZgunkO6P5t_-0wDfKVNxgfdJE7Y2HxKu2Jh8J2SZiQKUVKRXfVJaJ5lv-_GwOpWddEKm5Drtu0b9K7qkCH9EAqmrEX182evqSmZO5saMlqKjdXcJ2kxHZrJflI93a5H-dXFEbo3covescuNsC-DCLZoJIucYKm54mlOhJ0960fjhb3KFz2XCQs91w0clFCh9MUnl9QblSq-HJzZMgIczGS0?></g></svg>