<svg xmlns="http://www.w3.org/2000/svg" xmlns:xlink="http://www.w3.org/1999/xlink" contentStyleType="text/css" data-diagram-type="SALT" height="233px" preserveAspectRatio="none" style="width:305px;height:233px;background:#FFFFFF;" version="1.1" viewBox="0 0 305 233" width="305px" zoomAndPan="magnify"><?plantuml 1.2026.3beta6?><defs/><g><text fill="#000000" font-family="sans-serif" font-size="12" font-weight="700" lengthAdjust="spacing" textLength="165.3984" x="6" y="17.1387">Parking &#183; Ceder mi plaza</text><line style="stroke:#AAAAAA;stroke-width:1;" x1="6" x2="208.2285" y1="24.4688" y2="24.4688"/><line style="stroke:#AAAAAA;stroke-width:1;" x1="6" x2="208.2285" y1="26.4688" y2="26.4688"/><text fill="#000000" font-family="sans-serif" font-size="12" lengthAdjust="spacing" textLength="93.9199" x="6" y="41.1074">Plaza asignada:</text><text fill="#000000" font-family="sans-serif" font-size="12" font-weight="700" lengthAdjust="spacing" textLength="30.9668" x="103.7344" y="41.1074">A-03</text><line style="stroke:#AAAAAA;stroke-width:1;" x1="6" x2="208.2285" y1="49.4375" y2="49.4375"/><text fill="#000000" font-family="sans-serif" font-size="12" lengthAdjust="spacing" textLength="10.0547" x="7" y="80.0449">&lt;</text><text fill="#000000" font-family="sans-serif" font-size="12" font-weight="700" lengthAdjust="spacing" textLength="79.3242" x="19.0547" y="80.0449">marzo 2026</text><text fill="#000000" font-family="sans-serif" font-size="12" lengthAdjust="spacing" textLength="10.0547" x="100.3789" y="80.0449">&gt;</text><text fill="#000000" font-family="sans-serif" font-size="12" lengthAdjust="spacing" textLength="6.6855" x="19.0547" y="96.0137">L</text><text fill="#000000" font-family="sans-serif" font-size="12" lengthAdjust="spacing" textLength="10.3535" x="100.3789" y="96.0137">M</text><text fill="#000000" font-family="sans-serif" font-size="12" lengthAdjust="spacing" textLength="8.2207" x="117.6484" y="96.0137">X</text><text fill="#000000" font-family="sans-serif" font-size="12" lengthAdjust="spacing" textLength="3.5391" x="134.918" y="96.0137">J</text><text fill="#000000" font-family="sans-serif" font-size="12" lengthAdjust="spacing" textLength="8.209" x="152.1875" y="96.0137">V</text><text fill="#000000" font-family="sans-serif" font-size="12" lengthAdjust="spacing" textLength="7.6348" x="19.0547" y="111.9824">2</text><text fill="#000000" font-family="sans-serif" font-size="12" lengthAdjust="spacing" textLength="7.6348" x="100.3789" y="111.9824">3</text><text fill="#000000" font-family="sans-serif" font-size="12" lengthAdjust="spacing" textLength="7.6348" x="117.6484" y="111.9824">4</text><text fill="#000000" font-family="sans-serif" font-size="12" lengthAdjust="spacing" textLength="7.6348" x="134.918" y="111.9824">5</text><text fill="#000000" font-family="sans-serif" font-size="12" lengthAdjust="spacing" textLength="7.6348" x="152.1875" y="111.9824">6</text><text fill="#000000" font-family="sans-serif" font-size="12" lengthAdjust="spacing" textLength="7.6348" x="19.0547" y="127.9512">9</text><text fill="#000000" font-family="sans-serif" font-size="12" lengthAdjust="spacing" textLength="15.2695" x="100.3789" y="127.9512">10</text><text fill="#000000" font-family="sans-serif" font-size="12" lengthAdjust="spacing" textLength="15.2695" x="117.6484" y="127.9512">11</text><text fill="#000000" font-family="sans-serif" font-size="12" lengthAdjust="spacing" textLength="15.2695" x="134.918" y="127.9512">12</text><text fill="#000000" font-family="sans-serif" font-size="12" lengthAdjust="spacing" textLength="15.2695" x="152.1875" y="127.9512">13</text><text fill="#0000FF" font-family="sans-serif" font-size="12" font-weight="700" lengthAdjust="spacing" textLength="16.6992" x="19.0547" y="143.9199">16</text><text fill="#000000" font-family="sans-serif" font-size="12" lengthAdjust="spacing" textLength="15.2695" x="100.3789" y="143.9199">17</text><text fill="#000000" font-family="sans-serif" font-size="12" lengthAdjust="spacing" textLength="15.2695" x="117.6484" y="143.9199">18</text><text fill="#000000" font-family="sans-serif" font-size="12" lengthAdjust="spacing" textLength="15.2695" x="134.918" y="143.9199">19</text><text fill="#000000" font-family="sans-serif" font-size="12" lengthAdjust="spacing" textLength="15.2695" x="152.1875" y="143.9199">20</text><text fill="#000000" font-family="sans-serif" font-size="12" lengthAdjust="spacing" textLength="15.2695" x="19.0547" y="159.8887">23</text><text fill="#000000" font-family="sans-serif" font-size="12" lengthAdjust="spacing" textLength="15.2695" x="100.3789" y="159.8887">24</text><text fill="#000000" font-family="sans-serif" font-size="12" lengthAdjust="spacing" textLength="15.2695" x="117.6484" y="159.8887">25</text><text fill="#000000" font-family="sans-serif" font-size="12" lengthAdjust="spacing" textLength="15.2695" x="134.918" y="159.8887">26</text><text fill="#000000" font-family="sans-serif" font-size="12" lengthAdjust="spacing" textLength="15.2695" x="152.1875" y="159.8887">27</text><line style="stroke:#000000;stroke-width:1;" x1="6" x2="18.0547" y1="60.9219" y2="60.9219"/><line style="stroke:#000000;stroke-width:1;" x1="18.0547" x2="99.3789" y1="60.9219" y2="60.9219"/><line style="stroke:#000000;stroke-width:1;" x1="99.3789" x2="116.6484" y1="60.9219" y2="60.9219"/><line style="stroke:#000000;stroke-width:1;" x1="116.6484" x2="133.918" y1="60.9219" y2="60.9219"/><line style="stroke:#000000;stroke-width:1;" x1="133.918" x2="151.1875" y1="60.9219" y2="60.9219"/><line style="stroke:#000000;stroke-width:1;" x1="151.1875" x2="168.457" y1="60.9219" y2="60.9219"/><line style="stroke:#000000;stroke-width:1;" x1="6" x2="18.0547" y1="163.7188" y2="163.7188"/><line style="stroke:#000000;stroke-width:1;" x1="18.0547" x2="99.3789" y1="163.7188" y2="163.7188"/><line style="stroke:#000000;stroke-width:1;" x1="99.3789" x2="116.6484" y1="163.7188" y2="163.7188"/><line style="stroke:#000000;stroke-width:1;" x1="116.6484" x2="133.918" y1="163.7188" y2="163.7188"/><line style="stroke:#000000;stroke-width:1;" x1="133.918" x2="151.1875" y1="163.7188" y2="163.7188"/><line style="stroke:#000000;stroke-width:1;" x1="151.1875" x2="168.457" y1="163.7188" y2="163.7188"/><line style="stroke:#000000;stroke-width:1;" x1="6" x2="6" y1="60.9219" y2="83.875"/><line style="stroke:#000000;stroke-width:1;" x1="168.457" x2="168.457" y1="147.75" y2="163.7188"/><line style="stroke:#000000;stroke-width:1;" x1="168.457" x2="168.457" y1="131.7813" y2="147.75"/><line style="stroke:#000000;stroke-width:1;" x1="168.457" x2="168.457" y1="115.8125" y2="131.7813"/><line style="stroke:#000000;stroke-width:1;" x1="168.457" x2="168.457" y1="99.8438" y2="115.8125"/><line style="stroke:#000000;stroke-width:1;" x1="168.457" x2="168.457" y1="83.875" y2="99.8438"/><line style="stroke:#000000;stroke-width:1;" x1="168.457" x2="168.457" y1="60.9219" y2="83.875"/><line style="stroke:#000000;stroke-width:1;" x1="6" x2="6" y1="147.75" y2="163.7188"/><line style="stroke:#000000;stroke-width:1;" x1="6" x2="6" y1="131.7813" y2="147.75"/><line style="stroke:#000000;stroke-width:1;" x1="6" x2="6" y1="115.8125" y2="131.7813"/><line style="stroke:#000000;stroke-width:1;" x1="6" x2="6" y1="99.8438" y2="115.8125"/><line style="stroke:#000000;stroke-width:1;" x1="6" x2="6" y1="83.875" y2="99.8438"/><rect fill="#FFFFFF" height="13.9688" style="stroke:#FFFFFF;stroke-width:1;" width="175.2305" x="12" y="53.9375"/><text fill="#000000" font-family="sans-serif" font-size="12" lengthAdjust="spacing" textLength="167.6016" x="15.8145" y="65.0762">Seleccionar fecha de cesi&#243;n</text><text fill="#000000" font-family="sans-serif" font-size="12" lengthAdjust="spacing" textLength="121.8516" x="6" y="190.8262">Fecha seleccionada:</text><text fill="#000000" font-family="sans-serif" font-size="12" font-weight="700" lengthAdjust="spacing" textLength="75.5625" x="131.666" y="190.8262">16/03/2026</text><line style="stroke:#AAAAAA;stroke-width:1;" x1="6" x2="208.2285" y1="199.1563" y2="199.1563"/><rect fill="#EEEEEE" height="17.9688" rx="5" ry="5" style="stroke:#000000;stroke-width:2.5;" width="108" x="8.5" y="206.1563"/><text fill="#000000" font-family="sans-serif" font-size="12" lengthAdjust="spacing" textLength="71.4668" x="26.7666" y="219.2949">Ceder plaza</text><rect fill="#EEEEEE" height="17.9688" rx="5" ry="5" style="stroke:#000000;stroke-width:2.5;" width="84" x="211.7285" y="206.1563"/><text fill="#000000" font-family="sans-serif" font-size="12" lengthAdjust="spacing" textLength="52.9395" x="227.2588" y="219.2949">Cancelar</text><line style="stroke:#000000;stroke-width:1;" x1="5" x2="208.2285" y1="5" y2="5"/><line style="stroke:#000000;stroke-width:1;" x1="208.2285" x2="299.2285" y1="5" y2="5"/><line style="stroke:#000000;stroke-width:1;" x1="5" x2="208.2285" y1="227.625" y2="227.625"/><line style="stroke:#000000;stroke-width:1;" x1="208.2285" x2="299.2285" y1="227.625" y2="227.625"/><line style="stroke:#000000;stroke-width:1;" x1="5" x2="5" y1="5" y2="20.9688"/><line style="stroke:#000000;stroke-width:1;" x1="299.2285" x2="299.2285" y1="28.9688" y2="44.9375"/><line style="stroke:#000000;stroke-width:1;" x1="299.2285" x2="299.2285" y1="5" y2="20.9688"/><line style="stroke:#000000;stroke-width:1;" x1="5" x2="5" y1="202.6563" y2="227.625"/><line style="stroke:#000000;stroke-width:1;" x1="5" x2="5" y1="178.6875" y2="194.6563"/><line style="stroke:#000000;stroke-width:1;" x1="299.2285" x2="299.2285" y1="202.6563" y2="227.625"/><line style="stroke:#000000;stroke-width:1;" x1="5" x2="5" y1="44.9375" y2="52.9375"/><line style="stroke:#000000;stroke-width:1;" x1="299.2285" x2="299.2285" y1="178.6875" y2="194.6563"/><line style="stroke:#000000;stroke-width:1;" x1="5" x2="5" y1="20.9688" y2="28.9688"/><line style="stroke:#000000;stroke-width:1;" x1="299.2285" x2="299.2285" y1="44.9375" y2="52.9375"/><line style="stroke:#000000;stroke-width:1;" x1="299.2285" x2="299.2285" y1="20.9688" y2="28.9688"/><line style="stroke:#000000;stroke-width:1;" x1="5" x2="5" y1="194.6563" y2="202.6563"/><line style="stroke:#000000;stroke-width:1;" x1="5" x2="5" y1="52.9375" y2="178.6875"/><line style="stroke:#000000;stroke-width:1;" x1="299.2285" x2="299.2285" y1="194.6563" y2="202.6563"/><line style="stroke:#000000;stroke-width:1;" x1="5" x2="5" y1="28.9688" y2="44.9375"/><line style="stroke:#000000;stroke-width:1;" x1="299.2285" x2="299.2285" y1="52.9375" y2="178.6875"/><?plantuml-src HP7FIiD04CRl-nH3hv8_csrJMz9G4Jo8Ga6GWbIORDOQt6va4o-jVIeFtlN5d0b9FEoFtVbcTdQ-NJSj-hP1suhJXG38Ydo3_groU_ZvXcjJ6W-72juj7Z6BYfnILYl2XWE0JRLtMEAIwww2MFKfGK0uFK_WmLYZTLKxzF1Yz2j2QK2RflhzSZ2X9Ee8drnzG7-i8OcJbE-WMDwf8UtkW73Fs39k6O-Zcl1HCQQC6ICTrGKVPSoGZ8IXHZdJjQtzih0V9gT7oA6vd3Ck6Glk4V-tKumfOyP86NEIpxHkkX6RSUZU6Pb6iOg6sGP_ddfxEszXH_TG19qsbipQYRDO6rTsFoDaoCMXAaoBwHy0?></g></svg>