<svg xmlns="http://www.w3.org/2000/svg" xmlns:xlink="http://www.w3.org/1999/xlink" contentStyleType="text/css" data-diagram-type="SALT" height="211px" preserveAspectRatio="none" style="width:411px;height:211px;background:#FFFFFF;" version="1.1" viewBox="0 0 411 211" width="411px" zoomAndPan="magnify"><?plantuml 1.2026.3beta6?><defs/><g><text fill="#000000" font-family="sans-serif" font-size="12" font-weight="700" lengthAdjust="spacing" textLength="243.1465" x="6" y="17.1387">Vacaciones &#183; Solicitudes pendientes</text><line style="stroke:#AAAAAA;stroke-width:1;" x1="6" x2="405.0215" y1="24.4688" y2="24.4688"/><line style="stroke:#AAAAAA;stroke-width:1;" x1="6" x2="405.0215" y1="26.4688" y2="26.4688"/><text fill="#000000" font-family="sans-serif" font-size="12" lengthAdjust="spacing" textLength="59.918" x="7" y="42.1074">Empleado</text><text fill="#000000" font-family="sans-serif" font-size="12" lengthAdjust="spacing" textLength="25.623" x="74.9766" y="42.1074">Tipo</text><text fill="#000000" font-family="sans-serif" font-size="12" lengthAdjust="spacing" textLength="37.875" x="145.0039" y="42.1074">Desde</text><text fill="#000000" font-family="sans-serif" font-size="12" lengthAdjust="spacing" textLength="34.6875" x="200.8984" y="42.1074">Hasta</text><text fill="#000000" font-family="sans-serif" font-size="12" lengthAdjust="spacing" textLength="26.1797" x="256.793" y="42.1074">D&#237;as</text><text fill="#000000" font-family="sans-serif" font-size="12" lengthAdjust="spacing" textLength="65.8535" x="7" y="58.0762">Ana Garc&#237;a</text><text fill="#000000" font-family="sans-serif" font-size="12" lengthAdjust="spacing" textLength="68.0273" x="74.9766" y="58.0762">Vacaciones</text><text fill="#000000" font-family="sans-serif" font-size="12" lengthAdjust="spacing" textLength="53.8945" x="145.0039" y="58.0762">01/04/26</text><text fill="#000000" font-family="sans-serif" font-size="12" lengthAdjust="spacing" textLength="53.8945" x="200.8984" y="58.0762">15/04/26</text><text fill="#000000" font-family="sans-serif" font-size="12" lengthAdjust="spacing" textLength="15.2695" x="256.793" y="58.0762">10</text><text fill="#000000" font-family="sans-serif" font-size="12" lengthAdjust="spacing" textLength="65.9766" x="7" y="74.0449">Luis Mart&#237;n</text><text fill="#000000" font-family="sans-serif" font-size="12" lengthAdjust="spacing" textLength="51.4395" x="74.9766" y="74.0449">Personal</text><text fill="#000000" font-family="sans-serif" font-size="12" lengthAdjust="spacing" textLength="53.8945" x="145.0039" y="74.0449">20/03/26</text><text fill="#000000" font-family="sans-serif" font-size="12" lengthAdjust="spacing" textLength="53.8945" x="200.8984" y="74.0449">20/03/26</text><text fill="#000000" font-family="sans-serif" font-size="12" lengthAdjust="spacing" textLength="7.6348" x="256.793" y="74.0449">1</text><line style="stroke:#000000;stroke-width:1;" x1="6" x2="73.9766" y1="29.9688" y2="29.9688"/><line style="stroke:#000000;stroke-width:1;" x1="144.0039" x2="199.8984" y1="61.9063" y2="61.9063"/><line style="stroke:#000000;stroke-width:1;" x1="73.9766" x2="144.0039" y1="29.9688" y2="29.9688"/><line style="stroke:#000000;stroke-width:1;" x1="199.8984" x2="255.793" y1="61.9063" y2="61.9063"/><line style="stroke:#000000;stroke-width:1;" x1="144.0039" x2="199.8984" y1="29.9688" y2="29.9688"/><line style="stroke:#000000;stroke-width:1;" x1="255.793" x2="283.9727" y1="61.9063" y2="61.9063"/><line style="stroke:#000000;stroke-width:1;" x1="199.8984" x2="255.793" y1="29.9688" y2="29.9688"/><line style="stroke:#000000;stroke-width:1;" x1="255.793" x2="283.9727" y1="29.9688" y2="29.9688"/><line style="stroke:#000000;stroke-width:1;" x1="6" x2="73.9766" y1="77.875" y2="77.875"/><line style="stroke:#000000;stroke-width:1;" x1="73.9766" x2="144.0039" y1="77.875" y2="77.875"/><line style="stroke:#000000;stroke-width:1;" x1="144.0039" x2="199.8984" y1="77.875" y2="77.875"/><line style="stroke:#000000;stroke-width:1;" x1="6" x2="73.9766" y1="45.9375" y2="45.9375"/><line style="stroke:#000000;stroke-width:1;" x1="199.8984" x2="255.793" y1="77.875" y2="77.875"/><line style="stroke:#000000;stroke-width:1;" x1="73.9766" x2="144.0039" y1="45.9375" y2="45.9375"/><line style="stroke:#000000;stroke-width:1;" x1="255.793" x2="283.9727" y1="77.875" y2="77.875"/><line style="stroke:#000000;stroke-width:1;" x1="144.0039" x2="199.8984" y1="45.9375" y2="45.9375"/><line style="stroke:#000000;stroke-width:1;" x1="199.8984" x2="255.793" y1="45.9375" y2="45.9375"/><line style="stroke:#000000;stroke-width:1;" x1="255.793" x2="283.9727" y1="45.9375" y2="45.9375"/><line style="stroke:#000000;stroke-width:1;" x1="6" x2="73.9766" y1="61.9063" y2="61.9063"/><line style="stroke:#000000;stroke-width:1;" x1="73.9766" x2="144.0039" y1="61.9063" y2="61.9063"/><line style="stroke:#000000;stroke-width:1;" x1="6" x2="6" y1="29.9688" y2="45.9375"/><line style="stroke:#000000;stroke-width:1;" x1="144.0039" x2="144.0039" y1="61.9063" y2="77.875"/><line style="stroke:#000000;stroke-width:1;" x1="73.9766" x2="73.9766" y1="29.9688" y2="45.9375"/><line style="stroke:#000000;stroke-width:1;" x1="199.8984" x2="199.8984" y1="61.9063" y2="77.875"/><line style="stroke:#000000;stroke-width:1;" x1="144.0039" x2="144.0039" y1="29.9688" y2="45.9375"/><line style="stroke:#000000;stroke-width:1;" x1="255.793" x2="255.793" y1="61.9063" y2="77.875"/><line style="stroke:#000000;stroke-width:1;" x1="283.9727" x2="283.9727" y1="61.9063" y2="77.875"/><line style="stroke:#000000;stroke-width:1;" x1="199.8984" x2="199.8984" y1="29.9688" y2="45.9375"/><line style="stroke:#000000;stroke-width:1;" x1="255.793" x2="255.793" y1="29.9688" y2="45.9375"/><line style="stroke:#000000;stroke-width:1;" x1="283.9727" x2="283.9727" y1="29.9688" y2="45.9375"/><line style="stroke:#000000;stroke-width:1;" x1="6" x2="6" y1="45.9375" y2="61.9063"/><line style="stroke:#000000;stroke-width:1;" x1="73.9766" x2="73.9766" y1="45.9375" y2="61.9063"/><line style="stroke:#000000;stroke-width:1;" x1="144.0039" x2="144.0039" y1="45.9375" y2="61.9063"/><line style="stroke:#000000;stroke-width:1;" x1="199.8984" x2="199.8984" y1="45.9375" y2="61.9063"/><line style="stroke:#000000;stroke-width:1;" x1="255.793" x2="255.793" y1="45.9375" y2="61.9063"/><line style="stroke:#000000;stroke-width:1;" x1="283.9727" x2="283.9727" y1="45.9375" y2="61.9063"/><line style="stroke:#000000;stroke-width:1;" x1="6" x2="6" y1="61.9063" y2="77.875"/><line style="stroke:#000000;stroke-width:1;" x1="73.9766" x2="73.9766" y1="61.9063" y2="77.875"/><line style="stroke:#AAAAAA;stroke-width:1;" x1="6" x2="405.0215" y1="82.375" y2="82.375"/><line style="stroke:#AAAAAA;stroke-width:1;" x1="6" x2="405.0215" y1="84.375" y2="84.375"/><text fill="#000000" font-family="sans-serif" font-size="12" lengthAdjust="spacing" textLength="209.5078" x="7" y="113.9824">Tipo: Vacaciones &#183; D&#237;as laborables:</text><text fill="#000000" font-family="sans-serif" font-size="12" font-weight="700" lengthAdjust="spacing" textLength="16.6992" x="220.3223" y="113.9824">10</text><text fill="#000000" font-family="sans-serif" font-size="12" lengthAdjust="spacing" textLength="49.2305" x="7" y="129.9512">Per&#237;odo:</text><text fill="#000000" font-family="sans-serif" font-size="12" font-weight="700" lengthAdjust="spacing" textLength="171.4805" x="60.0449" y="129.9512">01/04/2026 &#8212; 15/04/2026</text><line style="stroke:#AAAAAA;stroke-width:1;" x1="7" x2="238.0215" y1="138.2813" y2="138.2813"/><text fill="#000000" font-family="sans-serif" font-size="12" lengthAdjust="spacing" textLength="225.4102" x="7" y="153.9199">Nota (opcional): "                              "</text><line style="stroke:#AAAAAA;stroke-width:1;" x1="7" x2="238.0215" y1="162.25" y2="162.25"/><rect fill="#EEEEEE" height="17.9688" rx="5" ry="5" style="stroke:#000000;stroke-width:2.5;" width="76" x="9.5" y="169.25"/><text fill="#000000" font-family="sans-serif" font-size="12" lengthAdjust="spacing" textLength="48.0059" x="23.4971" y="182.3887">Aprobar</text><rect fill="#EEEEEE" height="17.9688" rx="5" ry="5" style="stroke:#000000;stroke-width:2.5;" width="84" x="241.5215" y="169.25"/><text fill="#000000" font-family="sans-serif" font-size="12" lengthAdjust="spacing" textLength="55.8633" x="255.5898" y="182.3887">Rechazar</text><rect fill="#EEEEEE" height="17.9688" rx="5" ry="5" style="stroke:#000000;stroke-width:2.5;" width="68" x="332.5215" y="169.25"/><text fill="#000000" font-family="sans-serif" font-size="12" lengthAdjust="spacing" textLength="38.3027" x="347.3701" y="182.3887">Volver</text><line style="stroke:#000000;stroke-width:1;" x1="6" x2="238.0215" y1="94.8594" y2="94.8594"/><line style="stroke:#000000;stroke-width:1;" x1="238.0215" x2="329.0215" y1="94.8594" y2="94.8594"/><line style="stroke:#000000;stroke-width:1;" x1="329.0215" x2="404.0215" y1="94.8594" y2="94.8594"/><line style="stroke:#000000;stroke-width:1;" x1="6" x2="238.0215" y1="190.7188" y2="190.7188"/><line style="stroke:#000000;stroke-width:1;" x1="238.0215" x2="329.0215" y1="190.7188" y2="190.7188"/><line style="stroke:#000000;stroke-width:1;" x1="329.0215" x2="404.0215" y1="190.7188" y2="190.7188"/><line style="stroke:#000000;stroke-width:1;" x1="6" x2="6" y1="94.8594" y2="117.8125"/><line style="stroke:#000000;stroke-width:1;" x1="404.0215" x2="404.0215" y1="141.7813" y2="157.75"/><line style="stroke:#000000;stroke-width:1;" x1="404.0215" x2="404.0215" y1="133.7813" y2="141.7813"/><line style="stroke:#000000;stroke-width:1;" x1="404.0215" x2="404.0215" y1="117.8125" y2="133.7813"/><line style="stroke:#000000;stroke-width:1;" x1="404.0215" x2="404.0215" y1="94.8594" y2="117.8125"/><line style="stroke:#000000;stroke-width:1;" x1="6" x2="6" y1="165.75" y2="190.7188"/><line style="stroke:#000000;stroke-width:1;" x1="6" x2="6" y1="157.75" y2="165.75"/><line style="stroke:#000000;stroke-width:1;" x1="6" x2="6" y1="141.7813" y2="157.75"/><line style="stroke:#000000;stroke-width:1;" x1="6" x2="6" y1="133.7813" y2="141.7813"/><line style="stroke:#000000;stroke-width:1;" x1="404.0215" x2="404.0215" y1="165.75" y2="190.7188"/><line style="stroke:#000000;stroke-width:1;" x1="6" x2="6" y1="117.8125" y2="133.7813"/><line style="stroke:#000000;stroke-width:1;" x1="404.0215" x2="404.0215" y1="157.75" y2="165.75"/><rect fill="#FFFFFF" height="13.9688" style="stroke:#FFFFFF;stroke-width:1;" width="135.8438" x="12" y="87.875"/><text fill="#000000" font-family="sans-serif" font-size="12" lengthAdjust="spacing" textLength="128.2148" x="15.8145" y="99.0137">Detalle &#8212; Ana Garc&#237;a</text><line style="stroke:#000000;stroke-width:1;" x1="5" x2="405.0215" y1="5" y2="5"/><line style="stroke:#000000;stroke-width:1;" x1="5" x2="405.0215" y1="205.6875" y2="205.6875"/><line style="stroke:#000000;stroke-width:1;" x1="5" x2="5" y1="5" y2="20.9688"/><line style="stroke:#000000;stroke-width:1;" x1="405.0215" x2="405.0215" y1="20.9688" y2="28.9688"/><line style="stroke:#000000;stroke-width:1;" x1="405.0215" x2="405.0215" y1="5" y2="20.9688"/><line style="stroke:#000000;stroke-width:1;" x1="5" x2="5" y1="86.875" y2="205.6875"/><line style="stroke:#000000;stroke-width:1;" x1="5" x2="5" y1="78.875" y2="86.875"/><line style="stroke:#000000;stroke-width:1;" x1="405.0215" x2="405.0215" y1="86.875" y2="205.6875"/><line style="stroke:#000000;stroke-width:1;" x1="5" x2="5" y1="28.9688" y2="78.875"/><line style="stroke:#000000;stroke-width:1;" x1="405.0215" x2="405.0215" y1="78.875" y2="86.875"/><line style="stroke:#000000;stroke-width:1;" x1="5" x2="5" y1="20.9688" y2="28.9688"/><line style="stroke:#000000;stroke-width:1;" x1="405.0215" x2="405.0215" y1="28.9688" y2="78.875"/><?plantuml-src VL6zJiCm4Dxp5AUmW50RfuKEKLkr4WW6G0XGbmgaSs89IyQEufI1jX8FmMjaPc_UX2VXx4OXNSZWV7Uvo_VZcIsnA2sgCbYV1W1ZFbrWYgaqMbZOVSEZKJALvIgZCXSwaqANmeuZFgNfoOIEzH4T09TlkHAO6OSty2HpZtnn8Mmczl0QYR3frXLQlphN25TOfDHm7pe2Di3YY9r5Wn71-FmFChzuiv8MRib0NMdgtel26etA_tx08ZRSJtTWJ7lRLlbBIDfAL4h0p-VNWOxG4pWR2HmcudM3GcuAv4hOn8KMioOIS2hgocJ6znlvZCWTGsE1odQyr_ElEqEv79lSyQ0wII24Vv-mkxo4ULuOZWKyaySbF8Zq5J_QSc7Kkw32Uzy6Cxf6V-D1t7TI-aDE8On-0G00?></g></svg>