<svg xmlns="http://www.w3.org/2000/svg" xmlns:xlink="http://www.w3.org/1999/xlink" contentStyleType="text/css" data-diagram-type="SALT" height="291px" preserveAspectRatio="none" style="width:269px;height:291px;background:#FFFFFF;" version="1.1" viewBox="0 0 269 291" width="269px" zoomAndPan="magnify"><?plantuml 1.2026.3beta6?><defs/><g><text fill="#000000" font-family="sans-serif" font-size="12" font-weight="700" lengthAdjust="spacing" textLength="165.4277" x="6" y="17.1387">Parking &#183; Reservar plaza</text><line style="stroke:#AAAAAA;stroke-width:1;" x1="6" x2="263" y1="24.4688" y2="24.4688"/><line style="stroke:#AAAAAA;stroke-width:1;" x1="6" x2="263" y1="26.4688" y2="26.4688"/><text fill="#000000" font-family="sans-serif" font-size="12" lengthAdjust="spacing" textLength="10.0547" x="8" y="57.0762">&lt;</text><text fill="#000000" font-family="sans-serif" font-size="12" font-weight="700" lengthAdjust="spacing" textLength="79.3242" x="20.0547" y="57.0762">marzo 2026</text><text fill="#000000" font-family="sans-serif" font-size="12" lengthAdjust="spacing" textLength="10.0547" x="101.3789" y="57.0762">&gt;</text><text fill="#000000" font-family="sans-serif" font-size="12" lengthAdjust="spacing" textLength="6.6855" x="20.0547" y="73.0449">L</text><text fill="#000000" font-family="sans-serif" font-size="12" lengthAdjust="spacing" textLength="10.3535" x="101.3789" y="73.0449">M</text><text fill="#000000" font-family="sans-serif" font-size="12" lengthAdjust="spacing" textLength="8.2207" x="118.6484" y="73.0449">X</text><text fill="#000000" font-family="sans-serif" font-size="12" lengthAdjust="spacing" textLength="3.5391" x="135.918" y="73.0449">J</text><text fill="#000000" font-family="sans-serif" font-size="12" lengthAdjust="spacing" textLength="8.209" x="153.1875" y="73.0449">V</text><text fill="#000000" font-family="sans-serif" font-size="12" lengthAdjust="spacing" textLength="7.6348" x="20.0547" y="89.0137">2</text><text fill="#000000" font-family="sans-serif" font-size="12" lengthAdjust="spacing" textLength="7.6348" x="101.3789" y="89.0137">3</text><text fill="#008000" font-family="sans-serif" font-size="12" font-weight="700" lengthAdjust="spacing" textLength="8.3496" x="118.6484" y="89.0137">4</text><text fill="#000000" font-family="sans-serif" font-size="12" lengthAdjust="spacing" textLength="7.6348" x="135.918" y="89.0137">5</text><text fill="#000000" font-family="sans-serif" font-size="12" lengthAdjust="spacing" textLength="7.6348" x="153.1875" y="89.0137">6</text><text fill="#000000" font-family="sans-serif" font-size="12" lengthAdjust="spacing" textLength="7.6348" x="20.0547" y="104.9824">9</text><text fill="#000000" font-family="sans-serif" font-size="12" lengthAdjust="spacing" textLength="15.2695" x="101.3789" y="104.9824">10</text><text fill="#000000" font-family="sans-serif" font-size="12" lengthAdjust="spacing" textLength="15.2695" x="118.6484" y="104.9824">11</text><text fill="#000000" font-family="sans-serif" font-size="12" lengthAdjust="spacing" textLength="15.2695" x="135.918" y="104.9824">12</text><text fill="#000000" font-family="sans-serif" font-size="12" lengthAdjust="spacing" textLength="15.2695" x="153.1875" y="104.9824">13</text><text fill="#000000" font-family="sans-serif" font-size="12" lengthAdjust="spacing" textLength="15.2695" x="20.0547" y="120.9512">16</text><text fill="#000000" font-family="sans-serif" font-size="12" lengthAdjust="spacing" textLength="15.2695" x="101.3789" y="120.9512">17</text><text fill="#000000" font-family="sans-serif" font-size="12" lengthAdjust="spacing" textLength="15.2695" x="118.6484" y="120.9512">18</text><text fill="#000000" font-family="sans-serif" font-size="12" lengthAdjust="spacing" textLength="15.2695" x="135.918" y="120.9512">19</text><text fill="#000000" font-family="sans-serif" font-size="12" lengthAdjust="spacing" textLength="15.2695" x="153.1875" y="120.9512">20</text><text fill="#000000" font-family="sans-serif" font-size="12" lengthAdjust="spacing" textLength="15.2695" x="20.0547" y="136.9199">23</text><text fill="#000000" font-family="sans-serif" font-size="12" lengthAdjust="spacing" textLength="15.2695" x="101.3789" y="136.9199">24</text><text fill="#000000" font-family="sans-serif" font-size="12" lengthAdjust="spacing" textLength="15.2695" x="118.6484" y="136.9199">25</text><text fill="#000000" font-family="sans-serif" font-size="12" lengthAdjust="spacing" textLength="15.2695" x="135.918" y="136.9199">26</text><text fill="#000000" font-family="sans-serif" font-size="12" lengthAdjust="spacing" textLength="15.2695" x="153.1875" y="136.9199">27</text><line style="stroke:#000000;stroke-width:1;" x1="7" x2="19.0547" y1="37.9531" y2="37.9531"/><line style="stroke:#000000;stroke-width:1;" x1="19.0547" x2="100.3789" y1="37.9531" y2="37.9531"/><line style="stroke:#000000;stroke-width:1;" x1="100.3789" x2="117.6484" y1="37.9531" y2="37.9531"/><line style="stroke:#000000;stroke-width:1;" x1="117.6484" x2="134.918" y1="37.9531" y2="37.9531"/><line style="stroke:#000000;stroke-width:1;" x1="134.918" x2="152.1875" y1="37.9531" y2="37.9531"/><line style="stroke:#000000;stroke-width:1;" x1="152.1875" x2="169.457" y1="37.9531" y2="37.9531"/><line style="stroke:#000000;stroke-width:1;" x1="7" x2="19.0547" y1="140.75" y2="140.75"/><line style="stroke:#000000;stroke-width:1;" x1="19.0547" x2="100.3789" y1="140.75" y2="140.75"/><line style="stroke:#000000;stroke-width:1;" x1="100.3789" x2="117.6484" y1="140.75" y2="140.75"/><line style="stroke:#000000;stroke-width:1;" x1="117.6484" x2="134.918" y1="140.75" y2="140.75"/><line style="stroke:#000000;stroke-width:1;" x1="134.918" x2="152.1875" y1="140.75" y2="140.75"/><line style="stroke:#000000;stroke-width:1;" x1="152.1875" x2="169.457" y1="140.75" y2="140.75"/><line style="stroke:#000000;stroke-width:1;" x1="7" x2="7" y1="37.9531" y2="60.9063"/><line style="stroke:#000000;stroke-width:1;" x1="169.457" x2="169.457" y1="124.7813" y2="140.75"/><line style="stroke:#000000;stroke-width:1;" x1="169.457" x2="169.457" y1="108.8125" y2="124.7813"/><line style="stroke:#000000;stroke-width:1;" x1="169.457" x2="169.457" y1="92.8438" y2="108.8125"/><line style="stroke:#000000;stroke-width:1;" x1="169.457" x2="169.457" y1="76.875" y2="92.8438"/><line style="stroke:#000000;stroke-width:1;" x1="169.457" x2="169.457" y1="60.9063" y2="76.875"/><line style="stroke:#000000;stroke-width:1;" x1="169.457" x2="169.457" y1="37.9531" y2="60.9063"/><line style="stroke:#000000;stroke-width:1;" x1="7" x2="7" y1="124.7813" y2="140.75"/><line style="stroke:#000000;stroke-width:1;" x1="7" x2="7" y1="108.8125" y2="124.7813"/><line style="stroke:#000000;stroke-width:1;" x1="7" x2="7" y1="92.8438" y2="108.8125"/><line style="stroke:#000000;stroke-width:1;" x1="7" x2="7" y1="76.875" y2="92.8438"/><line style="stroke:#000000;stroke-width:1;" x1="7" x2="7" y1="60.9063" y2="76.875"/><rect fill="#FFFFFF" height="13.9688" style="stroke:#FFFFFF;stroke-width:1;" width="163.8633" x="13" y="30.9688"/><text fill="#000000" font-family="sans-serif" font-size="12" lengthAdjust="spacing" textLength="156.2344" x="16.8145" y="42.1074">Calendario &#8212; marzo 2026</text><text fill="#000000" font-family="sans-serif" font-size="12" lengthAdjust="spacing" textLength="31.5762" x="9" y="183.8262">Plaza</text><text fill="#000000" font-family="sans-serif" font-size="12" lengthAdjust="spacing" textLength="25.623" x="42.5762" y="183.8262">Tipo</text><text fill="#000000" font-family="sans-serif" font-size="12" lengthAdjust="spacing" textLength="27.8086" x="9" y="199.7949">A-01</text><text fill="#000000" font-family="sans-serif" font-size="12" lengthAdjust="spacing" textLength="53.4023" x="42.5762" y="199.7949">Est&#225;ndar</text><text fill="#000000" font-family="sans-serif" font-size="12" lengthAdjust="spacing" textLength="27.8086" x="9" y="215.7637">A-04</text><text fill="#000000" font-family="sans-serif" font-size="12" lengthAdjust="spacing" textLength="53.4023" x="42.5762" y="215.7637">Est&#225;ndar</text><text fill="#000000" font-family="sans-serif" font-size="12" lengthAdjust="spacing" textLength="27.832" x="9" y="231.7324">B-02</text><text fill="#000000" font-family="sans-serif" font-size="12" lengthAdjust="spacing" textLength="40.2949" x="42.5762" y="231.7324">Cesi&#243;n</text><line style="stroke:#000000;stroke-width:1;" x1="8" x2="41.5762" y1="171.6875" y2="171.6875"/><line style="stroke:#000000;stroke-width:1;" x1="41.5762" x2="96.9785" y1="187.6563" y2="187.6563"/><line style="stroke:#000000;stroke-width:1;" x1="41.5762" x2="96.9785" y1="171.6875" y2="171.6875"/><line style="stroke:#000000;stroke-width:1;" x1="8" x2="41.5762" y1="235.5625" y2="235.5625"/><line style="stroke:#000000;stroke-width:1;" x1="41.5762" x2="96.9785" y1="235.5625" y2="235.5625"/><line style="stroke:#000000;stroke-width:1;" x1="8" x2="41.5762" y1="219.5938" y2="219.5938"/><line style="stroke:#000000;stroke-width:1;" x1="8" x2="41.5762" y1="203.625" y2="203.625"/><line style="stroke:#000000;stroke-width:1;" x1="41.5762" x2="96.9785" y1="219.5938" y2="219.5938"/><line style="stroke:#000000;stroke-width:1;" x1="8" x2="41.5762" y1="187.6563" y2="187.6563"/><line style="stroke:#000000;stroke-width:1;" x1="41.5762" x2="96.9785" y1="203.625" y2="203.625"/><line style="stroke:#000000;stroke-width:1;" x1="8" x2="8" y1="171.6875" y2="187.6563"/><line style="stroke:#000000;stroke-width:1;" x1="96.9785" x2="96.9785" y1="203.625" y2="219.5938"/><line style="stroke:#000000;stroke-width:1;" x1="41.5762" x2="41.5762" y1="187.6563" y2="203.625"/><line style="stroke:#000000;stroke-width:1;" x1="96.9785" x2="96.9785" y1="187.6563" y2="203.625"/><line style="stroke:#000000;stroke-width:1;" x1="41.5762" x2="41.5762" y1="171.6875" y2="187.6563"/><line style="stroke:#000000;stroke-width:1;" x1="96.9785" x2="96.9785" y1="171.6875" y2="187.6563"/><line style="stroke:#000000;stroke-width:1;" x1="8" x2="8" y1="219.5938" y2="235.5625"/><line style="stroke:#000000;stroke-width:1;" x1="8" x2="8" y1="203.625" y2="219.5938"/><line style="stroke:#000000;stroke-width:1;" x1="41.5762" x2="41.5762" y1="219.5938" y2="235.5625"/><line style="stroke:#000000;stroke-width:1;" x1="8" x2="8" y1="187.6563" y2="203.625"/><line style="stroke:#000000;stroke-width:1;" x1="96.9785" x2="96.9785" y1="219.5938" y2="235.5625"/><line style="stroke:#000000;stroke-width:1;" x1="41.5762" x2="41.5762" y1="203.625" y2="219.5938"/><line style="stroke:#AAAAAA;stroke-width:1;" x1="8" x2="170" y1="241.0625" y2="241.0625"/><rect fill="#EEEEEE" height="17.9688" rx="5" ry="5" style="stroke:#000000;stroke-width:2.5;" width="156" x="10.5" y="248.0625"/><text fill="#000000" font-family="sans-serif" font-size="12" lengthAdjust="spacing" textLength="108.9492" x="34.0254" y="261.2012">Confirmar reserva</text><rect fill="#EEEEEE" height="17.9688" rx="5" ry="5" style="stroke:#000000;stroke-width:2.5;" width="84" x="173.5" y="248.0625"/><text fill="#000000" font-family="sans-serif" font-size="12" lengthAdjust="spacing" textLength="52.9395" x="189.0303" y="261.2012">Cancelar</text><line style="stroke:#000000;stroke-width:1;" x1="7" x2="170" y1="163.7031" y2="163.7031"/><line style="stroke:#000000;stroke-width:1;" x1="170" x2="261" y1="163.7031" y2="163.7031"/><line style="stroke:#000000;stroke-width:1;" x1="7" x2="170" y1="269.5313" y2="269.5313"/><line style="stroke:#000000;stroke-width:1;" x1="170" x2="261" y1="269.5313" y2="269.5313"/><line style="stroke:#000000;stroke-width:1;" x1="7" x2="7" y1="163.7031" y2="236.5625"/><line style="stroke:#000000;stroke-width:1;" x1="261" x2="261" y1="244.5625" y2="269.5313"/><line style="stroke:#000000;stroke-width:1;" x1="261" x2="261" y1="236.5625" y2="244.5625"/><line style="stroke:#000000;stroke-width:1;" x1="261" x2="261" y1="163.7031" y2="236.5625"/><line style="stroke:#000000;stroke-width:1;" x1="7" x2="7" y1="244.5625" y2="269.5313"/><line style="stroke:#000000;stroke-width:1;" x1="7" x2="7" y1="236.5625" y2="244.5625"/><rect fill="#FFFFFF" height="13.9688" style="stroke:#FFFFFF;stroke-width:1;" width="172.0137" x="13" y="156.7188"/><text fill="#000000" font-family="sans-serif" font-size="12" lengthAdjust="spacing" textLength="164.3848" x="16.8145" y="167.8574">Plazas disponibles &#8212; 4 mar</text><line style="stroke:#000000;stroke-width:1;" x1="5" x2="263" y1="5" y2="5"/><line style="stroke:#000000;stroke-width:1;" x1="5" x2="263" y1="285.5" y2="285.5"/><line style="stroke:#000000;stroke-width:1;" x1="5" x2="5" y1="5" y2="20.9688"/><line style="stroke:#000000;stroke-width:1;" x1="263" x2="263" y1="20.9688" y2="28.9688"/><line style="stroke:#000000;stroke-width:1;" x1="263" x2="263" y1="5" y2="20.9688"/><line style="stroke:#000000;stroke-width:1;" x1="5" x2="5" y1="28.9688" y2="285.5"/><line style="stroke:#000000;stroke-width:1;" x1="5" x2="5" y1="20.9688" y2="28.9688"/><line style="stroke:#000000;stroke-width:1;" x1="263" x2="263" y1="28.9688" y2="285.5"/><?plantuml-src RPBFIiD04CRlUOgX7YKr_vfQIKCrU1658YA2LDYqQrcCks4tU6WQy25y0P-X1-_sJNmIPxOXvk0XlmpVp7wx-JOpKp5T6LPKJdti02HvEcVwHSWrV7_1BJTSlp4DPS4sB3d9KnoPJX4rFiYd0MIiu7B5j53my_u1hqnl50HU4CF0pg0dRCdthqD6gALjVuZrDI1k20-4Ay9zhn-G41AIfIgKFbjhpcMAjf5rmyQ84FVMJ4ZmFO9F20XXRy2F2MF2AM526tdzNKD2H1WHQ3uOsu76Sjl5CAU43Ao4APKKUS6DZIEYGBeawgEsWCCysjs9KdNYkUlvTEXBK-q_ATH-9_g_S-5wDfoC6x7VoLPlshVhjiKZP4e-2qt7qOThXGKkGvt99IzGNdGVrZYDCyDRjV-5um_fqePXpYiM_m80?></g></svg>