<svg xmlns="http://www.w3.org/2000/svg" xmlns:xlink="http://www.w3.org/1999/xlink" contentStyleType="text/css" data-diagram-type="SALT" height="227px" preserveAspectRatio="none" style="width:366px;height:227px;background:#FFFFFF;" version="1.1" viewBox="0 0 366 227" width="366px" zoomAndPan="magnify"><?plantuml 1.2026.3beta6?><defs/><g><text fill="#000000" font-family="sans-serif" font-size="12" font-weight="700" lengthAdjust="spacing" textLength="191.4668" x="6" y="17.1387">Parking &#183; Registrar visitante</text><line style="stroke:#AAAAAA;stroke-width:1;" x1="6" x2="269.8105" y1="24.4688" y2="24.4688"/><line style="stroke:#AAAAAA;stroke-width:1;" x1="6" x2="269.8105" y1="26.4688" y2="26.4688"/><text fill="#000000" font-family="sans-serif" font-size="12" lengthAdjust="spacing" textLength="47.9414" x="7" y="56.0762">Nombre</text><text fill="#000000" font-family="sans-serif" font-size="12" lengthAdjust="spacing" textLength="3.8145" x="64.8105" y="56.0762">&#160;</text><line style="stroke:#000000;stroke-width:1;" x1="62.8105" x2="265.8105" y1="58.9063" y2="58.9063"/><line style="stroke:#000000;stroke-width:1;" x1="62.8105" x2="62.8105" y1="55.9063" y2="57.9063"/><line style="stroke:#000000;stroke-width:1;" x1="265.8105" x2="265.8105" y1="55.9063" y2="57.9063"/><text fill="#000000" font-family="sans-serif" font-size="12" lengthAdjust="spacing" textLength="52.8105" x="7" y="74.0449">Empresa</text><text fill="#000000" font-family="sans-serif" font-size="12" lengthAdjust="spacing" textLength="3.8145" x="64.8105" y="74.0449">&#160;</text><line style="stroke:#000000;stroke-width:1;" x1="62.8105" x2="265.8105" y1="76.875" y2="76.875"/><line style="stroke:#000000;stroke-width:1;" x1="62.8105" x2="62.8105" y1="73.875" y2="75.875"/><line style="stroke:#000000;stroke-width:1;" x1="265.8105" x2="265.8105" y1="73.875" y2="75.875"/><text fill="#000000" font-family="sans-serif" font-size="12" lengthAdjust="spacing" textLength="33.293" x="7" y="92.0137">Email</text><text fill="#000000" font-family="sans-serif" font-size="12" lengthAdjust="spacing" textLength="3.8145" x="64.8105" y="92.0137">&#160;</text><line style="stroke:#000000;stroke-width:1;" x1="62.8105" x2="265.8105" y1="94.8438" y2="94.8438"/><line style="stroke:#000000;stroke-width:1;" x1="62.8105" x2="62.8105" y1="91.8438" y2="93.8438"/><line style="stroke:#000000;stroke-width:1;" x1="265.8105" x2="265.8105" y1="91.8438" y2="93.8438"/><line style="stroke:#000000;stroke-width:1;" x1="6" x2="60.8105" y1="36.9531" y2="36.9531"/><line style="stroke:#000000;stroke-width:1;" x1="60.8105" x2="268.8105" y1="36.9531" y2="36.9531"/><line style="stroke:#000000;stroke-width:1;" x1="6" x2="60.8105" y1="97.8438" y2="97.8438"/><line style="stroke:#000000;stroke-width:1;" x1="60.8105" x2="268.8105" y1="97.8438" y2="97.8438"/><line style="stroke:#000000;stroke-width:1;" x1="6" x2="6" y1="36.9531" y2="61.9063"/><line style="stroke:#000000;stroke-width:1;" x1="268.8105" x2="268.8105" y1="79.875" y2="97.8438"/><line style="stroke:#000000;stroke-width:1;" x1="268.8105" x2="268.8105" y1="61.9063" y2="79.875"/><line style="stroke:#000000;stroke-width:1;" x1="268.8105" x2="268.8105" y1="36.9531" y2="61.9063"/><line style="stroke:#000000;stroke-width:1;" x1="6" x2="6" y1="79.875" y2="97.8438"/><line style="stroke:#000000;stroke-width:1;" x1="6" x2="6" y1="61.9063" y2="79.875"/><rect fill="#FFFFFF" height="13.9688" style="stroke:#FFFFFF;stroke-width:1;" width="120.2578" x="12" y="29.9688"/><text fill="#000000" font-family="sans-serif" font-size="12" lengthAdjust="spacing" textLength="112.6289" x="15.8145" y="41.1074">Datos del visitante</text><line style="stroke:#AAAAAA;stroke-width:1;" x1="6" x2="269.8105" y1="117.3125" y2="117.3125"/><text fill="#000000" font-family="sans-serif" font-size="12" lengthAdjust="spacing" textLength="35.8418" x="7" y="147.9199">Fecha</text><text fill="#000000" font-family="sans-serif" font-size="12" lengthAdjust="spacing" textLength="80.1094" x="47.8418" y="147.9199">DD/MM/AAAA</text><line style="stroke:#000000;stroke-width:1;" x1="45.8418" x2="248.8418" y1="150.75" y2="150.75"/><line style="stroke:#000000;stroke-width:1;" x1="45.8418" x2="45.8418" y1="147.75" y2="149.75"/><line style="stroke:#000000;stroke-width:1;" x1="248.8418" x2="248.8418" y1="147.75" y2="149.75"/><text fill="#000000" font-family="sans-serif" font-size="12" lengthAdjust="spacing" textLength="31.5762" x="7" y="165.8887">Plaza</text><rect fill="#EEEEEE" height="16.9688" style="stroke:#000000;stroke-width:1;" width="103" x="44.8418" y="154.75"/><text fill="#000000" font-family="sans-serif" font-size="12" lengthAdjust="spacing" textLength="69.4805" x="46.8418" y="167.8887">Seleccionar</text><line style="stroke:#000000;stroke-width:1;" x1="136.8418" x2="136.8418" y1="154.75" y2="171.7188"/><polygon fill="#000000" points="139.8418,160.75,145.8418,160.75,142.8418,166.7188" style="stroke:#000000;stroke-width:1;"/><rect fill="#EEEEEE" height="40.9063" style="stroke:#000000;stroke-width:1;" width="102" x="44.8418" y="171.7188"/><text fill="#000000" font-family="sans-serif" font-size="12" lengthAdjust="spacing" textLength="28.3828" x="44.8418" y="182.8574">A-V1</text><text fill="#000000" font-family="sans-serif" font-size="12" lengthAdjust="spacing" textLength="28.3828" x="44.8418" y="196.8262">A-V2</text><text fill="#000000" font-family="sans-serif" font-size="12" lengthAdjust="spacing" textLength="28.3828" x="44.8418" y="210.7949">A-V3</text><line style="stroke:#000000;stroke-width:1;" x1="6" x2="43.8418" y1="128.7969" y2="128.7969"/><line style="stroke:#000000;stroke-width:1;" x1="43.8418" x2="251.8418" y1="128.7969" y2="128.7969"/><line style="stroke:#000000;stroke-width:1;" x1="6" x2="43.8418" y1="173.7188" y2="173.7188"/><line style="stroke:#000000;stroke-width:1;" x1="43.8418" x2="251.8418" y1="173.7188" y2="173.7188"/><line style="stroke:#000000;stroke-width:1;" x1="6" x2="6" y1="128.7969" y2="153.75"/><line style="stroke:#000000;stroke-width:1;" x1="251.8418" x2="251.8418" y1="153.75" y2="173.7188"/><line style="stroke:#000000;stroke-width:1;" x1="251.8418" x2="251.8418" y1="128.7969" y2="153.75"/><line style="stroke:#000000;stroke-width:1;" x1="6" x2="6" y1="153.75" y2="173.7188"/><rect fill="#FFFFFF" height="13.9688" style="stroke:#FFFFFF;stroke-width:1;" width="125.8242" x="12" y="121.8125"/><text fill="#000000" font-family="sans-serif" font-size="12" lengthAdjust="spacing" textLength="118.1953" x="15.8145" y="132.9512">Detalles de la visita</text><line style="stroke:#AAAAAA;stroke-width:1;" x1="6" x2="269.8105" y1="193.1875" y2="193.1875"/><rect fill="#EEEEEE" height="17.9688" rx="5" ry="5" style="stroke:#000000;stroke-width:2.5;" width="92" x="8.5" y="200.1875"/><text fill="#000000" font-family="sans-serif" font-size="12" lengthAdjust="spacing" textLength="54.8496" x="27.0752" y="213.3262">Registrar</text><rect fill="#EEEEEE" height="17.9688" rx="5" ry="5" style="stroke:#000000;stroke-width:2.5;" width="84" x="273.3105" y="200.1875"/><text fill="#000000" font-family="sans-serif" font-size="12" lengthAdjust="spacing" textLength="52.9395" x="288.8408" y="213.3262">Cancelar</text><line style="stroke:#000000;stroke-width:1;" x1="5" x2="269.8105" y1="5" y2="5"/><line style="stroke:#000000;stroke-width:1;" x1="269.8105" x2="360.8105" y1="5" y2="5"/><line style="stroke:#000000;stroke-width:1;" x1="5" x2="269.8105" y1="221.6563" y2="221.6563"/><line style="stroke:#000000;stroke-width:1;" x1="269.8105" x2="360.8105" y1="221.6563" y2="221.6563"/><line style="stroke:#000000;stroke-width:1;" x1="5" x2="5" y1="5" y2="20.9688"/><line style="stroke:#000000;stroke-width:1;" x1="360.8105" x2="360.8105" y1="28.9688" y2="112.8125"/><line style="stroke:#000000;stroke-width:1;" x1="360.8105" x2="360.8105" y1="5" y2="20.9688"/><line style="stroke:#000000;stroke-width:1;" x1="5" x2="5" y1="188.6875" y2="196.6875"/><line style="stroke:#000000;stroke-width:1;" x1="5" x2="5" y1="112.8125" y2="120.8125"/><line style="stroke:#000000;stroke-width:1;" x1="360.8105" x2="360.8105" y1="188.6875" y2="196.6875"/><line style="stroke:#000000;stroke-width:1;" x1="5" x2="5" y1="20.9688" y2="28.9688"/><line style="stroke:#000000;stroke-width:1;" x1="360.8105" x2="360.8105" y1="112.8125" y2="120.8125"/><line style="stroke:#000000;stroke-width:1;" x1="360.8105" x2="360.8105" y1="20.9688" y2="28.9688"/><line style="stroke:#000000;stroke-width:1;" x1="5" x2="5" y1="196.6875" y2="221.6563"/><line style="stroke:#000000;stroke-width:1;" x1="5" x2="5" y1="120.8125" y2="188.6875"/><line style="stroke:#000000;stroke-width:1;" x1="360.8105" x2="360.8105" y1="196.6875" y2="221.6563"/><line style="stroke:#000000;stroke-width:1;" x1="5" x2="5" y1="28.9688" y2="112.8125"/><line style="stroke:#000000;stroke-width:1;" x1="360.8105" x2="360.8105" y1="120.8125" y2="188.6875"/><rect fill="#EEEEEE" height="40.9063" style="stroke:#000000;stroke-width:1;" width="102" x="44.8418" y="171.7188"/><text fill="#000000" font-family="sans-serif" font-size="12" lengthAdjust="spacing" textLength="28.3828" x="44.8418" y="182.8574">A-V1</text><text fill="#000000" font-family="sans-serif" font-size="12" lengthAdjust="spacing" textLength="28.3828" x="44.8418" y="196.8262">A-V2</text><text fill="#000000" font-family="sans-serif" font-size="12" lengthAdjust="spacing" textLength="28.3828" x="44.8418" y="210.7949">A-V3</text><?plantuml-src ZP5D2i8m48NtESNGhTHg1LSgYjMT8WfknCAq3XeSKqc22t_EvTwJcQX55meEv96GRzuyagwngAr1jk9K4G2jh3D1lPLg3RShJ6ajZTMeuI2DjAWijQAiuxXssyaf3I11MnXO4RyH2DmTmBZOPPhyxWm1_AedEzZjDHdyaqN9y8_lnQqmB8EIHMRoMO7nbVPbEQHyWwLbaaIZKTHpzNNyXF5OikcCcF9S5WfrsWldTI-nbqRwEN_nyP9BrxU0FggSs1_5HNH9hHvV8EhLk1OtgutCXMtU0G00?></g></svg>