<?xml version="1.0" encoding="us-ascii" standalone="no"?><svg xmlns="http://www.w3.org/2000/svg" xmlns:xlink="http://www.w3.org/1999/xlink" contentStyleType="text/css" height="1082px" preserveAspectRatio="none" style="width:1368px;height:1082px;background:#FFFFFF;" version="1.1" viewBox="0 0 1368 1082" width="1368px" zoomAndPan="magnify"><defs/><g><text fill="#000000" font-family="Arial" font-size="14" font-weight="bold" lengthAdjust="spacing" textLength="271" x="549.5" y="27.6738">Secuencia: aprobarSolicitudAusencia()</text><rect fill="none" height="518.0703" style="stroke:#000000;stroke-width:1.5;" width="1091" x="270" y="432.3984"/><rect fill="none" height="382.625" style="stroke:#000000;stroke-width:1.5;" width="1071" x="280" y="560.8438"/><line style="stroke:#181818;stroke-width:0.5;stroke-dasharray:5.0,5.0;" x1="47" x2="47" y1="126.2188" y2="993.7578"/><line style="stroke:#181818;stroke-width:0.5;stroke-dasharray:5.0,5.0;" x1="219" x2="219" y1="126.2188" y2="993.7578"/><line style="stroke:#181818;stroke-width:0.5;stroke-dasharray:5.0,5.0;" x1="345" x2="345" y1="126.2188" y2="993.7578"/><line style="stroke:#181818;stroke-width:0.5;stroke-dasharray:5.0,5.0;" x1="699" x2="699" y1="126.2188" y2="993.7578"/><line style="stroke:#181818;stroke-width:0.5;stroke-dasharray:5.0,5.0;" x1="904" x2="904" y1="126.2188" y2="993.7578"/><line style="stroke:#181818;stroke-width:0.5;stroke-dasharray:5.0,5.0;" x1="1008.5" x2="1008.5" y1="126.2188" y2="993.7578"/><line style="stroke:#181818;stroke-width:0.5;stroke-dasharray:5.0,5.0;" x1="1309" x2="1309" y1="126.2188" y2="993.7578"/><text fill="#000000" font-family="Arial" font-size="11" lengthAdjust="spacing" textLength="79" x="5" y="111.5986">Manager / RRHH</text><text fill="#000000" font-family="Arial" font-size="11" lengthAdjust="spacing" textLength="60" x="14.5" y="123.8877">(navegador)</text><ellipse cx="47.5" cy="50.1406" fill="#E2E2F0" rx="8" ry="8" style="stroke:#181818;stroke-width:0.5;"/><path d="M47.5,58.1406 L47.5,85.1406 M34.5,66.1406 L60.5,66.1406 M47.5,85.1406 L34.5,100.1406 M47.5,85.1406 L60.5,100.1406 " fill="none" style="stroke:#181818;stroke-width:0.5;"/><text fill="#000000" font-family="Arial" font-size="11" lengthAdjust="spacing" textLength="79" x="5" y="1002.7158">Manager / RRHH</text><text fill="#000000" font-family="Arial" font-size="11" lengthAdjust="spacing" textLength="60" x="14.5" y="1015.0049">(navegador)</text><ellipse cx="47.5" cy="1025.8359" fill="#E2E2F0" rx="8" ry="8" style="stroke:#181818;stroke-width:0.5;"/><path d="M47.5,1033.8359 L47.5,1060.8359 M34.5,1041.8359 L60.5,1041.8359 M47.5,1060.8359 L34.5,1075.8359 M47.5,1060.8359 L60.5,1075.8359 " fill="none" style="stroke:#181818;stroke-width:0.5;"/><rect fill="#E2E2F0" height="38.5781" rx="2.5" ry="2.5" style="stroke:#181818;stroke-width:1.5;" width="121" x="159" y="86.6406"/><text fill="#000000" font-family="Arial" font-size="11" lengthAdjust="spacing" textLength="48" x="195.5" y="103.5986">RSC Page</text><text fill="#000000" font-family="Arial" font-size="11" lengthAdjust="spacing" textLength="107" x="166" y="115.8877">/vacaciones/gestionar</text><rect fill="#E2E2F0" height="38.5781" rx="2.5" ry="2.5" style="stroke:#181818;stroke-width:1.5;" width="121" x="159" y="992.7578"/><text fill="#000000" font-family="Arial" font-size="11" lengthAdjust="spacing" textLength="48" x="195.5" y="1009.7158">RSC Page</text><text fill="#000000" font-family="Arial" font-size="11" lengthAdjust="spacing" textLength="107" x="166" y="1022.0049">/vacaciones/gestionar</text><rect fill="#E2E2F0" height="38.5781" rx="2.5" ry="2.5" style="stroke:#181818;stroke-width:1.5;" width="110" x="290" y="86.6406"/><text fill="#000000" font-family="Arial" font-size="11" lengthAdjust="spacing" textLength="96" x="297" y="103.5986">LeaveRequestTable</text><text fill="#000000" font-family="Arial" font-size="11" lengthAdjust="spacing" textLength="91" x="299.5" y="115.8877">(Client Component)</text><rect fill="#E2E2F0" height="38.5781" rx="2.5" ry="2.5" style="stroke:#181818;stroke-width:1.5;" width="110" x="290" y="992.7578"/><text fill="#000000" font-family="Arial" font-size="11" lengthAdjust="spacing" textLength="96" x="297" y="1009.7158">LeaveRequestTable</text><text fill="#000000" font-family="Arial" font-size="11" lengthAdjust="spacing" textLength="91" x="299.5" y="1022.0049">(Client Component)</text><rect fill="#E2E2F0" height="38.5781" rx="2.5" ry="2.5" style="stroke:#181818;stroke-width:1.5;" width="132" x="633" y="86.6406"/><text fill="#000000" font-family="Arial" font-size="11" lengthAdjust="spacing" textLength="118" x="640" y="103.5986">approveLeaveRequest()</text><text fill="#000000" font-family="Arial" font-size="11" lengthAdjust="spacing" textLength="67" x="665.5" y="115.8877">Server Action</text><rect fill="#E2E2F0" height="38.5781" rx="2.5" ry="2.5" style="stroke:#181818;stroke-width:1.5;" width="132" x="633" y="992.7578"/><text fill="#000000" font-family="Arial" font-size="11" lengthAdjust="spacing" textLength="118" x="640" y="1009.7158">approveLeaveRequest()</text><text fill="#000000" font-family="Arial" font-size="11" lengthAdjust="spacing" textLength="67" x="665.5" y="1022.0049">Server Action</text><rect fill="#E2E2F0" height="38.5781" rx="2.5" ry="2.5" style="stroke:#181818;stroke-width:1.5;" width="96" x="856" y="86.6406"/><text fill="#000000" font-family="Arial" font-size="11" lengthAdjust="spacing" textLength="82" x="863" y="103.5986">getCurrentUser()</text><text fill="#000000" font-family="Arial" font-size="11" lengthAdjust="spacing" textLength="60" x="874" y="115.8877">auth/helpers</text><rect fill="#E2E2F0" height="38.5781" rx="2.5" ry="2.5" style="stroke:#181818;stroke-width:1.5;" width="96" x="856" y="992.7578"/><text fill="#000000" font-family="Arial" font-size="11" lengthAdjust="spacing" textLength="82" x="863" y="1009.7158">getCurrentUser()</text><text fill="#000000" font-family="Arial" font-size="11" lengthAdjust="spacing" textLength="60" x="874" y="1022.0049">auth/helpers</text><rect fill="#E2E2F0" height="38.5781" rx="2.5" ry="2.5" style="stroke:#181818;stroke-width:1.5;" width="73" x="972.5" y="86.6406"/><text fill="#000000" font-family="Arial" font-size="11" lengthAdjust="spacing" textLength="59" x="979.5" y="103.5986">Drizzle ORM</text><text fill="#000000" font-family="Arial" font-size="11" lengthAdjust="spacing" textLength="20" x="999" y="115.8877">(db)</text><rect fill="#E2E2F0" height="38.5781" rx="2.5" ry="2.5" style="stroke:#181818;stroke-width:1.5;" width="73" x="972.5" y="992.7578"/><text fill="#000000" font-family="Arial" font-size="11" lengthAdjust="spacing" textLength="59" x="979.5" y="1009.7158">Drizzle ORM</text><text fill="#000000" font-family="Arial" font-size="11" lengthAdjust="spacing" textLength="20" x="999" y="1022.0049">(db)</text><text fill="#000000" font-family="Arial" font-size="11" lengthAdjust="spacing" textLength="58" x="1277" y="123.8877">PostgreSQL</text><path d="M1291,77.9297 C1291,67.9297 1309,67.9297 1309,67.9297 C1309,67.9297 1327,67.9297 1327,77.9297 L1327,103.9297 C1327,113.9297 1309,113.9297 1309,113.9297 C1309,113.9297 1291,113.9297 1291,103.9297 L1291,77.9297 " fill="#E2E2F0" style="stroke:#181818;stroke-width:1.5;"/><path d="M1291,77.9297 C1291,87.9297 1309,87.9297 1309,87.9297 C1309,87.9297 1327,87.9297 1327,77.9297 " fill="none" style="stroke:#181818;stroke-width:1.5;"/><text fill="#000000" font-family="Arial" font-size="11" lengthAdjust="spacing" textLength="58" x="1277" y="1002.7158">PostgreSQL</text><path d="M1291,1015.0469 C1291,1005.0469 1309,1005.0469 1309,1005.0469 C1309,1005.0469 1327,1005.0469 1327,1015.0469 L1327,1041.0469 C1327,1051.0469 1309,1051.0469 1309,1051.0469 C1309,1051.0469 1291,1051.0469 1291,1041.0469 L1291,1015.0469 " fill="#E2E2F0" style="stroke:#181818;stroke-width:1.5;"/><path d="M1291,1015.0469 C1291,1025.0469 1309,1025.0469 1309,1025.0469 C1309,1025.0469 1327,1025.0469 1327,1015.0469 " fill="none" style="stroke:#181818;stroke-width:1.5;"/><polygon fill="#444444" points="207.5,150.5078,217.5,154.5078,207.5,158.5078,211.5,154.5078" style="stroke:#444444;stroke-width:1.0;"/><line style="stroke:#444444;stroke-width:1.2;" x1="47.5" x2="213.5" y1="154.5078" y2="154.5078"/><text fill="#000000" font-family="Arial" font-size="11" lengthAdjust="spacing" textLength="130" x="54.5" y="150.1768">GET /vacaciones/gestionar</text><polygon fill="#444444" points="997,176.7969,1007,180.7969,997,184.7969,1001,180.7969" style="stroke:#444444;stroke-width:1.0;"/><line style="stroke:#444444;stroke-width:1.2;" x1="219.5" x2="1003" y1="180.7969" y2="180.7969"/><text fill="#000000" font-family="Arial" font-size="11" lengthAdjust="spacing" textLength="207" x="226.5" y="176.4658">getLeaveRequestsForManager(managerId)</text><polygon fill="#444444" points="1297,203.0859,1307,207.0859,1297,211.0859,1301,207.0859" style="stroke:#444444;stroke-width:1.0;"/><line style="stroke:#444444;stroke-width:1.2;" x1="1009" x2="1303" y1="207.0859" y2="207.0859"/><text fill="#000000" font-family="Arial" font-size="11" lengthAdjust="spacing" textLength="276" x="1016" y="202.7549">SELECT leave_requests WHERE manager_id = managerId</text><polygon fill="#444444" points="1020,229.375,1010,233.375,1020,237.375,1016,233.375" style="stroke:#444444;stroke-width:1.0;"/><line style="stroke:#444444;stroke-width:1.2;stroke-dasharray:2.0,2.0;" x1="1014" x2="1308" y1="233.375" y2="233.375"/><text fill="#000000" font-family="Arial" font-size="11" lengthAdjust="spacing" textLength="99" x="1026" y="229.0439">LeaveRequestRow[]</text><polygon fill="#444444" points="58.5,255.6641,48.5,259.6641,58.5,263.6641,54.5,259.6641" style="stroke:#444444;stroke-width:1.0;"/><line style="stroke:#444444;stroke-width:1.2;stroke-dasharray:2.0,2.0;" x1="52.5" x2="218.5" y1="259.6641" y2="259.6641"/><text fill="#000000" font-family="Arial" font-size="11" lengthAdjust="spacing" textLength="148" x="64.5" y="255.333">tabla de solicitudes pendientes</text><polygon fill="#444444" points="333,281.9531,343,285.9531,333,289.9531,337,285.9531" style="stroke:#444444;stroke-width:1.0;"/><line style="stroke:#444444;stroke-width:1.2;" x1="47.5" x2="339" y1="285.9531" y2="285.9531"/><text fill="#000000" font-family="Arial" font-size="11" lengthAdjust="spacing" textLength="183" x="54.5" y="281.6221">selecciona solicitud y pulsa "Aprobar"</text><polygon fill="#444444" points="58.5,308.2422,48.5,312.2422,58.5,316.2422,54.5,312.2422" style="stroke:#444444;stroke-width:1.0;"/><line style="stroke:#444444;stroke-width:1.2;" x1="52.5" x2="344" y1="312.2422" y2="312.2422"/><text fill="#000000" font-family="Arial" font-size="11" lengthAdjust="spacing" textLength="269" x="64.5" y="307.9111">muestra panel de detalle con campo de notas (opcional)</text><polygon fill="#444444" points="333,334.5313,343,338.5313,333,342.5313,337,338.5313" style="stroke:#444444;stroke-width:1.0;"/><line style="stroke:#444444;stroke-width:1.2;" x1="47.5" x2="339" y1="338.5313" y2="338.5313"/><text fill="#000000" font-family="Arial" font-size="11" lengthAdjust="spacing" textLength="129" x="54.5" y="334.2002">introduce notas y confirma</text><polygon fill="#444444" points="687,360.8203,697,364.8203,687,368.8203,691,364.8203" style="stroke:#444444;stroke-width:1.0;"/><line style="stroke:#444444;stroke-width:1.2;" x1="345" x2="693" y1="364.8203" y2="364.8203"/><text fill="#000000" font-family="Arial" font-size="11" lengthAdjust="spacing" textLength="173" x="352" y="360.4893">approveLeaveRequest({ id, notes })</text><polygon fill="#444444" points="892,387.1094,902,391.1094,892,395.1094,896,391.1094" style="stroke:#444444;stroke-width:1.0;"/><line style="stroke:#444444;stroke-width:1.2;" x1="699" x2="898" y1="391.1094" y2="391.1094"/><text fill="#000000" font-family="Arial" font-size="11" lengthAdjust="spacing" textLength="82" x="706" y="386.7783">getCurrentUser()</text><polygon fill="#444444" points="710,413.3984,700,417.3984,710,421.3984,706,417.3984" style="stroke:#444444;stroke-width:1.0;"/><line style="stroke:#444444;stroke-width:1.2;stroke-dasharray:2.0,2.0;" x1="704" x2="903" y1="417.3984" y2="417.3984"/><text fill="#000000" font-family="Arial" font-size="11" lengthAdjust="spacing" textLength="145" x="716" y="413.0674">AuthUser { id, profile: { role } }</text><path d="M270,432.3984 L328,432.3984 L328,436.6875 L318,446.6875 L270,446.6875 L270,432.3984 " fill="#EEEEEE" style="stroke:#000000;stroke-width:1.5;"/><rect fill="none" height="518.0703" style="stroke:#000000;stroke-width:1.5;" width="1091" x="270" y="432.3984"/><text fill="#000000" font-family="Arial" font-size="11" font-weight="bold" lengthAdjust="spacing" textLength="13" x="285" y="443.3564">alt</text><text fill="#000000" font-family="Arial" font-size="11" font-weight="bold" lengthAdjust="spacing" textLength="180" x="343" y="444.3564">[role no es manager | hr | admin]</text><polygon fill="#444444" points="356,460.9766,346,464.9766,356,468.9766,352,464.9766" style="stroke:#444444;stroke-width:1.0;"/><line style="stroke:#444444;stroke-width:1.2;stroke-dasharray:2.0,2.0;" x1="350" x2="698" y1="464.9766" y2="464.9766"/><text fill="#000000" font-family="Arial" font-size="11" lengthAdjust="spacing" textLength="133" x="362" y="460.6455">ActionError("Sin permisos")</text><line style="stroke:#000000;stroke-width:1.0;stroke-dasharray:2.0,2.0;" x1="270" x2="1361" y1="473.9766" y2="473.9766"/><polygon fill="#444444" points="997,489.2656,1007,493.2656,997,497.2656,1001,493.2656" style="stroke:#444444;stroke-width:1.0;"/><line style="stroke:#444444;stroke-width:1.2;" x1="699" x2="1003" y1="493.2656" y2="493.2656"/><text fill="#000000" font-family="Arial" font-size="11" lengthAdjust="spacing" textLength="251" x="706" y="488.9346">SELECT status FROM leave_requests WHERE id = id</text><polygon fill="#444444" points="1297,515.5547,1307,519.5547,1297,523.5547,1301,519.5547" style="stroke:#444444;stroke-width:1.0;"/><line style="stroke:#444444;stroke-width:1.2;" x1="1009" x2="1303" y1="519.5547" y2="519.5547"/><text fill="#000000" font-family="Arial" font-size="11" lengthAdjust="spacing" textLength="28" x="1016" y="515.2236">query</text><polygon fill="#444444" points="1020,541.8438,1010,545.8438,1020,549.8438,1016,545.8438" style="stroke:#444444;stroke-width:1.0;"/><line style="stroke:#444444;stroke-width:1.2;stroke-dasharray:2.0,2.0;" x1="1014" x2="1308" y1="545.8438" y2="545.8438"/><text fill="#000000" font-family="Arial" font-size="11" lengthAdjust="spacing" textLength="44" x="1026" y="541.5127">{ status }</text><path d="M280,560.8438 L338,560.8438 L338,565.1328 L328,575.1328 L280,575.1328 L280,560.8438 " fill="#EEEEEE" style="stroke:#000000;stroke-width:1.5;"/><rect fill="none" height="382.625" style="stroke:#000000;stroke-width:1.5;" width="1071" x="280" y="560.8438"/><text fill="#000000" font-family="Arial" font-size="11" font-weight="bold" lengthAdjust="spacing" textLength="13" x="295" y="571.8018">alt</text><text fill="#000000" font-family="Arial" font-size="11" font-weight="bold" lengthAdjust="spacing" textLength="217" x="353" y="572.8018">[role = manager AND status = 'pending']</text><polygon fill="#444444" points="997,601.7109,1007,605.7109,997,609.7109,1001,605.7109" style="stroke:#444444;stroke-width:1.0;"/><line style="stroke:#444444;stroke-width:1.2;" x1="699" x2="1003" y1="605.7109" y2="605.7109"/><text fill="#000000" font-family="Arial" font-size="11" lengthAdjust="spacing" textLength="286" x="706" y="589.0908">UPDATE leave_requests SET status = 'manager_approved',</text><text fill="#000000" font-family="Arial" font-size="11" lengthAdjust="spacing" textLength="221" x="712" y="601.3799">manager_id = user.id, manager_notes = notes</text><polygon fill="#444444" points="1297,628,1307,632,1297,636,1301,632" style="stroke:#444444;stroke-width:1.0;"/><line style="stroke:#444444;stroke-width:1.2;" x1="1009" x2="1303" y1="632" y2="632"/><text fill="#000000" font-family="Arial" font-size="11" lengthAdjust="spacing" textLength="40" x="1016" y="627.6689">UPDATE</text><polygon fill="#444444" points="1020,654.2891,1010,658.2891,1020,662.2891,1016,658.2891" style="stroke:#444444;stroke-width:1.0;"/><line style="stroke:#444444;stroke-width:1.2;stroke-dasharray:2.0,2.0;" x1="1014" x2="1308" y1="658.2891" y2="658.2891"/><text fill="#000000" font-family="Arial" font-size="11" lengthAdjust="spacing" textLength="15" x="1026" y="653.958">OK</text><line style="stroke:#444444;stroke-width:1.2;" x1="699" x2="741" y1="684.5781" y2="684.5781"/><line style="stroke:#444444;stroke-width:1.2;" x1="741" x2="741" y1="684.5781" y2="697.5781"/><line style="stroke:#444444;stroke-width:1.2;" x1="700" x2="741" y1="697.5781" y2="697.5781"/><polygon fill="#444444" points="710,693.5781,700,697.5781,710,701.5781,706,697.5781" style="stroke:#444444;stroke-width:1.0;"/><text fill="#000000" font-family="Arial" font-size="11" lengthAdjust="spacing" textLength="191" x="706" y="680.2471">revalidatePath("/vacaciones/gestionar")</text><polygon fill="#444444" points="356,719.8672,346,723.8672,356,727.8672,352,723.8672" style="stroke:#444444;stroke-width:1.0;"/><line style="stroke:#444444;stroke-width:1.2;stroke-dasharray:2.0,2.0;" x1="350" x2="698" y1="723.8672" y2="723.8672"/><text fill="#000000" font-family="Arial" font-size="11" lengthAdjust="spacing" textLength="330" x="362" y="719.5361">ActionSuccess({ approved: true, newStatus: 'manager_approved' })</text><line style="stroke:#000000;stroke-width:1.0;stroke-dasharray:2.0,2.0;" x1="280" x2="1351" y1="732.8672" y2="732.8672"/><text fill="#000000" font-family="Arial" font-size="11" font-weight="bold" lengthAdjust="spacing" textLength="446" x="285" y="742.8252">[role = hr|admin AND status = 'manager_approved' (o admin en cualquier estado)]</text><polygon fill="#444444" points="997,772.7344,1007,776.7344,997,780.7344,1001,776.7344" style="stroke:#444444;stroke-width:1.0;"/><line style="stroke:#444444;stroke-width:1.2;" x1="699" x2="1003" y1="776.7344" y2="776.7344"/><text fill="#000000" font-family="Arial" font-size="11" lengthAdjust="spacing" textLength="254" x="706" y="760.1143">UPDATE leave_requests SET status = 'hr_approved',</text><text fill="#000000" font-family="Arial" font-size="11" lengthAdjust="spacing" textLength="157" x="712" y="772.4033">hr_id = user.id, hr_notes = notes</text><polygon fill="#444444" points="1297,799.0234,1307,803.0234,1297,807.0234,1301,803.0234" style="stroke:#444444;stroke-width:1.0;"/><line style="stroke:#444444;stroke-width:1.2;" x1="1009" x2="1303" y1="803.0234" y2="803.0234"/><text fill="#000000" font-family="Arial" font-size="11" lengthAdjust="spacing" textLength="40" x="1016" y="798.6924">UPDATE</text><polygon fill="#444444" points="1020,825.3125,1010,829.3125,1020,833.3125,1016,829.3125" style="stroke:#444444;stroke-width:1.0;"/><line style="stroke:#444444;stroke-width:1.2;stroke-dasharray:2.0,2.0;" x1="1014" x2="1308" y1="829.3125" y2="829.3125"/><text fill="#000000" font-family="Arial" font-size="11" lengthAdjust="spacing" textLength="15" x="1026" y="824.9814">OK</text><line style="stroke:#444444;stroke-width:1.2;" x1="699" x2="741" y1="855.6016" y2="855.6016"/><line style="stroke:#444444;stroke-width:1.2;" x1="741" x2="741" y1="855.6016" y2="868.6016"/><line style="stroke:#444444;stroke-width:1.2;" x1="700" x2="741" y1="868.6016" y2="868.6016"/><polygon fill="#444444" points="710,864.6016,700,868.6016,710,872.6016,706,868.6016" style="stroke:#444444;stroke-width:1.0;"/><text fill="#000000" font-family="Arial" font-size="11" lengthAdjust="spacing" textLength="191" x="706" y="851.2705">revalidatePath("/vacaciones/gestionar")</text><polygon fill="#444444" points="356,890.8906,346,894.8906,356,898.8906,352,894.8906" style="stroke:#444444;stroke-width:1.0;"/><line style="stroke:#444444;stroke-width:1.2;stroke-dasharray:2.0,2.0;" x1="350" x2="698" y1="894.8906" y2="894.8906"/><text fill="#000000" font-family="Arial" font-size="11" lengthAdjust="spacing" textLength="298" x="362" y="890.5596">ActionSuccess({ approved: true, newStatus: 'hr_approved' })</text><line style="stroke:#000000;stroke-width:1.0;stroke-dasharray:2.0,2.0;" x1="280" x2="1351" y1="903.8906" y2="903.8906"/><text fill="#000000" font-family="Arial" font-size="11" font-weight="bold" lengthAdjust="spacing" textLength="107" x="285" y="913.8486">[transici&#243;n inv&#225;lida]</text><polygon fill="#444444" points="356,931.4688,346,935.4688,356,939.4688,352,935.4688" style="stroke:#444444;stroke-width:1.0;"/><line style="stroke:#444444;stroke-width:1.2;stroke-dasharray:2.0,2.0;" x1="350" x2="698" y1="935.4688" y2="935.4688"/><text fill="#000000" font-family="Arial" font-size="11" lengthAdjust="spacing" textLength="295" x="362" y="931.1377">ActionError("No puedes aprobar en estado actual con tu rol")</text><polygon fill="#444444" points="58.5,971.7578,48.5,975.7578,58.5,979.7578,54.5,975.7578" style="stroke:#444444;stroke-width:1.0;"/><line style="stroke:#444444;stroke-width:1.2;stroke-dasharray:2.0,2.0;" x1="52.5" x2="344" y1="975.7578" y2="975.7578"/><text fill="#000000" font-family="Arial" font-size="11" lengthAdjust="spacing" textLength="211" x="64.5" y="971.4268">actualiza estado en tabla / mensaje de error</text><!--SRC=[rLNRRkCs47tdLmpKXzZ0PeqKxKk0551a9ocQMoqRVMYAnLYQM6neKajI3fBTV4o_eP-mFzOX9QLorllIjnhmHPnpvdeuTWzIrsXn0oNTOwFycT7-6ZS4gPMeXDjdp-KpmT7HmEZeOqEweDHQyxYePF6WoJauUl_zjq2PKSR2Tp_4rm34druMiaRjJuqjoGwz_JW0hh1uM5lJwB9pTHPVGdZf5K5EHGWcyHYmjcQ5DZUA7VkcJ1iNBQEn45XuvYPNg75D5YOmdrzStEcHnYsjiJHsd00wM8f1Nf3CymnkcN2d9riii9264voioNd-XJPIWdsNTKdiT1wQuFm2Luhfeqn9ObjcDZNxqBuDbsMxJAovX2qD7Op6Tpedk-MaqoA4ZSGytIMkoMUDjUnuwSW63ZQ-cbIaQh8kKb8-s2LDhNn-vXRUpAyumtBLvZGz5ILwNA4ZI6wDysjB-Q-NRQtdGYpXyATOD1p3-Mm1UpiZ8e21qrE6SNR3ajoPiTqWHfls- -ToB1WQF9yp8PzTph85g43wO3iM_7Oncy-WOtoG9Pp0Arqmxx2FDmmsDu-__z6bm_ObcxauXQnpSBrIo45DkWmZ8jULc6KCTQIe2CNXls1uWhfH3Y59My4bWh6Txqs8QP7bhKc562LvLDpamcWeaASV3hNntCsHgQDhDHv4bDfRKpP53teAp7jfDoYwC7aAGUjVA-KJoF9Te74vBsF1E4Q7iRSZs168YEU7lRlm50pG-c3VzrBHCJzQmyc_m0jV8UNR9ss08tIjXyzGXGyiDr8B2EuE-rfQmSvu3TXHaalDJRORwOnBneAKemxUJQqRklFe6mTdyvkh_GA8WvSbamUAOOHzugEX33xrlZXvWDVqNrK3wVMqXvp0GLI0NXymTYUlvUqqNSpUvfBF5WDkByfkBEN1kpiDkrBbPMJVX-Rsf-sWJjg1nQ23UjgWyNHOqiqlW-pYv2njKKc-iNIBlXeb-nVL-9MsEvkyAGfUkIoTFdE-7hOXbX4zvh6yuptL1Na1X17sBQtivwY0DptzcZaohLI0-3uqg3usaYV1YV8I7l-NrbTlkrwzRNZrV-frjR_Dl5Equ_tpvM_DAsBxvQ-GnpS2THVksl2Ueh3RkZ_6qFAsqS1_Xzpxk9Hy4sOOi-OB8C8xBffkeRL8-OmzbPsq2tG26z8E_mmx3YZ45Fy0]--></g></svg>