<?xml version="1.0" encoding="us-ascii" standalone="no"?><svg xmlns="http://www.w3.org/2000/svg" xmlns:xlink="http://www.w3.org/1999/xlink" contentStyleType="text/css" height="1320px" preserveAspectRatio="none" style="width:1643px;height:1320px;background:#FFFFFF;" version="1.1" viewBox="0 0 1643 1320" width="1643px" zoomAndPan="magnify"><defs/><g><text fill="#000000" font-family="Arial" font-size="14" font-weight="bold" lengthAdjust="spacing" textLength="213" x="713.5" y="27.6738">Secuencia: registrarVisitante()</text><rect fill="none" height="357.0469" style="stroke:#000000;stroke-width:1.5;" width="1261" x="336.5" y="774.1563"/><line style="stroke:#181818;stroke-width:0.5;stroke-dasharray:5.0,5.0;" x1="38" x2="38" y1="126.2188" y2="1231.3594"/><line style="stroke:#181818;stroke-width:0.5;stroke-dasharray:5.0,5.0;" x1="285.5" x2="285.5" y1="126.2188" y2="1231.3594"/><line style="stroke:#181818;stroke-width:0.5;stroke-dasharray:5.0,5.0;" x1="398.5" x2="398.5" y1="126.2188" y2="1231.3594"/><line style="stroke:#181818;stroke-width:0.5;stroke-dasharray:5.0,5.0;" x1="844" x2="844" y1="126.2188" y2="1231.3594"/><line style="stroke:#181818;stroke-width:0.5;stroke-dasharray:5.0,5.0;" x1="1029" x2="1029" y1="126.2188" y2="1231.3594"/><line style="stroke:#181818;stroke-width:0.5;stroke-dasharray:5.0,5.0;" x1="1181.5" x2="1181.5" y1="126.2188" y2="1231.3594"/><line style="stroke:#181818;stroke-width:0.5;stroke-dasharray:5.0,5.0;" x1="1285.5" x2="1285.5" y1="126.2188" y2="1231.3594"/><line style="stroke:#181818;stroke-width:0.5;stroke-dasharray:5.0,5.0;" x1="1382.5" x2="1382.5" y1="126.2188" y2="1231.3594"/><line style="stroke:#181818;stroke-width:0.5;stroke-dasharray:5.0,5.0;" x1="1478.5" x2="1478.5" y1="126.2188" y2="1231.3594"/><line style="stroke:#181818;stroke-width:0.5;stroke-dasharray:5.0,5.0;" x1="1555.5" x2="1555.5" y1="126.2188" y2="1231.3594"/><text fill="#000000" font-family="Arial" font-size="11" lengthAdjust="spacing" textLength="46" x="12" y="111.5986">Empleado</text><text fill="#000000" font-family="Arial" font-size="11" lengthAdjust="spacing" textLength="60" x="5" y="123.8877">(navegador)</text><ellipse cx="38" cy="50.1406" fill="#E2E2F0" rx="8" ry="8" style="stroke:#181818;stroke-width:0.5;"/><path d="M38,58.1406 L38,85.1406 M25,66.1406 L51,66.1406 M38,85.1406 L25,100.1406 M38,85.1406 L51,100.1406 " fill="none" style="stroke:#181818;stroke-width:0.5;"/><text fill="#000000" font-family="Arial" font-size="11" lengthAdjust="spacing" textLength="46" x="12" y="1240.3174">Empleado</text><text fill="#000000" font-family="Arial" font-size="11" lengthAdjust="spacing" textLength="60" x="5" y="1252.6064">(navegador)</text><ellipse cx="38" cy="1263.4375" fill="#E2E2F0" rx="8" ry="8" style="stroke:#181818;stroke-width:0.5;"/><path d="M38,1271.4375 L38,1298.4375 M25,1279.4375 L51,1279.4375 M38,1298.4375 L25,1313.4375 M38,1298.4375 L51,1313.4375 " fill="none" style="stroke:#181818;stroke-width:0.5;"/><rect fill="#E2E2F0" height="38.5781" rx="2.5" ry="2.5" style="stroke:#181818;stroke-width:1.5;" width="101" x="235.5" y="86.6406"/><text fill="#000000" font-family="Arial" font-size="11" lengthAdjust="spacing" textLength="48" x="262" y="103.5986">RSC Page</text><text fill="#000000" font-family="Arial" font-size="11" lengthAdjust="spacing" textLength="87" x="242.5" y="115.8877">/parking/visitantes</text><rect fill="#E2E2F0" height="38.5781" rx="2.5" ry="2.5" style="stroke:#181818;stroke-width:1.5;" width="101" x="235.5" y="1230.3594"/><text fill="#000000" font-family="Arial" font-size="11" lengthAdjust="spacing" textLength="48" x="262" y="1247.3174">RSC Page</text><text fill="#000000" font-family="Arial" font-size="11" lengthAdjust="spacing" textLength="87" x="242.5" y="1259.6064">/parking/visitantes</text><rect fill="#E2E2F0" height="38.5781" rx="2.5" ry="2.5" style="stroke:#181818;stroke-width:1.5;" width="105" x="346.5" y="86.6406"/><text fill="#000000" font-family="Arial" font-size="11" lengthAdjust="spacing" textLength="55" x="371.5" y="103.5986">VisitorForm</text><text fill="#000000" font-family="Arial" font-size="11" lengthAdjust="spacing" textLength="91" x="353.5" y="115.8877">(Client Component)</text><rect fill="#E2E2F0" height="38.5781" rx="2.5" ry="2.5" style="stroke:#181818;stroke-width:1.5;" width="105" x="346.5" y="1230.3594"/><text fill="#000000" font-family="Arial" font-size="11" lengthAdjust="spacing" textLength="55" x="371.5" y="1247.3174">VisitorForm</text><text fill="#000000" font-family="Arial" font-size="11" lengthAdjust="spacing" textLength="91" x="353.5" y="1259.6064">(Client Component)</text><rect fill="#E2E2F0" height="38.5781" rx="2.5" ry="2.5" style="stroke:#181818;stroke-width:1.5;" width="142" x="773" y="86.6406"/><text fill="#000000" font-family="Arial" font-size="11" lengthAdjust="spacing" textLength="128" x="780" y="103.5986">createVisitorReservation()</text><text fill="#000000" font-family="Arial" font-size="11" lengthAdjust="spacing" textLength="67" x="810.5" y="115.8877">Server Action</text><rect fill="#E2E2F0" height="38.5781" rx="2.5" ry="2.5" style="stroke:#181818;stroke-width:1.5;" width="142" x="773" y="1230.3594"/><text fill="#000000" font-family="Arial" font-size="11" lengthAdjust="spacing" textLength="128" x="780" y="1247.3174">createVisitorReservation()</text><text fill="#000000" font-family="Arial" font-size="11" lengthAdjust="spacing" textLength="67" x="810.5" y="1259.6064">Server Action</text><rect fill="#E2E2F0" height="38.5781" rx="2.5" ry="2.5" style="stroke:#181818;stroke-width:1.5;" width="96" x="981" y="86.6406"/><text fill="#000000" font-family="Arial" font-size="11" lengthAdjust="spacing" textLength="82" x="988" y="103.5986">getCurrentUser()</text><text fill="#000000" font-family="Arial" font-size="11" lengthAdjust="spacing" textLength="60" x="999" y="115.8877">auth/helpers</text><rect fill="#E2E2F0" height="38.5781" rx="2.5" ry="2.5" style="stroke:#181818;stroke-width:1.5;" width="96" x="981" y="1230.3594"/><text fill="#000000" font-family="Arial" font-size="11" lengthAdjust="spacing" textLength="82" x="988" y="1247.3174">getCurrentUser()</text><text fill="#000000" font-family="Arial" font-size="11" lengthAdjust="spacing" textLength="60" x="999" y="1259.6064">auth/helpers</text><rect fill="#E2E2F0" height="38.5781" rx="2.5" ry="2.5" style="stroke:#181818;stroke-width:1.5;" width="115" x="1124.5" y="86.6406"/><text fill="#000000" font-family="Arial" font-size="11" lengthAdjust="spacing" textLength="101" x="1131.5" y="103.5986">getResourceConfig()</text><text fill="#000000" font-family="Arial" font-size="11" lengthAdjust="spacing" textLength="42" x="1161" y="115.8877">config.ts</text><rect fill="#E2E2F0" height="38.5781" rx="2.5" ry="2.5" style="stroke:#181818;stroke-width:1.5;" width="115" x="1124.5" y="1230.3594"/><text fill="#000000" font-family="Arial" font-size="11" lengthAdjust="spacing" textLength="101" x="1131.5" y="1247.3174">getResourceConfig()</text><text fill="#000000" font-family="Arial" font-size="11" lengthAdjust="spacing" textLength="42" x="1161" y="1259.6064">config.ts</text><rect fill="#E2E2F0" height="38.5781" rx="2.5" ry="2.5" style="stroke:#181818;stroke-width:1.5;" width="73" x="1249.5" y="86.6406"/><text fill="#000000" font-family="Arial" font-size="11" lengthAdjust="spacing" textLength="59" x="1256.5" y="103.5986">Drizzle ORM</text><text fill="#000000" font-family="Arial" font-size="11" lengthAdjust="spacing" textLength="20" x="1276" y="115.8877">(db)</text><rect fill="#E2E2F0" height="38.5781" rx="2.5" ry="2.5" style="stroke:#181818;stroke-width:1.5;" width="73" x="1249.5" y="1230.3594"/><text fill="#000000" font-family="Arial" font-size="11" lengthAdjust="spacing" textLength="59" x="1256.5" y="1247.3174">Drizzle ORM</text><text fill="#000000" font-family="Arial" font-size="11" lengthAdjust="spacing" textLength="20" x="1276" y="1259.6064">(db)</text><rect fill="#E2E2F0" height="38.5781" rx="2.5" ry="2.5" style="stroke:#181818;stroke-width:1.5;" width="101" x="1332.5" y="86.6406"/><text fill="#000000" font-family="Arial" font-size="11" lengthAdjust="spacing" textLength="87" x="1339.5" y="103.5986">sendVisitorEmail()</text><text fill="#000000" font-family="Arial" font-size="11" lengthAdjust="spacing" textLength="37" x="1364.5" y="115.8877">lib/email</text><rect fill="#E2E2F0" height="38.5781" rx="2.5" ry="2.5" style="stroke:#181818;stroke-width:1.5;" width="101" x="1332.5" y="1230.3594"/><text fill="#000000" font-family="Arial" font-size="11" lengthAdjust="spacing" textLength="87" x="1339.5" y="1247.3174">sendVisitorEmail()</text><text fill="#000000" font-family="Arial" font-size="11" lengthAdjust="spacing" textLength="37" x="1364.5" y="1259.6064">lib/email</text><rect fill="#E2E2F0" height="26.2891" rx="2.5" ry="2.5" style="stroke:#181818;stroke-width:1.5;" width="70" x="1443.5" y="98.9297"/><text fill="#000000" font-family="Arial" font-size="11" lengthAdjust="spacing" textLength="56" x="1450.5" y="115.8877">Resend API</text><rect fill="#E2E2F0" height="26.2891" rx="2.5" ry="2.5" style="stroke:#181818;stroke-width:1.5;" width="70" x="1443.5" y="1230.3594"/><text fill="#000000" font-family="Arial" font-size="11" lengthAdjust="spacing" textLength="56" x="1450.5" y="1247.3174">Resend API</text><text fill="#000000" font-family="Arial" font-size="11" lengthAdjust="spacing" textLength="58" x="1523.5" y="123.8877">PostgreSQL</text><path d="M1537.5,77.9297 C1537.5,67.9297 1555.5,67.9297 1555.5,67.9297 C1555.5,67.9297 1573.5,67.9297 1573.5,77.9297 L1573.5,103.9297 C1573.5,113.9297 1555.5,113.9297 1555.5,113.9297 C1555.5,113.9297 1537.5,113.9297 1537.5,103.9297 L1537.5,77.9297 " fill="#E2E2F0" style="stroke:#181818;stroke-width:1.5;"/><path d="M1537.5,77.9297 C1537.5,87.9297 1555.5,87.9297 1555.5,87.9297 C1555.5,87.9297 1573.5,87.9297 1573.5,77.9297 " fill="none" style="stroke:#181818;stroke-width:1.5;"/><text fill="#000000" font-family="Arial" font-size="11" lengthAdjust="spacing" textLength="58" x="1523.5" y="1240.3174">PostgreSQL</text><path d="M1537.5,1252.6484 C1537.5,1242.6484 1555.5,1242.6484 1555.5,1242.6484 C1555.5,1242.6484 1573.5,1242.6484 1573.5,1252.6484 L1573.5,1278.6484 C1573.5,1288.6484 1555.5,1288.6484 1555.5,1288.6484 C1555.5,1288.6484 1537.5,1288.6484 1537.5,1278.6484 L1537.5,1252.6484 " fill="#E2E2F0" style="stroke:#181818;stroke-width:1.5;"/><path d="M1537.5,1252.6484 C1537.5,1262.6484 1555.5,1262.6484 1555.5,1262.6484 C1555.5,1262.6484 1573.5,1262.6484 1573.5,1252.6484 " fill="none" style="stroke:#181818;stroke-width:1.5;"/><polygon fill="#444444" points="274,150.5078,284,154.5078,274,158.5078,278,154.5078" style="stroke:#444444;stroke-width:1.0;"/><line style="stroke:#444444;stroke-width:1.2;" x1="38" x2="280" y1="154.5078" y2="154.5078"/><text fill="#000000" font-family="Arial" font-size="11" lengthAdjust="spacing" textLength="110" x="45" y="150.1768">GET /parking/visitantes</text><polygon fill="#444444" points="1274,176.7969,1284,180.7969,1274,184.7969,1278,180.7969" style="stroke:#444444;stroke-width:1.0;"/><line style="stroke:#444444;stroke-width:1.2;" x1="286" x2="1280" y1="180.7969" y2="180.7969"/><text fill="#000000" font-family="Arial" font-size="11" lengthAdjust="spacing" textLength="235" x="293" y="176.4658">getUpcomingVisitorReservations(userId, entityId)</text><polygon fill="#444444" points="1543.5,203.0859,1553.5,207.0859,1543.5,211.0859,1547.5,207.0859" style="stroke:#444444;stroke-width:1.0;"/><line style="stroke:#444444;stroke-width:1.2;" x1="1286" x2="1549.5" y1="207.0859" y2="207.0859"/><text fill="#000000" font-family="Arial" font-size="11" lengthAdjust="spacing" textLength="137" x="1293" y="202.7549">SELECT visitor_reservations</text><polygon fill="#444444" points="1297,229.375,1287,233.375,1297,237.375,1293,233.375" style="stroke:#444444;stroke-width:1.0;"/><line style="stroke:#444444;stroke-width:1.2;stroke-dasharray:2.0,2.0;" x1="1291" x2="1554.5" y1="233.375" y2="233.375"/><text fill="#000000" font-family="Arial" font-size="11" lengthAdjust="spacing" textLength="148" x="1303" y="229.0439">VisitorReservationWithDetails[]</text><polygon fill="#444444" points="49,255.6641,39,259.6641,49,263.6641,45,259.6641" style="stroke:#444444;stroke-width:1.0;"/><line style="stroke:#444444;stroke-width:1.2;stroke-dasharray:2.0,2.0;" x1="43" x2="285" y1="259.6641" y2="259.6641"/><text fill="#000000" font-family="Arial" font-size="11" lengthAdjust="spacing" textLength="224" x="55" y="255.333">lista de visitas pr&#243;ximas + bot&#243;n "Nueva visita"</text><polygon fill="#444444" points="387,281.9531,397,285.9531,387,289.9531,391,285.9531" style="stroke:#444444;stroke-width:1.0;"/><line style="stroke:#444444;stroke-width:1.2;" x1="38" x2="393" y1="285.9531" y2="285.9531"/><text fill="#000000" font-family="Arial" font-size="11" lengthAdjust="spacing" textLength="96" x="45" y="281.6221">pulsa "Nueva visita"</text><polygon fill="#444444" points="832,308.2422,842,312.2422,832,316.2422,836,312.2422" style="stroke:#444444;stroke-width:1.0;"/><line style="stroke:#444444;stroke-width:1.2;" x1="399" x2="838" y1="312.2422" y2="312.2422"/><text fill="#000000" font-family="Arial" font-size="11" lengthAdjust="spacing" textLength="178" x="406" y="307.9111">getAvailableVisitorSpotsAction(date)</text><polygon fill="#444444" points="1274,334.5313,1284,338.5313,1274,342.5313,1278,338.5313" style="stroke:#444444;stroke-width:1.0;"/><line style="stroke:#444444;stroke-width:1.2;" x1="844" x2="1280" y1="338.5313" y2="338.5313"/><text fill="#000000" font-family="Arial" font-size="11" lengthAdjust="spacing" textLength="272" x="851" y="334.2002">SELECT spots WHERE type = 'visitor' AND NOT reserved</text><polygon fill="#444444" points="1543.5,360.8203,1553.5,364.8203,1543.5,368.8203,1547.5,364.8203" style="stroke:#444444;stroke-width:1.0;"/><line style="stroke:#444444;stroke-width:1.2;" x1="1286" x2="1549.5" y1="364.8203" y2="364.8203"/><text fill="#000000" font-family="Arial" font-size="11" lengthAdjust="spacing" textLength="28" x="1293" y="360.4893">query</text><polygon fill="#444444" points="1297,387.1094,1287,391.1094,1297,395.1094,1293,391.1094" style="stroke:#444444;stroke-width:1.0;"/><line style="stroke:#444444;stroke-width:1.2;stroke-dasharray:2.0,2.0;" x1="1291" x2="1554.5" y1="391.1094" y2="391.1094"/><text fill="#000000" font-family="Arial" font-size="11" lengthAdjust="spacing" textLength="84" x="1303" y="386.7783">spots disponibles</text><polygon fill="#444444" points="410,413.3984,400,417.3984,410,421.3984,406,417.3984" style="stroke:#444444;stroke-width:1.0;"/><line style="stroke:#444444;stroke-width:1.2;stroke-dasharray:2.0,2.0;" x1="404" x2="843" y1="417.3984" y2="417.3984"/><text fill="#000000" font-family="Arial" font-size="11" lengthAdjust="spacing" textLength="56" x="416" y="413.0674">[{ id, label }]</text><polygon fill="#444444" points="49,439.6875,39,443.6875,49,447.6875,45,443.6875" style="stroke:#444444;stroke-width:1.0;"/><line style="stroke:#444444;stroke-width:1.2;stroke-dasharray:2.0,2.0;" x1="43" x2="398" y1="443.6875" y2="443.6875"/><text fill="#000000" font-family="Arial" font-size="11" lengthAdjust="spacing" textLength="203" x="55" y="439.3564">muestra formulario con plazas disponibles</text><polygon fill="#444444" points="387,465.9766,397,469.9766,387,473.9766,391,469.9766" style="stroke:#444444;stroke-width:1.0;"/><line style="stroke:#444444;stroke-width:1.2;" x1="38" x2="393" y1="469.9766" y2="469.9766"/><text fill="#000000" font-family="Arial" font-size="11" lengthAdjust="spacing" textLength="313" x="45" y="465.6455">rellena datos del visitante (nombre, empresa, email, fecha, plaza)</text><polygon fill="#444444" points="387,492.2656,397,496.2656,387,500.2656,391,496.2656" style="stroke:#444444;stroke-width:1.0;"/><line style="stroke:#444444;stroke-width:1.2;" x1="38" x2="393" y1="496.2656" y2="496.2656"/><text fill="#000000" font-family="Arial" font-size="11" lengthAdjust="spacing" textLength="42" x="45" y="491.9346">confirma</text><polygon fill="#444444" points="832,518.5547,842,522.5547,832,526.5547,836,522.5547" style="stroke:#444444;stroke-width:1.0;"/><line style="stroke:#444444;stroke-width:1.2;" x1="399" x2="838" y1="522.5547" y2="522.5547"/><text fill="#000000" font-family="Arial" font-size="11" lengthAdjust="spacing" textLength="421" x="406" y="518.2236">createVisitorReservation({ spot_id, date, visitor_name, visitor_company, visitor_email })</text><polygon fill="#444444" points="1017,544.8438,1027,548.8438,1017,552.8438,1021,548.8438" style="stroke:#444444;stroke-width:1.0;"/><line style="stroke:#444444;stroke-width:1.2;" x1="844" x2="1023" y1="548.8438" y2="548.8438"/><text fill="#000000" font-family="Arial" font-size="11" lengthAdjust="spacing" textLength="82" x="851" y="544.5127">getCurrentUser()</text><polygon fill="#444444" points="855,571.1328,845,575.1328,855,579.1328,851,575.1328" style="stroke:#444444;stroke-width:1.0;"/><line style="stroke:#444444;stroke-width:1.2;stroke-dasharray:2.0,2.0;" x1="849" x2="1028" y1="575.1328" y2="575.1328"/><text fill="#000000" font-family="Arial" font-size="11" lengthAdjust="spacing" textLength="46" x="861" y="570.8018">AuthUser</text><polygon fill="#444444" points="1170,597.4219,1180,601.4219,1170,605.4219,1174,601.4219" style="stroke:#444444;stroke-width:1.0;"/><line style="stroke:#444444;stroke-width:1.2;" x1="844" x2="1176" y1="601.4219" y2="601.4219"/><text fill="#000000" font-family="Arial" font-size="11" lengthAdjust="spacing" textLength="314" x="851" y="597.0908">getResourceConfig("parking", "visitor_booking_enabled", entityId)</text><polygon fill="#444444" points="855,623.7109,845,627.7109,855,631.7109,851,627.7109" style="stroke:#444444;stroke-width:1.0;"/><line style="stroke:#444444;stroke-width:1.2;stroke-dasharray:2.0,2.0;" x1="849" x2="1181" y1="627.7109" y2="627.7109"/><text fill="#000000" font-family="Arial" font-size="11" lengthAdjust="spacing" textLength="19" x="861" y="623.3799">true</text><polygon fill="#444444" points="1274,650,1284,654,1274,658,1278,654" style="stroke:#444444;stroke-width:1.0;"/><line style="stroke:#444444;stroke-width:1.2;" x1="844" x2="1280" y1="654" y2="654"/><text fill="#000000" font-family="Arial" font-size="11" lengthAdjust="spacing" textLength="165" x="851" y="649.6689">SELECT spots WHERE id = spot_id</text><polygon fill="#444444" points="1543.5,676.2891,1553.5,680.2891,1543.5,684.2891,1547.5,680.2891" style="stroke:#444444;stroke-width:1.0;"/><line style="stroke:#444444;stroke-width:1.2;" x1="1286" x2="1549.5" y1="680.2891" y2="680.2891"/><text fill="#000000" font-family="Arial" font-size="11" lengthAdjust="spacing" textLength="28" x="1293" y="675.958">query</text><polygon fill="#444444" points="1297,702.5781,1287,706.5781,1297,710.5781,1293,706.5781" style="stroke:#444444;stroke-width:1.0;"/><line style="stroke:#444444;stroke-width:1.2;stroke-dasharray:2.0,2.0;" x1="1291" x2="1554.5" y1="706.5781" y2="706.5781"/><text fill="#000000" font-family="Arial" font-size="11" lengthAdjust="spacing" textLength="221" x="1303" y="702.2471">{ label, type: 'visitor', resourceType: 'parking' }</text><polygon fill="#444444" points="1274,728.8672,1284,732.8672,1274,736.8672,1278,732.8672" style="stroke:#444444;stroke-width:1.0;"/><line style="stroke:#444444;stroke-width:1.2;" x1="844" x2="1280" y1="732.8672" y2="732.8672"/><text fill="#000000" font-family="Arial" font-size="11" lengthAdjust="spacing" textLength="367" x="851" y="728.5361">INSERT INTO visitor_reservations (spotId, reservedBy, date, visitorName, ...)</text><polygon fill="#444444" points="1543.5,755.1563,1553.5,759.1563,1543.5,763.1563,1547.5,759.1563" style="stroke:#444444;stroke-width:1.0;"/><line style="stroke:#444444;stroke-width:1.2;" x1="1286" x2="1549.5" y1="759.1563" y2="759.1563"/><text fill="#000000" font-family="Arial" font-size="11" lengthAdjust="spacing" textLength="35" x="1293" y="754.8252">INSERT</text><path d="M336.5,774.1563 L394.5,774.1563 L394.5,778.4453 L384.5,788.4453 L336.5,788.4453 L336.5,774.1563 " fill="#EEEEEE" style="stroke:#000000;stroke-width:1.5;"/><rect fill="none" height="357.0469" style="stroke:#000000;stroke-width:1.5;" width="1261" x="336.5" y="774.1563"/><text fill="#000000" font-family="Arial" font-size="11" font-weight="bold" lengthAdjust="spacing" textLength="13" x="351.5" y="785.1143">alt</text><text fill="#000000" font-family="Arial" font-size="11" font-weight="bold" lengthAdjust="spacing" textLength="310" x="409.5" y="786.1143">[unique constraint violation (plaza ya reservada ese d&#237;a)]</text><polygon fill="#444444" points="1297,802.7344,1287,806.7344,1297,810.7344,1293,806.7344" style="stroke:#444444;stroke-width:1.0;"/><line style="stroke:#444444;stroke-width:1.2;stroke-dasharray:2.0,2.0;" x1="1291" x2="1554.5" y1="806.7344" y2="806.7344"/><text fill="#000000" font-family="Arial" font-size="11" lengthAdjust="spacing" textLength="98" x="1303" y="802.4033">UniqueViolationError</text><polygon fill="#444444" points="410,829.0234,400,833.0234,410,837.0234,406,833.0234" style="stroke:#444444;stroke-width:1.0;"/><line style="stroke:#444444;stroke-width:1.2;stroke-dasharray:2.0,2.0;" x1="404" x2="843" y1="833.0234" y2="833.0234"/><text fill="#000000" font-family="Arial" font-size="11" lengthAdjust="spacing" textLength="327" x="416" y="828.6924">ActionError("Esta plaza ya tiene reserva de visitante para este d&#237;a")</text><line style="stroke:#000000;stroke-width:1.0;stroke-dasharray:2.0,2.0;" x1="336.5" x2="1597.5" y1="842.0234" y2="842.0234"/><text fill="#000000" font-family="Arial" font-size="11" font-weight="bold" lengthAdjust="spacing" textLength="103" x="341.5" y="851.9814">[inserci&#243;n exitosa]</text><polygon fill="#444444" points="1297,869.6016,1287,873.6016,1297,877.6016,1293,873.6016" style="stroke:#444444;stroke-width:1.0;"/><line style="stroke:#444444;stroke-width:1.2;stroke-dasharray:2.0,2.0;" x1="1291" x2="1554.5" y1="873.6016" y2="873.6016"/><text fill="#000000" font-family="Arial" font-size="11" lengthAdjust="spacing" textLength="22" x="1303" y="869.2705">{ id }</text><polygon fill="#444444" points="855,895.8906,845,899.8906,855,903.8906,851,899.8906" style="stroke:#444444;stroke-width:1.0;"/><line style="stroke:#444444;stroke-width:1.2;stroke-dasharray:2.0,2.0;" x1="849" x2="1285" y1="899.8906" y2="899.8906"/><text fill="#000000" font-family="Arial" font-size="11" lengthAdjust="spacing" textLength="63" x="861" y="895.5596">reservationId</text><polygon fill="#444444" points="1371,922.1797,1381,926.1797,1371,930.1797,1375,926.1797" style="stroke:#444444;stroke-width:1.0;"/><line style="stroke:#444444;stroke-width:1.2;" x1="844" x2="1377" y1="926.1797" y2="926.1797"/><text fill="#000000" font-family="Arial" font-size="11" lengthAdjust="spacing" textLength="355" x="851" y="921.8486">sendVisitorReservationEmail(visitorEmail, visitorName, date, spotLabel, ...)</text><polygon fill="#444444" points="1466.5,948.4688,1476.5,952.4688,1466.5,956.4688,1470.5,952.4688" style="stroke:#444444;stroke-width:1.0;"/><line style="stroke:#444444;stroke-width:1.2;" x1="1383" x2="1472.5" y1="952.4688" y2="952.4688"/><text fill="#000000" font-family="Arial" font-size="11" lengthAdjust="spacing" textLength="63" x="1390" y="948.1377">POST /emails</text><polygon fill="#444444" points="1394,974.7578,1384,978.7578,1394,982.7578,1390,978.7578" style="stroke:#444444;stroke-width:1.0;"/><line style="stroke:#444444;stroke-width:1.2;stroke-dasharray:2.0,2.0;" x1="1388" x2="1477.5" y1="978.7578" y2="978.7578"/><text fill="#000000" font-family="Arial" font-size="11" lengthAdjust="spacing" textLength="22" x="1400" y="974.4268">{ id }</text><polygon fill="#444444" points="855,1001.0469,845,1005.0469,855,1009.0469,851,1005.0469" style="stroke:#444444;stroke-width:1.0;"/><line style="stroke:#444444;stroke-width:1.2;stroke-dasharray:2.0,2.0;" x1="849" x2="1382" y1="1005.0469" y2="1005.0469"/><text fill="#000000" font-family="Arial" font-size="11" lengthAdjust="spacing" textLength="38" x="861" y="1000.7158">enviado</text><polygon fill="#444444" points="1274,1027.3359,1284,1031.3359,1274,1035.3359,1278,1031.3359" style="stroke:#444444;stroke-width:1.0;"/><line style="stroke:#444444;stroke-width:1.2;" x1="844" x2="1280" y1="1031.3359" y2="1031.3359"/><text fill="#000000" font-family="Arial" font-size="11" lengthAdjust="spacing" textLength="399" x="851" y="1027.0049">UPDATE visitor_reservations SET notification_sent = true WHERE id = reservationId</text><polygon fill="#444444" points="1543.5,1053.625,1553.5,1057.625,1543.5,1061.625,1547.5,1057.625" style="stroke:#444444;stroke-width:1.0;"/><line style="stroke:#444444;stroke-width:1.2;" x1="1286" x2="1549.5" y1="1057.625" y2="1057.625"/><text fill="#000000" font-family="Arial" font-size="11" lengthAdjust="spacing" textLength="40" x="1293" y="1053.2939">UPDATE</text><line style="stroke:#444444;stroke-width:1.2;" x1="844" x2="886" y1="1083.9141" y2="1083.9141"/><line style="stroke:#444444;stroke-width:1.2;" x1="886" x2="886" y1="1083.9141" y2="1096.9141"/><line style="stroke:#444444;stroke-width:1.2;" x1="845" x2="886" y1="1096.9141" y2="1096.9141"/><polygon fill="#444444" points="855,1092.9141,845,1096.9141,855,1100.9141,851,1096.9141" style="stroke:#444444;stroke-width:1.0;"/><text fill="#000000" font-family="Arial" font-size="11" lengthAdjust="spacing" textLength="171" x="851" y="1079.583">revalidatePath("/parking/visitantes")</text><polygon fill="#444444" points="410,1119.2031,400,1123.2031,410,1127.2031,406,1123.2031" style="stroke:#444444;stroke-width:1.0;"/><line style="stroke:#444444;stroke-width:1.2;stroke-dasharray:2.0,2.0;" x1="404" x2="843" y1="1123.2031" y2="1123.2031"/><text fill="#000000" font-family="Arial" font-size="11" lengthAdjust="spacing" textLength="173" x="416" y="1118.8721">ActionSuccess({ id: reservationId })</text><polygon fill="#444444" points="49,1152.4922,39,1156.4922,49,1160.4922,45,1156.4922" style="stroke:#444444;stroke-width:1.0;"/><line style="stroke:#444444;stroke-width:1.2;stroke-dasharray:2.0,2.0;" x1="43" x2="398" y1="1156.4922" y2="1156.4922"/><text fill="#000000" font-family="Arial" font-size="11" lengthAdjust="spacing" textLength="258" x="55" y="1152.1611">confirmaci&#243;n con datos de la visita / mensaje de error</text><path d="M1483,1169.4922 L1483,1215.4922 L1636,1215.4922 L1636,1179.4922 L1626,1169.4922 L1483,1169.4922 " fill="#FEFFDD" style="stroke:#181818;stroke-width:0.5;"/><path d="M1626,1169.4922 L1626,1179.4922 L1636,1179.4922 L1626,1169.4922 " fill="#FEFFDD" style="stroke:#181818;stroke-width:0.5;"/><text fill="#000000" font-family="Arial" font-size="11" lengthAdjust="spacing" textLength="132" x="1489" y="1184.4502">El visitante recibe email con</text><text fill="#000000" font-family="Arial" font-size="11" lengthAdjust="spacing" textLength="130" x="1489" y="1196.7393">fecha, plaza y .ics adjunto.</text><text fill="#000000" font-family="Arial" font-size="11" lengthAdjust="spacing" textLength="122" x="1489" y="1209.0283">No tiene acceso al portal.</text><!--SRC=[XLRDRY974BxFKvGc1uE2iHmb5qkx4XwmOsc3YGTs3-kLrSmKqEkPxabt3rbi-P5osaVmYwNwPs30RC81-gT-l_gg6lt8HSKKAo771QiBSoM56RCIOQ0uAo9zx3xbJmZdvwrBZN_LA38SA2N_dgvuzYXGQpZl__8ZeKGMKi5FlxfFIuY-3SzunOIvb2f7rRRsMqjmphB7fPAro8EfA_U98iDDWP1YPfrnTW4AbrmRnTH7hhaXmzZfHX7B36d5ex8gaENoNdG4M-EIbgeR0zCmYrgnG7oN9Z1XIxmNPtHEOIpFreqzxHJixRwESoZLbLGbsKyAZdIQoBAIWbRUJPBiwsGAcS6WUOSQrPePBaMdUozIsg22GMOFd7OwsDTUeabgfSZwZ3Ij3glDwco5HONAXpcWWpTAv4ZMAiD4YWLVMhtChVh6AoMBvRxEKF6d9yBvzkuFIYsV-sI6b_jI6aKUKXcLZ1VMSC7dPsWtJiCT7o2DLWq6aniduRTHpWoRCuqGJwGsIuNfdnyyxDTHD8FJzmv_k83hqHIEb2XoroGsl2GXIdbMPR8acRTGwqvDwvky1uGZDvkRl1kHbdLnJRhfwCCecSBQwpsebc940gUDZxU6Ft6p6gAXZFNdBo4WafwHS44KPTHatYobLQdNxzzuIQkVOIxDwtS1yRZ6DGiISSWwIKYxgWlD3k_fXkxJWKzti2QtR5uqr4ehQRHdKeUmnMv4aate8KLjPU3JxwEx4PXDXV0EJaBQ9p0O3s5yEmMVF-PjYAZHrMOF36ygv_GhE4MXdRic_i_Fm0bkYWyBUFdYGW_0b3NQveK5DL5TCCKb43MXAjWJspVOmaDXKQ0WF9cH94H6jqI0Zf3bN24LjwmeTcON14qF5fYjQESiTrl6N2UeaaLjH7_OfiykrGURZeMrj-M9eAcwsn7tYEsRtO4B0bwQCjWkzONRw-V8dPysKTYTlOY25hMfLphevpZqGzo3k74ubz8UFH1E15yUjzbkxMoT65LZz3_iu3bn8oJ-tqHuzbNkEK9TxFZKiqHoCK_zHGZv15xsdD-Cqz7Tb7wcjqTR43es3Dky3J4lDmUb6BjAzFlzlRRsXkbXA0pKWbFajlAMUvocqfhBmZc0ZYC8R5Xmm786j83yzH-Y3K0xsPcpyx7H7T7BfqYaJNtVWkwc4u_i4DZQD_HUOEDbDniiYUqRI5wDTnjt8ome12v8DEDsLk0tobIpWtXicn6UO7VR-hRGkycZ4DvxFvbjv-vcU8ldVfolMxFz05wFkAt51rzlXpS4isG_ZFaBcDocDB4T_pK9XFFJLWZRi8Do4pcADQS7UnUp1tqo74n7nycHqkCWfE4BdhcJ1ssVv7UEusqgxsFYyGeyyUQtBWE4QrPmc_A4cLKdFlONeNkqy6cTPVJdfcDJF2Y57GRsvMjFmsOM-IBRGTYCE6ghm0yuWnA5Pb_H7gFZN4H94vNuScL0BfetbG1jJqQ56P-Z7uVMDjstPo9ieCyp3Ip_MWiZ-tGzbe6ap6OXWHLGIMLOqRUHMwGn-XS0]--></g></svg>