<?xml version="1.0" encoding="us-ascii" standalone="no"?><svg xmlns="http://www.w3.org/2000/svg" xmlns:xlink="http://www.w3.org/1999/xlink" contentStyleType="text/css" height="1213px" preserveAspectRatio="none" style="width:1249px;height:1213px;background:#FFFFFF;" version="1.1" viewBox="0 0 1249 1213" width="1249px" zoomAndPan="magnify"><defs/><g><text fill="#000000" font-family="Arial" font-size="14" font-weight="bold" lengthAdjust="spacing" textLength="188" x="531.75" y="27.6738">Secuencia: reservarPlaza()</text><rect fill="none" height="570.3594" style="stroke:#000000;stroke-width:1.5;" width="1027.5" x="215" y="511.2656"/><rect fill="none" height="225.6016" style="stroke:#000000;stroke-width:1.5;" width="1007.5" x="225" y="849.0234"/><line style="stroke:#181818;stroke-width:0.5;stroke-dasharray:5.0,5.0;" x1="38" x2="38" y1="126.2188" y2="1124.9141"/><line style="stroke:#181818;stroke-width:0.5;stroke-dasharray:5.0,5.0;" x1="194" x2="194" y1="126.2188" y2="1124.9141"/><line style="stroke:#181818;stroke-width:0.5;stroke-dasharray:5.0,5.0;" x1="287" x2="287" y1="126.2188" y2="1124.9141"/><line style="stroke:#181818;stroke-width:0.5;stroke-dasharray:5.0,5.0;" x1="549" x2="549" y1="126.2188" y2="1124.9141"/><line style="stroke:#181818;stroke-width:0.5;stroke-dasharray:5.0,5.0;" x1="725.5" x2="725.5" y1="126.2188" y2="1124.9141"/><line style="stroke:#181818;stroke-width:0.5;stroke-dasharray:5.0,5.0;" x1="868" x2="868" y1="126.2188" y2="1124.9141"/><line style="stroke:#181818;stroke-width:0.5;stroke-dasharray:5.0,5.0;" x1="981" x2="981" y1="126.2188" y2="1124.9141"/><line style="stroke:#181818;stroke-width:0.5;stroke-dasharray:5.0,5.0;" x1="1190.5" x2="1190.5" y1="126.2188" y2="1124.9141"/><text fill="#000000" font-family="Arial" font-size="11" lengthAdjust="spacing" textLength="46" x="12" y="111.5986">Empleado</text><text fill="#000000" font-family="Arial" font-size="11" lengthAdjust="spacing" textLength="60" x="5" y="123.8877">(navegador)</text><ellipse cx="38" cy="50.1406" fill="#E2E2F0" rx="8" ry="8" style="stroke:#181818;stroke-width:0.5;"/><path d="M38,58.1406 L38,85.1406 M25,66.1406 L51,66.1406 M38,85.1406 L25,100.1406 M38,85.1406 L51,100.1406 " fill="none" style="stroke:#181818;stroke-width:0.5;"/><text fill="#000000" font-family="Arial" font-size="11" lengthAdjust="spacing" textLength="46" x="12" y="1133.8721">Empleado</text><text fill="#000000" font-family="Arial" font-size="11" lengthAdjust="spacing" textLength="60" x="5" y="1146.1611">(navegador)</text><ellipse cx="38" cy="1156.9922" fill="#E2E2F0" rx="8" ry="8" style="stroke:#181818;stroke-width:0.5;"/><path d="M38,1164.9922 L38,1191.9922 M25,1172.9922 L51,1172.9922 M38,1191.9922 L25,1206.9922 M38,1191.9922 L51,1206.9922 " fill="none" style="stroke:#181818;stroke-width:0.5;"/><rect fill="#E2E2F0" height="38.5781" rx="2.5" ry="2.5" style="stroke:#181818;stroke-width:1.5;" width="62" x="163" y="86.6406"/><text fill="#000000" font-family="Arial" font-size="11" lengthAdjust="spacing" textLength="48" x="170" y="103.5986">RSC Page</text><text fill="#000000" font-family="Arial" font-size="11" lengthAdjust="spacing" textLength="38" x="175" y="115.8877">/parking</text><rect fill="#E2E2F0" height="38.5781" rx="2.5" ry="2.5" style="stroke:#181818;stroke-width:1.5;" width="62" x="163" y="1123.9141"/><text fill="#000000" font-family="Arial" font-size="11" lengthAdjust="spacing" textLength="48" x="170" y="1140.8721">RSC Page</text><text fill="#000000" font-family="Arial" font-size="11" lengthAdjust="spacing" textLength="38" x="175" y="1153.1611">/parking</text><rect fill="#E2E2F0" height="38.5781" rx="2.5" ry="2.5" style="stroke:#181818;stroke-width:1.5;" width="105" x="235" y="86.6406"/><text fill="#000000" font-family="Arial" font-size="11" lengthAdjust="spacing" textLength="90" x="242.5" y="103.5986">ResourceCalendar</text><text fill="#000000" font-family="Arial" font-size="11" lengthAdjust="spacing" textLength="91" x="242" y="115.8877">(Client Component)</text><rect fill="#E2E2F0" height="38.5781" rx="2.5" ry="2.5" style="stroke:#181818;stroke-width:1.5;" width="105" x="235" y="1123.9141"/><text fill="#000000" font-family="Arial" font-size="11" lengthAdjust="spacing" textLength="90" x="242.5" y="1140.8721">ResourceCalendar</text><text fill="#000000" font-family="Arial" font-size="11" lengthAdjust="spacing" textLength="91" x="242" y="1153.1611">(Client Component)</text><rect fill="#E2E2F0" height="38.5781" rx="2.5" ry="2.5" style="stroke:#181818;stroke-width:1.5;" width="111" x="494" y="86.6406"/><text fill="#000000" font-family="Arial" font-size="11" lengthAdjust="spacing" textLength="97" x="501" y="103.5986">createReservation()</text><text fill="#000000" font-family="Arial" font-size="11" lengthAdjust="spacing" textLength="67" x="516" y="115.8877">Server Action</text><rect fill="#E2E2F0" height="38.5781" rx="2.5" ry="2.5" style="stroke:#181818;stroke-width:1.5;" width="111" x="494" y="1123.9141"/><text fill="#000000" font-family="Arial" font-size="11" lengthAdjust="spacing" textLength="97" x="501" y="1140.8721">createReservation()</text><text fill="#000000" font-family="Arial" font-size="11" lengthAdjust="spacing" textLength="67" x="516" y="1153.1611">Server Action</text><rect fill="#E2E2F0" height="38.5781" rx="2.5" ry="2.5" style="stroke:#181818;stroke-width:1.5;" width="96" x="677.5" y="86.6406"/><text fill="#000000" font-family="Arial" font-size="11" lengthAdjust="spacing" textLength="82" x="684.5" y="103.5986">getCurrentUser()</text><text fill="#000000" font-family="Arial" font-size="11" lengthAdjust="spacing" textLength="60" x="695.5" y="115.8877">auth/helpers</text><rect fill="#E2E2F0" height="38.5781" rx="2.5" ry="2.5" style="stroke:#181818;stroke-width:1.5;" width="96" x="677.5" y="1123.9141"/><text fill="#000000" font-family="Arial" font-size="11" lengthAdjust="spacing" textLength="82" x="684.5" y="1140.8721">getCurrentUser()</text><text fill="#000000" font-family="Arial" font-size="11" lengthAdjust="spacing" textLength="60" x="695.5" y="1153.1611">auth/helpers</text><rect fill="#E2E2F0" height="38.5781" rx="2.5" ry="2.5" style="stroke:#181818;stroke-width:1.5;" width="133" x="802" y="86.6406"/><text fill="#000000" font-family="Arial" font-size="11" lengthAdjust="spacing" textLength="119" x="809" y="103.5986">getAllResourceConfigs()</text><text fill="#000000" font-family="Arial" font-size="11" lengthAdjust="spacing" textLength="42" x="847.5" y="115.8877">config.ts</text><rect fill="#E2E2F0" height="38.5781" rx="2.5" ry="2.5" style="stroke:#181818;stroke-width:1.5;" width="133" x="802" y="1123.9141"/><text fill="#000000" font-family="Arial" font-size="11" lengthAdjust="spacing" textLength="119" x="809" y="1140.8721">getAllResourceConfigs()</text><text fill="#000000" font-family="Arial" font-size="11" lengthAdjust="spacing" textLength="42" x="847.5" y="1153.1611">config.ts</text><rect fill="#E2E2F0" height="38.5781" rx="2.5" ry="2.5" style="stroke:#181818;stroke-width:1.5;" width="73" x="945" y="86.6406"/><text fill="#000000" font-family="Arial" font-size="11" lengthAdjust="spacing" textLength="59" x="952" y="103.5986">Drizzle ORM</text><text fill="#000000" font-family="Arial" font-size="11" lengthAdjust="spacing" textLength="20" x="971.5" y="115.8877">(db)</text><rect fill="#E2E2F0" height="38.5781" rx="2.5" ry="2.5" style="stroke:#181818;stroke-width:1.5;" width="73" x="945" y="1123.9141"/><text fill="#000000" font-family="Arial" font-size="11" lengthAdjust="spacing" textLength="59" x="952" y="1140.8721">Drizzle ORM</text><text fill="#000000" font-family="Arial" font-size="11" lengthAdjust="spacing" textLength="20" x="971.5" y="1153.1611">(db)</text><text fill="#000000" font-family="Arial" font-size="11" lengthAdjust="spacing" textLength="58" x="1158.5" y="123.8877">PostgreSQL</text><path d="M1172.5,77.9297 C1172.5,67.9297 1190.5,67.9297 1190.5,67.9297 C1190.5,67.9297 1208.5,67.9297 1208.5,77.9297 L1208.5,103.9297 C1208.5,113.9297 1190.5,113.9297 1190.5,113.9297 C1190.5,113.9297 1172.5,113.9297 1172.5,103.9297 L1172.5,77.9297 " fill="#E2E2F0" style="stroke:#181818;stroke-width:1.5;"/><path d="M1172.5,77.9297 C1172.5,87.9297 1190.5,87.9297 1190.5,87.9297 C1190.5,87.9297 1208.5,87.9297 1208.5,77.9297 " fill="none" style="stroke:#181818;stroke-width:1.5;"/><text fill="#000000" font-family="Arial" font-size="11" lengthAdjust="spacing" textLength="58" x="1158.5" y="1133.8721">PostgreSQL</text><path d="M1172.5,1146.2031 C1172.5,1136.2031 1190.5,1136.2031 1190.5,1136.2031 C1190.5,1136.2031 1208.5,1136.2031 1208.5,1146.2031 L1208.5,1172.2031 C1208.5,1182.2031 1190.5,1182.2031 1190.5,1182.2031 C1190.5,1182.2031 1172.5,1182.2031 1172.5,1172.2031 L1172.5,1146.2031 " fill="#E2E2F0" style="stroke:#181818;stroke-width:1.5;"/><path d="M1172.5,1146.2031 C1172.5,1156.2031 1190.5,1156.2031 1190.5,1156.2031 C1190.5,1156.2031 1208.5,1156.2031 1208.5,1146.2031 " fill="none" style="stroke:#181818;stroke-width:1.5;"/><polygon fill="#444444" points="182,150.5078,192,154.5078,182,158.5078,186,154.5078" style="stroke:#444444;stroke-width:1.0;"/><line style="stroke:#444444;stroke-width:1.2;" x1="38" x2="188" y1="154.5078" y2="154.5078"/><text fill="#000000" font-family="Arial" font-size="11" lengthAdjust="spacing" textLength="61" x="45" y="150.1768">GET /parking</text><polygon fill="#444444" points="969.5,176.7969,979.5,180.7969,969.5,184.7969,973.5,180.7969" style="stroke:#444444;stroke-width:1.0;"/><line style="stroke:#444444;stroke-width:1.2;" x1="194" x2="975.5" y1="180.7969" y2="180.7969"/><text fill="#000000" font-family="Arial" font-size="11" lengthAdjust="spacing" textLength="156" x="201" y="176.4658">getAvailableSpots(date, entityId)</text><polygon fill="#444444" points="1178.5,203.0859,1188.5,207.0859,1178.5,211.0859,1182.5,207.0859" style="stroke:#444444;stroke-width:1.0;"/><line style="stroke:#444444;stroke-width:1.2;" x1="981.5" x2="1184.5" y1="207.0859" y2="207.0859"/><text fill="#000000" font-family="Arial" font-size="11" lengthAdjust="spacing" textLength="185" x="988.5" y="202.7549">SELECT spots, reservations, cessions</text><polygon fill="#444444" points="992.5,229.375,982.5,233.375,992.5,237.375,988.5,233.375" style="stroke:#444444;stroke-width:1.0;"/><line style="stroke:#444444;stroke-width:1.2;stroke-dasharray:2.0,2.0;" x1="986.5" x2="1189.5" y1="233.375" y2="233.375"/><text fill="#000000" font-family="Arial" font-size="11" lengthAdjust="spacing" textLength="26" x="998.5" y="229.0439">rows</text><polygon fill="#444444" points="205,255.6641,195,259.6641,205,263.6641,201,259.6641" style="stroke:#444444;stroke-width:1.0;"/><line style="stroke:#444444;stroke-width:1.2;stroke-dasharray:2.0,2.0;" x1="199" x2="980.5" y1="259.6641" y2="259.6641"/><text fill="#000000" font-family="Arial" font-size="11" lengthAdjust="spacing" textLength="80" x="211" y="255.333">SpotWithStatus[]</text><polygon fill="#444444" points="49,281.9531,39,285.9531,49,289.9531,45,285.9531" style="stroke:#444444;stroke-width:1.0;"/><line style="stroke:#444444;stroke-width:1.2;stroke-dasharray:2.0,2.0;" x1="43" x2="193" y1="285.9531" y2="285.9531"/><text fill="#000000" font-family="Arial" font-size="11" lengthAdjust="spacing" textLength="132" x="55" y="281.6221">renders calendar + spot list</text><polygon fill="#444444" points="275.5,308.2422,285.5,312.2422,275.5,316.2422,279.5,312.2422" style="stroke:#444444;stroke-width:1.0;"/><line style="stroke:#444444;stroke-width:1.2;" x1="38" x2="281.5" y1="312.2422" y2="312.2422"/><text fill="#000000" font-family="Arial" font-size="11" lengthAdjust="spacing" textLength="172" x="45" y="307.9111">selecciona fecha y plaza disponible</text><polygon fill="#444444" points="49,334.5313,39,338.5313,49,342.5313,45,338.5313" style="stroke:#444444;stroke-width:1.0;"/><line style="stroke:#444444;stroke-width:1.2;" x1="43" x2="286.5" y1="338.5313" y2="338.5313"/><text fill="#000000" font-family="Arial" font-size="11" lengthAdjust="spacing" textLength="156" x="55" y="334.2002">muestra di&#225;logo de confirmaci&#243;n</text><polygon fill="#444444" points="275.5,360.8203,285.5,364.8203,275.5,368.8203,279.5,364.8203" style="stroke:#444444;stroke-width:1.0;"/><line style="stroke:#444444;stroke-width:1.2;" x1="38" x2="281.5" y1="364.8203" y2="364.8203"/><text fill="#000000" font-family="Arial" font-size="11" lengthAdjust="spacing" textLength="83" x="45" y="360.4893">confirma reserva</text><polygon fill="#444444" points="537.5,387.1094,547.5,391.1094,537.5,395.1094,541.5,391.1094" style="stroke:#444444;stroke-width:1.0;"/><line style="stroke:#444444;stroke-width:1.2;" x1="287.5" x2="543.5" y1="391.1094" y2="391.1094"/><text fill="#000000" font-family="Arial" font-size="11" lengthAdjust="spacing" textLength="173" x="294.5" y="386.7783">createReservation({ spot_id, date })</text><polygon fill="#444444" points="713.5,413.3984,723.5,417.3984,713.5,421.3984,717.5,417.3984" style="stroke:#444444;stroke-width:1.0;"/><line style="stroke:#444444;stroke-width:1.2;" x1="549.5" x2="719.5" y1="417.3984" y2="417.3984"/><text fill="#000000" font-family="Arial" font-size="11" lengthAdjust="spacing" textLength="82" x="556.5" y="413.0674">getCurrentUser()</text><polygon fill="#444444" points="560.5,439.6875,550.5,443.6875,560.5,447.6875,556.5,443.6875" style="stroke:#444444;stroke-width:1.0;"/><line style="stroke:#444444;stroke-width:1.2;stroke-dasharray:2.0,2.0;" x1="554.5" x2="724.5" y1="443.6875" y2="443.6875"/><text fill="#000000" font-family="Arial" font-size="11" lengthAdjust="spacing" textLength="107" x="566.5" y="439.3564">AuthUser { id, profile }</text><polygon fill="#444444" points="856.5,465.9766,866.5,469.9766,856.5,473.9766,860.5,469.9766" style="stroke:#444444;stroke-width:1.0;"/><line style="stroke:#444444;stroke-width:1.2;" x1="549.5" x2="862.5" y1="469.9766" y2="469.9766"/><text fill="#000000" font-family="Arial" font-size="11" lengthAdjust="spacing" textLength="202" x="556.5" y="465.6455">getAllResourceConfigs("parking", entityId)</text><polygon fill="#444444" points="560.5,492.2656,550.5,496.2656,560.5,500.2656,556.5,496.2656" style="stroke:#444444;stroke-width:1.0;"/><line style="stroke:#444444;stroke-width:1.2;stroke-dasharray:2.0,2.0;" x1="554.5" x2="867.5" y1="496.2656" y2="496.2656"/><text fill="#000000" font-family="Arial" font-size="11" lengthAdjust="spacing" textLength="295" x="566.5" y="491.9346">ResourceConfig { booking_enabled, max_advance_days, ... }</text><path d="M215,511.2656 L273,511.2656 L273,515.5547 L263,525.5547 L215,525.5547 L215,511.2656 " fill="#EEEEEE" style="stroke:#000000;stroke-width:1.5;"/><rect fill="none" height="570.3594" style="stroke:#000000;stroke-width:1.5;" width="1027.5" x="215" y="511.2656"/><text fill="#000000" font-family="Arial" font-size="11" font-weight="bold" lengthAdjust="spacing" textLength="13" x="230" y="522.2236">alt</text><text fill="#000000" font-family="Arial" font-size="11" font-weight="bold" lengthAdjust="spacing" textLength="142" x="288" y="523.2236">[booking_enabled = false]</text><polygon fill="#444444" points="298.5,539.8438,288.5,543.8438,298.5,547.8438,294.5,543.8438" style="stroke:#444444;stroke-width:1.0;"/><line style="stroke:#444444;stroke-width:1.2;stroke-dasharray:2.0,2.0;" x1="292.5" x2="548.5" y1="543.8438" y2="543.8438"/><text fill="#000000" font-family="Arial" font-size="11" lengthAdjust="spacing" textLength="238" x="304.5" y="539.5127">ActionError("Las reservas est&#225;n deshabilitadas")</text><line style="stroke:#000000;stroke-width:1.0;stroke-dasharray:2.0,2.0;" x1="215" x2="1242.5" y1="552.8438" y2="552.8438"/><text fill="#000000" font-family="Arial" font-size="11" font-weight="bold" lengthAdjust="spacing" textLength="138" x="220" y="562.8018">[booking_enabled = true]</text><line style="stroke:#444444;stroke-width:1.2;" x1="549.5" x2="591.5" y1="584.4219" y2="584.4219"/><line style="stroke:#444444;stroke-width:1.2;" x1="591.5" x2="591.5" y1="584.4219" y2="597.4219"/><line style="stroke:#444444;stroke-width:1.2;" x1="550.5" x2="591.5" y1="597.4219" y2="597.4219"/><polygon fill="#444444" points="560.5,593.4219,550.5,597.4219,560.5,601.4219,556.5,597.4219" style="stroke:#444444;stroke-width:1.0;"/><text fill="#000000" font-family="Arial" font-size="11" lengthAdjust="spacing" textLength="162" x="556.5" y="580.0908">validateBookingDate(date, config)</text><polygon fill="#444444" points="969.5,619.7109,979.5,623.7109,969.5,627.7109,973.5,623.7109" style="stroke:#444444;stroke-width:1.0;"/><line style="stroke:#444444;stroke-width:1.2;" x1="549.5" x2="975.5" y1="623.7109" y2="623.7109"/><text fill="#000000" font-family="Arial" font-size="11" lengthAdjust="spacing" textLength="197" x="556.5" y="619.3799">SELECT FROM spots WHERE id = spot_id</text><polygon fill="#444444" points="1178.5,646,1188.5,650,1178.5,654,1182.5,650" style="stroke:#444444;stroke-width:1.0;"/><line style="stroke:#444444;stroke-width:1.2;" x1="981.5" x2="1184.5" y1="650" y2="650"/><text fill="#000000" font-family="Arial" font-size="11" lengthAdjust="spacing" textLength="28" x="988.5" y="645.6689">query</text><polygon fill="#444444" points="992.5,672.2891,982.5,676.2891,992.5,680.2891,988.5,676.2891" style="stroke:#444444;stroke-width:1.0;"/><line style="stroke:#444444;stroke-width:1.2;stroke-dasharray:2.0,2.0;" x1="986.5" x2="1189.5" y1="676.2891" y2="676.2891"/><text fill="#000000" font-family="Arial" font-size="11" lengthAdjust="spacing" textLength="45" x="998.5" y="671.958">Spot row</text><polygon fill="#444444" points="560.5,698.5781,550.5,702.5781,560.5,706.5781,556.5,702.5781" style="stroke:#444444;stroke-width:1.0;"/><line style="stroke:#444444;stroke-width:1.2;stroke-dasharray:2.0,2.0;" x1="554.5" x2="980.5" y1="702.5781" y2="702.5781"/><text fill="#000000" font-family="Arial" font-size="11" lengthAdjust="spacing" textLength="136" x="566.5" y="698.2471">{ id, resourceType, entityId }</text><polygon fill="#444444" points="969.5,724.8672,979.5,728.8672,969.5,732.8672,973.5,728.8672" style="stroke:#444444;stroke-width:1.0;"/><line style="stroke:#444444;stroke-width:1.2;" x1="549.5" x2="975.5" y1="728.8672" y2="728.8672"/><text fill="#000000" font-family="Arial" font-size="11" lengthAdjust="spacing" textLength="333" x="556.5" y="724.5361">SELECT FROM reservations WHERE userId = user.id AND date = date</text><polygon fill="#444444" points="1178.5,751.1563,1188.5,755.1563,1178.5,759.1563,1182.5,755.1563" style="stroke:#444444;stroke-width:1.0;"/><line style="stroke:#444444;stroke-width:1.2;" x1="981.5" x2="1184.5" y1="755.1563" y2="755.1563"/><text fill="#000000" font-family="Arial" font-size="11" lengthAdjust="spacing" textLength="28" x="988.5" y="750.8252">query</text><polygon fill="#444444" points="992.5,777.4453,982.5,781.4453,992.5,785.4453,988.5,781.4453" style="stroke:#444444;stroke-width:1.0;"/><line style="stroke:#444444;stroke-width:1.2;stroke-dasharray:2.0,2.0;" x1="986.5" x2="1189.5" y1="781.4453" y2="781.4453"/><text fill="#000000" font-family="Arial" font-size="11" lengthAdjust="spacing" textLength="6" x="998.5" y="777.1143">[]</text><polygon fill="#444444" points="969.5,803.7344,979.5,807.7344,969.5,811.7344,973.5,807.7344" style="stroke:#444444;stroke-width:1.0;"/><line style="stroke:#444444;stroke-width:1.2;" x1="549.5" x2="975.5" y1="807.7344" y2="807.7344"/><text fill="#000000" font-family="Arial" font-size="11" lengthAdjust="spacing" textLength="228" x="556.5" y="803.4033">INSERT INTO reservations (spotId, userId, date)</text><polygon fill="#444444" points="1178.5,830.0234,1188.5,834.0234,1178.5,838.0234,1182.5,834.0234" style="stroke:#444444;stroke-width:1.0;"/><line style="stroke:#444444;stroke-width:1.2;" x1="981.5" x2="1184.5" y1="834.0234" y2="834.0234"/><text fill="#000000" font-family="Arial" font-size="11" lengthAdjust="spacing" textLength="35" x="988.5" y="829.6924">INSERT</text><path d="M225,849.0234 L283,849.0234 L283,853.3125 L273,863.3125 L225,863.3125 L225,849.0234 " fill="#EEEEEE" style="stroke:#000000;stroke-width:1.5;"/><rect fill="none" height="225.6016" style="stroke:#000000;stroke-width:1.5;" width="1007.5" x="225" y="849.0234"/><text fill="#000000" font-family="Arial" font-size="11" font-weight="bold" lengthAdjust="spacing" textLength="13" x="240" y="859.9814">alt</text><text fill="#000000" font-family="Arial" font-size="11" font-weight="bold" lengthAdjust="spacing" textLength="279" x="298" y="860.9814">[constraint violation (spot o usuario ya reservado)]</text><polygon fill="#444444" points="992.5,877.6016,982.5,881.6016,992.5,885.6016,988.5,881.6016" style="stroke:#444444;stroke-width:1.0;"/><line style="stroke:#444444;stroke-width:1.2;stroke-dasharray:2.0,2.0;" x1="986.5" x2="1189.5" y1="881.6016" y2="881.6016"/><text fill="#000000" font-family="Arial" font-size="11" lengthAdjust="spacing" textLength="98" x="998.5" y="877.2705">UniqueViolationError</text><polygon fill="#444444" points="560.5,903.8906,550.5,907.8906,560.5,911.8906,556.5,907.8906" style="stroke:#444444;stroke-width:1.0;"/><line style="stroke:#444444;stroke-width:1.2;stroke-dasharray:2.0,2.0;" x1="554.5" x2="980.5" y1="907.8906" y2="907.8906"/><text fill="#000000" font-family="Arial" font-size="11" lengthAdjust="spacing" textLength="24" x="566.5" y="903.5596">error</text><polygon fill="#444444" points="298.5,930.1797,288.5,934.1797,298.5,938.1797,294.5,934.1797" style="stroke:#444444;stroke-width:1.0;"/><line style="stroke:#444444;stroke-width:1.2;stroke-dasharray:2.0,2.0;" x1="292.5" x2="548.5" y1="934.1797" y2="934.1797"/><text fill="#000000" font-family="Arial" font-size="11" lengthAdjust="spacing" textLength="213" x="304.5" y="929.8486">ActionError("Esta plaza ya est&#225; reservada")</text><line style="stroke:#000000;stroke-width:1.0;stroke-dasharray:2.0,2.0;" x1="225" x2="1232.5" y1="943.1797" y2="943.1797"/><text fill="#000000" font-family="Arial" font-size="11" font-weight="bold" lengthAdjust="spacing" textLength="103" x="230" y="953.1377">[inserci&#243;n exitosa]</text><polygon fill="#444444" points="992.5,970.7578,982.5,974.7578,992.5,978.7578,988.5,974.7578" style="stroke:#444444;stroke-width:1.0;"/><line style="stroke:#444444;stroke-width:1.2;stroke-dasharray:2.0,2.0;" x1="986.5" x2="1189.5" y1="974.7578" y2="974.7578"/><text fill="#000000" font-family="Arial" font-size="11" lengthAdjust="spacing" textLength="22" x="998.5" y="970.4268">{ id }</text><polygon fill="#444444" points="560.5,997.0469,550.5,1001.0469,560.5,1005.0469,556.5,1001.0469" style="stroke:#444444;stroke-width:1.0;"/><line style="stroke:#444444;stroke-width:1.2;stroke-dasharray:2.0,2.0;" x1="554.5" x2="980.5" y1="1001.0469" y2="1001.0469"/><text fill="#000000" font-family="Arial" font-size="11" lengthAdjust="spacing" textLength="22" x="566.5" y="996.7158">{ id }</text><line style="stroke:#444444;stroke-width:1.2;" x1="549.5" x2="591.5" y1="1027.3359" y2="1027.3359"/><line style="stroke:#444444;stroke-width:1.2;" x1="591.5" x2="591.5" y1="1027.3359" y2="1040.3359"/><line style="stroke:#444444;stroke-width:1.2;" x1="550.5" x2="591.5" y1="1040.3359" y2="1040.3359"/><polygon fill="#444444" points="560.5,1036.3359,550.5,1040.3359,560.5,1044.3359,556.5,1040.3359" style="stroke:#444444;stroke-width:1.0;"/><text fill="#000000" font-family="Arial" font-size="11" lengthAdjust="spacing" textLength="122" x="556.5" y="1023.0049">revalidatePath("/parking")</text><polygon fill="#444444" points="298.5,1062.625,288.5,1066.625,298.5,1070.625,294.5,1066.625" style="stroke:#444444;stroke-width:1.0;"/><line style="stroke:#444444;stroke-width:1.2;stroke-dasharray:2.0,2.0;" x1="292.5" x2="548.5" y1="1066.625" y2="1066.625"/><text fill="#000000" font-family="Arial" font-size="11" lengthAdjust="spacing" textLength="104" x="304.5" y="1062.2939">ActionSuccess({ id })</text><polygon fill="#444444" points="49,1102.9141,39,1106.9141,49,1110.9141,45,1106.9141" style="stroke:#444444;stroke-width:1.0;"/><line style="stroke:#444444;stroke-width:1.2;stroke-dasharray:2.0,2.0;" x1="43" x2="286.5" y1="1106.9141" y2="1106.9141"/><text fill="#000000" font-family="Arial" font-size="11" lengthAdjust="spacing" textLength="153" x="55" y="1102.583">confirmaci&#243;n / mensaje de error</text><!--SRC=[XLLjRkCs4FslKmpSFpQQECYYNQ0BR05RTj80sIIrxEwFfWZ6qjXcGvCkIRbn5dkOFKEFa8jrXf9SEH-eWSJIyCsRnvb7sjyhiq67QoXeWQKEPzQ4ArmJ39n2dVZNrZFrI71wsbhqz5T99gU1S_RlwKhbzuQyXzF-kxT0gTNMmNS_nCyheA5z65fNaAk1xuht-DEY1UJ_GULgWoPKm7RP7rl0EURtIsTBKzHKP_6J9445JP1HBWKLVW17djmMtOt6H-psaWJpm0cTyNgZ2GjxQxe6jxJaHzVh07gO9IqPq9baATpWacxD2STPmJAY9FGCIDwMBgSKDPa27JEdMX4lfNQziOQVgW9fUfYOEy90aqfeKDPqUxScunToCCWb4DEomM7Qaa9QEiUqCywK72p3wcH5UaFEnvG11rua3RJUIxLcePPUSlFus0zLOhfO7kQDd7fyvCvUJpxnlefvjPFHC2amu1mzGUV6-h1qbFrwMJNeF4bcSFnpx1HyWFFn59eE9Z76QwCXhuYcBIgDSqtPnWRVPL8w0jwP2hkBefSmJ8ZE6PoDByVf5BpWZfhfIe_uBMUZo5F2oEE6dNtf8y5_KgJ8PnLMMS1G-j__gEKmO2O9F3rk8EJr7E7xM0sqyg7UKfeopfEcFETw20lALmWxs8Z9e52CDuftap2mPbsNv8EJnQTlsYujdps8FNThpDNJFwR5tCIRxIKrJpQGnHTk-HBrtQdY2AHnyBMNC9BnClwglmT6IMByk26KDrc0Bo0K6sSNYYVzDQbPs0lra5uQfzCSYVQq967FVfZ1DURMIiOT6Pat5rpZmnqMM-GBugx07S-nt-zBUTJXEHe-mWArfmI4_RXfM7LAndm7kMxdairNDyu3D_tfc-5c-nNEbLO12_ITNa9CyWfvS6N3NUlVebRIrM657V5ZRS_gnFJsyEYssfvda-jFbKVXyo_ZoPWxo-prc3YZPMY-6jsEGstFYa75k3MoqL8DoDKTdUushKCY3NjJIVkOr89AZbo8A7deixp1rQYopyVuzVyY-TmSLhouoiQJANzDhmyhTcNZ5oozAbhPj7TOeKhcc4oTMok7HV7DirLMHvgA1IoJbEYKXTt-V1HMo0xLpOnYqRyrsT4R4THkAEsZRxffx0FMvveBHZljos97waOhASEXU8w17bIm7byeakdnb9vhQ8LRjdFK6Ey6mwhRsV_szDwGcvMvN7_TYYxgCaKYV_7og6-XWni7Jc1DnkEV99THrOj_0G00]--></g></svg>